M48
; DRILL file {KiCad 8.0.0} date 2024-05-24T13:22:24-0400
; FORMAT={-:-/ absolute / inch / decimal}
; #@! TF.CreationDate,2024-05-24T13:22:24-04:00
; #@! TF.GenerationSoftware,Kicad,Pcbnew,8.0.0
; #@! TF.FileFunction,Plated,1,4,PTH
FMAT,2
INCH
; #@! TA.AperFunction,Plated,PTH,ViaDrill
T1C0.0098
; #@! TA.AperFunction,Plated,PTH,ViaDrill
T2C0.0118
; #@! TA.AperFunction,Plated,PTH,ViaDrill
T3C0.0197
; #@! TA.AperFunction,Plated,PTH,ComponentDrill
T4C0.0394
; #@! TA.AperFunction,Plated,PTH,ComponentDrill
T5C0.0598
; #@! TA.AperFunction,Plated,PTH,ComponentDrill
T6C0.0630
%
G90
G05
T1
X3.7894Y-5.2461
X3.8681Y-5.2475
X4.1197Y-4.0748
X4.1671Y-3.7567
X4.3799Y-2.9528
X4.3799Y-2.9823
X4.3799Y-3.0118
X4.3898Y-4.1634
X4.4094Y-2.9528
X4.4094Y-2.9823
X4.4094Y-3.0118
X4.4783Y-4.1437
X4.6358Y-4.0846
X4.6358Y-4.6161
T2
X3.7894Y-4.813
X3.8268Y-3.2402
X3.8268Y-3.5984
X3.8287Y-3.1201
X3.8287Y-3.6874
X3.8287Y-4.7638
X3.8287Y-5.1575
X3.8386Y-3.7992
X3.8425Y-3.8858
X3.8484Y-4.5276
X3.8583Y-4.439
X3.8681Y-4.7933
X3.878Y-4.3406
X3.8878Y-5.3248
X3.9272Y-5.3051
X3.9961Y-4.752
X4.0177Y-3.8957
X4.0256Y-3.3071
X4.0256Y-4.7835
X4.0453Y-4.0256
X4.0453Y-4.065
X4.0551Y-3.7795
X4.0748Y-3.5935
X4.0768Y-4.2889
X4.0827Y-3.9213
X4.0856Y-3.8891
X4.1142Y-4.2151
X4.1142Y-4.2874
X4.1152Y-3.8386
X4.1171Y-3.9862
X4.128Y-3.7146
X4.1496Y-3.9078
X4.1634Y-4.5494
X4.1831Y-3.9961
X4.1929Y-4.813
X4.2028Y-3.811
X4.2126Y-3.8681
X4.2126Y-3.8976
X4.2126Y-3.9272
X4.2126Y-4.1073
X4.2288Y-3.7451
X4.2421Y-3.8681
X4.2421Y-3.8976
X4.2421Y-3.9272
X4.2421Y-4.0059
X4.2441Y-3.5039
X4.2574Y-3.7999
X4.2717Y-3.8681
X4.2717Y-3.8976
X4.2717Y-3.9272
X4.2717Y-4.0423
X4.3171Y-3.7567
X4.3332Y-3.8189
X4.3344Y-3.8681
X4.3602Y-3.4843
X4.3602Y-3.6319
X4.4094Y-3.9163
X4.5177Y-3.3661
X4.5669Y-3.7087
X4.5709Y-3.8563
X4.6161Y-3.7402
X4.6161Y-3.9173
X4.7756Y-5.3287
X4.7894Y-5.2776
X4.7933Y-3.3661
X4.7933Y-3.5039
X4.7933Y-4.2323
X4.7933Y-4.3874
X4.7933Y-4.4882
X4.8031Y-3.4449
X4.8031Y-3.6319
X4.8031Y-3.7303
X4.8031Y-3.8386
X4.8031Y-4.0354
X4.8031Y-4.1339
X4.811Y-3.9291
T3
X3.878Y-3.0512
X4.1929Y-3.1594
X4.2323Y-3.1594
X4.2717Y-3.1594
X4.2866Y-3.6244
X4.311Y-3.1594
X4.5079Y-3.5531
T4
X3.9307Y-3.1874
X3.9307Y-3.2874
X3.9307Y-3.3874
X3.9307Y-3.4874
X3.9307Y-3.5874
X3.9307Y-3.6874
X3.9307Y-3.7874
X3.9307Y-3.8874
X3.9307Y-3.9874
X3.9307Y-4.0874
X3.9307Y-4.1874
X3.9307Y-4.2874
X3.9307Y-4.3874
X3.9307Y-4.4874
X3.9307Y-4.5874
X3.9307Y-4.6874
X4.7307Y-3.5874
X4.7307Y-3.6874
X4.7307Y-3.7874
X4.7307Y-3.8874
X4.7307Y-3.9874
X4.7307Y-4.0874
X4.7307Y-4.1874
X4.7307Y-4.2874
X4.7307Y-4.3874
X4.7307Y-4.4874
X4.7307Y-4.5874
X4.7307Y-4.6874
T5
X4.0307Y-5.1969
X4.2307Y-2.6772
X4.2307Y-5.1969
X4.4307Y-2.6772
X4.4307Y-5.1969
X4.6307Y-5.1969
T6
X4.0307Y-2.6772
X4.6307Y-2.6772
M30
