%TF.GenerationSoftware,KiCad,Pcbnew,8.0.0*%
%TF.CreationDate,2024-05-28T22:42:53-04:00*%
%TF.ProjectId,MPPT Charge Controller,4d505054-2043-4686-9172-676520436f6e,0.2*%
%TF.SameCoordinates,Original*%
%TF.FileFunction,Copper,L4,Bot*%
%TF.FilePolarity,Positive*%
%FSLAX46Y46*%
G04 Gerber Fmt 4.6, Leading zero omitted, Abs format (unit mm)*
G04 Created by KiCad (PCBNEW 8.0.0) date 2024-05-28 22:42:53*
%MOMM*%
%LPD*%
G01*
G04 APERTURE LIST*
G04 Aperture macros list*
%AMRoundRect*
0 Rectangle with rounded corners*
0 $1 Rounding radius*
0 $2 $3 $4 $5 $6 $7 $8 $9 X,Y pos of 4 corners*
0 Add a 4 corners polygon primitive as box body*
4,1,4,$2,$3,$4,$5,$6,$7,$8,$9,$2,$3,0*
0 Add four circle primitives for the rounded corners*
1,1,$1+$1,$2,$3*
1,1,$1+$1,$4,$5*
1,1,$1+$1,$6,$7*
1,1,$1+$1,$8,$9*
0 Add four rect primitives between the rounded corners*
20,1,$1+$1,$2,$3,$4,$5,0*
20,1,$1+$1,$4,$5,$6,$7,0*
20,1,$1+$1,$6,$7,$8,$9,0*
20,1,$1+$1,$8,$9,$2,$3,0*%
G04 Aperture macros list end*
%TA.AperFunction,EtchedComponent*%
%ADD10C,0.000000*%
%TD*%
%TA.AperFunction,SMDPad,CuDef*%
%ADD11RoundRect,0.225000X-0.250000X0.225000X-0.250000X-0.225000X0.250000X-0.225000X0.250000X0.225000X0*%
%TD*%
%TA.AperFunction,SMDPad,CuDef*%
%ADD12RoundRect,0.100000X0.225000X0.100000X-0.225000X0.100000X-0.225000X-0.100000X0.225000X-0.100000X0*%
%TD*%
%TA.AperFunction,ComponentPad*%
%ADD13RoundRect,0.250000X-1.050000X-0.550000X1.050000X-0.550000X1.050000X0.550000X-1.050000X0.550000X0*%
%TD*%
%TA.AperFunction,ComponentPad*%
%ADD14O,2.600000X1.600000*%
%TD*%
%TA.AperFunction,ComponentPad*%
%ADD15C,3.000000*%
%TD*%
%TA.AperFunction,ComponentPad*%
%ADD16R,3.000000X3.000000*%
%TD*%
%TA.AperFunction,SMDPad,CuDef*%
%ADD17C,0.500000*%
%TD*%
%TA.AperFunction,SMDPad,CuDef*%
%ADD18RoundRect,0.200000X-0.200000X-0.275000X0.200000X-0.275000X0.200000X0.275000X-0.200000X0.275000X0*%
%TD*%
%TA.AperFunction,SMDPad,CuDef*%
%ADD19RoundRect,0.218750X-0.256250X0.218750X-0.256250X-0.218750X0.256250X-0.218750X0.256250X0.218750X0*%
%TD*%
%TA.AperFunction,SMDPad,CuDef*%
%ADD20RoundRect,0.225000X0.225000X0.250000X-0.225000X0.250000X-0.225000X-0.250000X0.225000X-0.250000X0*%
%TD*%
%TA.AperFunction,SMDPad,CuDef*%
%ADD21RoundRect,0.150000X0.150000X-0.587500X0.150000X0.587500X-0.150000X0.587500X-0.150000X-0.587500X0*%
%TD*%
%TA.AperFunction,SMDPad,CuDef*%
%ADD22RoundRect,0.200000X0.200000X0.275000X-0.200000X0.275000X-0.200000X-0.275000X0.200000X-0.275000X0*%
%TD*%
%TA.AperFunction,SMDPad,CuDef*%
%ADD23RoundRect,0.150000X0.587500X0.150000X-0.587500X0.150000X-0.587500X-0.150000X0.587500X-0.150000X0*%
%TD*%
%TA.AperFunction,ViaPad*%
%ADD24C,0.500000*%
%TD*%
%TA.AperFunction,ViaPad*%
%ADD25C,1.000000*%
%TD*%
%TA.AperFunction,Conductor*%
%ADD26C,0.250000*%
%TD*%
%TA.AperFunction,Conductor*%
%ADD27C,0.150000*%
%TD*%
%TA.AperFunction,Conductor*%
%ADD28C,1.000000*%
%TD*%
%TA.AperFunction,Conductor*%
%ADD29C,0.500000*%
%TD*%
G04 APERTURE END LIST*
D10*
%TA.AperFunction,EtchedComponent*%
%TO.C,NT2*%
G36*
X108000000Y-98250000D02*
G01*
X107500000Y-98250000D01*
X107500000Y-97250000D01*
X108000000Y-97250000D01*
X108000000Y-98250000D01*
G37*
%TD.AperFunction*%
%TA.AperFunction,EtchedComponent*%
%TO.C,NT4*%
G36*
X108000000Y-100750000D02*
G01*
X107500000Y-100750000D01*
X107500000Y-99750000D01*
X108000000Y-99750000D01*
X108000000Y-100750000D01*
G37*
%TD.AperFunction*%
%TA.AperFunction,EtchedComponent*%
%TO.C,NT1*%
G36*
X109500000Y-99250000D02*
G01*
X108500000Y-99250000D01*
X108500000Y-98750000D01*
X109500000Y-98750000D01*
X109500000Y-99250000D01*
G37*
%TD.AperFunction*%
%TA.AperFunction,EtchedComponent*%
%TO.C,NT3*%
G36*
X107000000Y-99250000D02*
G01*
X106000000Y-99250000D01*
X106000000Y-98750000D01*
X107000000Y-98750000D01*
X107000000Y-99250000D01*
G37*
%TD.AperFunction*%
%TD*%
D11*
%TO.P,C15,1*%
%TO.N,+3.3V*%
X111475000Y-106725000D03*
%TO.P,C15,2*%
%TO.N,PWR GND*%
X111475000Y-108275000D03*
%TD*%
D12*
%TO.P,U5,1,VDD*%
%TO.N,+3.3V*%
X109650000Y-106850000D03*
%TO.P,U5,2,VSS*%
%TO.N,PWR GND*%
X109650000Y-107500000D03*
%TO.P,U5,3,SCL*%
%TO.N,/SCL*%
X109650000Y-108150000D03*
%TO.P,U5,4,SDA*%
%TO.N,/SDA*%
X107750000Y-108150000D03*
%TO.P,U5,5,W*%
%TO.N,/MPPSET*%
X107750000Y-107500000D03*
%TO.P,U5,6,A*%
%TO.N,unconnected-(U5-A-Pad6)*%
X107750000Y-106850000D03*
%TD*%
D13*
%TO.P,A1,1,~{RESET}*%
%TO.N,unconnected-(A1-~{RESET}-Pad1)*%
X100140000Y-80960000D03*
D14*
%TO.P,A1,2,3V3*%
%TO.N,+3.3V*%
X100140000Y-83500000D03*
%TO.P,A1,3,NC*%
%TO.N,unconnected-(A1-NC-Pad3)*%
X100140000Y-86040000D03*
%TO.P,A1,4,GND*%
%TO.N,GND*%
X100140000Y-88580000D03*
%TO.P,A1,5,DAC2/A0*%
%TO.N,/Solar Voltage*%
X100140000Y-91120000D03*
%TO.P,A1,6,DAC1/A1*%
%TO.N,/Solar Current*%
X100140000Y-93660000D03*
%TO.P,A1,7,I34/A2*%
%TO.N,/Battery Voltage*%
X100140000Y-96200000D03*
%TO.P,A1,8,I39/A3*%
%TO.N,/Battery Current*%
X100140000Y-98740000D03*
%TO.P,A1,9,IO36/A4*%
%TO.N,unconnected-(A1-IO36{slash}A4-Pad9)*%
X100140000Y-101280000D03*
%TO.P,A1,10,IO4/A5*%
%TO.N,unconnected-(A1-IO4{slash}A5-Pad10)*%
X100140000Y-103820000D03*
%TO.P,A1,11,SCK/IO5*%
%TO.N,unconnected-(A1-SCK{slash}IO5-Pad11)*%
X100140000Y-106360000D03*
%TO.P,A1,12,MOSI/IO18*%
%TO.N,unconnected-(A1-MOSI{slash}IO18-Pad12)*%
X100140000Y-108900000D03*
%TO.P,A1,13,MISO/IO19*%
%TO.N,unconnected-(A1-MISO{slash}IO19-Pad13)*%
X100140000Y-111440000D03*
%TO.P,A1,14,RX/IO16*%
%TO.N,unconnected-(A1-RX{slash}IO16-Pad14)*%
X100140000Y-113980000D03*
%TO.P,A1,15,TX/IO17*%
%TO.N,unconnected-(A1-TX{slash}IO17-Pad15)*%
X100140000Y-116520000D03*
%TO.P,A1,16,TXD0*%
%TO.N,unconnected-(A1-TXD0-Pad16)*%
X100140000Y-119060000D03*
%TO.P,A1,17,SDA/IO23*%
%TO.N,/SDA*%
X119860000Y-119060000D03*
%TO.P,A1,18,SCL/IO22*%
%TO.N,/SCL*%
X119860000Y-116520000D03*
%TO.P,A1,19,D5*%
%TO.N,/STAT1*%
X119860000Y-113980000D03*
%TO.P,A1,20,D6*%
%TO.N,/STAT2*%
X119860000Y-111440000D03*
%TO.P,A1,21,D9*%
%TO.N,/~{Charge EN}*%
X119860000Y-108900000D03*
%TO.P,A1,22,D10*%
%TO.N,/SD_CS*%
X119860000Y-106360000D03*
%TO.P,A1,23,D11*%
%TO.N,/Load Enable*%
X119860000Y-103820000D03*
%TO.P,A1,24,D12*%
%TO.N,unconnected-(A1-D12-Pad24)*%
X119860000Y-101280000D03*
%TO.P,A1,25,D13*%
%TO.N,unconnected-(A1-D13-Pad25)*%
X119860000Y-98740000D03*
%TO.P,A1,26,VBUS*%
%TO.N,unconnected-(A1-VBUS-Pad26)*%
X119860000Y-96200000D03*
%TO.P,A1,27,EN*%
%TO.N,unconnected-(A1-EN-Pad27)*%
X119860000Y-93660000D03*
%TO.P,A1,28,VBAT*%
%TO.N,unconnected-(A1-VBAT-Pad28)*%
X119860000Y-91120000D03*
%TD*%
D15*
%TO.P,TP15,1,1*%
%TO.N,/Input*%
X117620000Y-68000000D03*
%TD*%
%TO.P,TP14,1,1*%
%TO.N,GND*%
X102380000Y-68000000D03*
%TD*%
%TO.P,J3,2,Pin_2*%
%TO.N,Net-(J2-Pin_2)*%
X112540000Y-132000000D03*
D16*
%TO.P,J3,1,Pin_1*%
%TO.N,Net-(J3-Pin_1)*%
X117620000Y-132000000D03*
%TD*%
D15*
%TO.P,J2,2,Pin_2*%
%TO.N,Net-(J2-Pin_2)*%
X102380000Y-132000000D03*
D16*
%TO.P,J2,1,Pin_1*%
%TO.N,GND*%
X107460000Y-132000000D03*
%TD*%
D15*
%TO.P,J1,2,Pin_2*%
%TO.N,/Input*%
X112540000Y-68000000D03*
D16*
%TO.P,J1,1,Pin_1*%
%TO.N,GND*%
X107460000Y-68000000D03*
%TD*%
D11*
%TO.P,C4,1*%
%TO.N,/RGEN*%
X112000000Y-99475000D03*
%TO.P,C4,2*%
%TO.N,GND*%
X112000000Y-101025000D03*
%TD*%
D17*
%TO.P,NT2,1,1*%
%TO.N,PWR GND*%
X107750000Y-98250000D03*
%TO.P,NT2,2,2*%
%TO.N,GND*%
X107750000Y-97250000D03*
%TD*%
D18*
%TO.P,R6,1*%
%TO.N,Net-(D1-K)*%
X102925000Y-98250000D03*
%TO.P,R6,2*%
%TO.N,/VCC*%
X104575000Y-98250000D03*
%TD*%
D19*
%TO.P,D4,1,K*%
%TO.N,/STAT2*%
X96250000Y-131675000D03*
%TO.P,D4,2,A*%
%TO.N,Net-(D4-A)*%
X96250000Y-133250000D03*
%TD*%
D18*
%TO.P,R9,1*%
%TO.N,/VREF*%
X102925000Y-99750000D03*
%TO.P,R9,2*%
%TO.N,/TS*%
X104575000Y-99750000D03*
%TD*%
D17*
%TO.P,NT4,1,1*%
%TO.N,PWR GND*%
X107750000Y-99750000D03*
%TO.P,NT4,2,2*%
%TO.N,GND*%
X107750000Y-100750000D03*
%TD*%
D20*
%TO.P,C5,2*%
%TO.N,/BTST*%
X106725000Y-96250000D03*
%TO.P,C5,1*%
%TO.N,/PH*%
X108275000Y-96250000D03*
%TD*%
D19*
%TO.P,D3,1,K*%
%TO.N,/STAT1*%
X98250000Y-131712500D03*
%TO.P,D3,2,A*%
%TO.N,Net-(D3-A)*%
X98250000Y-133287500D03*
%TD*%
D21*
%TO.P,Q3,1,G*%
%TO.N,/~{Charge EN}*%
X105450000Y-108937500D03*
%TO.P,Q3,2,S*%
%TO.N,PWR GND*%
X103550000Y-108937500D03*
%TO.P,Q3,3,D*%
%TO.N,/MPPSET*%
X104500000Y-107062500D03*
%TD*%
D22*
%TO.P,R10,1*%
%TO.N,/TS*%
X104575000Y-101250000D03*
%TO.P,R10,2*%
%TO.N,PWR GND*%
X102925000Y-101250000D03*
%TD*%
D17*
%TO.P,NT1,1,1*%
%TO.N,PWR GND*%
X108500000Y-99000000D03*
%TO.P,NT1,2,2*%
%TO.N,GND*%
X109500000Y-99000000D03*
%TD*%
%TO.P,NT3,1,1*%
%TO.N,PWR GND*%
X107000000Y-99000000D03*
%TO.P,NT3,2,2*%
%TO.N,GND*%
X106000000Y-99000000D03*
%TD*%
D20*
%TO.P,C2,1*%
%TO.N,/VCC*%
X104525000Y-96750000D03*
%TO.P,C2,2*%
%TO.N,PWR GND*%
X102975000Y-96750000D03*
%TD*%
D23*
%TO.P,D2,3*%
%TO.N,/BTST*%
X110062500Y-97000000D03*
%TO.P,D2,2*%
%TO.N,/RGEN*%
X111937500Y-97950000D03*
%TO.P,D2,1*%
%TO.N,unconnected-(D2-Pad1)*%
X111937500Y-96050000D03*
%TD*%
D24*
%TO.N,GND*%
X108750000Y-110000000D03*
%TO.N,+3.3V*%
X111475000Y-106750000D03*
%TO.N,PWR GND*%
X108500000Y-104325000D03*
%TO.N,/MPPSET*%
X107750000Y-107500000D03*
%TO.N,/SCL*%
X109655000Y-117250000D03*
%TO.N,/SDA*%
X107750000Y-119000000D03*
%TO.N,/TS*%
X104575000Y-101250000D03*
%TO.N,/VCC*%
X116100000Y-97950002D03*
X116000000Y-94200000D03*
X104850000Y-94350000D03*
%TO.N,/STAT2*%
X106250000Y-101500000D03*
%TO.N,/MPPSET*%
X103775000Y-98782635D03*
%TO.N,/TS*%
X104641320Y-103499654D03*
%TO.N,/Load Enable*%
X117750000Y-103750000D03*
X117750000Y-117250000D03*
%TO.N,Net-(D4-A)*%
X96250000Y-133250000D03*
%TO.N,Net-(D3-A)*%
X98250000Y-133287500D03*
%TO.N,GND*%
X111250000Y-76500000D03*
X112000000Y-76500000D03*
X111250000Y-75750000D03*
X112000000Y-75750000D03*
X112000000Y-75000000D03*
X111250000Y-75000000D03*
X113750000Y-105250000D03*
X111500000Y-105750000D03*
%TO.N,Net-(U1-SRN)*%
X105750000Y-115555000D03*
X107000000Y-104325000D03*
%TO.N,/PH*%
X114750000Y-85500000D03*
X121750000Y-85500000D03*
%TO.N,/LODRV*%
X109655000Y-95420000D03*
X110750000Y-88500000D03*
X122000000Y-87500000D03*
%TO.N,/HIDRV*%
X107410464Y-95124536D03*
X107800000Y-89000000D03*
X121750000Y-89000000D03*
%TO.N,/BTST*%
X110062500Y-97000000D03*
X110750000Y-92250000D03*
X122000000Y-92250000D03*
%TO.N,/RGEN*%
X112000000Y-99475000D03*
X117250000Y-99500000D03*
X117250000Y-95000000D03*
X122000000Y-94750000D03*
%TO.N,/VREF*%
X122200000Y-99800000D03*
%TO.N,/VCC*%
X104525000Y-97500000D03*
X122000000Y-97500000D03*
%TO.N,/VFB*%
X108500000Y-102675000D03*
X122000000Y-102500000D03*
%TO.N,/TS*%
X122000000Y-105000000D03*
%TO.N,/MPPSET*%
X121750000Y-107500000D03*
%TO.N,/~{Charge EN}*%
X104500000Y-108900000D03*
%TO.N,/MPPSET*%
X104500000Y-107062500D03*
%TO.N,/VREF*%
X103700000Y-99600000D03*
X107750000Y-101750000D03*
%TO.N,/STAT2*%
X121300000Y-135350000D03*
X121750000Y-111440000D03*
X98750000Y-135250000D03*
%TO.N,/STAT1*%
X99750000Y-134750000D03*
X121650000Y-134050000D03*
X121750000Y-114000000D03*
%TO.N,/Battery Voltage*%
X97500000Y-96500000D03*
X97750000Y-115000000D03*
%TO.N,/Battery Current*%
X97600000Y-98700000D03*
X98000000Y-112750000D03*
%TO.N,Net-(D1-K)*%
X103500000Y-91275000D03*
%TO.N,+3.3V*%
X98500000Y-110250000D03*
%TO.N,/Solar Voltage*%
X97200000Y-91400000D03*
X97200000Y-82300000D03*
D25*
%TO.N,/Input*%
X109500000Y-80250000D03*
X108500000Y-80250000D03*
X107500000Y-80250000D03*
X106500000Y-80250000D03*
D24*
%TO.N,/VIN*%
X102050000Y-98950000D03*
X102250000Y-84000000D03*
%TO.N,/STAT2*%
X106500000Y-122250000D03*
X96250000Y-122250000D03*
%TO.N,/STAT1*%
X98250000Y-121750000D03*
X102250000Y-121500000D03*
X105400000Y-99257149D03*
%TO.N,/PH*%
X108137501Y-96517501D03*
D25*
X114500000Y-90250000D03*
D24*
%TO.N,/VREF*%
X97250000Y-131000000D03*
X97250000Y-121000000D03*
X101500000Y-120700000D03*
X102750000Y-103250000D03*
%TO.N,/RGEN*%
X110094384Y-98250000D03*
%TO.N,/BTST*%
X106750000Y-96800000D03*
D25*
%TO.N,/PH*%
X108880000Y-92060000D03*
D24*
X105845000Y-95420000D03*
D25*
%TO.N,+3.3V*%
X98500000Y-77500000D03*
D24*
%TO.N,/Solar Current*%
X97250000Y-93660000D03*
X97250000Y-79250000D03*
%TO.N,PWR GND*%
X107750000Y-99750000D03*
X102750000Y-102250000D03*
X103000000Y-96000000D03*
X107000000Y-98250000D03*
X107750000Y-98250000D03*
X107000000Y-99750000D03*
X108500000Y-99000000D03*
X103550000Y-108937500D03*
X108500000Y-98250000D03*
X107750000Y-99000000D03*
X108500000Y-99750000D03*
X107000000Y-99000000D03*
%TD*%
D26*
%TO.N,PWR GND*%
X109371188Y-107500000D02*
X108500000Y-106628812D01*
X108500000Y-106628812D02*
X108500000Y-104325000D01*
X109650000Y-107500000D02*
X109371188Y-107500000D01*
X110700000Y-107500000D02*
X111475000Y-108275000D01*
X109650000Y-107500000D02*
X110700000Y-107500000D01*
%TO.N,+3.3V*%
X111350000Y-106850000D02*
X111475000Y-106725000D01*
X109650000Y-106850000D02*
X111350000Y-106850000D01*
%TO.N,/SCL*%
X109650000Y-117245000D02*
X109655000Y-117250000D01*
X109650000Y-108150000D02*
X109650000Y-117245000D01*
%TO.N,/SDA*%
X107750000Y-108150000D02*
X107750000Y-119000000D01*
%TO.N,/STAT2*%
X122400000Y-112090000D02*
X121750000Y-111440000D01*
X122400000Y-134250000D02*
X122400000Y-112090000D01*
X121300000Y-135350000D02*
X122400000Y-134250000D01*
%TO.N,/STAT1*%
X121750000Y-133950000D02*
X121750000Y-114000000D01*
X121650000Y-134050000D02*
X121750000Y-133950000D01*
%TO.N,/TS*%
X104575000Y-99750000D02*
X104575000Y-101250000D01*
D27*
%TO.N,/VREF*%
X103700000Y-99600000D02*
X103550000Y-99750000D01*
X103550000Y-99750000D02*
X102925000Y-99750000D01*
D26*
%TO.N,/VIN*%
X102050000Y-98950000D02*
X102050000Y-84200000D01*
X102050000Y-84200000D02*
X102250000Y-84000000D01*
%TO.N,/RGEN*%
X111637500Y-98250000D02*
X111937500Y-97950000D01*
X110094384Y-98250000D02*
X111637500Y-98250000D01*
%TO.N,/BTST*%
X106725000Y-96775000D02*
X106725000Y-96250000D01*
X106750000Y-96800000D02*
X106725000Y-96775000D01*
%TO.N,/STAT2*%
X106750000Y-122000000D02*
X106500000Y-122250000D01*
X106250000Y-105250000D02*
X106750000Y-105750000D01*
X106250000Y-101500000D02*
X106250000Y-105250000D01*
X106750000Y-105750000D02*
X106750000Y-122000000D01*
%TO.N,/~{Charge EN}*%
X104500000Y-108900000D02*
X104537500Y-108937500D01*
X104537500Y-108937500D02*
X105450000Y-108937500D01*
%TO.N,+3.3V*%
X98200000Y-83050000D02*
X98250000Y-83000000D01*
X98200000Y-98444400D02*
X98200000Y-83050000D01*
X98205000Y-98950600D02*
X98205000Y-98449400D01*
X98200000Y-109950000D02*
X98200000Y-98955600D01*
X98500000Y-110250000D02*
X98200000Y-109950000D01*
X98200000Y-98955600D02*
X98205000Y-98950600D01*
X98205000Y-98449400D02*
X98200000Y-98444400D01*
%TO.N,/Solar Voltage*%
X97000000Y-91200000D02*
X97000000Y-82500000D01*
X97000000Y-82500000D02*
X97200000Y-82300000D01*
X97200000Y-91400000D02*
X97000000Y-91200000D01*
%TO.N,/Solar Current*%
X96500000Y-92910000D02*
X97250000Y-93660000D01*
X96500000Y-80000000D02*
X96500000Y-92910000D01*
X97250000Y-79250000D02*
X96500000Y-80000000D01*
%TO.N,/Battery Current*%
X97200000Y-111950000D02*
X98000000Y-112750000D01*
X97200000Y-99100000D02*
X97200000Y-111950000D01*
X97600000Y-98700000D02*
X97200000Y-99100000D01*
%TO.N,/Battery Voltage*%
X96800000Y-97200000D02*
X97500000Y-96500000D01*
X96800000Y-114050000D02*
X96800000Y-97200000D01*
X97750000Y-115000000D02*
X96800000Y-114050000D01*
%TO.N,/VREF*%
X101500000Y-120700000D02*
X101765000Y-120435000D01*
X101765000Y-120435000D02*
X101765000Y-104235000D01*
X101765000Y-104235000D02*
X102750000Y-103250000D01*
%TO.N,/STAT1*%
X102250000Y-104750000D02*
X102250000Y-121500000D01*
X102298004Y-104750000D02*
X102250000Y-104750000D01*
X105400000Y-101648004D02*
X102298004Y-104750000D01*
X105400000Y-99257149D02*
X105400000Y-101648004D01*
%TO.N,/STAT2*%
X96425000Y-131675000D02*
X96250000Y-131675000D01*
X97250000Y-132500000D02*
X96425000Y-131675000D01*
X97250000Y-133750000D02*
X97250000Y-132500000D01*
X98750000Y-135250000D02*
X97250000Y-133750000D01*
%TO.N,/STAT1*%
X99250000Y-132000000D02*
X98962500Y-131712500D01*
X99750000Y-134750000D02*
X99250000Y-134250000D01*
X98962500Y-131712500D02*
X98250000Y-131712500D01*
X99250000Y-134250000D02*
X99250000Y-132000000D01*
%TO.N,/Load Enable*%
X117750000Y-103750000D02*
X117750000Y-117250000D01*
%TO.N,/VCC*%
X104525000Y-97500000D02*
X104525000Y-98200000D01*
X104525000Y-96750000D02*
X104525000Y-97500000D01*
%TO.N,Net-(D1-K)*%
X103750000Y-98000000D02*
X103750000Y-91525000D01*
X103000000Y-98000000D02*
X103750000Y-98000000D01*
X102925000Y-98075000D02*
X103000000Y-98000000D01*
X102925000Y-98250000D02*
X102925000Y-98075000D01*
X103750000Y-91525000D02*
X103500000Y-91275000D01*
%TO.N,/STAT2*%
X96250000Y-131675000D02*
X96250000Y-122250000D01*
%TO.N,/STAT1*%
X98250000Y-121750000D02*
X98250000Y-131712500D01*
%TO.N,/VREF*%
X97250000Y-121000000D02*
X97250000Y-131000000D01*
%TO.N,/VCC*%
X104525000Y-98200000D02*
X104575000Y-98250000D01*
%TO.N,/RGEN*%
X112000000Y-99475000D02*
X112000000Y-98012500D01*
X112000000Y-98012500D02*
X111937500Y-97950000D01*
D28*
%TO.N,/PH*%
X108880000Y-92060000D02*
X108875618Y-92060000D01*
D29*
%TO.N,+3.3V*%
X98250000Y-77750000D02*
X98250000Y-83000000D01*
X98250000Y-83000000D02*
X98750000Y-83500000D01*
X98750000Y-83500000D02*
X99840000Y-83500000D01*
X98500000Y-77500000D02*
X98250000Y-77750000D01*
D26*
%TO.N,PWR GND*%
X103000000Y-96725000D02*
X102975000Y-96750000D01*
X102925000Y-102075000D02*
X102750000Y-102250000D01*
X103000000Y-96000000D02*
X103000000Y-96725000D01*
X102925000Y-101250000D02*
X102925000Y-102075000D01*
%TD*%
%TA.AperFunction,Conductor*%
%TO.N,GND*%
G36*
X98780703Y-86562776D02*
G01*
X98802602Y-86587599D01*
X98862857Y-86677777D01*
X98862863Y-86677785D01*
X99002214Y-86817136D01*
X99002218Y-86817139D01*
X99166079Y-86926628D01*
X99166092Y-86926635D01*
X99342006Y-86999500D01*
X99348165Y-87002051D01*
X99348169Y-87002051D01*
X99348170Y-87002052D01*
X99541456Y-87040500D01*
X99541459Y-87040500D01*
X100738543Y-87040500D01*
X100868582Y-87014632D01*
X100931835Y-87002051D01*
X101113914Y-86926632D01*
X101277782Y-86817139D01*
X101417139Y-86677782D01*
X101447398Y-86632496D01*
X101501009Y-86587691D01*
X101570334Y-86578984D01*
X101633362Y-86609138D01*
X101670082Y-86668581D01*
X101674500Y-86701387D01*
X101674500Y-90458612D01*
X101654815Y-90525651D01*
X101602011Y-90571406D01*
X101532853Y-90581350D01*
X101469297Y-90552325D01*
X101447398Y-90527503D01*
X101417139Y-90482218D01*
X101417136Y-90482214D01*
X101277785Y-90342863D01*
X101277781Y-90342860D01*
X101113920Y-90233371D01*
X101113907Y-90233364D01*
X100931839Y-90157950D01*
X100931829Y-90157947D01*
X100738543Y-90119500D01*
X100738541Y-90119500D01*
X99541459Y-90119500D01*
X99541457Y-90119500D01*
X99348170Y-90157947D01*
X99348160Y-90157950D01*
X99166092Y-90233364D01*
X99166079Y-90233371D01*
X99002218Y-90342860D01*
X99002214Y-90342863D01*
X98862863Y-90482214D01*
X98862860Y-90482218D01*
X98802602Y-90572401D01*
X98748990Y-90617206D01*
X98679665Y-90625913D01*
X98616637Y-90595758D01*
X98579918Y-90536315D01*
X98575500Y-90503510D01*
X98575500Y-86656489D01*
X98595185Y-86589450D01*
X98647989Y-86543695D01*
X98717147Y-86533751D01*
X98780703Y-86562776D01*
G37*
%TD.AperFunction*%
%TA.AperFunction,Conductor*%
G36*
X123003736Y-60500726D02*
G01*
X123293796Y-60518271D01*
X123308659Y-60520076D01*
X123590798Y-60571780D01*
X123605335Y-60575363D01*
X123879172Y-60660695D01*
X123893163Y-60666000D01*
X124154743Y-60783727D01*
X124167989Y-60790680D01*
X124413465Y-60939075D01*
X124425776Y-60947573D01*
X124651573Y-61124473D01*
X124662781Y-61134403D01*
X124865596Y-61337218D01*
X124875526Y-61348426D01*
X124995481Y-61501538D01*
X125052422Y-61574217D01*
X125060926Y-61586537D01*
X125072532Y-61605735D01*
X125209316Y-61832004D01*
X125216275Y-61845263D01*
X125333997Y-62106831D01*
X125339306Y-62120832D01*
X125424635Y-62394663D01*
X125428219Y-62409201D01*
X125479923Y-62691340D01*
X125481728Y-62706205D01*
X125499274Y-62996263D01*
X125499500Y-63003750D01*
X125499500Y-136996249D01*
X125499274Y-137003736D01*
X125481728Y-137293794D01*
X125479923Y-137308659D01*
X125428219Y-137590798D01*
X125424635Y-137605336D01*
X125339306Y-137879167D01*
X125333997Y-137893168D01*
X125216275Y-138154736D01*
X125209316Y-138167995D01*
X125060928Y-138413459D01*
X125052422Y-138425782D01*
X124875526Y-138651573D01*
X124865596Y-138662781D01*
X124662781Y-138865596D01*
X124651573Y-138875526D01*
X124425782Y-139052422D01*
X124413459Y-139060928D01*
X124167995Y-139209316D01*
X124154736Y-139216275D01*
X123893168Y-139333997D01*
X123879167Y-139339306D01*
X123605336Y-139424635D01*
X123590798Y-139428219D01*
X123308659Y-139479923D01*
X123293794Y-139481728D01*
X123003736Y-139499274D01*
X122996249Y-139499500D01*
X97003751Y-139499500D01*
X96996264Y-139499274D01*
X96706205Y-139481728D01*
X96691340Y-139479923D01*
X96409201Y-139428219D01*
X96394663Y-139424635D01*
X96120832Y-139339306D01*
X96106831Y-139333997D01*
X95845263Y-139216275D01*
X95832004Y-139209316D01*
X95586540Y-139060928D01*
X95574217Y-139052422D01*
X95348426Y-138875526D01*
X95337218Y-138865596D01*
X95134403Y-138662781D01*
X95124473Y-138651573D01*
X95038575Y-138541932D01*
X94947573Y-138425776D01*
X94939075Y-138413465D01*
X94790680Y-138167989D01*
X94783727Y-138154743D01*
X94666000Y-137893163D01*
X94660693Y-137879167D01*
X94575364Y-137605336D01*
X94571780Y-137590798D01*
X94557752Y-137514250D01*
X94520075Y-137308657D01*
X94518271Y-137293794D01*
X94507836Y-137121288D01*
X95149500Y-137121288D01*
X95181161Y-137361785D01*
X95243947Y-137596104D01*
X95336773Y-137820205D01*
X95336776Y-137820212D01*
X95458064Y-138030289D01*
X95458066Y-138030292D01*
X95458067Y-138030293D01*
X95605733Y-138222736D01*
X95605739Y-138222743D01*
X95777256Y-138394260D01*
X95777263Y-138394266D01*
X95818336Y-138425782D01*
X95969711Y-138541936D01*
X96179788Y-138663224D01*
X96403900Y-138756054D01*
X96638211Y-138818838D01*
X96818586Y-138842584D01*
X96878711Y-138850500D01*
X96878712Y-138850500D01*
X97121289Y-138850500D01*
X97169388Y-138844167D01*
X97361789Y-138818838D01*
X97596100Y-138756054D01*
X97820212Y-138663224D01*
X98030289Y-138541936D01*
X98222738Y-138394265D01*
X98394265Y-138222738D01*
X98541936Y-138030289D01*
X98663224Y-137820212D01*
X98756054Y-137596100D01*
X98818838Y-137361789D01*
X98850500Y-137121288D01*
X98850500Y-136878712D01*
X98818838Y-136638211D01*
X98756054Y-136403900D01*
X98663224Y-136179788D01*
X98541936Y-135969711D01*
X98541932Y-135969706D01*
X98516611Y-135936706D01*
X98491418Y-135871537D01*
X98505457Y-135803092D01*
X98554271Y-135753103D01*
X98622363Y-135737441D01*
X98649915Y-135742242D01*
X98678039Y-135750500D01*
X98678041Y-135750500D01*
X98821962Y-135750500D01*
X98821962Y-135750499D01*
X98960053Y-135709953D01*
X99081128Y-135632143D01*
X99175377Y-135523373D01*
X99235165Y-135392457D01*
X99255647Y-135250000D01*
X99255646Y-135249999D01*
X99256909Y-135241222D01*
X99259392Y-135241579D01*
X99275332Y-135187294D01*
X99328136Y-135141539D01*
X99397294Y-135131595D01*
X99446684Y-135150017D01*
X99495146Y-135181161D01*
X99539948Y-135209954D01*
X99655718Y-135243946D01*
X99677933Y-135250469D01*
X99678036Y-135250499D01*
X99678038Y-135250500D01*
X99678039Y-135250500D01*
X99821962Y-135250500D01*
X99821962Y-135250499D01*
X99960053Y-135209953D01*
X100081128Y-135132143D01*
X100175377Y-135023373D01*
X100235165Y-134892457D01*
X100255647Y-134750000D01*
X100235165Y-134607543D01*
X100175377Y-134476627D01*
X100081128Y-134367857D01*
X99960053Y-134290047D01*
X99960051Y-134290046D01*
X99960049Y-134290045D01*
X99960050Y-134290045D01*
X99821958Y-134249498D01*
X99814429Y-134248416D01*
X99750874Y-134219390D01*
X99744398Y-134213360D01*
X99661819Y-134130781D01*
X99628334Y-134069458D01*
X99625500Y-134043100D01*
X99625500Y-132000004D01*
X100624592Y-132000004D01*
X100644196Y-132261620D01*
X100644197Y-132261625D01*
X100702576Y-132517402D01*
X100702578Y-132517411D01*
X100702580Y-132517416D01*
X100798432Y-132761643D01*
X100929614Y-132988857D01*
X101061736Y-133154533D01*
X101093198Y-133193985D01*
X101274753Y-133362441D01*
X101285521Y-133372433D01*
X101502296Y-133520228D01*
X101502301Y-133520230D01*
X101502302Y-133520231D01*
X101502303Y-133520232D01*
X101594014Y-133564397D01*
X101738673Y-133634061D01*
X101738674Y-133634061D01*
X101738677Y-133634063D01*
X101989385Y-133711396D01*
X102248818Y-133750500D01*
X102511182Y-133750500D01*
X102770615Y-133711396D01*
X103021323Y-133634063D01*
X103208111Y-133544110D01*
X103257696Y-133520232D01*
X103257696Y-133520231D01*
X103257704Y-133520228D01*
X103474479Y-133372433D01*
X103666805Y-133193981D01*
X103830386Y-132988857D01*
X103961568Y-132761643D01*
X104057420Y-132517416D01*
X104115802Y-132261630D01*
X104115803Y-132261620D01*
X104135408Y-132000004D01*
X110784592Y-132000004D01*
X110804196Y-132261620D01*
X110804197Y-132261625D01*
X110862576Y-132517402D01*
X110862578Y-132517411D01*
X110862580Y-132517416D01*
X110958432Y-132761643D01*
X111089614Y-132988857D01*
X111221736Y-133154533D01*
X111253198Y-133193985D01*
X111434753Y-133362441D01*
X111445521Y-133372433D01*
X111662296Y-133520228D01*
X111662301Y-133520230D01*
X111662302Y-133520231D01*
X111662303Y-133520232D01*
X111754014Y-133564397D01*
X111898673Y-133634061D01*
X111898674Y-133634061D01*
X111898677Y-133634063D01*
X112149385Y-133711396D01*
X112408818Y-133750500D01*
X112671182Y-133750500D01*
X112930615Y-133711396D01*
X113181323Y-133634063D01*
X113368111Y-133544110D01*
X113408463Y-133524678D01*
X115869500Y-133524678D01*
X115884032Y-133597735D01*
X115884033Y-133597739D01*
X115884034Y-133597740D01*
X115939399Y-133680601D01*
X115985485Y-133711394D01*
X116022260Y-133735966D01*
X116022264Y-133735967D01*
X116095321Y-133750499D01*
X116095324Y-133750500D01*
X116095326Y-133750500D01*
X119144676Y-133750500D01*
X119144677Y-133750499D01*
X119217740Y-133735966D01*
X119300601Y-133680601D01*
X119355966Y-133597740D01*
X119370500Y-133524674D01*
X119370500Y-130475326D01*
X119370500Y-130475323D01*
X119370499Y-130475321D01*
X119355967Y-130402264D01*
X119355966Y-130402260D01*
X119300601Y-130319399D01*
X119217740Y-130264034D01*
X119217739Y-130264033D01*
X119217735Y-130264032D01*
X119144677Y-130249500D01*
X119144674Y-130249500D01*
X116095326Y-130249500D01*
X116095323Y-130249500D01*
X116022264Y-130264032D01*
X116022260Y-130264033D01*
X115939399Y-130319399D01*
X115884033Y-130402260D01*
X115884032Y-130402264D01*
X115869500Y-130475321D01*
X115869500Y-133524678D01*
X113408463Y-133524678D01*
X113417696Y-133520232D01*
X113417696Y-133520231D01*
X113417704Y-133520228D01*
X113634479Y-133372433D01*
X113826805Y-133193981D01*
X113990386Y-132988857D01*
X114121568Y-132761643D01*
X114217420Y-132517416D01*
X114275802Y-132261630D01*
X114275803Y-132261620D01*
X114295408Y-132000004D01*
X114295408Y-131999995D01*
X114275803Y-131738379D01*
X114275802Y-131738374D01*
X114275802Y-131738370D01*
X114217420Y-131482584D01*
X114121568Y-131238357D01*
X113990386Y-131011143D01*
X113826805Y-130806019D01*
X113826804Y-130806018D01*
X113826801Y-130806014D01*
X113634479Y-130627567D01*
X113627509Y-130622815D01*
X113417704Y-130479772D01*
X113417700Y-130479770D01*
X113417697Y-130479768D01*
X113417696Y-130479767D01*
X113181325Y-130365938D01*
X113181327Y-130365938D01*
X112930623Y-130288606D01*
X112930619Y-130288605D01*
X112930615Y-130288604D01*
X112805823Y-130269794D01*
X112671187Y-130249500D01*
X112671182Y-130249500D01*
X112408818Y-130249500D01*
X112408812Y-130249500D01*
X112247247Y-130273853D01*
X112149385Y-130288604D01*
X112149382Y-130288605D01*
X112149376Y-130288606D01*
X111898673Y-130365938D01*
X111662303Y-130479767D01*
X111662302Y-130479768D01*
X111445520Y-130627567D01*
X111253198Y-130806014D01*
X111089614Y-131011143D01*
X110958432Y-131238356D01*
X110862582Y-131482578D01*
X110862576Y-131482597D01*
X110804197Y-131738374D01*
X110804196Y-131738379D01*
X110784592Y-131999995D01*
X110784592Y-132000004D01*
X104135408Y-132000004D01*
X104135408Y-131999995D01*
X104115803Y-131738379D01*
X104115802Y-131738374D01*
X104115802Y-131738370D01*
X104057420Y-131482584D01*
X103961568Y-131238357D01*
X103830386Y-131011143D01*
X103666805Y-130806019D01*
X103666804Y-130806018D01*
X103666801Y-130806014D01*
X103474479Y-130627567D01*
X103467509Y-130622815D01*
X103257704Y-130479772D01*
X103257700Y-130479770D01*
X103257697Y-130479768D01*
X103257696Y-130479767D01*
X103021325Y-130365938D01*
X103021327Y-130365938D01*
X102770623Y-130288606D01*
X102770619Y-130288605D01*
X102770615Y-130288604D01*
X102645823Y-130269794D01*
X102511187Y-130249500D01*
X102511182Y-130249500D01*
X102248818Y-130249500D01*
X102248812Y-130249500D01*
X102087247Y-130273853D01*
X101989385Y-130288604D01*
X101989382Y-130288605D01*
X101989376Y-130288606D01*
X101738673Y-130365938D01*
X101502303Y-130479767D01*
X101502302Y-130479768D01*
X101285520Y-130627567D01*
X101093198Y-130806014D01*
X100929614Y-131011143D01*
X100798432Y-131238356D01*
X100702582Y-131482578D01*
X100702576Y-131482597D01*
X100644197Y-131738374D01*
X100644196Y-131738379D01*
X100624592Y-131999995D01*
X100624592Y-132000004D01*
X99625500Y-132000004D01*
X99625500Y-131950567D01*
X99625500Y-131950565D01*
X99599910Y-131855062D01*
X99550475Y-131769438D01*
X99480562Y-131699525D01*
X99193063Y-131412026D01*
X99193062Y-131412025D01*
X99107438Y-131362590D01*
X99059686Y-131349795D01*
X99059684Y-131349794D01*
X99059682Y-131349793D01*
X99004087Y-131334897D01*
X99004957Y-131331648D01*
X98955303Y-131309633D01*
X98929475Y-131272758D01*
X98926587Y-131274336D01*
X98922337Y-131266554D01*
X98922336Y-131266550D01*
X98901230Y-131238356D01*
X98841473Y-131158529D01*
X98758180Y-131096177D01*
X98733450Y-131077664D01*
X98706162Y-131067485D01*
X98650230Y-131025612D01*
X98625816Y-130960146D01*
X98625500Y-130951305D01*
X98625500Y-122127183D01*
X98645185Y-122060144D01*
X98655783Y-122045985D01*
X98675377Y-122023373D01*
X98735165Y-121892457D01*
X98755647Y-121750000D01*
X98735165Y-121607543D01*
X98675377Y-121476627D01*
X98581128Y-121367857D01*
X98460053Y-121290047D01*
X98460051Y-121290046D01*
X98460049Y-121290045D01*
X98460050Y-121290045D01*
X98321963Y-121249500D01*
X98321961Y-121249500D01*
X98178039Y-121249500D01*
X98178036Y-121249500D01*
X98039949Y-121290045D01*
X97918872Y-121367856D01*
X97876604Y-121416636D01*
X97817825Y-121454410D01*
X97747956Y-121454409D01*
X97689178Y-121416633D01*
X97660154Y-121353077D01*
X97670098Y-121283919D01*
X97672918Y-121278755D01*
X97675374Y-121273375D01*
X97675377Y-121273373D01*
X97735165Y-121142457D01*
X97755647Y-121000000D01*
X97735165Y-120857543D01*
X97675377Y-120726627D01*
X97581128Y-120617857D01*
X97460053Y-120540047D01*
X97460051Y-120540046D01*
X97460049Y-120540045D01*
X97460050Y-120540045D01*
X97321963Y-120499500D01*
X97321961Y-120499500D01*
X97178039Y-120499500D01*
X97178036Y-120499500D01*
X97039949Y-120540045D01*
X96918873Y-120617856D01*
X96824623Y-120726626D01*
X96824622Y-120726628D01*
X96764834Y-120857543D01*
X96744353Y-121000000D01*
X96764834Y-121142456D01*
X96803275Y-121226628D01*
X96824623Y-121273373D01*
X96844212Y-121295980D01*
X96873238Y-121359534D01*
X96874500Y-121377183D01*
X96874500Y-121873970D01*
X96854815Y-121941009D01*
X96802011Y-121986764D01*
X96732853Y-121996708D01*
X96669297Y-121967683D01*
X96656787Y-121955173D01*
X96644514Y-121941009D01*
X96581128Y-121867857D01*
X96460053Y-121790047D01*
X96460051Y-121790046D01*
X96460049Y-121790045D01*
X96460050Y-121790045D01*
X96321963Y-121749500D01*
X96321961Y-121749500D01*
X96178039Y-121749500D01*
X96178036Y-121749500D01*
X96039949Y-121790045D01*
X95918873Y-121867856D01*
X95824623Y-121976626D01*
X95824622Y-121976628D01*
X95764834Y-122107543D01*
X95744353Y-122250000D01*
X95764834Y-122392456D01*
X95764836Y-122392460D01*
X95824623Y-122523373D01*
X95844212Y-122545980D01*
X95873238Y-122609534D01*
X95874500Y-122627183D01*
X95874500Y-130913805D01*
X95854815Y-130980844D01*
X95802011Y-131026599D01*
X95793838Y-131029985D01*
X95766549Y-131040164D01*
X95658528Y-131121028D01*
X95577664Y-131229049D01*
X95577662Y-131229052D01*
X95530509Y-131355475D01*
X95524500Y-131411355D01*
X95524500Y-131938644D01*
X95530509Y-131994524D01*
X95577662Y-132120947D01*
X95577664Y-132120950D01*
X95658528Y-132228972D01*
X95766549Y-132309835D01*
X95766552Y-132309837D01*
X95864361Y-132346318D01*
X95920295Y-132388189D01*
X95944712Y-132453654D01*
X95929860Y-132521927D01*
X95880455Y-132571332D01*
X95864361Y-132578682D01*
X95766552Y-132615162D01*
X95766549Y-132615164D01*
X95658528Y-132696028D01*
X95577664Y-132804049D01*
X95577662Y-132804052D01*
X95530509Y-132930475D01*
X95524500Y-132986355D01*
X95524500Y-133513644D01*
X95530509Y-133569524D01*
X95577662Y-133695947D01*
X95577664Y-133695950D01*
X95658528Y-133803972D01*
X95766119Y-133884513D01*
X95766549Y-133884835D01*
X95766552Y-133884837D01*
X95880012Y-133927155D01*
X95892978Y-133931991D01*
X95922318Y-133935145D01*
X95948855Y-133937999D01*
X95948870Y-133938000D01*
X96551130Y-133938000D01*
X96551144Y-133937999D01*
X96573023Y-133935646D01*
X96607022Y-133931991D01*
X96733450Y-133884836D01*
X96733882Y-133884511D01*
X96734389Y-133884322D01*
X96741233Y-133880586D01*
X96741770Y-133881569D01*
X96799343Y-133860092D01*
X96867617Y-133874938D01*
X96915583Y-133921773D01*
X96946785Y-133975816D01*
X96949526Y-133980563D01*
X98219432Y-135250469D01*
X98252917Y-135311792D01*
X98254489Y-135320502D01*
X98261191Y-135367114D01*
X98251248Y-135436273D01*
X98205493Y-135489077D01*
X98138454Y-135508762D01*
X98071414Y-135489078D01*
X98062967Y-135483138D01*
X98030293Y-135458067D01*
X98030292Y-135458066D01*
X98030289Y-135458064D01*
X97820212Y-135336776D01*
X97780923Y-135320502D01*
X97596104Y-135243947D01*
X97469241Y-135209954D01*
X97361789Y-135181162D01*
X97361788Y-135181161D01*
X97361785Y-135181161D01*
X97121289Y-135149500D01*
X97121288Y-135149500D01*
X96878712Y-135149500D01*
X96878711Y-135149500D01*
X96638214Y-135181161D01*
X96403895Y-135243947D01*
X96179794Y-135336773D01*
X96179785Y-135336777D01*
X95969706Y-135458067D01*
X95777263Y-135605733D01*
X95777256Y-135605739D01*
X95605739Y-135777256D01*
X95605733Y-135777263D01*
X95458067Y-135969706D01*
X95336777Y-136179785D01*
X95336773Y-136179794D01*
X95243947Y-136403895D01*
X95181161Y-136638214D01*
X95149500Y-136878711D01*
X95149500Y-137121288D01*
X94507836Y-137121288D01*
X94500726Y-137003736D01*
X94500500Y-136996249D01*
X94500500Y-92959435D01*
X96124500Y-92959435D01*
X96150090Y-93054938D01*
X96162856Y-93077049D01*
X96199526Y-93140563D01*
X96199528Y-93140565D01*
X96719432Y-93660469D01*
X96752917Y-93721792D01*
X96754489Y-93730502D01*
X96764834Y-93802454D01*
X96764835Y-93802458D01*
X96804836Y-93890047D01*
X96824623Y-93933373D01*
X96918872Y-94042143D01*
X97039947Y-94119953D01*
X97039950Y-94119954D01*
X97039949Y-94119954D01*
X97178036Y-94160499D01*
X97178038Y-94160500D01*
X97178039Y-94160500D01*
X97321962Y-94160500D01*
X97321962Y-94160499D01*
X97460053Y-94119953D01*
X97581128Y-94042143D01*
X97606788Y-94012529D01*
X97665565Y-93974756D01*
X97735435Y-93974756D01*
X97794213Y-94012530D01*
X97823238Y-94076086D01*
X97824500Y-94093733D01*
X97824500Y-95908006D01*
X97804815Y-95975045D01*
X97752011Y-96020800D01*
X97682853Y-96030744D01*
X97665567Y-96026984D01*
X97571961Y-95999500D01*
X97428039Y-95999500D01*
X97428036Y-95999500D01*
X97289949Y-96040045D01*
X97168873Y-96117856D01*
X97074623Y-96226626D01*
X97074622Y-96226628D01*
X97014835Y-96357541D01*
X97014834Y-96357546D01*
X97004489Y-96429496D01*
X96975463Y-96493051D01*
X96969432Y-96499529D01*
X96569438Y-96899525D01*
X96499526Y-96969436D01*
X96450091Y-97055059D01*
X96450089Y-97055064D01*
X96439434Y-97094827D01*
X96439435Y-97094828D01*
X96424571Y-97150301D01*
X96424543Y-97150403D01*
X96424500Y-97150562D01*
X96424500Y-114099438D01*
X96436027Y-114142454D01*
X96436027Y-114142456D01*
X96436028Y-114142456D01*
X96450090Y-114194939D01*
X96450091Y-114194940D01*
X96495374Y-114273373D01*
X96499526Y-114280563D01*
X97219432Y-115000470D01*
X97252917Y-115061793D01*
X97254489Y-115070503D01*
X97264835Y-115142457D01*
X97324623Y-115273373D01*
X97418872Y-115382143D01*
X97539947Y-115459953D01*
X97539950Y-115459954D01*
X97539949Y-115459954D01*
X97678036Y-115500499D01*
X97678038Y-115500500D01*
X97678039Y-115500500D01*
X97821962Y-115500500D01*
X97821962Y-115500499D01*
X97960053Y-115459953D01*
X98081128Y-115382143D01*
X98175377Y-115273373D01*
X98235165Y-115142457D01*
X98255647Y-115000000D01*
X98235165Y-114857543D01*
X98175377Y-114726627D01*
X98081128Y-114617857D01*
X97960053Y-114540047D01*
X97960051Y-114540046D01*
X97960049Y-114540045D01*
X97960050Y-114540045D01*
X97821958Y-114499498D01*
X97814429Y-114498416D01*
X97750874Y-114469390D01*
X97744398Y-114463360D01*
X97211819Y-113930781D01*
X97178334Y-113869458D01*
X97175500Y-113843100D01*
X97175500Y-112755899D01*
X97195185Y-112688860D01*
X97247989Y-112643105D01*
X97317147Y-112633161D01*
X97380703Y-112662186D01*
X97387158Y-112668195D01*
X97469434Y-112750472D01*
X97502917Y-112811794D01*
X97504489Y-112820503D01*
X97514834Y-112892453D01*
X97514835Y-112892458D01*
X97572145Y-113017947D01*
X97574623Y-113023373D01*
X97668872Y-113132143D01*
X97789947Y-113209953D01*
X97789950Y-113209954D01*
X97789949Y-113209954D01*
X97928036Y-113250499D01*
X97928038Y-113250500D01*
X97928039Y-113250500D01*
X98071962Y-113250500D01*
X98071962Y-113250499D01*
X98210053Y-113209953D01*
X98331128Y-113132143D01*
X98425377Y-113023373D01*
X98485165Y-112892457D01*
X98505647Y-112750000D01*
X98485165Y-112607543D01*
X98425377Y-112476627D01*
X98331128Y-112367857D01*
X98210053Y-112290047D01*
X98210051Y-112290046D01*
X98210049Y-112290045D01*
X98210050Y-112290045D01*
X98071958Y-112249498D01*
X98064429Y-112248416D01*
X98000874Y-112219390D01*
X97994398Y-112213360D01*
X97611819Y-111830781D01*
X97578334Y-111769458D01*
X97575500Y-111743100D01*
X97575500Y-99321648D01*
X97595185Y-99254609D01*
X97647989Y-99208854D01*
X97664634Y-99202651D01*
X97665634Y-99202358D01*
X97735503Y-99202398D01*
X97794260Y-99240206D01*
X97823248Y-99303779D01*
X97824500Y-99321355D01*
X97824500Y-109999436D01*
X97837277Y-110047123D01*
X97837291Y-110047173D01*
X97837295Y-110047186D01*
X97850090Y-110094938D01*
X97867271Y-110124696D01*
X97899526Y-110180563D01*
X97899528Y-110180565D01*
X97969432Y-110250469D01*
X98002917Y-110311792D01*
X98004489Y-110320502D01*
X98014834Y-110392454D01*
X98014835Y-110392458D01*
X98036319Y-110439500D01*
X98074623Y-110523373D01*
X98168872Y-110632143D01*
X98289947Y-110709953D01*
X98289950Y-110709954D01*
X98289949Y-110709954D01*
X98428036Y-110750499D01*
X98428038Y-110750500D01*
X98428039Y-110750500D01*
X98571961Y-110750500D01*
X98648958Y-110727892D01*
X98718825Y-110727892D01*
X98777604Y-110765666D01*
X98806629Y-110829221D01*
X98796686Y-110898380D01*
X98786994Y-110915758D01*
X98753373Y-110966076D01*
X98753364Y-110966092D01*
X98677950Y-111148160D01*
X98677947Y-111148170D01*
X98639500Y-111341456D01*
X98639500Y-111341459D01*
X98639500Y-111538541D01*
X98639500Y-111538543D01*
X98639499Y-111538543D01*
X98677947Y-111731829D01*
X98677950Y-111731839D01*
X98753364Y-111913907D01*
X98753371Y-111913920D01*
X98862860Y-112077781D01*
X98862863Y-112077785D01*
X99002214Y-112217136D01*
X99002218Y-112217139D01*
X99166079Y-112326628D01*
X99166092Y-112326635D01*
X99348160Y-112402049D01*
X99348165Y-112402051D01*
X99348169Y-112402051D01*
X99348170Y-112402052D01*
X99541456Y-112440500D01*
X99541459Y-112440500D01*
X100738543Y-112440500D01*
X100868582Y-112414632D01*
X100931835Y-112402051D01*
X101113914Y-112326632D01*
X101196609Y-112271376D01*
X101263286Y-112250499D01*
X101330666Y-112268983D01*
X101377357Y-112320962D01*
X101389500Y-112374479D01*
X101389500Y-113045520D01*
X101369815Y-113112559D01*
X101317011Y-113158314D01*
X101247853Y-113168258D01*
X101196610Y-113148622D01*
X101113925Y-113093374D01*
X101113907Y-113093364D01*
X100931839Y-113017950D01*
X100931829Y-113017947D01*
X100738543Y-112979500D01*
X100738541Y-112979500D01*
X99541459Y-112979500D01*
X99541457Y-112979500D01*
X99348170Y-113017947D01*
X99348160Y-113017950D01*
X99166092Y-113093364D01*
X99166079Y-113093371D01*
X99002218Y-113202860D01*
X99002214Y-113202863D01*
X98862863Y-113342214D01*
X98862860Y-113342218D01*
X98753371Y-113506079D01*
X98753364Y-113506092D01*
X98677950Y-113688160D01*
X98677947Y-113688170D01*
X98639500Y-113881456D01*
X98639500Y-113881459D01*
X98639500Y-114078541D01*
X98639500Y-114078543D01*
X98639499Y-114078543D01*
X98677947Y-114271829D01*
X98677950Y-114271839D01*
X98753364Y-114453907D01*
X98753371Y-114453920D01*
X98862860Y-114617781D01*
X98862863Y-114617785D01*
X99002214Y-114757136D01*
X99002218Y-114757139D01*
X99166079Y-114866628D01*
X99166092Y-114866635D01*
X99348160Y-114942049D01*
X99348165Y-114942051D01*
X99348169Y-114942051D01*
X99348170Y-114942052D01*
X99541456Y-114980500D01*
X99541459Y-114980500D01*
X100738543Y-114980500D01*
X100868582Y-114954632D01*
X100931835Y-114942051D01*
X101113914Y-114866632D01*
X101196609Y-114811376D01*
X101263286Y-114790499D01*
X101330666Y-114808983D01*
X101377357Y-114860962D01*
X101389500Y-114914479D01*
X101389500Y-115585520D01*
X101369815Y-115652559D01*
X101317011Y-115698314D01*
X101247853Y-115708258D01*
X101196610Y-115688622D01*
X101113925Y-115633374D01*
X101113907Y-115633364D01*
X100931839Y-115557950D01*
X100931829Y-115557947D01*
X100738543Y-115519500D01*
X100738541Y-115519500D01*
X99541459Y-115519500D01*
X99541457Y-115519500D01*
X99348170Y-115557947D01*
X99348160Y-115557950D01*
X99166092Y-115633364D01*
X99166079Y-115633371D01*
X99002218Y-115742860D01*
X99002214Y-115742863D01*
X98862863Y-115882214D01*
X98862860Y-115882218D01*
X98753371Y-116046079D01*
X98753364Y-116046092D01*
X98677950Y-116228160D01*
X98677947Y-116228170D01*
X98639500Y-116421456D01*
X98639500Y-116421459D01*
X98639500Y-116618541D01*
X98639500Y-116618543D01*
X98639499Y-116618543D01*
X98677947Y-116811829D01*
X98677950Y-116811839D01*
X98753364Y-116993907D01*
X98753371Y-116993920D01*
X98862860Y-117157781D01*
X98862863Y-117157785D01*
X99002214Y-117297136D01*
X99002218Y-117297139D01*
X99166079Y-117406628D01*
X99166092Y-117406635D01*
X99348160Y-117482049D01*
X99348165Y-117482051D01*
X99348169Y-117482051D01*
X99348170Y-117482052D01*
X99541456Y-117520500D01*
X99541459Y-117520500D01*
X100738543Y-117520500D01*
X100868582Y-117494632D01*
X100931835Y-117482051D01*
X101113914Y-117406632D01*
X101196609Y-117351376D01*
X101263286Y-117330499D01*
X101330666Y-117348983D01*
X101377357Y-117400962D01*
X101389500Y-117454479D01*
X101389500Y-118125520D01*
X101369815Y-118192559D01*
X101317011Y-118238314D01*
X101247853Y-118248258D01*
X101196610Y-118228622D01*
X101113925Y-118173374D01*
X101113907Y-118173364D01*
X100931839Y-118097950D01*
X100931829Y-118097947D01*
X100738543Y-118059500D01*
X100738541Y-118059500D01*
X99541459Y-118059500D01*
X99541457Y-118059500D01*
X99348170Y-118097947D01*
X99348160Y-118097950D01*
X99166092Y-118173364D01*
X99166079Y-118173371D01*
X99002218Y-118282860D01*
X99002214Y-118282863D01*
X98862863Y-118422214D01*
X98862860Y-118422218D01*
X98753371Y-118586079D01*
X98753364Y-118586092D01*
X98677950Y-118768160D01*
X98677947Y-118768170D01*
X98639500Y-118961456D01*
X98639500Y-118961459D01*
X98639500Y-119158541D01*
X98639500Y-119158543D01*
X98639499Y-119158543D01*
X98677947Y-119351829D01*
X98677950Y-119351839D01*
X98753364Y-119533907D01*
X98753371Y-119533920D01*
X98862860Y-119697781D01*
X98862863Y-119697785D01*
X99002214Y-119837136D01*
X99002218Y-119837139D01*
X99166079Y-119946628D01*
X99166092Y-119946635D01*
X99348160Y-120022049D01*
X99348165Y-120022051D01*
X99348169Y-120022051D01*
X99348170Y-120022052D01*
X99541456Y-120060500D01*
X99541459Y-120060500D01*
X100738543Y-120060500D01*
X100868582Y-120034632D01*
X100931835Y-120022051D01*
X101113914Y-119946632D01*
X101196609Y-119891376D01*
X101263286Y-119870499D01*
X101330666Y-119888983D01*
X101377357Y-119940962D01*
X101389500Y-119994479D01*
X101389500Y-120117990D01*
X101369815Y-120185029D01*
X101317011Y-120230784D01*
X101300439Y-120236966D01*
X101289949Y-120240046D01*
X101289945Y-120240048D01*
X101168873Y-120317856D01*
X101074623Y-120426626D01*
X101074622Y-120426628D01*
X101014834Y-120557543D01*
X100994353Y-120700000D01*
X101014834Y-120842456D01*
X101074622Y-120973371D01*
X101074623Y-120973373D01*
X101168872Y-121082143D01*
X101289947Y-121159953D01*
X101289950Y-121159954D01*
X101289949Y-121159954D01*
X101428036Y-121200499D01*
X101428038Y-121200500D01*
X101428039Y-121200500D01*
X101571961Y-121200500D01*
X101617005Y-121187274D01*
X101686875Y-121187274D01*
X101745653Y-121225048D01*
X101774678Y-121288604D01*
X101766045Y-121348657D01*
X101767333Y-121349036D01*
X101764834Y-121357542D01*
X101744353Y-121500000D01*
X101764834Y-121642456D01*
X101824622Y-121773371D01*
X101824623Y-121773373D01*
X101918872Y-121882143D01*
X102039947Y-121959953D01*
X102039950Y-121959954D01*
X102039949Y-121959954D01*
X102096737Y-121976628D01*
X102165124Y-121996708D01*
X102178036Y-122000499D01*
X102178038Y-122000500D01*
X102178039Y-122000500D01*
X102321962Y-122000500D01*
X102321962Y-122000499D01*
X102460053Y-121959953D01*
X102581128Y-121882143D01*
X102675377Y-121773373D01*
X102735165Y-121642457D01*
X102755647Y-121500000D01*
X102735165Y-121357543D01*
X102675377Y-121226627D01*
X102655785Y-121204016D01*
X102626762Y-121140460D01*
X102625500Y-121122815D01*
X102625500Y-109556517D01*
X102999500Y-109556517D01*
X103010292Y-109624657D01*
X103014354Y-109650304D01*
X103071950Y-109763342D01*
X103071952Y-109763344D01*
X103071954Y-109763347D01*
X103161652Y-109853045D01*
X103161654Y-109853046D01*
X103161658Y-109853050D01*
X103274694Y-109910645D01*
X103274698Y-109910647D01*
X103368475Y-109925499D01*
X103368481Y-109925500D01*
X103731518Y-109925499D01*
X103825304Y-109910646D01*
X103938342Y-109853050D01*
X104028050Y-109763342D01*
X104085646Y-109650304D01*
X104085646Y-109650302D01*
X104085647Y-109650301D01*
X104100499Y-109556524D01*
X104100500Y-109556519D01*
X104100499Y-109465289D01*
X104120183Y-109398253D01*
X104172986Y-109352497D01*
X104242145Y-109342553D01*
X104281451Y-109357213D01*
X104281882Y-109356270D01*
X104289949Y-109359954D01*
X104397107Y-109391417D01*
X104420386Y-109398253D01*
X104428036Y-109400499D01*
X104428038Y-109400500D01*
X104428039Y-109400500D01*
X104571962Y-109400500D01*
X104571962Y-109400499D01*
X104710053Y-109359953D01*
X104710054Y-109359951D01*
X104718118Y-109356270D01*
X104718871Y-109357919D01*
X104775498Y-109341291D01*
X104842538Y-109360974D01*
X104888294Y-109413777D01*
X104899501Y-109465291D01*
X104899501Y-109556518D01*
X104914354Y-109650304D01*
X104971950Y-109763342D01*
X104971952Y-109763344D01*
X104971954Y-109763347D01*
X105061652Y-109853045D01*
X105061654Y-109853046D01*
X105061658Y-109853050D01*
X105174694Y-109910645D01*
X105174698Y-109910647D01*
X105268475Y-109925499D01*
X105268481Y-109925500D01*
X105631518Y-109925499D01*
X105725304Y-109910646D01*
X105838342Y-109853050D01*
X105928050Y-109763342D01*
X105985646Y-109650304D01*
X105985646Y-109650302D01*
X105985647Y-109650301D01*
X106000499Y-109556524D01*
X106000500Y-109556519D01*
X106000499Y-108318482D01*
X105985646Y-108224696D01*
X105928050Y-108111658D01*
X105928046Y-108111654D01*
X105928045Y-108111652D01*
X105838347Y-108021954D01*
X105838344Y-108021952D01*
X105838342Y-108021950D01*
X105752184Y-107978050D01*
X105725301Y-107964352D01*
X105631524Y-107949500D01*
X105268482Y-107949500D01*
X105197649Y-107960718D01*
X105174696Y-107964354D01*
X105174695Y-107964354D01*
X105165057Y-107965881D01*
X105164736Y-107963859D01*
X105107478Y-107965489D01*
X105047649Y-107929402D01*
X105016827Y-107866698D01*
X105024799Y-107797285D01*
X105028514Y-107789300D01*
X105035646Y-107775304D01*
X105050500Y-107681519D01*
X105050499Y-106443482D01*
X105035646Y-106349696D01*
X104978050Y-106236658D01*
X104978046Y-106236654D01*
X104978045Y-106236652D01*
X104888347Y-106146954D01*
X104888344Y-106146952D01*
X104888342Y-106146950D01*
X104811517Y-106107805D01*
X104775301Y-106089352D01*
X104681524Y-106074500D01*
X104318482Y-106074500D01*
X104237519Y-106087323D01*
X104224696Y-106089354D01*
X104111658Y-106146950D01*
X104111657Y-106146951D01*
X104111652Y-106146954D01*
X104021954Y-106236652D01*
X104021951Y-106236657D01*
X104021950Y-106236658D01*
X104002751Y-106274337D01*
X103964352Y-106349698D01*
X103949500Y-106443475D01*
X103949500Y-107681517D01*
X103954061Y-107710313D01*
X103964354Y-107775304D01*
X103971469Y-107789267D01*
X103971472Y-107789273D01*
X103984367Y-107857942D01*
X103958090Y-107922682D01*
X103900983Y-107962938D01*
X103834960Y-107965767D01*
X103834943Y-107965880D01*
X103834389Y-107965792D01*
X103831177Y-107965930D01*
X103826109Y-107964480D01*
X103731524Y-107949500D01*
X103368482Y-107949500D01*
X103287519Y-107962323D01*
X103274696Y-107964354D01*
X103161658Y-108021950D01*
X103161657Y-108021951D01*
X103161652Y-108021954D01*
X103071954Y-108111652D01*
X103071951Y-108111657D01*
X103071950Y-108111658D01*
X103066242Y-108122861D01*
X103014352Y-108224698D01*
X102999500Y-108318475D01*
X102999500Y-109556517D01*
X102625500Y-109556517D01*
X102625500Y-105004903D01*
X102645185Y-104937864D01*
X102661819Y-104917222D01*
X103285134Y-104293907D01*
X103961143Y-103617897D01*
X104022464Y-103584414D01*
X104092156Y-103589398D01*
X104148089Y-103631270D01*
X104161614Y-103654065D01*
X104215943Y-103773027D01*
X104310192Y-103881797D01*
X104431267Y-103959607D01*
X104431270Y-103959608D01*
X104431269Y-103959608D01*
X104569356Y-104000153D01*
X104569358Y-104000154D01*
X104569359Y-104000154D01*
X104713282Y-104000154D01*
X104713282Y-104000153D01*
X104851373Y-103959607D01*
X104972448Y-103881797D01*
X105066697Y-103773027D01*
X105126485Y-103642111D01*
X105146967Y-103499654D01*
X105126485Y-103357197D01*
X105066697Y-103226281D01*
X104972448Y-103117511D01*
X104890296Y-103064715D01*
X104851371Y-103039699D01*
X104810690Y-103027755D01*
X104751912Y-102989981D01*
X104722887Y-102926425D01*
X104732831Y-102857267D01*
X104757941Y-102821100D01*
X105662819Y-101916223D01*
X105724142Y-101882738D01*
X105793834Y-101887722D01*
X105849767Y-101929594D01*
X105874184Y-101995058D01*
X105874500Y-102003904D01*
X105874500Y-105299435D01*
X105900090Y-105394938D01*
X105945372Y-105473368D01*
X105949526Y-105480563D01*
X105949527Y-105480564D01*
X106338181Y-105869218D01*
X106371666Y-105930541D01*
X106374500Y-105956899D01*
X106374500Y-115178970D01*
X106354815Y-115246009D01*
X106302011Y-115291764D01*
X106232853Y-115301708D01*
X106169297Y-115272683D01*
X106156787Y-115260173D01*
X106144514Y-115246009D01*
X106081128Y-115172857D01*
X105960053Y-115095047D01*
X105960051Y-115095046D01*
X105960049Y-115095045D01*
X105960050Y-115095045D01*
X105821963Y-115054500D01*
X105821961Y-115054500D01*
X105678039Y-115054500D01*
X105678036Y-115054500D01*
X105539949Y-115095045D01*
X105418873Y-115172856D01*
X105324623Y-115281626D01*
X105324622Y-115281628D01*
X105264834Y-115412543D01*
X105244353Y-115555000D01*
X105264834Y-115697456D01*
X105285571Y-115742863D01*
X105324623Y-115828373D01*
X105418872Y-115937143D01*
X105539947Y-116014953D01*
X105539950Y-116014954D01*
X105539949Y-116014954D01*
X105678036Y-116055499D01*
X105678038Y-116055500D01*
X105678039Y-116055500D01*
X105821962Y-116055500D01*
X105821962Y-116055499D01*
X105960053Y-116014953D01*
X106081128Y-115937143D01*
X106156787Y-115849826D01*
X106215564Y-115812052D01*
X106285434Y-115812052D01*
X106344212Y-115849826D01*
X106373238Y-115913381D01*
X106374500Y-115931029D01*
X106374500Y-121672394D01*
X106354815Y-121739433D01*
X106302011Y-121785188D01*
X106294227Y-121788091D01*
X106289950Y-121790045D01*
X106168873Y-121867856D01*
X106074623Y-121976626D01*
X106074622Y-121976628D01*
X106014834Y-122107543D01*
X105994353Y-122250000D01*
X106014834Y-122392456D01*
X106014836Y-122392460D01*
X106074623Y-122523373D01*
X106168872Y-122632143D01*
X106289947Y-122709953D01*
X106289950Y-122709954D01*
X106289949Y-122709954D01*
X106428036Y-122750499D01*
X106428038Y-122750500D01*
X106428039Y-122750500D01*
X106571962Y-122750500D01*
X106571962Y-122750499D01*
X106710053Y-122709953D01*
X106831128Y-122632143D01*
X106925377Y-122523373D01*
X106985165Y-122392457D01*
X106995509Y-122320504D01*
X107024533Y-122256950D01*
X107030548Y-122250488D01*
X107050474Y-122230563D01*
X107050475Y-122230562D01*
X107099910Y-122144938D01*
X107125500Y-122049435D01*
X107125500Y-119376029D01*
X107145185Y-119308990D01*
X107197989Y-119263235D01*
X107267147Y-119253291D01*
X107330703Y-119282316D01*
X107343211Y-119294825D01*
X107418872Y-119382143D01*
X107539947Y-119459953D01*
X107539950Y-119459954D01*
X107539949Y-119459954D01*
X107678036Y-119500499D01*
X107678038Y-119500500D01*
X107678039Y-119500500D01*
X107821962Y-119500500D01*
X107821962Y-119500499D01*
X107960053Y-119459953D01*
X108081128Y-119382143D01*
X108175377Y-119273373D01*
X108235165Y-119142457D01*
X108255647Y-119000000D01*
X108235165Y-118857543D01*
X108175377Y-118726627D01*
X108155785Y-118704016D01*
X108126762Y-118640460D01*
X108125500Y-118622815D01*
X108125500Y-108642997D01*
X108145185Y-108575958D01*
X108177450Y-108542077D01*
X108181477Y-108539200D01*
X108181483Y-108539198D01*
X108264198Y-108456483D01*
X108315573Y-108351393D01*
X108325500Y-108283260D01*
X108325500Y-108016740D01*
X108315573Y-107948607D01*
X108281768Y-107879458D01*
X108270010Y-107810587D01*
X108281769Y-107770540D01*
X108292414Y-107748765D01*
X108315573Y-107701393D01*
X108325500Y-107633260D01*
X108325500Y-107366740D01*
X108315573Y-107298607D01*
X108315572Y-107298606D01*
X108314338Y-107290131D01*
X108324151Y-107220954D01*
X108369806Y-107168064D01*
X108436808Y-107148253D01*
X108503885Y-107167811D01*
X108524721Y-107184570D01*
X108840150Y-107500000D01*
X109088915Y-107748765D01*
X109122400Y-107810088D01*
X109117416Y-107879780D01*
X109112635Y-107890906D01*
X109084426Y-107948608D01*
X109074500Y-108016739D01*
X109074500Y-108283260D01*
X109084426Y-108351391D01*
X109084427Y-108351393D01*
X109131411Y-108447502D01*
X109135803Y-108456485D01*
X109218512Y-108539194D01*
X109218515Y-108539196D01*
X109218517Y-108539198D01*
X109218518Y-108539198D01*
X109222550Y-108542077D01*
X109265674Y-108597051D01*
X109274500Y-108642997D01*
X109274500Y-116878586D01*
X109254815Y-116945625D01*
X109244215Y-116959786D01*
X109229624Y-116976625D01*
X109229621Y-116976629D01*
X109169834Y-117107543D01*
X109149353Y-117250000D01*
X109169834Y-117392456D01*
X109210752Y-117482052D01*
X109229623Y-117523373D01*
X109323872Y-117632143D01*
X109444947Y-117709953D01*
X109444950Y-117709954D01*
X109444949Y-117709954D01*
X109583036Y-117750499D01*
X109583038Y-117750500D01*
X109583039Y-117750500D01*
X109726962Y-117750500D01*
X109726962Y-117750499D01*
X109865053Y-117709953D01*
X109986128Y-117632143D01*
X110080377Y-117523373D01*
X110140165Y-117392457D01*
X110160647Y-117250000D01*
X117244353Y-117250000D01*
X117264834Y-117392456D01*
X117305752Y-117482052D01*
X117324623Y-117523373D01*
X117418872Y-117632143D01*
X117539947Y-117709953D01*
X117539950Y-117709954D01*
X117539949Y-117709954D01*
X117678036Y-117750499D01*
X117678038Y-117750500D01*
X117678039Y-117750500D01*
X117821962Y-117750500D01*
X117821962Y-117750499D01*
X117960053Y-117709953D01*
X118081128Y-117632143D01*
X118175377Y-117523373D01*
X118235165Y-117392457D01*
X118255647Y-117250000D01*
X118235165Y-117107543D01*
X118175377Y-116976627D01*
X118155785Y-116954016D01*
X118126762Y-116890460D01*
X118125500Y-116872815D01*
X118125500Y-116701137D01*
X118145185Y-116634098D01*
X118197989Y-116588343D01*
X118267147Y-116578399D01*
X118330703Y-116607424D01*
X118368477Y-116666202D01*
X118371117Y-116676945D01*
X118397947Y-116811829D01*
X118397950Y-116811839D01*
X118473364Y-116993907D01*
X118473371Y-116993920D01*
X118582860Y-117157781D01*
X118582863Y-117157785D01*
X118722214Y-117297136D01*
X118722218Y-117297139D01*
X118886079Y-117406628D01*
X118886092Y-117406635D01*
X119068160Y-117482049D01*
X119068165Y-117482051D01*
X119068169Y-117482051D01*
X119068170Y-117482052D01*
X119261456Y-117520500D01*
X119261459Y-117520500D01*
X120458543Y-117520500D01*
X120588582Y-117494632D01*
X120651835Y-117482051D01*
X120833914Y-117406632D01*
X120997782Y-117297139D01*
X121137139Y-117157782D01*
X121147397Y-117142430D01*
X121201008Y-117097624D01*
X121270333Y-117088915D01*
X121333361Y-117119069D01*
X121370081Y-117178511D01*
X121374500Y-117211319D01*
X121374500Y-118368680D01*
X121354815Y-118435719D01*
X121302011Y-118481474D01*
X121232853Y-118491418D01*
X121169297Y-118462393D01*
X121147398Y-118437571D01*
X121137139Y-118422218D01*
X121137136Y-118422214D01*
X120997785Y-118282863D01*
X120997781Y-118282860D01*
X120833920Y-118173371D01*
X120833907Y-118173364D01*
X120651839Y-118097950D01*
X120651829Y-118097947D01*
X120458543Y-118059500D01*
X120458541Y-118059500D01*
X119261459Y-118059500D01*
X119261457Y-118059500D01*
X119068170Y-118097947D01*
X119068160Y-118097950D01*
X118886092Y-118173364D01*
X118886079Y-118173371D01*
X118722218Y-118282860D01*
X118722214Y-118282863D01*
X118582863Y-118422214D01*
X118582860Y-118422218D01*
X118473371Y-118586079D01*
X118473364Y-118586092D01*
X118397950Y-118768160D01*
X118397947Y-118768170D01*
X118359500Y-118961456D01*
X118359500Y-118961459D01*
X118359500Y-119158541D01*
X118359500Y-119158543D01*
X118359499Y-119158543D01*
X118397947Y-119351829D01*
X118397950Y-119351839D01*
X118473364Y-119533907D01*
X118473371Y-119533920D01*
X118582860Y-119697781D01*
X118582863Y-119697785D01*
X118722214Y-119837136D01*
X118722218Y-119837139D01*
X118886079Y-119946628D01*
X118886092Y-119946635D01*
X119068160Y-120022049D01*
X119068165Y-120022051D01*
X119068169Y-120022051D01*
X119068170Y-120022052D01*
X119261456Y-120060500D01*
X119261459Y-120060500D01*
X120458543Y-120060500D01*
X120588582Y-120034632D01*
X120651835Y-120022051D01*
X120833914Y-119946632D01*
X120997782Y-119837139D01*
X121137139Y-119697782D01*
X121147397Y-119682430D01*
X121201008Y-119637624D01*
X121270333Y-119628915D01*
X121333361Y-119659069D01*
X121370081Y-119718511D01*
X121374500Y-119751319D01*
X121374500Y-133564397D01*
X121354815Y-133631436D01*
X121324941Y-133661313D01*
X121325577Y-133662047D01*
X121318874Y-133667855D01*
X121224623Y-133776626D01*
X121224622Y-133776628D01*
X121164834Y-133907543D01*
X121144353Y-134050000D01*
X121164834Y-134192456D01*
X121174381Y-134213360D01*
X121224623Y-134323373D01*
X121318872Y-134432143D01*
X121413420Y-134492905D01*
X121459174Y-134545708D01*
X121469118Y-134614867D01*
X121440093Y-134678422D01*
X121434061Y-134684901D01*
X121305602Y-134813360D01*
X121244279Y-134846845D01*
X121235571Y-134848416D01*
X121228041Y-134849498D01*
X121089949Y-134890045D01*
X120968873Y-134967856D01*
X120874623Y-135076626D01*
X120874622Y-135076628D01*
X120814834Y-135207543D01*
X120794353Y-135350000D01*
X120814834Y-135492456D01*
X120822281Y-135508762D01*
X120874623Y-135623373D01*
X120968872Y-135732143D01*
X121089947Y-135809953D01*
X121089950Y-135809954D01*
X121089949Y-135809954D01*
X121228036Y-135850499D01*
X121228038Y-135850500D01*
X121312117Y-135850500D01*
X121379156Y-135870185D01*
X121424911Y-135922989D01*
X121434855Y-135992147D01*
X121419504Y-136036497D01*
X121380814Y-136103511D01*
X121336777Y-136179785D01*
X121336773Y-136179794D01*
X121243947Y-136403895D01*
X121181161Y-136638214D01*
X121149500Y-136878711D01*
X121149500Y-137121288D01*
X121181161Y-137361785D01*
X121243947Y-137596104D01*
X121336773Y-137820205D01*
X121336776Y-137820212D01*
X121458064Y-138030289D01*
X121458066Y-138030292D01*
X121458067Y-138030293D01*
X121605733Y-138222736D01*
X121605739Y-138222743D01*
X121777256Y-138394260D01*
X121777263Y-138394266D01*
X121818336Y-138425782D01*
X121969711Y-138541936D01*
X122179788Y-138663224D01*
X122403900Y-138756054D01*
X122638211Y-138818838D01*
X122818586Y-138842584D01*
X122878711Y-138850500D01*
X122878712Y-138850500D01*
X123121289Y-138850500D01*
X123169388Y-138844167D01*
X123361789Y-138818838D01*
X123596100Y-138756054D01*
X123820212Y-138663224D01*
X124030289Y-138541936D01*
X124222738Y-138394265D01*
X124394265Y-138222738D01*
X124541936Y-138030289D01*
X124663224Y-137820212D01*
X124756054Y-137596100D01*
X124818838Y-137361789D01*
X124850500Y-137121288D01*
X124850500Y-136878712D01*
X124818838Y-136638211D01*
X124756054Y-136403900D01*
X124663224Y-136179788D01*
X124541936Y-135969711D01*
X124450462Y-135850499D01*
X124394266Y-135777263D01*
X124394260Y-135777256D01*
X124222743Y-135605739D01*
X124222736Y-135605733D01*
X124030293Y-135458067D01*
X124030292Y-135458066D01*
X124030289Y-135458064D01*
X123820212Y-135336776D01*
X123780923Y-135320502D01*
X123596104Y-135243947D01*
X123469241Y-135209954D01*
X123361789Y-135181162D01*
X123361788Y-135181161D01*
X123361785Y-135181161D01*
X123121289Y-135149500D01*
X123121288Y-135149500D01*
X122878712Y-135149500D01*
X122878711Y-135149500D01*
X122638214Y-135181161D01*
X122403892Y-135243948D01*
X122182942Y-135335468D01*
X122113473Y-135342937D01*
X122050994Y-135311662D01*
X122015342Y-135251573D01*
X122017836Y-135181747D01*
X122047806Y-135133229D01*
X122700474Y-134480563D01*
X122700475Y-134480562D01*
X122749910Y-134394938D01*
X122775500Y-134299435D01*
X122775500Y-112040565D01*
X122775500Y-112040564D01*
X122749911Y-111945063D01*
X122700475Y-111859437D01*
X122280565Y-111439528D01*
X122247081Y-111378206D01*
X122245509Y-111369493D01*
X122240540Y-111334932D01*
X122235165Y-111297543D01*
X122217500Y-111258862D01*
X122175379Y-111166630D01*
X122175376Y-111166626D01*
X122159384Y-111148170D01*
X122081128Y-111057857D01*
X121960053Y-110980047D01*
X121960051Y-110980046D01*
X121960049Y-110980045D01*
X121960050Y-110980045D01*
X121821963Y-110939500D01*
X121821961Y-110939500D01*
X121678039Y-110939500D01*
X121678036Y-110939500D01*
X121539949Y-110980045D01*
X121437683Y-111045767D01*
X121370643Y-111065451D01*
X121303604Y-111045766D01*
X121257849Y-110992961D01*
X121256082Y-110988901D01*
X121246633Y-110966089D01*
X121246632Y-110966086D01*
X121246630Y-110966083D01*
X121246628Y-110966079D01*
X121137139Y-110802218D01*
X121137136Y-110802214D01*
X120997785Y-110662863D01*
X120997781Y-110662860D01*
X120833920Y-110553371D01*
X120833907Y-110553364D01*
X120651839Y-110477950D01*
X120651829Y-110477947D01*
X120458543Y-110439500D01*
X120458541Y-110439500D01*
X119261459Y-110439500D01*
X119261457Y-110439500D01*
X119068170Y-110477947D01*
X119068160Y-110477950D01*
X118886092Y-110553364D01*
X118886079Y-110553371D01*
X118722218Y-110662860D01*
X118722214Y-110662863D01*
X118582863Y-110802214D01*
X118582860Y-110802218D01*
X118473371Y-110966079D01*
X118473364Y-110966092D01*
X118397950Y-111148160D01*
X118397947Y-111148170D01*
X118371117Y-111283054D01*
X118338732Y-111344965D01*
X118278016Y-111379539D01*
X118208247Y-111375799D01*
X118151575Y-111334932D01*
X118125993Y-111269914D01*
X118125500Y-111258862D01*
X118125500Y-109081137D01*
X118145185Y-109014098D01*
X118197989Y-108968343D01*
X118267147Y-108958399D01*
X118330703Y-108987424D01*
X118368477Y-109046202D01*
X118371117Y-109056945D01*
X118397947Y-109191829D01*
X118397950Y-109191839D01*
X118473364Y-109373907D01*
X118473371Y-109373920D01*
X118582860Y-109537781D01*
X118582863Y-109537785D01*
X118722214Y-109677136D01*
X118722218Y-109677139D01*
X118886079Y-109786628D01*
X118886092Y-109786635D01*
X119046434Y-109853050D01*
X119068165Y-109862051D01*
X119068169Y-109862051D01*
X119068170Y-109862052D01*
X119261456Y-109900500D01*
X119261459Y-109900500D01*
X120458543Y-109900500D01*
X120588582Y-109874632D01*
X120651835Y-109862051D01*
X120792655Y-109803721D01*
X120833907Y-109786635D01*
X120833907Y-109786634D01*
X120833914Y-109786632D01*
X120997782Y-109677139D01*
X121137139Y-109537782D01*
X121246632Y-109373914D01*
X121322051Y-109191835D01*
X121334632Y-109128582D01*
X121360500Y-108998543D01*
X121360500Y-108801456D01*
X121322052Y-108608170D01*
X121322051Y-108608169D01*
X121322051Y-108608165D01*
X121317450Y-108597056D01*
X121246635Y-108426092D01*
X121246628Y-108426079D01*
X121137139Y-108262218D01*
X121137136Y-108262214D01*
X120997785Y-108122863D01*
X120997781Y-108122860D01*
X120833920Y-108013371D01*
X120833907Y-108013364D01*
X120651839Y-107937950D01*
X120651829Y-107937947D01*
X120458543Y-107899500D01*
X120458541Y-107899500D01*
X119261459Y-107899500D01*
X119261457Y-107899500D01*
X119068170Y-107937947D01*
X119068160Y-107937950D01*
X118886092Y-108013364D01*
X118886079Y-108013371D01*
X118722218Y-108122860D01*
X118722214Y-108122863D01*
X118582863Y-108262214D01*
X118582860Y-108262218D01*
X118473371Y-108426079D01*
X118473364Y-108426092D01*
X118397950Y-108608160D01*
X118397947Y-108608170D01*
X118371117Y-108743054D01*
X118338732Y-108804965D01*
X118278016Y-108839539D01*
X118208247Y-108835799D01*
X118151575Y-108794932D01*
X118125993Y-108729914D01*
X118125500Y-108718862D01*
X118125500Y-107500000D01*
X121244353Y-107500000D01*
X121264834Y-107642456D01*
X121291750Y-107701393D01*
X121324623Y-107773373D01*
X121418872Y-107882143D01*
X121539947Y-107959953D01*
X121539950Y-107959954D01*
X121539949Y-107959954D01*
X121678036Y-108000499D01*
X121678038Y-108000500D01*
X121678039Y-108000500D01*
X121821962Y-108000500D01*
X121821962Y-108000499D01*
X121944635Y-107964480D01*
X121960050Y-107959954D01*
X121960050Y-107959953D01*
X121960053Y-107959953D01*
X122081128Y-107882143D01*
X122175377Y-107773373D01*
X122235165Y-107642457D01*
X122255647Y-107500000D01*
X122235165Y-107357543D01*
X122175377Y-107226627D01*
X122081128Y-107117857D01*
X121960053Y-107040047D01*
X121960051Y-107040046D01*
X121960049Y-107040045D01*
X121960050Y-107040045D01*
X121821963Y-106999500D01*
X121821961Y-106999500D01*
X121678039Y-106999500D01*
X121678036Y-106999500D01*
X121539949Y-107040045D01*
X121418873Y-107117856D01*
X121324623Y-107226626D01*
X121324622Y-107226628D01*
X121264834Y-107357543D01*
X121244353Y-107500000D01*
X118125500Y-107500000D01*
X118125500Y-106541137D01*
X118145185Y-106474098D01*
X118197989Y-106428343D01*
X118267147Y-106418399D01*
X118330703Y-106447424D01*
X118368477Y-106506202D01*
X118371117Y-106516945D01*
X118397947Y-106651829D01*
X118397950Y-106651839D01*
X118473364Y-106833907D01*
X118473371Y-106833920D01*
X118582860Y-106997781D01*
X118582863Y-106997785D01*
X118722214Y-107137136D01*
X118722218Y-107137139D01*
X118886079Y-107246628D01*
X118886092Y-107246635D01*
X119068160Y-107322049D01*
X119068165Y-107322051D01*
X119068169Y-107322051D01*
X119068170Y-107322052D01*
X119261456Y-107360500D01*
X119261459Y-107360500D01*
X120458543Y-107360500D01*
X120588582Y-107334632D01*
X120651835Y-107322051D01*
X120833914Y-107246632D01*
X120997782Y-107137139D01*
X121137139Y-106997782D01*
X121246632Y-106833914D01*
X121322051Y-106651835D01*
X121342152Y-106550782D01*
X121360500Y-106458543D01*
X121360500Y-106261456D01*
X121322052Y-106068170D01*
X121322051Y-106068169D01*
X121322051Y-106068165D01*
X121303965Y-106024500D01*
X121246635Y-105886092D01*
X121246628Y-105886079D01*
X121137139Y-105722218D01*
X121137136Y-105722214D01*
X120997785Y-105582863D01*
X120997781Y-105582860D01*
X120833920Y-105473371D01*
X120833907Y-105473364D01*
X120651839Y-105397950D01*
X120651829Y-105397947D01*
X120458543Y-105359500D01*
X120458541Y-105359500D01*
X119261459Y-105359500D01*
X119261457Y-105359500D01*
X119068170Y-105397947D01*
X119068160Y-105397950D01*
X118886092Y-105473364D01*
X118886079Y-105473371D01*
X118722218Y-105582860D01*
X118722214Y-105582863D01*
X118582863Y-105722214D01*
X118582860Y-105722218D01*
X118473371Y-105886079D01*
X118473364Y-105886092D01*
X118397950Y-106068160D01*
X118397947Y-106068170D01*
X118371117Y-106203054D01*
X118338732Y-106264965D01*
X118278016Y-106299539D01*
X118208247Y-106295799D01*
X118151575Y-106254932D01*
X118125993Y-106189914D01*
X118125500Y-106178862D01*
X118125500Y-105000000D01*
X121494353Y-105000000D01*
X121514834Y-105142456D01*
X121574622Y-105273371D01*
X121574623Y-105273373D01*
X121668872Y-105382143D01*
X121789947Y-105459953D01*
X121789950Y-105459954D01*
X121789949Y-105459954D01*
X121928036Y-105500499D01*
X121928038Y-105500500D01*
X121928039Y-105500500D01*
X122071962Y-105500500D01*
X122071962Y-105500499D01*
X122210053Y-105459953D01*
X122331128Y-105382143D01*
X122425377Y-105273373D01*
X122485165Y-105142457D01*
X122505647Y-105000000D01*
X122485165Y-104857543D01*
X122425377Y-104726627D01*
X122331128Y-104617857D01*
X122210053Y-104540047D01*
X122210051Y-104540046D01*
X122210049Y-104540045D01*
X122210050Y-104540045D01*
X122071963Y-104499500D01*
X122071961Y-104499500D01*
X121928039Y-104499500D01*
X121928036Y-104499500D01*
X121789949Y-104540045D01*
X121668873Y-104617856D01*
X121574623Y-104726626D01*
X121574622Y-104726628D01*
X121514834Y-104857543D01*
X121494353Y-105000000D01*
X118125500Y-105000000D01*
X118125500Y-104127183D01*
X118145185Y-104060144D01*
X118155779Y-104045989D01*
X118175377Y-104023373D01*
X118175378Y-104023369D01*
X118176177Y-104022448D01*
X118234955Y-103984673D01*
X118304825Y-103984672D01*
X118363603Y-104022446D01*
X118391508Y-104079457D01*
X118397947Y-104111830D01*
X118397950Y-104111839D01*
X118473364Y-104293907D01*
X118473371Y-104293920D01*
X118582860Y-104457781D01*
X118582863Y-104457785D01*
X118722214Y-104597136D01*
X118722218Y-104597139D01*
X118886079Y-104706628D01*
X118886092Y-104706635D01*
X119068160Y-104782049D01*
X119068165Y-104782051D01*
X119068169Y-104782051D01*
X119068170Y-104782052D01*
X119261456Y-104820500D01*
X119261459Y-104820500D01*
X120458543Y-104820500D01*
X120614301Y-104789517D01*
X120651835Y-104782051D01*
X120792655Y-104723721D01*
X120833907Y-104706635D01*
X120833907Y-104706634D01*
X120833914Y-104706632D01*
X120997782Y-104597139D01*
X121137139Y-104457782D01*
X121246632Y-104293914D01*
X121322051Y-104111835D01*
X121345707Y-103992911D01*
X121360500Y-103918543D01*
X121360500Y-103721456D01*
X121322052Y-103528170D01*
X121322051Y-103528169D01*
X121322051Y-103528165D01*
X121311035Y-103501569D01*
X121246635Y-103346092D01*
X121246628Y-103346079D01*
X121137139Y-103182218D01*
X121137136Y-103182214D01*
X120997785Y-103042863D01*
X120997781Y-103042860D01*
X120833920Y-102933371D01*
X120833907Y-102933364D01*
X120651839Y-102857950D01*
X120651829Y-102857947D01*
X120458543Y-102819500D01*
X120458541Y-102819500D01*
X119261459Y-102819500D01*
X119261457Y-102819500D01*
X119068170Y-102857947D01*
X119068160Y-102857950D01*
X118886092Y-102933364D01*
X118886079Y-102933371D01*
X118722218Y-103042860D01*
X118722214Y-103042863D01*
X118582863Y-103182214D01*
X118582860Y-103182218D01*
X118473371Y-103346079D01*
X118473366Y-103346089D01*
X118412299Y-103493518D01*
X118368458Y-103547921D01*
X118302164Y-103569986D01*
X118234464Y-103552707D01*
X118186854Y-103501569D01*
X118184943Y-103497574D01*
X118175378Y-103476629D01*
X118175376Y-103476626D01*
X118081128Y-103367857D01*
X117960053Y-103290047D01*
X117960051Y-103290046D01*
X117960049Y-103290045D01*
X117960050Y-103290045D01*
X117821963Y-103249500D01*
X117821961Y-103249500D01*
X117678039Y-103249500D01*
X117678036Y-103249500D01*
X117539949Y-103290045D01*
X117418873Y-103367856D01*
X117324623Y-103476626D01*
X117324622Y-103476628D01*
X117264834Y-103607543D01*
X117244353Y-103750000D01*
X117264834Y-103892456D01*
X117324622Y-104023371D01*
X117324623Y-104023373D01*
X117344212Y-104045980D01*
X117373238Y-104109534D01*
X117374500Y-104127183D01*
X117374500Y-116872815D01*
X117354815Y-116939854D01*
X117344215Y-116954016D01*
X117324623Y-116976627D01*
X117324622Y-116976628D01*
X117264834Y-117107543D01*
X117244353Y-117250000D01*
X110160647Y-117250000D01*
X110140165Y-117107543D01*
X110080377Y-116976627D01*
X110055786Y-116948247D01*
X110026762Y-116884691D01*
X110025500Y-116867045D01*
X110025500Y-108642997D01*
X110045185Y-108575958D01*
X110077450Y-108542077D01*
X110081477Y-108539200D01*
X110081483Y-108539198D01*
X110164198Y-108456483D01*
X110215573Y-108351393D01*
X110225500Y-108283260D01*
X110225500Y-108016740D01*
X110225500Y-108016737D01*
X110225176Y-108012269D01*
X110226329Y-108012185D01*
X110235405Y-107948202D01*
X110281060Y-107895312D01*
X110348062Y-107875500D01*
X110493101Y-107875500D01*
X110560140Y-107895185D01*
X110580782Y-107911819D01*
X110713181Y-108044218D01*
X110746666Y-108105541D01*
X110749500Y-108131899D01*
X110749500Y-108545481D01*
X110749501Y-108545490D01*
X110755587Y-108602114D01*
X110799133Y-108718862D01*
X110803372Y-108730226D01*
X110885313Y-108839687D01*
X110994774Y-108921628D01*
X111122886Y-108969412D01*
X111179515Y-108975500D01*
X111770484Y-108975499D01*
X111827114Y-108969412D01*
X111955226Y-108921628D01*
X112064687Y-108839687D01*
X112146628Y-108730226D01*
X112194412Y-108602114D01*
X112198725Y-108562000D01*
X112200499Y-108545501D01*
X112200499Y-108545490D01*
X112200500Y-108545485D01*
X112200499Y-108004516D01*
X112194586Y-107949501D01*
X112194412Y-107947885D01*
X112160864Y-107857942D01*
X112146628Y-107819774D01*
X112064687Y-107710313D01*
X111998911Y-107661074D01*
X111955228Y-107628373D01*
X111955226Y-107628372D01*
X111922538Y-107616179D01*
X111866608Y-107574310D01*
X111842191Y-107508846D01*
X111857043Y-107440573D01*
X111906448Y-107391168D01*
X111922528Y-107383823D01*
X111955226Y-107371628D01*
X112064687Y-107289687D01*
X112146628Y-107180226D01*
X112194412Y-107052114D01*
X112197282Y-107025421D01*
X112200499Y-106995501D01*
X112200499Y-106995494D01*
X112200500Y-106995485D01*
X112200499Y-106454516D01*
X112195652Y-106409426D01*
X112194412Y-106397885D01*
X112156335Y-106295799D01*
X112146628Y-106269774D01*
X112064687Y-106160313D01*
X111998911Y-106111074D01*
X111955228Y-106078373D01*
X111955226Y-106078372D01*
X111827114Y-106030588D01*
X111827112Y-106030587D01*
X111827110Y-106030587D01*
X111770493Y-106024500D01*
X111179518Y-106024500D01*
X111179509Y-106024501D01*
X111122885Y-106030587D01*
X110994773Y-106078372D01*
X110885313Y-106160313D01*
X110803373Y-106269771D01*
X110803372Y-106269774D01*
X110757098Y-106393835D01*
X110715228Y-106449768D01*
X110649763Y-106474184D01*
X110640918Y-106474500D01*
X110138191Y-106474500D01*
X110083731Y-106461901D01*
X109976391Y-106409426D01*
X109908261Y-106399500D01*
X109908260Y-106399500D01*
X109391740Y-106399500D01*
X109391739Y-106399500D01*
X109323608Y-106409426D01*
X109218514Y-106460803D01*
X109128536Y-106550782D01*
X109125673Y-106547919D01*
X109086144Y-106578604D01*
X109016550Y-106584807D01*
X108954651Y-106552399D01*
X108953138Y-106550912D01*
X108911818Y-106509592D01*
X108878333Y-106448269D01*
X108875500Y-106421912D01*
X108875500Y-104702183D01*
X108895185Y-104635144D01*
X108905783Y-104620985D01*
X108925377Y-104598373D01*
X108985165Y-104467457D01*
X109005647Y-104325000D01*
X108985165Y-104182543D01*
X108925377Y-104051627D01*
X108831128Y-103942857D01*
X108710053Y-103865047D01*
X108710051Y-103865046D01*
X108710049Y-103865045D01*
X108710050Y-103865045D01*
X108571963Y-103824500D01*
X108571961Y-103824500D01*
X108428039Y-103824500D01*
X108428036Y-103824500D01*
X108289949Y-103865045D01*
X108168873Y-103942856D01*
X108074623Y-104051626D01*
X108074622Y-104051628D01*
X108014834Y-104182543D01*
X107994353Y-104325000D01*
X108014834Y-104467456D01*
X108047985Y-104540045D01*
X108074623Y-104598373D01*
X108094212Y-104620980D01*
X108123238Y-104684534D01*
X108124500Y-104702183D01*
X108124500Y-106275500D01*
X108104815Y-106342539D01*
X108052011Y-106388294D01*
X108000500Y-106399500D01*
X107491739Y-106399500D01*
X107423608Y-106409426D01*
X107353960Y-106443475D01*
X107331376Y-106454516D01*
X107309286Y-106465315D01*
X107308275Y-106463248D01*
X107255545Y-106481569D01*
X107187625Y-106465175D01*
X107139351Y-106414665D01*
X107125500Y-106357716D01*
X107125500Y-105700566D01*
X107125500Y-105700565D01*
X107125500Y-105700564D01*
X107099911Y-105605063D01*
X107050475Y-105519437D01*
X106661819Y-105130781D01*
X106628334Y-105069458D01*
X106625500Y-105043100D01*
X106625500Y-104902311D01*
X106645185Y-104835272D01*
X106697989Y-104789517D01*
X106767147Y-104779573D01*
X106784435Y-104783334D01*
X106789945Y-104784952D01*
X106789947Y-104784953D01*
X106878028Y-104810815D01*
X106928038Y-104825500D01*
X106928039Y-104825500D01*
X107071962Y-104825500D01*
X107071962Y-104825499D01*
X107210053Y-104784953D01*
X107331128Y-104707143D01*
X107425377Y-104598373D01*
X107485165Y-104467457D01*
X107505647Y-104325000D01*
X107485165Y-104182543D01*
X107425377Y-104051627D01*
X107331128Y-103942857D01*
X107210053Y-103865047D01*
X107210051Y-103865046D01*
X107210049Y-103865045D01*
X107210050Y-103865045D01*
X107071963Y-103824500D01*
X107071961Y-103824500D01*
X106928039Y-103824500D01*
X106928036Y-103824500D01*
X106784434Y-103866665D01*
X106714565Y-103866665D01*
X106655787Y-103828890D01*
X106626762Y-103765335D01*
X106625500Y-103747688D01*
X106625500Y-101877183D01*
X106645185Y-101810144D01*
X106655783Y-101795985D01*
X106675377Y-101773373D01*
X106686051Y-101750000D01*
X107244353Y-101750000D01*
X107264834Y-101892456D01*
X107303275Y-101976628D01*
X107324623Y-102023373D01*
X107418872Y-102132143D01*
X107539947Y-102209953D01*
X107539950Y-102209954D01*
X107539949Y-102209954D01*
X107647107Y-102241417D01*
X107676336Y-102250000D01*
X107678036Y-102250499D01*
X107678038Y-102250500D01*
X107678039Y-102250500D01*
X107821961Y-102250500D01*
X107934115Y-102217569D01*
X108003982Y-102217569D01*
X108062761Y-102255343D01*
X108091786Y-102318899D01*
X108081843Y-102388057D01*
X108075590Y-102399507D01*
X108014834Y-102532543D01*
X107994353Y-102675000D01*
X108014834Y-102817456D01*
X108067770Y-102933368D01*
X108074623Y-102948373D01*
X108168872Y-103057143D01*
X108289947Y-103134953D01*
X108289950Y-103134954D01*
X108289949Y-103134954D01*
X108428036Y-103175499D01*
X108428038Y-103175500D01*
X108428039Y-103175500D01*
X108571962Y-103175500D01*
X108571962Y-103175499D01*
X108710053Y-103134953D01*
X108831128Y-103057143D01*
X108925377Y-102948373D01*
X108985165Y-102817457D01*
X109005647Y-102675000D01*
X108985165Y-102532543D01*
X108970303Y-102500000D01*
X121494353Y-102500000D01*
X121514834Y-102642456D01*
X121555890Y-102732354D01*
X121574623Y-102773373D01*
X121668872Y-102882143D01*
X121789947Y-102959953D01*
X121789950Y-102959954D01*
X121789949Y-102959954D01*
X121928036Y-103000499D01*
X121928038Y-103000500D01*
X121928039Y-103000500D01*
X122071962Y-103000500D01*
X122071962Y-103000499D01*
X122210053Y-102959953D01*
X122331128Y-102882143D01*
X122425377Y-102773373D01*
X122485165Y-102642457D01*
X122505647Y-102500000D01*
X122485165Y-102357543D01*
X122425377Y-102226627D01*
X122331128Y-102117857D01*
X122210053Y-102040047D01*
X122210051Y-102040046D01*
X122210049Y-102040045D01*
X122210050Y-102040045D01*
X122071963Y-101999500D01*
X122071961Y-101999500D01*
X121928039Y-101999500D01*
X121928036Y-101999500D01*
X121789949Y-102040045D01*
X121668873Y-102117856D01*
X121574623Y-102226626D01*
X121574622Y-102226628D01*
X121514834Y-102357543D01*
X121494353Y-102500000D01*
X108970303Y-102500000D01*
X108925377Y-102401627D01*
X108831128Y-102292857D01*
X108710053Y-102215047D01*
X108710051Y-102215046D01*
X108710049Y-102215045D01*
X108710050Y-102215045D01*
X108571963Y-102174500D01*
X108571961Y-102174500D01*
X108428039Y-102174500D01*
X108428036Y-102174500D01*
X108315885Y-102207430D01*
X108246015Y-102207430D01*
X108187238Y-102169655D01*
X108158213Y-102106099D01*
X108168157Y-102036941D01*
X108174408Y-102025493D01*
X108175375Y-102023374D01*
X108175377Y-102023373D01*
X108235165Y-101892457D01*
X108255647Y-101750000D01*
X108235165Y-101607543D01*
X108175377Y-101476627D01*
X108090387Y-101378543D01*
X118359499Y-101378543D01*
X118397947Y-101571829D01*
X118397950Y-101571839D01*
X118473364Y-101753907D01*
X118473371Y-101753920D01*
X118582860Y-101917781D01*
X118582863Y-101917785D01*
X118722214Y-102057136D01*
X118722218Y-102057139D01*
X118886079Y-102166628D01*
X118886092Y-102166635D01*
X119068160Y-102242049D01*
X119068165Y-102242051D01*
X119068169Y-102242051D01*
X119068170Y-102242052D01*
X119261456Y-102280500D01*
X119261459Y-102280500D01*
X120458543Y-102280500D01*
X120609359Y-102250500D01*
X120651835Y-102242051D01*
X120833914Y-102166632D01*
X120997782Y-102057139D01*
X121137139Y-101917782D01*
X121246632Y-101753914D01*
X121253274Y-101737880D01*
X121283126Y-101665809D01*
X121322051Y-101571835D01*
X121340989Y-101476627D01*
X121360500Y-101378543D01*
X121360500Y-101181456D01*
X121322052Y-100988170D01*
X121322051Y-100988169D01*
X121322051Y-100988165D01*
X121319873Y-100982907D01*
X121246635Y-100806092D01*
X121246628Y-100806079D01*
X121137139Y-100642218D01*
X121137136Y-100642214D01*
X120997785Y-100502863D01*
X120997781Y-100502860D01*
X120833920Y-100393371D01*
X120833907Y-100393364D01*
X120651839Y-100317950D01*
X120651829Y-100317947D01*
X120458543Y-100279500D01*
X120458541Y-100279500D01*
X119261459Y-100279500D01*
X119261457Y-100279500D01*
X119068170Y-100317947D01*
X119068160Y-100317950D01*
X118886092Y-100393364D01*
X118886079Y-100393371D01*
X118722218Y-100502860D01*
X118722214Y-100502863D01*
X118582863Y-100642214D01*
X118582860Y-100642218D01*
X118473371Y-100806079D01*
X118473364Y-100806092D01*
X118397950Y-100988160D01*
X118397947Y-100988170D01*
X118359500Y-101181456D01*
X118359500Y-101181459D01*
X118359500Y-101378541D01*
X118359500Y-101378543D01*
X118359499Y-101378543D01*
X108090387Y-101378543D01*
X108081128Y-101367857D01*
X107960053Y-101290047D01*
X107960051Y-101290046D01*
X107960049Y-101290045D01*
X107960050Y-101290045D01*
X107821963Y-101249500D01*
X107821961Y-101249500D01*
X107678039Y-101249500D01*
X107678036Y-101249500D01*
X107539949Y-101290045D01*
X107418873Y-101367856D01*
X107324623Y-101476626D01*
X107324622Y-101476628D01*
X107264834Y-101607543D01*
X107244353Y-101750000D01*
X106686051Y-101750000D01*
X106735165Y-101642457D01*
X106755647Y-101500000D01*
X106735165Y-101357543D01*
X106675377Y-101226627D01*
X106581128Y-101117857D01*
X106460053Y-101040047D01*
X106460051Y-101040046D01*
X106460049Y-101040045D01*
X106460050Y-101040045D01*
X106321963Y-100999500D01*
X106321961Y-100999500D01*
X106178039Y-100999500D01*
X106178036Y-100999500D01*
X106039949Y-101040045D01*
X105966539Y-101087223D01*
X105899499Y-101106907D01*
X105832460Y-101087222D01*
X105786705Y-101034418D01*
X105775500Y-100982907D01*
X105775500Y-99742175D01*
X106494352Y-99742175D01*
X106494353Y-99757848D01*
X106494500Y-99759891D01*
X106494500Y-99876002D01*
X106500338Y-99930312D01*
X106511543Y-99981818D01*
X106511546Y-99981827D01*
X106518779Y-100008192D01*
X106518783Y-100008203D01*
X106568105Y-100094818D01*
X106568110Y-100094825D01*
X106568112Y-100094828D01*
X106580998Y-100109699D01*
X106613863Y-100147628D01*
X106613866Y-100147631D01*
X106613867Y-100147632D01*
X106646641Y-100179257D01*
X106734976Y-100225465D01*
X106734977Y-100225465D01*
X106734977Y-100225466D01*
X106779218Y-100238456D01*
X106802015Y-100245150D01*
X106802019Y-100245150D01*
X106802021Y-100245151D01*
X106813652Y-100246823D01*
X106874000Y-100255500D01*
X106874001Y-100255500D01*
X108626000Y-100255500D01*
X108680313Y-100249661D01*
X108731824Y-100238455D01*
X108758198Y-100231219D01*
X108787074Y-100214775D01*
X108844818Y-100181894D01*
X108844819Y-100181892D01*
X108844828Y-100181888D01*
X108897632Y-100136133D01*
X108929257Y-100103359D01*
X108975465Y-100015024D01*
X108977470Y-100008198D01*
X108991635Y-99959954D01*
X108995150Y-99947985D01*
X109005500Y-99876000D01*
X109005500Y-99759891D01*
X109005646Y-99757848D01*
X109005648Y-99742175D01*
X109005500Y-99740111D01*
X109005500Y-99009891D01*
X109005646Y-99007848D01*
X109005647Y-98992179D01*
X109005500Y-98990111D01*
X109005500Y-98259891D01*
X109005646Y-98257848D01*
X109005647Y-98242179D01*
X109005500Y-98240111D01*
X109005500Y-98124000D01*
X108999661Y-98069687D01*
X108988455Y-98018176D01*
X108981219Y-97991802D01*
X108977332Y-97984976D01*
X108931894Y-97905181D01*
X108931890Y-97905176D01*
X108931888Y-97905172D01*
X108896097Y-97863867D01*
X108886136Y-97852371D01*
X108853359Y-97820743D01*
X108789411Y-97787292D01*
X108765024Y-97774535D01*
X108765023Y-97774534D01*
X108765022Y-97774534D01*
X108765022Y-97774533D01*
X108697990Y-97754851D01*
X108697978Y-97754848D01*
X108626001Y-97744500D01*
X108626000Y-97744500D01*
X106874000Y-97744500D01*
X106873997Y-97744500D01*
X106819687Y-97750338D01*
X106768181Y-97761543D01*
X106768172Y-97761546D01*
X106741807Y-97768779D01*
X106741796Y-97768783D01*
X106655181Y-97818105D01*
X106655173Y-97818111D01*
X106602371Y-97863863D01*
X106570743Y-97896640D01*
X106524534Y-97984977D01*
X106524533Y-97984977D01*
X106504851Y-98052009D01*
X106504848Y-98052021D01*
X106494500Y-98123998D01*
X106494500Y-98240111D01*
X106494352Y-98242179D01*
X106494353Y-98257848D01*
X106494500Y-98259891D01*
X106494500Y-98990111D01*
X106494352Y-98992179D01*
X106494353Y-99007848D01*
X106494500Y-99009891D01*
X106494500Y-99740111D01*
X106494352Y-99742175D01*
X105775500Y-99742175D01*
X105775500Y-99634332D01*
X105795185Y-99567293D01*
X105805783Y-99553134D01*
X105825377Y-99530522D01*
X105885165Y-99399606D01*
X105905647Y-99257149D01*
X105885165Y-99114692D01*
X105825377Y-98983776D01*
X105731128Y-98875006D01*
X105610053Y-98797196D01*
X105610051Y-98797195D01*
X105610049Y-98797194D01*
X105610050Y-98797194D01*
X105471963Y-98756649D01*
X105471961Y-98756649D01*
X105344557Y-98756649D01*
X105277518Y-98736964D01*
X105231763Y-98684160D01*
X105222139Y-98617230D01*
X105221942Y-98617212D01*
X105222018Y-98616392D01*
X105221819Y-98615002D01*
X105222505Y-98611207D01*
X105225500Y-98579269D01*
X105225500Y-97920730D01*
X105222646Y-97890300D01*
X105222646Y-97890298D01*
X105182138Y-97774535D01*
X105177793Y-97762118D01*
X105097150Y-97652850D01*
X105083068Y-97642457D01*
X105076812Y-97637840D01*
X105034563Y-97582191D01*
X105027710Y-97520424D01*
X105030647Y-97500000D01*
X105026044Y-97467988D01*
X105035987Y-97398833D01*
X105074475Y-97351074D01*
X105089687Y-97339687D01*
X105134370Y-97279996D01*
X105190303Y-97238125D01*
X105259995Y-97233141D01*
X105268559Y-97235326D01*
X105302015Y-97245150D01*
X105302020Y-97245150D01*
X105302021Y-97245151D01*
X105313652Y-97246823D01*
X105374000Y-97255500D01*
X105374001Y-97255500D01*
X106032601Y-97255500D01*
X106032602Y-97255500D01*
X106095789Y-97247563D01*
X106144722Y-97235073D01*
X106155197Y-97232400D01*
X106155200Y-97232399D01*
X106155198Y-97232399D01*
X106155216Y-97232395D01*
X106189807Y-97220882D01*
X106265759Y-97170131D01*
X106332429Y-97149255D01*
X106399810Y-97167738D01*
X106415851Y-97179524D01*
X106418866Y-97182137D01*
X106418872Y-97182143D01*
X106539947Y-97259953D01*
X106539950Y-97259954D01*
X106539949Y-97259954D01*
X106678036Y-97300499D01*
X106678038Y-97300500D01*
X106678039Y-97300500D01*
X106821962Y-97300500D01*
X106821962Y-97300499D01*
X106929121Y-97269035D01*
X106960050Y-97259954D01*
X106960050Y-97259953D01*
X106960053Y-97259953D01*
X107081128Y-97182143D01*
X107175377Y-97073373D01*
X107183538Y-97055504D01*
X107229292Y-97002700D01*
X107296332Y-96983015D01*
X107353809Y-96997141D01*
X107355550Y-96998051D01*
X107355552Y-96998053D01*
X107395911Y-97019165D01*
X107444799Y-97028889D01*
X107493684Y-97038614D01*
X107493687Y-97038614D01*
X107563554Y-97038614D01*
X107563556Y-97038614D01*
X107635538Y-97028265D01*
X107697665Y-97010022D01*
X107732600Y-97005000D01*
X107767398Y-97005000D01*
X107802331Y-97010022D01*
X107835715Y-97019824D01*
X107867816Y-97034483D01*
X107897091Y-97053296D01*
X107923762Y-97076407D01*
X107938022Y-97092864D01*
X107965451Y-97124519D01*
X107990188Y-97149255D01*
X107991234Y-97150301D01*
X107991243Y-97150309D01*
X108017947Y-97173447D01*
X108024891Y-97179251D01*
X108024897Y-97179254D01*
X108024900Y-97179257D01*
X108065510Y-97200500D01*
X108113235Y-97225465D01*
X108113236Y-97225466D01*
X108163364Y-97240184D01*
X108180274Y-97245150D01*
X108180278Y-97245150D01*
X108180280Y-97245151D01*
X108191911Y-97246823D01*
X108252259Y-97255500D01*
X108252260Y-97255500D01*
X108950500Y-97255500D01*
X108950513Y-97255499D01*
X108987623Y-97251509D01*
X109056383Y-97263913D01*
X109107521Y-97311523D01*
X109111364Y-97318502D01*
X109146949Y-97388340D01*
X109146954Y-97388347D01*
X109236652Y-97478045D01*
X109236654Y-97478046D01*
X109236658Y-97478050D01*
X109349694Y-97535645D01*
X109349698Y-97535647D01*
X109443475Y-97550499D01*
X109443481Y-97550500D01*
X109838849Y-97550499D01*
X109905886Y-97570183D01*
X109951641Y-97622987D01*
X109961585Y-97692146D01*
X109932560Y-97755701D01*
X109890365Y-97787290D01*
X109884337Y-97790043D01*
X109763257Y-97867856D01*
X109669007Y-97976626D01*
X109669006Y-97976628D01*
X109609218Y-98107543D01*
X109588737Y-98250000D01*
X109609218Y-98392456D01*
X109651777Y-98485645D01*
X109669007Y-98523373D01*
X109763256Y-98632143D01*
X109884331Y-98709953D01*
X109884334Y-98709954D01*
X109884333Y-98709954D01*
X110022420Y-98750499D01*
X110022422Y-98750500D01*
X110022423Y-98750500D01*
X110166346Y-98750500D01*
X110166346Y-98750499D01*
X110304437Y-98709953D01*
X110405218Y-98645184D01*
X110472258Y-98625500D01*
X111418219Y-98625500D01*
X111485258Y-98645185D01*
X111531013Y-98697989D01*
X111540957Y-98767147D01*
X111511932Y-98830703D01*
X111492529Y-98848767D01*
X111410314Y-98910311D01*
X111328373Y-99019771D01*
X111280587Y-99147889D01*
X111274500Y-99204498D01*
X111274500Y-99745481D01*
X111274501Y-99745490D01*
X111280587Y-99802114D01*
X111328372Y-99930226D01*
X111410313Y-100039687D01*
X111519774Y-100121628D01*
X111647886Y-100169412D01*
X111704515Y-100175500D01*
X112295484Y-100175499D01*
X112352114Y-100169412D01*
X112480226Y-100121628D01*
X112589687Y-100039687D01*
X112671628Y-99930226D01*
X112719412Y-99802114D01*
X112722502Y-99773371D01*
X112725499Y-99745501D01*
X112725499Y-99745490D01*
X112725500Y-99745485D01*
X112725500Y-99500000D01*
X116744353Y-99500000D01*
X116764834Y-99642456D01*
X116817533Y-99757848D01*
X116824623Y-99773373D01*
X116918872Y-99882143D01*
X117039947Y-99959953D01*
X117039950Y-99959954D01*
X117039949Y-99959954D01*
X117178036Y-100000499D01*
X117178038Y-100000500D01*
X117178039Y-100000500D01*
X117321962Y-100000500D01*
X117321962Y-100000499D01*
X117460053Y-99959953D01*
X117581128Y-99882143D01*
X117652305Y-99800000D01*
X121694353Y-99800000D01*
X121714834Y-99942456D01*
X121759238Y-100039686D01*
X121774623Y-100073373D01*
X121868872Y-100182143D01*
X121989947Y-100259953D01*
X121989950Y-100259954D01*
X121989949Y-100259954D01*
X122128036Y-100300499D01*
X122128038Y-100300500D01*
X122128039Y-100300500D01*
X122271962Y-100300500D01*
X122271962Y-100300499D01*
X122410053Y-100259953D01*
X122531128Y-100182143D01*
X122625377Y-100073373D01*
X122685165Y-99942457D01*
X122705647Y-99800000D01*
X122685165Y-99657543D01*
X122625377Y-99526627D01*
X122531128Y-99417857D01*
X122410053Y-99340047D01*
X122410051Y-99340046D01*
X122410049Y-99340045D01*
X122410050Y-99340045D01*
X122271963Y-99299500D01*
X122271961Y-99299500D01*
X122128039Y-99299500D01*
X122128036Y-99299500D01*
X121989949Y-99340045D01*
X121868873Y-99417856D01*
X121774623Y-99526626D01*
X121774622Y-99526628D01*
X121714834Y-99657543D01*
X121694353Y-99800000D01*
X117652305Y-99800000D01*
X117675377Y-99773373D01*
X117735165Y-99642457D01*
X117755647Y-99500000D01*
X117735165Y-99357543D01*
X117675377Y-99226627D01*
X117581128Y-99117857D01*
X117460053Y-99040047D01*
X117460051Y-99040046D01*
X117460049Y-99040045D01*
X117460050Y-99040045D01*
X117321963Y-98999500D01*
X117321961Y-98999500D01*
X117178039Y-98999500D01*
X117178036Y-98999500D01*
X117039949Y-99040045D01*
X116918873Y-99117856D01*
X116824623Y-99226626D01*
X116824622Y-99226628D01*
X116764834Y-99357543D01*
X116744353Y-99500000D01*
X112725500Y-99500000D01*
X112725499Y-99204516D01*
X112719412Y-99147886D01*
X112671628Y-99019774D01*
X112589687Y-98910313D01*
X112493813Y-98838543D01*
X118359499Y-98838543D01*
X118397947Y-99031829D01*
X118397950Y-99031839D01*
X118473364Y-99213907D01*
X118473371Y-99213920D01*
X118582860Y-99377781D01*
X118582863Y-99377785D01*
X118722214Y-99517136D01*
X118722218Y-99517139D01*
X118886079Y-99626628D01*
X118886092Y-99626635D01*
X118960712Y-99657543D01*
X119068165Y-99702051D01*
X119068169Y-99702051D01*
X119068170Y-99702052D01*
X119261456Y-99740500D01*
X119261459Y-99740500D01*
X120458543Y-99740500D01*
X120588582Y-99714632D01*
X120651835Y-99702051D01*
X120795711Y-99642456D01*
X120833907Y-99626635D01*
X120833907Y-99626634D01*
X120833914Y-99626632D01*
X120997782Y-99517139D01*
X121137139Y-99377782D01*
X121246632Y-99213914D01*
X121322051Y-99031835D01*
X121339937Y-98941916D01*
X121360500Y-98838543D01*
X121360500Y-98641456D01*
X121322052Y-98448170D01*
X121322051Y-98448169D01*
X121322051Y-98448165D01*
X121312710Y-98425614D01*
X121246635Y-98266092D01*
X121246628Y-98266079D01*
X121137139Y-98102218D01*
X121137136Y-98102214D01*
X120997785Y-97962863D01*
X120997781Y-97962860D01*
X120833920Y-97853371D01*
X120833907Y-97853364D01*
X120651839Y-97777950D01*
X120651829Y-97777947D01*
X120458543Y-97739500D01*
X120458541Y-97739500D01*
X119261459Y-97739500D01*
X119261457Y-97739500D01*
X119068170Y-97777947D01*
X119068160Y-97777950D01*
X118886092Y-97853364D01*
X118886079Y-97853371D01*
X118722218Y-97962860D01*
X118722214Y-97962863D01*
X118582863Y-98102214D01*
X118582860Y-98102218D01*
X118473371Y-98266079D01*
X118473364Y-98266092D01*
X118397950Y-98448160D01*
X118397947Y-98448170D01*
X118359500Y-98641456D01*
X118359500Y-98641459D01*
X118359500Y-98838541D01*
X118359500Y-98838543D01*
X118359499Y-98838543D01*
X112493813Y-98838543D01*
X112480226Y-98828372D01*
X112480223Y-98828370D01*
X112456165Y-98819397D01*
X112400232Y-98777525D01*
X112375816Y-98712060D01*
X112375500Y-98703216D01*
X112375500Y-98624499D01*
X112395185Y-98557460D01*
X112447989Y-98511705D01*
X112499500Y-98500499D01*
X112556517Y-98500499D01*
X112556518Y-98500499D01*
X112650304Y-98485646D01*
X112763342Y-98428050D01*
X112853050Y-98338342D01*
X112910646Y-98225304D01*
X112910646Y-98225302D01*
X112910647Y-98225301D01*
X112925499Y-98131524D01*
X112925500Y-98131519D01*
X112925500Y-97950002D01*
X115594353Y-97950002D01*
X115614834Y-98092458D01*
X115664152Y-98200448D01*
X115674623Y-98223375D01*
X115768872Y-98332145D01*
X115889947Y-98409955D01*
X115889950Y-98409956D01*
X115889949Y-98409956D01*
X116028036Y-98450501D01*
X116028038Y-98450502D01*
X116028039Y-98450502D01*
X116171962Y-98450502D01*
X116171962Y-98450501D01*
X116310053Y-98409955D01*
X116431128Y-98332145D01*
X116525377Y-98223375D01*
X116585165Y-98092459D01*
X116605647Y-97950002D01*
X116585165Y-97807545D01*
X116525377Y-97676629D01*
X116431128Y-97567859D01*
X116325537Y-97500000D01*
X121494353Y-97500000D01*
X121514834Y-97642456D01*
X121566163Y-97754848D01*
X121574623Y-97773373D01*
X121668872Y-97882143D01*
X121789947Y-97959953D01*
X121789950Y-97959954D01*
X121789949Y-97959954D01*
X121928036Y-98000499D01*
X121928038Y-98000500D01*
X121928039Y-98000500D01*
X122071962Y-98000500D01*
X122071962Y-98000499D01*
X122179121Y-97969035D01*
X122210050Y-97959954D01*
X122210050Y-97959953D01*
X122210053Y-97959953D01*
X122331128Y-97882143D01*
X122425377Y-97773373D01*
X122485165Y-97642457D01*
X122505647Y-97500000D01*
X122485165Y-97357543D01*
X122425377Y-97226627D01*
X122331128Y-97117857D01*
X122210053Y-97040047D01*
X122210051Y-97040046D01*
X122210049Y-97040045D01*
X122210050Y-97040045D01*
X122071963Y-96999500D01*
X122071961Y-96999500D01*
X121928039Y-96999500D01*
X121928036Y-96999500D01*
X121789949Y-97040045D01*
X121668873Y-97117856D01*
X121574623Y-97226626D01*
X121574622Y-97226628D01*
X121514834Y-97357543D01*
X121494353Y-97500000D01*
X116325537Y-97500000D01*
X116310053Y-97490049D01*
X116310051Y-97490048D01*
X116310049Y-97490047D01*
X116310050Y-97490047D01*
X116171963Y-97449502D01*
X116171961Y-97449502D01*
X116028039Y-97449502D01*
X116028036Y-97449502D01*
X115889949Y-97490047D01*
X115768873Y-97567858D01*
X115768872Y-97567858D01*
X115768872Y-97567859D01*
X115756453Y-97582191D01*
X115674623Y-97676628D01*
X115674622Y-97676630D01*
X115614834Y-97807545D01*
X115594353Y-97950002D01*
X112925500Y-97950002D01*
X112925499Y-97768482D01*
X112910646Y-97674696D01*
X112853050Y-97561658D01*
X112853046Y-97561654D01*
X112853045Y-97561652D01*
X112763347Y-97471954D01*
X112763344Y-97471952D01*
X112763342Y-97471950D01*
X112650304Y-97414354D01*
X112650302Y-97414353D01*
X112650301Y-97414353D01*
X112636653Y-97412191D01*
X112573519Y-97382259D01*
X112536589Y-97322947D01*
X112537589Y-97253084D01*
X112576201Y-97194853D01*
X112594705Y-97181957D01*
X112594828Y-97181888D01*
X112647632Y-97136133D01*
X112679257Y-97103359D01*
X112725465Y-97015024D01*
X112726934Y-97010023D01*
X112737800Y-96973016D01*
X112745150Y-96947985D01*
X112755500Y-96876000D01*
X112755500Y-96724499D01*
X112749661Y-96670187D01*
X112741102Y-96630843D01*
X112746086Y-96561152D01*
X112774586Y-96516805D01*
X112853050Y-96438342D01*
X112910646Y-96325304D01*
X112910646Y-96325302D01*
X112910647Y-96325301D01*
X112914885Y-96298543D01*
X118359499Y-96298543D01*
X118397947Y-96491829D01*
X118397950Y-96491839D01*
X118473364Y-96673907D01*
X118473371Y-96673920D01*
X118582860Y-96837781D01*
X118582863Y-96837785D01*
X118722214Y-96977136D01*
X118722218Y-96977139D01*
X118886079Y-97086628D01*
X118886092Y-97086635D01*
X119039817Y-97150309D01*
X119068165Y-97162051D01*
X119068169Y-97162051D01*
X119068170Y-97162052D01*
X119261456Y-97200500D01*
X119261459Y-97200500D01*
X120458543Y-97200500D01*
X120611199Y-97170134D01*
X120651835Y-97162051D01*
X120833914Y-97086632D01*
X120997782Y-96977139D01*
X121137139Y-96837782D01*
X121246632Y-96673914D01*
X121322051Y-96491835D01*
X121348764Y-96357541D01*
X121360500Y-96298543D01*
X121360500Y-96101456D01*
X121322052Y-95908170D01*
X121322051Y-95908169D01*
X121322051Y-95908165D01*
X121301083Y-95857543D01*
X121246635Y-95726092D01*
X121246628Y-95726079D01*
X121137139Y-95562218D01*
X121137136Y-95562214D01*
X120997785Y-95422863D01*
X120997781Y-95422860D01*
X120833920Y-95313371D01*
X120833907Y-95313364D01*
X120651839Y-95237950D01*
X120651829Y-95237947D01*
X120458543Y-95199500D01*
X120458541Y-95199500D01*
X119261459Y-95199500D01*
X119261457Y-95199500D01*
X119068170Y-95237947D01*
X119068160Y-95237950D01*
X118886092Y-95313364D01*
X118886079Y-95313371D01*
X118722218Y-95422860D01*
X118722214Y-95422863D01*
X118582863Y-95562214D01*
X118582860Y-95562218D01*
X118473371Y-95726079D01*
X118473364Y-95726092D01*
X118397950Y-95908160D01*
X118397947Y-95908170D01*
X118359500Y-96101456D01*
X118359500Y-96101459D01*
X118359500Y-96298541D01*
X118359500Y-96298543D01*
X118359499Y-96298543D01*
X112914885Y-96298543D01*
X112925499Y-96231524D01*
X112925500Y-96231519D01*
X112925499Y-95868482D01*
X112910646Y-95774696D01*
X112853050Y-95661658D01*
X112853046Y-95661654D01*
X112853045Y-95661652D01*
X112773052Y-95581659D01*
X112739567Y-95520336D01*
X112741757Y-95459039D01*
X112745150Y-95447485D01*
X112755500Y-95375500D01*
X112755500Y-95000000D01*
X116744353Y-95000000D01*
X116764834Y-95142456D01*
X116814177Y-95250499D01*
X116824623Y-95273373D01*
X116918872Y-95382143D01*
X117039947Y-95459953D01*
X117039950Y-95459954D01*
X117039949Y-95459954D01*
X117141349Y-95489727D01*
X117174633Y-95499500D01*
X117178036Y-95500499D01*
X117178038Y-95500500D01*
X117178039Y-95500500D01*
X117321962Y-95500500D01*
X117321962Y-95500499D01*
X117460053Y-95459953D01*
X117581128Y-95382143D01*
X117675377Y-95273373D01*
X117735165Y-95142457D01*
X117755647Y-95000000D01*
X117735165Y-94857543D01*
X117686051Y-94750000D01*
X121494353Y-94750000D01*
X121514834Y-94892456D01*
X121552303Y-94974500D01*
X121574623Y-95023373D01*
X121668872Y-95132143D01*
X121789947Y-95209953D01*
X121789950Y-95209954D01*
X121789949Y-95209954D01*
X121928036Y-95250499D01*
X121928038Y-95250500D01*
X121928039Y-95250500D01*
X122071962Y-95250500D01*
X122071962Y-95250499D01*
X122210053Y-95209953D01*
X122331128Y-95132143D01*
X122425377Y-95023373D01*
X122485165Y-94892457D01*
X122505647Y-94750000D01*
X122485165Y-94607543D01*
X122425377Y-94476627D01*
X122331128Y-94367857D01*
X122210053Y-94290047D01*
X122210051Y-94290046D01*
X122210049Y-94290045D01*
X122210050Y-94290045D01*
X122071963Y-94249500D01*
X122071961Y-94249500D01*
X121928039Y-94249500D01*
X121928036Y-94249500D01*
X121789949Y-94290045D01*
X121668873Y-94367856D01*
X121574623Y-94476626D01*
X121574622Y-94476628D01*
X121514834Y-94607543D01*
X121494353Y-94750000D01*
X117686051Y-94750000D01*
X117675377Y-94726627D01*
X117581128Y-94617857D01*
X117460053Y-94540047D01*
X117460051Y-94540046D01*
X117460049Y-94540045D01*
X117460050Y-94540045D01*
X117321963Y-94499500D01*
X117321961Y-94499500D01*
X117178039Y-94499500D01*
X117178036Y-94499500D01*
X117039949Y-94540045D01*
X116918873Y-94617856D01*
X116824623Y-94726626D01*
X116824622Y-94726628D01*
X116764834Y-94857543D01*
X116744353Y-95000000D01*
X112755500Y-95000000D01*
X112755500Y-94200000D01*
X115494353Y-94200000D01*
X115514834Y-94342456D01*
X115548269Y-94415666D01*
X115574623Y-94473373D01*
X115668872Y-94582143D01*
X115789947Y-94659953D01*
X115789950Y-94659954D01*
X115789949Y-94659954D01*
X115928036Y-94700499D01*
X115928038Y-94700500D01*
X115928039Y-94700500D01*
X116071962Y-94700500D01*
X116071962Y-94700499D01*
X116210053Y-94659953D01*
X116331128Y-94582143D01*
X116425377Y-94473373D01*
X116485165Y-94342457D01*
X116505647Y-94200000D01*
X116485165Y-94057543D01*
X116425377Y-93926627D01*
X116331128Y-93817857D01*
X116238833Y-93758543D01*
X118359499Y-93758543D01*
X118397947Y-93951829D01*
X118397950Y-93951839D01*
X118473364Y-94133907D01*
X118473371Y-94133920D01*
X118582860Y-94297781D01*
X118582863Y-94297785D01*
X118722214Y-94437136D01*
X118722218Y-94437139D01*
X118886079Y-94546628D01*
X118886092Y-94546635D01*
X119068160Y-94622049D01*
X119068165Y-94622051D01*
X119068169Y-94622051D01*
X119068170Y-94622052D01*
X119261456Y-94660500D01*
X119261459Y-94660500D01*
X120458543Y-94660500D01*
X120588582Y-94634632D01*
X120651835Y-94622051D01*
X120833914Y-94546632D01*
X120997782Y-94437139D01*
X121137139Y-94297782D01*
X121246632Y-94133914D01*
X121322051Y-93951835D01*
X121348701Y-93817857D01*
X121360500Y-93758543D01*
X121360500Y-93561456D01*
X121322052Y-93368170D01*
X121322051Y-93368169D01*
X121322051Y-93368165D01*
X121312249Y-93344500D01*
X121246635Y-93186092D01*
X121246628Y-93186079D01*
X121137139Y-93022218D01*
X121137136Y-93022214D01*
X120997785Y-92882863D01*
X120997781Y-92882860D01*
X120833920Y-92773371D01*
X120833907Y-92773364D01*
X120651839Y-92697950D01*
X120651829Y-92697947D01*
X120458543Y-92659500D01*
X120458541Y-92659500D01*
X119261459Y-92659500D01*
X119261457Y-92659500D01*
X119068170Y-92697947D01*
X119068160Y-92697950D01*
X118886092Y-92773364D01*
X118886079Y-92773371D01*
X118722218Y-92882860D01*
X118722214Y-92882863D01*
X118582863Y-93022214D01*
X118582860Y-93022218D01*
X118473371Y-93186079D01*
X118473364Y-93186092D01*
X118397950Y-93368160D01*
X118397947Y-93368170D01*
X118359500Y-93561456D01*
X118359500Y-93561459D01*
X118359500Y-93758541D01*
X118359500Y-93758543D01*
X118359499Y-93758543D01*
X116238833Y-93758543D01*
X116210053Y-93740047D01*
X116210051Y-93740046D01*
X116210049Y-93740045D01*
X116210050Y-93740045D01*
X116071963Y-93699500D01*
X116071961Y-93699500D01*
X115928039Y-93699500D01*
X115928036Y-93699500D01*
X115789949Y-93740045D01*
X115668873Y-93817856D01*
X115574623Y-93926626D01*
X115574622Y-93926628D01*
X115514834Y-94057543D01*
X115494353Y-94200000D01*
X112755500Y-94200000D01*
X112755500Y-92379500D01*
X112775185Y-92312461D01*
X112827989Y-92266706D01*
X112879500Y-92255500D01*
X116376000Y-92255500D01*
X116427160Y-92250000D01*
X121494353Y-92250000D01*
X121514834Y-92392456D01*
X121574622Y-92523371D01*
X121574623Y-92523373D01*
X121668872Y-92632143D01*
X121789947Y-92709953D01*
X121789950Y-92709954D01*
X121789949Y-92709954D01*
X121928036Y-92750499D01*
X121928038Y-92750500D01*
X121928039Y-92750500D01*
X122071962Y-92750500D01*
X122071962Y-92750499D01*
X122210053Y-92709953D01*
X122331128Y-92632143D01*
X122425377Y-92523373D01*
X122485165Y-92392457D01*
X122505647Y-92250000D01*
X122485165Y-92107543D01*
X122425377Y-91976627D01*
X122331128Y-91867857D01*
X122210053Y-91790047D01*
X122210051Y-91790046D01*
X122210049Y-91790045D01*
X122210050Y-91790045D01*
X122071963Y-91749500D01*
X122071961Y-91749500D01*
X121928039Y-91749500D01*
X121928036Y-91749500D01*
X121789949Y-91790045D01*
X121668873Y-91867856D01*
X121574623Y-91976626D01*
X121574622Y-91976628D01*
X121514834Y-92107543D01*
X121494353Y-92250000D01*
X116427160Y-92250000D01*
X116430313Y-92249661D01*
X116481824Y-92238455D01*
X116508198Y-92231219D01*
X116537074Y-92214775D01*
X116594818Y-92181894D01*
X116594819Y-92181892D01*
X116594828Y-92181888D01*
X116647632Y-92136133D01*
X116679257Y-92103359D01*
X116725465Y-92015024D01*
X116727929Y-92006635D01*
X116736740Y-91976626D01*
X116745150Y-91947985D01*
X116755500Y-91876000D01*
X116755500Y-91218543D01*
X118359499Y-91218543D01*
X118397947Y-91411829D01*
X118397950Y-91411839D01*
X118473364Y-91593907D01*
X118473371Y-91593920D01*
X118582860Y-91757781D01*
X118582863Y-91757785D01*
X118722214Y-91897136D01*
X118722218Y-91897139D01*
X118886079Y-92006628D01*
X118886092Y-92006635D01*
X119068160Y-92082049D01*
X119068165Y-92082051D01*
X119068169Y-92082051D01*
X119068170Y-92082052D01*
X119261456Y-92120500D01*
X119261459Y-92120500D01*
X120458543Y-92120500D01*
X120588582Y-92094632D01*
X120651835Y-92082051D01*
X120833914Y-92006632D01*
X120997782Y-91897139D01*
X121137139Y-91757782D01*
X121246632Y-91593914D01*
X121322051Y-91411835D01*
X121345403Y-91294438D01*
X121360500Y-91218543D01*
X121360500Y-91021456D01*
X121322052Y-90828170D01*
X121322051Y-90828169D01*
X121322051Y-90828165D01*
X121316617Y-90815045D01*
X121246635Y-90646092D01*
X121246628Y-90646079D01*
X121137139Y-90482218D01*
X121137136Y-90482214D01*
X120997785Y-90342863D01*
X120997781Y-90342860D01*
X120833920Y-90233371D01*
X120833907Y-90233364D01*
X120651839Y-90157950D01*
X120651829Y-90157947D01*
X120458543Y-90119500D01*
X120458541Y-90119500D01*
X119261459Y-90119500D01*
X119261457Y-90119500D01*
X119068170Y-90157947D01*
X119068160Y-90157950D01*
X118886092Y-90233364D01*
X118886079Y-90233371D01*
X118722218Y-90342860D01*
X118722214Y-90342863D01*
X118582863Y-90482214D01*
X118582860Y-90482218D01*
X118473371Y-90646079D01*
X118473364Y-90646092D01*
X118397950Y-90828160D01*
X118397947Y-90828170D01*
X118359500Y-91021456D01*
X118359500Y-91021459D01*
X118359500Y-91218541D01*
X118359500Y-91218543D01*
X118359499Y-91218543D01*
X116755500Y-91218543D01*
X116755500Y-89000000D01*
X121244353Y-89000000D01*
X121264834Y-89142456D01*
X121324622Y-89273371D01*
X121324623Y-89273373D01*
X121418872Y-89382143D01*
X121539947Y-89459953D01*
X121539950Y-89459954D01*
X121539949Y-89459954D01*
X121678036Y-89500499D01*
X121678038Y-89500500D01*
X121678039Y-89500500D01*
X121821962Y-89500500D01*
X121821962Y-89500499D01*
X121960053Y-89459953D01*
X122081128Y-89382143D01*
X122175377Y-89273373D01*
X122235165Y-89142457D01*
X122255647Y-89000000D01*
X122235165Y-88857543D01*
X122175377Y-88726627D01*
X122081128Y-88617857D01*
X121960053Y-88540047D01*
X121960051Y-88540046D01*
X121960049Y-88540045D01*
X121960050Y-88540045D01*
X121821963Y-88499500D01*
X121821961Y-88499500D01*
X121678039Y-88499500D01*
X121678036Y-88499500D01*
X121539949Y-88540045D01*
X121418873Y-88617856D01*
X121324623Y-88726626D01*
X121324622Y-88726628D01*
X121264834Y-88857543D01*
X121244353Y-89000000D01*
X116755500Y-89000000D01*
X116755500Y-88874000D01*
X116749661Y-88819687D01*
X116738455Y-88768176D01*
X116731219Y-88741802D01*
X116731216Y-88741796D01*
X116681894Y-88655181D01*
X116681890Y-88655176D01*
X116681888Y-88655172D01*
X116636133Y-88602368D01*
X116603359Y-88570743D01*
X116515024Y-88524535D01*
X116515023Y-88524534D01*
X116515022Y-88524534D01*
X116515022Y-88524533D01*
X116447990Y-88504851D01*
X116447978Y-88504848D01*
X116376001Y-88494500D01*
X116376000Y-88494500D01*
X111362303Y-88494500D01*
X111295264Y-88474815D01*
X111249509Y-88422011D01*
X111239565Y-88388146D01*
X111235165Y-88357543D01*
X111175377Y-88226628D01*
X111175376Y-88226626D01*
X111081128Y-88117857D01*
X110960053Y-88040047D01*
X110960051Y-88040046D01*
X110960049Y-88040045D01*
X110960050Y-88040045D01*
X110821963Y-87999500D01*
X110821961Y-87999500D01*
X110678039Y-87999500D01*
X110678036Y-87999500D01*
X110539949Y-88040045D01*
X110418873Y-88117856D01*
X110324623Y-88226626D01*
X110324622Y-88226628D01*
X110264834Y-88357543D01*
X110260435Y-88388146D01*
X110231411Y-88451702D01*
X110172633Y-88489477D01*
X110137697Y-88494500D01*
X108412806Y-88494500D01*
X108340826Y-88504848D01*
X108340820Y-88504850D01*
X108273784Y-88524534D01*
X108273774Y-88524537D01*
X108231400Y-88541210D01*
X108231397Y-88541212D01*
X108201299Y-88564593D01*
X108136280Y-88590174D01*
X108067753Y-88576542D01*
X108058191Y-88570983D01*
X108010050Y-88540045D01*
X107871963Y-88499500D01*
X107871961Y-88499500D01*
X107728039Y-88499500D01*
X107728036Y-88499500D01*
X107589949Y-88540045D01*
X107468873Y-88617856D01*
X107374623Y-88726626D01*
X107374622Y-88726628D01*
X107314834Y-88857543D01*
X107294353Y-89000000D01*
X107314834Y-89142456D01*
X107374622Y-89273371D01*
X107374623Y-89273373D01*
X107468872Y-89382143D01*
X107468874Y-89382144D01*
X107475577Y-89387953D01*
X107473469Y-89390384D01*
X107508887Y-89431258D01*
X107518831Y-89500416D01*
X107515071Y-89517703D01*
X107504850Y-89552513D01*
X107504848Y-89552521D01*
X107494500Y-89624498D01*
X107494500Y-93220500D01*
X107474815Y-93287539D01*
X107422011Y-93333294D01*
X107370500Y-93344500D01*
X105373997Y-93344500D01*
X105319687Y-93350338D01*
X105268181Y-93361543D01*
X105268172Y-93361546D01*
X105241807Y-93368779D01*
X105241796Y-93368783D01*
X105155181Y-93418105D01*
X105155173Y-93418111D01*
X105102371Y-93463863D01*
X105070743Y-93496640D01*
X105024534Y-93584977D01*
X105024533Y-93584977D01*
X105004851Y-93652009D01*
X105004848Y-93652021D01*
X104994500Y-93723998D01*
X104994500Y-93725500D01*
X104994358Y-93725982D01*
X104994184Y-93728419D01*
X104993654Y-93728381D01*
X104974815Y-93792539D01*
X104922011Y-93838294D01*
X104870500Y-93849500D01*
X104778036Y-93849500D01*
X104639949Y-93890045D01*
X104518873Y-93967856D01*
X104424623Y-94076626D01*
X104424622Y-94076628D01*
X104362294Y-94213107D01*
X104316539Y-94265911D01*
X104249500Y-94285595D01*
X104182460Y-94265910D01*
X104136705Y-94213106D01*
X104125500Y-94161595D01*
X104125500Y-91475565D01*
X104125434Y-91475321D01*
X104109930Y-91417457D01*
X104099910Y-91380062D01*
X104050475Y-91294438D01*
X104030566Y-91274529D01*
X103997081Y-91213206D01*
X103995509Y-91204493D01*
X103985166Y-91132548D01*
X103985165Y-91132546D01*
X103985165Y-91132543D01*
X103935581Y-91023970D01*
X103925379Y-91001630D01*
X103925376Y-91001626D01*
X103831128Y-90892857D01*
X103710053Y-90815047D01*
X103710051Y-90815046D01*
X103710049Y-90815045D01*
X103710050Y-90815045D01*
X103571963Y-90774500D01*
X103571961Y-90774500D01*
X103428039Y-90774500D01*
X103428036Y-90774500D01*
X103289949Y-90815045D01*
X103168873Y-90892856D01*
X103074623Y-91001626D01*
X103074622Y-91001628D01*
X103014834Y-91132543D01*
X102994353Y-91275000D01*
X103014834Y-91417456D01*
X103014835Y-91417458D01*
X103074623Y-91548373D01*
X103168872Y-91657143D01*
X103289947Y-91734953D01*
X103289949Y-91734953D01*
X103289950Y-91734954D01*
X103298018Y-91738639D01*
X103296931Y-91741017D01*
X103344207Y-91771395D01*
X103373237Y-91834949D01*
X103374500Y-91852605D01*
X103374500Y-95422688D01*
X103354815Y-95489727D01*
X103302011Y-95535482D01*
X103232853Y-95545426D01*
X103215566Y-95541665D01*
X103071963Y-95499500D01*
X103071961Y-95499500D01*
X102928039Y-95499500D01*
X102928036Y-95499500D01*
X102789949Y-95540045D01*
X102668872Y-95617856D01*
X102643212Y-95647470D01*
X102584433Y-95685244D01*
X102514564Y-95685243D01*
X102455786Y-95647468D01*
X102426762Y-95583912D01*
X102425500Y-95566266D01*
X102425500Y-87500000D01*
X121494353Y-87500000D01*
X121514834Y-87642456D01*
X121574622Y-87773371D01*
X121574623Y-87773373D01*
X121668872Y-87882143D01*
X121789947Y-87959953D01*
X121789950Y-87959954D01*
X121789949Y-87959954D01*
X121897107Y-87991417D01*
X121924633Y-87999500D01*
X121928036Y-88000499D01*
X121928038Y-88000500D01*
X121928039Y-88000500D01*
X122071962Y-88000500D01*
X122071962Y-88000499D01*
X122210053Y-87959953D01*
X122331128Y-87882143D01*
X122425377Y-87773373D01*
X122485165Y-87642457D01*
X122505647Y-87500000D01*
X122485165Y-87357543D01*
X122425377Y-87226627D01*
X122331128Y-87117857D01*
X122210053Y-87040047D01*
X122210051Y-87040046D01*
X122210049Y-87040045D01*
X122210050Y-87040045D01*
X122071963Y-86999500D01*
X122071961Y-86999500D01*
X121928039Y-86999500D01*
X121928036Y-86999500D01*
X121789949Y-87040045D01*
X121668873Y-87117856D01*
X121574623Y-87226626D01*
X121574622Y-87226628D01*
X121514834Y-87357543D01*
X121494353Y-87500000D01*
X102425500Y-87500000D01*
X102425500Y-85500000D01*
X114244353Y-85500000D01*
X114264834Y-85642456D01*
X114313111Y-85748165D01*
X114324623Y-85773373D01*
X114418872Y-85882143D01*
X114539947Y-85959953D01*
X114539950Y-85959954D01*
X114539949Y-85959954D01*
X114678036Y-86000499D01*
X114678038Y-86000500D01*
X114678039Y-86000500D01*
X114821962Y-86000500D01*
X114821962Y-86000499D01*
X114960053Y-85959953D01*
X115081128Y-85882143D01*
X115175377Y-85773373D01*
X115235165Y-85642457D01*
X115255647Y-85500000D01*
X121244353Y-85500000D01*
X121264834Y-85642456D01*
X121313111Y-85748165D01*
X121324623Y-85773373D01*
X121418872Y-85882143D01*
X121539947Y-85959953D01*
X121539950Y-85959954D01*
X121539949Y-85959954D01*
X121678036Y-86000499D01*
X121678038Y-86000500D01*
X121678039Y-86000500D01*
X121821962Y-86000500D01*
X121821962Y-86000499D01*
X121960053Y-85959953D01*
X122081128Y-85882143D01*
X122175377Y-85773373D01*
X122235165Y-85642457D01*
X122255647Y-85500000D01*
X122235165Y-85357543D01*
X122175377Y-85226627D01*
X122081128Y-85117857D01*
X121960053Y-85040047D01*
X121960051Y-85040046D01*
X121960049Y-85040045D01*
X121960050Y-85040045D01*
X121821963Y-84999500D01*
X121821961Y-84999500D01*
X121678039Y-84999500D01*
X121678036Y-84999500D01*
X121539949Y-85040045D01*
X121418873Y-85117856D01*
X121324623Y-85226626D01*
X121324622Y-85226628D01*
X121264834Y-85357543D01*
X121244353Y-85500000D01*
X115255647Y-85500000D01*
X115235165Y-85357543D01*
X115175377Y-85226627D01*
X115081128Y-85117857D01*
X114960053Y-85040047D01*
X114960051Y-85040046D01*
X114960049Y-85040045D01*
X114960050Y-85040045D01*
X114821963Y-84999500D01*
X114821961Y-84999500D01*
X114678039Y-84999500D01*
X114678036Y-84999500D01*
X114539949Y-85040045D01*
X114418873Y-85117856D01*
X114324623Y-85226626D01*
X114324622Y-85226628D01*
X114264834Y-85357543D01*
X114244353Y-85500000D01*
X102425500Y-85500000D01*
X102425500Y-84549868D01*
X102445185Y-84482829D01*
X102482461Y-84445552D01*
X102581128Y-84382143D01*
X102675377Y-84273373D01*
X102735165Y-84142457D01*
X102755647Y-84000000D01*
X102735165Y-83857543D01*
X102675377Y-83726627D01*
X102581128Y-83617857D01*
X102460053Y-83540047D01*
X102460051Y-83540046D01*
X102460049Y-83540045D01*
X102460050Y-83540045D01*
X102321963Y-83499500D01*
X102321961Y-83499500D01*
X102178039Y-83499500D01*
X102178036Y-83499500D01*
X102039949Y-83540045D01*
X101918872Y-83617856D01*
X101857986Y-83688122D01*
X101799207Y-83725896D01*
X101729338Y-83725895D01*
X101670560Y-83688120D01*
X101641536Y-83624564D01*
X101641095Y-83604633D01*
X101640500Y-83604633D01*
X101640500Y-83401456D01*
X101602052Y-83208170D01*
X101602051Y-83208169D01*
X101602051Y-83208165D01*
X101543120Y-83065891D01*
X101526635Y-83026092D01*
X101526628Y-83026079D01*
X101417139Y-82862218D01*
X101417136Y-82862214D01*
X101277785Y-82722863D01*
X101277781Y-82722860D01*
X101113920Y-82613371D01*
X101113907Y-82613364D01*
X100931839Y-82537950D01*
X100931829Y-82537947D01*
X100738543Y-82499500D01*
X100738541Y-82499500D01*
X99541459Y-82499500D01*
X99541457Y-82499500D01*
X99348170Y-82537947D01*
X99348160Y-82537950D01*
X99166092Y-82613364D01*
X99166079Y-82613371D01*
X99002218Y-82722860D01*
X99002214Y-82722863D01*
X98962181Y-82762897D01*
X98900858Y-82796382D01*
X98831166Y-82791398D01*
X98775233Y-82749526D01*
X98750816Y-82684062D01*
X98750500Y-82675216D01*
X98750500Y-82043248D01*
X98770185Y-81976209D01*
X98822989Y-81930454D01*
X98892147Y-81920510D01*
X98915446Y-81926204D01*
X99005301Y-81957646D01*
X99005300Y-81957646D01*
X99035730Y-81960500D01*
X99035734Y-81960500D01*
X101244270Y-81960500D01*
X101274699Y-81957646D01*
X101274701Y-81957646D01*
X101350483Y-81931128D01*
X101402882Y-81912793D01*
X101512150Y-81832150D01*
X101592793Y-81722882D01*
X101615219Y-81658790D01*
X101637646Y-81594701D01*
X101637646Y-81594699D01*
X101640500Y-81564269D01*
X101640500Y-80876002D01*
X105744500Y-80876002D01*
X105750338Y-80930312D01*
X105761543Y-80981818D01*
X105761546Y-80981827D01*
X105768779Y-81008192D01*
X105768783Y-81008203D01*
X105818105Y-81094818D01*
X105818110Y-81094825D01*
X105818112Y-81094828D01*
X105844580Y-81125374D01*
X105863863Y-81147628D01*
X105863866Y-81147631D01*
X105863867Y-81147632D01*
X105896641Y-81179257D01*
X105984976Y-81225465D01*
X105984977Y-81225465D01*
X105984977Y-81225466D01*
X106029218Y-81238456D01*
X106052015Y-81245150D01*
X106052019Y-81245150D01*
X106052021Y-81245151D01*
X106063652Y-81246823D01*
X106124000Y-81255500D01*
X106124001Y-81255500D01*
X110126000Y-81255500D01*
X110180313Y-81249661D01*
X110231824Y-81238455D01*
X110258198Y-81231219D01*
X110287074Y-81214775D01*
X110344818Y-81181894D01*
X110344819Y-81181892D01*
X110344828Y-81181888D01*
X110397632Y-81136133D01*
X110429257Y-81103359D01*
X110475465Y-81015024D01*
X110477470Y-81008198D01*
X110485215Y-80981818D01*
X110495150Y-80947985D01*
X110505500Y-80876000D01*
X110505500Y-73379500D01*
X110525185Y-73312461D01*
X110577989Y-73266706D01*
X110629500Y-73255500D01*
X120126000Y-73255500D01*
X120180313Y-73249661D01*
X120231824Y-73238455D01*
X120258198Y-73231219D01*
X120287074Y-73214775D01*
X120344818Y-73181894D01*
X120344819Y-73181892D01*
X120344828Y-73181888D01*
X120397632Y-73136133D01*
X120429257Y-73103359D01*
X120475465Y-73015024D01*
X120495150Y-72947985D01*
X120505500Y-72876000D01*
X120505500Y-65124000D01*
X120499661Y-65069687D01*
X120488455Y-65018176D01*
X120481219Y-64991802D01*
X120477332Y-64984976D01*
X120431894Y-64905181D01*
X120431890Y-64905176D01*
X120431888Y-64905172D01*
X120396097Y-64863867D01*
X120386136Y-64852371D01*
X120353359Y-64820743D01*
X120265022Y-64774534D01*
X120265022Y-64774533D01*
X120197990Y-64754851D01*
X120197978Y-64754848D01*
X120126001Y-64744500D01*
X120126000Y-64744500D01*
X110124000Y-64744500D01*
X110123997Y-64744500D01*
X110069687Y-64750338D01*
X110018181Y-64761543D01*
X110018172Y-64761546D01*
X109991807Y-64768779D01*
X109991796Y-64768783D01*
X109905181Y-64818105D01*
X109905173Y-64818111D01*
X109852371Y-64863863D01*
X109820743Y-64896640D01*
X109774534Y-64984977D01*
X109774533Y-64984977D01*
X109754851Y-65052009D01*
X109754848Y-65052021D01*
X109744500Y-65123998D01*
X109744500Y-69620500D01*
X109724815Y-69687539D01*
X109672011Y-69733294D01*
X109620500Y-69744500D01*
X106123997Y-69744500D01*
X106069687Y-69750338D01*
X106018181Y-69761543D01*
X106018172Y-69761546D01*
X105991807Y-69768779D01*
X105991796Y-69768783D01*
X105905181Y-69818105D01*
X105905173Y-69818111D01*
X105852371Y-69863863D01*
X105820743Y-69896640D01*
X105774534Y-69984977D01*
X105774533Y-69984977D01*
X105754851Y-70052009D01*
X105754848Y-70052021D01*
X105744500Y-70123998D01*
X105744500Y-80876002D01*
X101640500Y-80876002D01*
X101640500Y-80355730D01*
X101637646Y-80325300D01*
X101637646Y-80325298D01*
X101604006Y-80229163D01*
X101592793Y-80197118D01*
X101512150Y-80087850D01*
X101402882Y-80007207D01*
X101402880Y-80007206D01*
X101274700Y-79962353D01*
X101244270Y-79959500D01*
X101244266Y-79959500D01*
X99035734Y-79959500D01*
X99035730Y-79959500D01*
X99005300Y-79962353D01*
X99005298Y-79962353D01*
X98915455Y-79993792D01*
X98845676Y-79997354D01*
X98785049Y-79962626D01*
X98752821Y-79900632D01*
X98750500Y-79876751D01*
X98750500Y-78295448D01*
X98770185Y-78228409D01*
X98821600Y-78183857D01*
X98821417Y-78183477D01*
X98822817Y-78182802D01*
X98822989Y-78182654D01*
X98823815Y-78182321D01*
X98827685Y-78180457D01*
X98827690Y-78180456D01*
X98827694Y-78180453D01*
X98827697Y-78180452D01*
X98970884Y-78090481D01*
X98970885Y-78090480D01*
X98970890Y-78090477D01*
X99090477Y-77970890D01*
X99180452Y-77827697D01*
X99180454Y-77827694D01*
X99180454Y-77827692D01*
X99180456Y-77827690D01*
X99236313Y-77668059D01*
X99236313Y-77668058D01*
X99236314Y-77668056D01*
X99255249Y-77500002D01*
X99255249Y-77499997D01*
X99236314Y-77331943D01*
X99180454Y-77172305D01*
X99180452Y-77172302D01*
X99090481Y-77029115D01*
X99090476Y-77029109D01*
X98970890Y-76909523D01*
X98970884Y-76909518D01*
X98827697Y-76819547D01*
X98827694Y-76819545D01*
X98668056Y-76763685D01*
X98500003Y-76744751D01*
X98499997Y-76744751D01*
X98331943Y-76763685D01*
X98172305Y-76819545D01*
X98172302Y-76819547D01*
X98029115Y-76909518D01*
X98029109Y-76909523D01*
X97909523Y-77029109D01*
X97909518Y-77029115D01*
X97819547Y-77172302D01*
X97819545Y-77172305D01*
X97763685Y-77331943D01*
X97744751Y-77499997D01*
X97744751Y-77500004D01*
X97758132Y-77618769D01*
X97754688Y-77664742D01*
X97749500Y-77684104D01*
X97749500Y-78748973D01*
X97729815Y-78816012D01*
X97677011Y-78861767D01*
X97607853Y-78871711D01*
X97558461Y-78853289D01*
X97460050Y-78790045D01*
X97321963Y-78749500D01*
X97321961Y-78749500D01*
X97178039Y-78749500D01*
X97178036Y-78749500D01*
X97039949Y-78790045D01*
X96918873Y-78867856D01*
X96824623Y-78976626D01*
X96824622Y-78976628D01*
X96764835Y-79107541D01*
X96764834Y-79107546D01*
X96754489Y-79179496D01*
X96725463Y-79243051D01*
X96719432Y-79249529D01*
X96269438Y-79699525D01*
X96199526Y-79769436D01*
X96150091Y-79855059D01*
X96150091Y-79855060D01*
X96150090Y-79855062D01*
X96124500Y-79950565D01*
X96124500Y-92959435D01*
X94500500Y-92959435D01*
X94500500Y-63121288D01*
X95149500Y-63121288D01*
X95181161Y-63361785D01*
X95243947Y-63596104D01*
X95336773Y-63820205D01*
X95336776Y-63820212D01*
X95458064Y-64030289D01*
X95458066Y-64030292D01*
X95458067Y-64030293D01*
X95605733Y-64222736D01*
X95605739Y-64222743D01*
X95777256Y-64394260D01*
X95777262Y-64394265D01*
X95969711Y-64541936D01*
X96179788Y-64663224D01*
X96403900Y-64756054D01*
X96638211Y-64818838D01*
X96818586Y-64842584D01*
X96878711Y-64850500D01*
X96878712Y-64850500D01*
X97121289Y-64850500D01*
X97169388Y-64844167D01*
X97361789Y-64818838D01*
X97596100Y-64756054D01*
X97820212Y-64663224D01*
X98030289Y-64541936D01*
X98222738Y-64394265D01*
X98394265Y-64222738D01*
X98541936Y-64030289D01*
X98663224Y-63820212D01*
X98756054Y-63596100D01*
X98818838Y-63361789D01*
X98850500Y-63121288D01*
X121149500Y-63121288D01*
X121181161Y-63361785D01*
X121243947Y-63596104D01*
X121336773Y-63820205D01*
X121336776Y-63820212D01*
X121458064Y-64030289D01*
X121458066Y-64030292D01*
X121458067Y-64030293D01*
X121605733Y-64222736D01*
X121605739Y-64222743D01*
X121777256Y-64394260D01*
X121777262Y-64394265D01*
X121969711Y-64541936D01*
X122179788Y-64663224D01*
X122403900Y-64756054D01*
X122638211Y-64818838D01*
X122818586Y-64842584D01*
X122878711Y-64850500D01*
X122878712Y-64850500D01*
X123121289Y-64850500D01*
X123169388Y-64844167D01*
X123361789Y-64818838D01*
X123596100Y-64756054D01*
X123820212Y-64663224D01*
X124030289Y-64541936D01*
X124222738Y-64394265D01*
X124394265Y-64222738D01*
X124541936Y-64030289D01*
X124663224Y-63820212D01*
X124756054Y-63596100D01*
X124818838Y-63361789D01*
X124850500Y-63121288D01*
X124850500Y-62878712D01*
X124818838Y-62638211D01*
X124756054Y-62403900D01*
X124663224Y-62179788D01*
X124541936Y-61969711D01*
X124394265Y-61777262D01*
X124394260Y-61777256D01*
X124222743Y-61605739D01*
X124222736Y-61605733D01*
X124030293Y-61458067D01*
X124030292Y-61458066D01*
X124030289Y-61458064D01*
X123858661Y-61358974D01*
X123820214Y-61336777D01*
X123820205Y-61336773D01*
X123596104Y-61243947D01*
X123361785Y-61181161D01*
X123121289Y-61149500D01*
X123121288Y-61149500D01*
X122878712Y-61149500D01*
X122878711Y-61149500D01*
X122638214Y-61181161D01*
X122403895Y-61243947D01*
X122179794Y-61336773D01*
X122179785Y-61336777D01*
X121969706Y-61458067D01*
X121777263Y-61605733D01*
X121777256Y-61605739D01*
X121605739Y-61777256D01*
X121605733Y-61777263D01*
X121458067Y-61969706D01*
X121336777Y-62179785D01*
X121336773Y-62179794D01*
X121243947Y-62403895D01*
X121181161Y-62638214D01*
X121149500Y-62878711D01*
X121149500Y-63121288D01*
X98850500Y-63121288D01*
X98850500Y-62878712D01*
X98818838Y-62638211D01*
X98756054Y-62403900D01*
X98663224Y-62179788D01*
X98541936Y-61969711D01*
X98394265Y-61777262D01*
X98394260Y-61777256D01*
X98222743Y-61605739D01*
X98222736Y-61605733D01*
X98030293Y-61458067D01*
X98030292Y-61458066D01*
X98030289Y-61458064D01*
X97858661Y-61358974D01*
X97820214Y-61336777D01*
X97820205Y-61336773D01*
X97596104Y-61243947D01*
X97361785Y-61181161D01*
X97121289Y-61149500D01*
X97121288Y-61149500D01*
X96878712Y-61149500D01*
X96878711Y-61149500D01*
X96638214Y-61181161D01*
X96403895Y-61243947D01*
X96179794Y-61336773D01*
X96179785Y-61336777D01*
X95969706Y-61458067D01*
X95777263Y-61605733D01*
X95777256Y-61605739D01*
X95605739Y-61777256D01*
X95605733Y-61777263D01*
X95458067Y-61969706D01*
X95336777Y-62179785D01*
X95336773Y-62179794D01*
X95243947Y-62403895D01*
X95181161Y-62638214D01*
X95149500Y-62878711D01*
X95149500Y-63121288D01*
X94500500Y-63121288D01*
X94500500Y-63003750D01*
X94500726Y-62996263D01*
X94504486Y-62934108D01*
X94518271Y-62706201D01*
X94520076Y-62691340D01*
X94529813Y-62638211D01*
X94571780Y-62409197D01*
X94575364Y-62394663D01*
X94652096Y-62148422D01*
X94660696Y-62120822D01*
X94665998Y-62106841D01*
X94783731Y-61845249D01*
X94790676Y-61832016D01*
X94939080Y-61586526D01*
X94947567Y-61574230D01*
X95124480Y-61348417D01*
X95134395Y-61337226D01*
X95337226Y-61134395D01*
X95348417Y-61124480D01*
X95574230Y-60947567D01*
X95586526Y-60939080D01*
X95832016Y-60790676D01*
X95845249Y-60783731D01*
X96106841Y-60665998D01*
X96120822Y-60660696D01*
X96394668Y-60575362D01*
X96409197Y-60571780D01*
X96691344Y-60520075D01*
X96706201Y-60518271D01*
X96996264Y-60500726D01*
X97003751Y-60500500D01*
X97065892Y-60500500D01*
X122934108Y-60500500D01*
X122996249Y-60500500D01*
X123003736Y-60500726D01*
G37*
%TD.AperFunction*%
%TD*%
%TA.AperFunction,Conductor*%
%TO.N,/Input*%
G36*
X120193039Y-65019685D02*
G01*
X120238794Y-65072489D01*
X120250000Y-65124000D01*
X120250000Y-72876000D01*
X120230315Y-72943039D01*
X120177511Y-72988794D01*
X120126000Y-73000000D01*
X110250000Y-73000000D01*
X110250000Y-80876000D01*
X110230315Y-80943039D01*
X110177511Y-80988794D01*
X110126000Y-81000000D01*
X106124000Y-81000000D01*
X106056961Y-80980315D01*
X106011206Y-80927511D01*
X106000000Y-80876000D01*
X106000000Y-70124000D01*
X106019685Y-70056961D01*
X106072489Y-70011206D01*
X106124000Y-70000000D01*
X110000000Y-70000000D01*
X110000000Y-65124000D01*
X110019685Y-65056961D01*
X110072489Y-65011206D01*
X110124000Y-65000000D01*
X120126000Y-65000000D01*
X120193039Y-65019685D01*
G37*
%TD.AperFunction*%
%TD*%
%TA.AperFunction,Conductor*%
%TO.N,/PH*%
G36*
X110314780Y-88769685D02*
G01*
X110341453Y-88792796D01*
X110418872Y-88882143D01*
X110539947Y-88959953D01*
X110539950Y-88959954D01*
X110539949Y-88959954D01*
X110647107Y-88991417D01*
X110676336Y-89000000D01*
X110678036Y-89000499D01*
X110678038Y-89000500D01*
X110678039Y-89000500D01*
X110821962Y-89000500D01*
X110821962Y-89000499D01*
X110960053Y-88959953D01*
X111081128Y-88882143D01*
X111158546Y-88792796D01*
X111217324Y-88755023D01*
X111252259Y-88750000D01*
X116376000Y-88750000D01*
X116443039Y-88769685D01*
X116488794Y-88822489D01*
X116500000Y-88874000D01*
X116500000Y-91876000D01*
X116480315Y-91943039D01*
X116427511Y-91988794D01*
X116376000Y-92000000D01*
X112500000Y-92000000D01*
X112500000Y-95375500D01*
X112480315Y-95442539D01*
X112427511Y-95488294D01*
X112376000Y-95499500D01*
X111318482Y-95499500D01*
X111237519Y-95512323D01*
X111224696Y-95514354D01*
X111111658Y-95571950D01*
X111111657Y-95571951D01*
X111111652Y-95571954D01*
X111021954Y-95661652D01*
X111021951Y-95661657D01*
X110964352Y-95774698D01*
X110949500Y-95868475D01*
X110949500Y-96231517D01*
X110965881Y-96334943D01*
X110963857Y-96335263D01*
X110965490Y-96392516D01*
X110929407Y-96452347D01*
X110866704Y-96483171D01*
X110797290Y-96475203D01*
X110789280Y-96471475D01*
X110775304Y-96464354D01*
X110775303Y-96464353D01*
X110775300Y-96464352D01*
X110775301Y-96464352D01*
X110681524Y-96449500D01*
X109443482Y-96449500D01*
X109362519Y-96462323D01*
X109349696Y-96464354D01*
X109236658Y-96521950D01*
X109236657Y-96521951D01*
X109236652Y-96521954D01*
X109146954Y-96611652D01*
X109146951Y-96611657D01*
X109146950Y-96611658D01*
X109127751Y-96649337D01*
X109089352Y-96724698D01*
X109074500Y-96818475D01*
X109074500Y-96876000D01*
X109054815Y-96943039D01*
X109002011Y-96988794D01*
X108950500Y-97000000D01*
X108252259Y-97000000D01*
X108185220Y-96980315D01*
X108158546Y-96957203D01*
X108146273Y-96943039D01*
X108081128Y-96867857D01*
X107960053Y-96790047D01*
X107960051Y-96790046D01*
X107960049Y-96790045D01*
X107960050Y-96790045D01*
X107821963Y-96749500D01*
X107821961Y-96749500D01*
X107678039Y-96749500D01*
X107678036Y-96749500D01*
X107563556Y-96783114D01*
X107493687Y-96783114D01*
X107434909Y-96745339D01*
X107405884Y-96681783D01*
X107412440Y-96620804D01*
X107419412Y-96602114D01*
X107422349Y-96574792D01*
X107425499Y-96545501D01*
X107425499Y-96545490D01*
X107425500Y-96545485D01*
X107425499Y-95954516D01*
X107419412Y-95897886D01*
X107379803Y-95791694D01*
X107374818Y-95722004D01*
X107408303Y-95660681D01*
X107469625Y-95627195D01*
X107478345Y-95625622D01*
X107482417Y-95625036D01*
X107482425Y-95625036D01*
X107620517Y-95584489D01*
X107741592Y-95506679D01*
X107816699Y-95420000D01*
X109149353Y-95420000D01*
X109169834Y-95562456D01*
X109215139Y-95661658D01*
X109229623Y-95693373D01*
X109323872Y-95802143D01*
X109444947Y-95879953D01*
X109444950Y-95879954D01*
X109444949Y-95879954D01*
X109583036Y-95920499D01*
X109583038Y-95920500D01*
X109583039Y-95920500D01*
X109726962Y-95920500D01*
X109726962Y-95920499D01*
X109865053Y-95879953D01*
X109986128Y-95802143D01*
X110080377Y-95693373D01*
X110140165Y-95562457D01*
X110160647Y-95420000D01*
X110140165Y-95277543D01*
X110080377Y-95146627D01*
X109986128Y-95037857D01*
X109865053Y-94960047D01*
X109865051Y-94960046D01*
X109865049Y-94960045D01*
X109865050Y-94960045D01*
X109726963Y-94919500D01*
X109726961Y-94919500D01*
X109583039Y-94919500D01*
X109583036Y-94919500D01*
X109444949Y-94960045D01*
X109323873Y-95037856D01*
X109229623Y-95146626D01*
X109229622Y-95146628D01*
X109169834Y-95277543D01*
X109149353Y-95420000D01*
X107816699Y-95420000D01*
X107835841Y-95397909D01*
X107895629Y-95266993D01*
X107916111Y-95124536D01*
X107895629Y-94982079D01*
X107835841Y-94851163D01*
X107741592Y-94742393D01*
X107620517Y-94664583D01*
X107620515Y-94664582D01*
X107620513Y-94664581D01*
X107620514Y-94664581D01*
X107482427Y-94624036D01*
X107482425Y-94624036D01*
X107338503Y-94624036D01*
X107338500Y-94624036D01*
X107200413Y-94664581D01*
X107079337Y-94742392D01*
X106985087Y-94851162D01*
X106985086Y-94851164D01*
X106925298Y-94982079D01*
X106904817Y-95124536D01*
X106925298Y-95266992D01*
X106962745Y-95348988D01*
X106972689Y-95418147D01*
X106943664Y-95481703D01*
X106884886Y-95519477D01*
X106849951Y-95524500D01*
X106454518Y-95524500D01*
X106454509Y-95524501D01*
X106397885Y-95530587D01*
X106269773Y-95578372D01*
X106160313Y-95660313D01*
X106078373Y-95769771D01*
X106030587Y-95897889D01*
X106024500Y-95954498D01*
X106024500Y-96545481D01*
X106024501Y-96545490D01*
X106030587Y-96602114D01*
X106060303Y-96681783D01*
X106078372Y-96730226D01*
X106131869Y-96801691D01*
X106156286Y-96867153D01*
X106141434Y-96935426D01*
X106092029Y-96984832D01*
X106032602Y-97000000D01*
X105374000Y-97000000D01*
X105306961Y-96980315D01*
X105261206Y-96927511D01*
X105250000Y-96876000D01*
X105250000Y-94698909D01*
X105269685Y-94631870D01*
X105271313Y-94629694D01*
X105275368Y-94623382D01*
X105275377Y-94623373D01*
X105335165Y-94492457D01*
X105355647Y-94350000D01*
X105335165Y-94207543D01*
X105275377Y-94076627D01*
X105275374Y-94076624D01*
X105270582Y-94069166D01*
X105273445Y-94067325D01*
X105251257Y-94018699D01*
X105250000Y-94001090D01*
X105250000Y-93724000D01*
X105269685Y-93656961D01*
X105322489Y-93611206D01*
X105374000Y-93600000D01*
X107750000Y-93600000D01*
X107750000Y-92250000D01*
X110244353Y-92250000D01*
X110264834Y-92392456D01*
X110324622Y-92523371D01*
X110324623Y-92523373D01*
X110418872Y-92632143D01*
X110539947Y-92709953D01*
X110539950Y-92709954D01*
X110539949Y-92709954D01*
X110678036Y-92750499D01*
X110678038Y-92750500D01*
X110678039Y-92750500D01*
X110821962Y-92750500D01*
X110821962Y-92750499D01*
X110960053Y-92709953D01*
X111081128Y-92632143D01*
X111175377Y-92523373D01*
X111235165Y-92392457D01*
X111255647Y-92250000D01*
X111235165Y-92107543D01*
X111175377Y-91976627D01*
X111081128Y-91867857D01*
X110960053Y-91790047D01*
X110960051Y-91790046D01*
X110960049Y-91790045D01*
X110960050Y-91790045D01*
X110821963Y-91749500D01*
X110821961Y-91749500D01*
X110678039Y-91749500D01*
X110678036Y-91749500D01*
X110539949Y-91790045D01*
X110418873Y-91867856D01*
X110324623Y-91976626D01*
X110324622Y-91976628D01*
X110264834Y-92107543D01*
X110244353Y-92250000D01*
X107750000Y-92250000D01*
X107750000Y-89624500D01*
X107769685Y-89557461D01*
X107822489Y-89511706D01*
X107863336Y-89502819D01*
X107863184Y-89501762D01*
X107871956Y-89500500D01*
X107871961Y-89500500D01*
X108010053Y-89459953D01*
X108131128Y-89382143D01*
X108225377Y-89273373D01*
X108285165Y-89142457D01*
X108305647Y-89000000D01*
X108290068Y-88891645D01*
X108300012Y-88822489D01*
X108345766Y-88769685D01*
X108412806Y-88750000D01*
X110247741Y-88750000D01*
X110314780Y-88769685D01*
G37*
%TD.AperFunction*%
%TD*%
%TA.AperFunction,Conductor*%
%TO.N,PWR GND*%
G36*
X108693039Y-98019685D02*
G01*
X108738794Y-98072489D01*
X108750000Y-98124000D01*
X108750000Y-99876000D01*
X108730315Y-99943039D01*
X108677511Y-99988794D01*
X108626000Y-100000000D01*
X106874000Y-100000000D01*
X106806961Y-99980315D01*
X106761206Y-99927511D01*
X106750000Y-99876000D01*
X106750000Y-98124000D01*
X106769685Y-98056961D01*
X106822489Y-98011206D01*
X106874000Y-98000000D01*
X108626000Y-98000000D01*
X108693039Y-98019685D01*
G37*
%TD.AperFunction*%
%TD*%
M02*
