%TF.GenerationSoftware,KiCad,Pcbnew,8.0.0*%
%TF.CreationDate,2024-05-28T22:42:53-04:00*%
%TF.ProjectId,MPPT Charge Controller,4d505054-2043-4686-9172-676520436f6e,0.2*%
%TF.SameCoordinates,Original*%
%TF.FileFunction,Paste,Top*%
%TF.FilePolarity,Positive*%
%FSLAX46Y46*%
G04 Gerber Fmt 4.6, Leading zero omitted, Abs format (unit mm)*
G04 Created by KiCad (PCBNEW 8.0.0) date 2024-05-28 22:42:53*
%MOMM*%
%LPD*%
G01*
G04 APERTURE LIST*
G04 Aperture macros list*
%AMRoundRect*
0 Rectangle with rounded corners*
0 $1 Rounding radius*
0 $2 $3 $4 $5 $6 $7 $8 $9 X,Y pos of 4 corners*
0 Add a 4 corners polygon primitive as box body*
4,1,4,$2,$3,$4,$5,$6,$7,$8,$9,$2,$3,0*
0 Add four circle primitives for the rounded corners*
1,1,$1+$1,$2,$3*
1,1,$1+$1,$4,$5*
1,1,$1+$1,$6,$7*
1,1,$1+$1,$8,$9*
0 Add four rect primitives between the rounded corners*
20,1,$1+$1,$2,$3,$4,$5,0*
20,1,$1+$1,$4,$5,$6,$7,0*
20,1,$1+$1,$6,$7,$8,$9,0*
20,1,$1+$1,$8,$9,$2,$3,0*%
G04 Aperture macros list end*
%ADD10RoundRect,0.225000X-0.250000X0.225000X-0.250000X-0.225000X0.250000X-0.225000X0.250000X0.225000X0*%
%ADD11RoundRect,0.250000X-0.362500X-1.425000X0.362500X-1.425000X0.362500X1.425000X-0.362500X1.425000X0*%
%ADD12RoundRect,0.150000X0.150000X-0.825000X0.150000X0.825000X-0.150000X0.825000X-0.150000X-0.825000X0*%
%ADD13RoundRect,0.200000X-0.275000X0.200000X-0.275000X-0.200000X0.275000X-0.200000X0.275000X0.200000X0*%
%ADD14RoundRect,0.225000X0.250000X-0.225000X0.250000X0.225000X-0.250000X0.225000X-0.250000X-0.225000X0*%
%ADD15R,3.600000X1.150000*%
%ADD16RoundRect,0.250000X0.650000X-0.325000X0.650000X0.325000X-0.650000X0.325000X-0.650000X-0.325000X0*%
%ADD17RoundRect,0.200000X-0.200000X-0.275000X0.200000X-0.275000X0.200000X0.275000X-0.200000X0.275000X0*%
%ADD18RoundRect,0.200000X0.200000X0.275000X-0.200000X0.275000X-0.200000X-0.275000X0.200000X-0.275000X0*%
%ADD19RoundRect,0.250000X0.325000X1.100000X-0.325000X1.100000X-0.325000X-1.100000X0.325000X-1.100000X0*%
%ADD20R,0.610000X1.270000*%
%ADD21R,1.650000X3.810000*%
%ADD22R,0.610000X1.020000*%
%ADD23RoundRect,0.250000X0.625000X-0.312500X0.625000X0.312500X-0.625000X0.312500X-0.625000X-0.312500X0*%
%ADD24RoundRect,0.150000X-0.150000X0.512500X-0.150000X-0.512500X0.150000X-0.512500X0.150000X0.512500X0*%
%ADD25R,3.500000X2.500000*%
%ADD26RoundRect,0.200000X0.275000X-0.200000X0.275000X0.200000X-0.275000X0.200000X-0.275000X-0.200000X0*%
%ADD27RoundRect,0.250000X0.475000X-0.250000X0.475000X0.250000X-0.475000X0.250000X-0.475000X-0.250000X0*%
%ADD28R,4.860000X3.360000*%
%ADD29R,1.400000X1.390000*%
%ADD30R,0.000001X0.000001*%
%ADD31O,0.800000X0.280000*%
%ADD32O,0.280000X0.800000*%
G04 APERTURE END LIST*
D10*
%TO.C,C10*%
X105500000Y-102725000D03*
X105500000Y-104275000D03*
%TD*%
D11*
%TO.C,R5*%
X111537500Y-86500000D03*
X117462500Y-86500000D03*
%TD*%
D12*
%TO.C,U3*%
X106845000Y-82475000D03*
X108115000Y-82475000D03*
X109385000Y-82475000D03*
X110655000Y-82475000D03*
X110655000Y-77525000D03*
X109385000Y-77525000D03*
X108115000Y-77525000D03*
X106845000Y-77525000D03*
%TD*%
D13*
%TO.C,R7*%
X98250000Y-131675000D03*
X98250000Y-133325000D03*
%TD*%
%TO.C,R8*%
X96250000Y-131637500D03*
X96250000Y-133287500D03*
%TD*%
D14*
%TO.C,C11*%
X113250000Y-78525000D03*
X113250000Y-76975000D03*
%TD*%
D15*
%TO.C,L2*%
X121500000Y-81225000D03*
X121500000Y-78275000D03*
%TD*%
D16*
%TO.C,C8*%
X111500000Y-105725000D03*
X111500000Y-102775000D03*
%TD*%
D17*
%TO.C,R3*%
X104575000Y-98750000D03*
X102925000Y-98750000D03*
%TD*%
D12*
%TO.C,U4*%
X105095000Y-116475000D03*
X106365000Y-116475000D03*
X107635000Y-116475000D03*
X108905000Y-116475000D03*
X108905000Y-111525000D03*
X107635000Y-111525000D03*
X106365000Y-111525000D03*
X105095000Y-111525000D03*
%TD*%
D10*
%TO.C,C3*%
X104000000Y-102725000D03*
X104000000Y-104275000D03*
%TD*%
D18*
%TO.C,R12*%
X105075000Y-83000000D03*
X103425000Y-83000000D03*
%TD*%
D19*
%TO.C,C1*%
X115975000Y-82750000D03*
X113025000Y-82750000D03*
%TD*%
D20*
%TO.C,Q1*%
X105845000Y-95420000D03*
X107115000Y-95420000D03*
X108385000Y-95420000D03*
X109655000Y-95420000D03*
D21*
X108880000Y-92060000D03*
D22*
X109655000Y-89955000D03*
X108385000Y-89955000D03*
X107115000Y-89955000D03*
D21*
X106620000Y-92060000D03*
D22*
X105845000Y-89955000D03*
%TD*%
D13*
%TO.C,R1*%
X108500000Y-102675000D03*
X108500000Y-104325000D03*
%TD*%
D18*
%TO.C,R14*%
X108825000Y-75500000D03*
X107175000Y-75500000D03*
%TD*%
D23*
%TO.C,RSR1*%
X111500000Y-100962500D03*
X111500000Y-98037500D03*
%TD*%
D24*
%TO.C,U2*%
X116700000Y-76612500D03*
X115750000Y-76612500D03*
X114800000Y-76612500D03*
X114800000Y-78887500D03*
X115750000Y-78887500D03*
X116700000Y-78887500D03*
%TD*%
D18*
%TO.C,R4*%
X104575000Y-100250000D03*
X102925000Y-100250000D03*
%TD*%
D14*
%TO.C,C14*%
X118500000Y-76525000D03*
X118500000Y-74975000D03*
%TD*%
D25*
%TO.C,L1*%
X114500000Y-96250000D03*
X114500000Y-90250000D03*
%TD*%
D26*
%TO.C,R2*%
X107000000Y-104325000D03*
X107000000Y-102675000D03*
%TD*%
D17*
%TO.C,R13*%
X103425000Y-81500000D03*
X105075000Y-81500000D03*
%TD*%
D14*
%TO.C,C12*%
X118500000Y-79525000D03*
X118500000Y-77975000D03*
%TD*%
D27*
%TO.C,C9*%
X113750000Y-105200000D03*
X113750000Y-103300000D03*
%TD*%
D26*
%TO.C,R15*%
X110750000Y-116325000D03*
X110750000Y-114675000D03*
%TD*%
D13*
%TO.C,R16*%
X112250000Y-114675000D03*
X112250000Y-116325000D03*
%TD*%
D20*
%TO.C,Q2*%
X114405000Y-118330000D03*
X113135000Y-118330000D03*
X111865000Y-118330000D03*
X110595000Y-118330000D03*
D21*
X111370000Y-121690000D03*
D22*
X110595000Y-123795000D03*
X111865000Y-123795000D03*
X113135000Y-123795000D03*
D21*
X113630000Y-121690000D03*
D22*
X114405000Y-123795000D03*
%TD*%
D10*
%TO.C,C7*%
X113500000Y-98725000D03*
X113500000Y-100275000D03*
%TD*%
D16*
%TO.C,C6*%
X103500000Y-94225000D03*
X103500000Y-91275000D03*
%TD*%
D18*
%TO.C,R11*%
X107325000Y-109000000D03*
X105675000Y-109000000D03*
%TD*%
D14*
%TO.C,C13*%
X120000000Y-76525000D03*
X120000000Y-74975000D03*
%TD*%
D28*
%TO.C,D1*%
X105630000Y-86500000D03*
D29*
X109612000Y-85580000D03*
X109612000Y-87420000D03*
%TD*%
D30*
%TO.C,U1*%
X106947500Y-98197500D03*
X106947500Y-98732500D03*
X106947500Y-99267500D03*
X106947500Y-99802500D03*
X107482500Y-98197500D03*
X107482500Y-98732500D03*
X107482500Y-99267500D03*
X107482500Y-99802500D03*
X108017500Y-98197500D03*
X108017500Y-98732500D03*
X108017500Y-99267500D03*
X108017500Y-99802500D03*
X108552500Y-98197500D03*
X108552500Y-98732500D03*
X108552500Y-99267500D03*
X108552500Y-99802500D03*
D31*
X106000000Y-98250000D03*
X106000000Y-98750000D03*
X106000000Y-99250000D03*
X106000000Y-99750000D03*
D32*
X107000000Y-100750000D03*
X107500000Y-100750000D03*
X108000000Y-100750000D03*
X108500000Y-100750000D03*
D31*
X109500000Y-99750000D03*
X109500000Y-99250000D03*
X109500000Y-98750000D03*
X109500000Y-98250000D03*
D32*
X108500000Y-97250000D03*
X108000000Y-97250000D03*
X107500000Y-97250000D03*
X107000000Y-97250000D03*
%TD*%
M02*
