%TF.GenerationSoftware,KiCad,Pcbnew,8.0.0*%
%TF.CreationDate,2024-05-28T22:42:53-04:00*%
%TF.ProjectId,MPPT Charge Controller,4d505054-2043-4686-9172-676520436f6e,0.2*%
%TF.SameCoordinates,Original*%
%TF.FileFunction,Soldermask,Bot*%
%TF.FilePolarity,Negative*%
%FSLAX46Y46*%
G04 Gerber Fmt 4.6, Leading zero omitted, Abs format (unit mm)*
G04 Created by KiCad (PCBNEW 8.0.0) date 2024-05-28 22:42:53*
%MOMM*%
%LPD*%
G01*
G04 APERTURE LIST*
G04 Aperture macros list*
%AMRoundRect*
0 Rectangle with rounded corners*
0 $1 Rounding radius*
0 $2 $3 $4 $5 $6 $7 $8 $9 X,Y pos of 4 corners*
0 Add a 4 corners polygon primitive as box body*
4,1,4,$2,$3,$4,$5,$6,$7,$8,$9,$2,$3,0*
0 Add four circle primitives for the rounded corners*
1,1,$1+$1,$2,$3*
1,1,$1+$1,$4,$5*
1,1,$1+$1,$6,$7*
1,1,$1+$1,$8,$9*
0 Add four rect primitives between the rounded corners*
20,1,$1+$1,$2,$3,$4,$5,0*
20,1,$1+$1,$4,$5,$6,$7,0*
20,1,$1+$1,$6,$7,$8,$9,0*
20,1,$1+$1,$8,$9,$2,$3,0*%
G04 Aperture macros list end*
%ADD10RoundRect,0.225000X-0.250000X0.225000X-0.250000X-0.225000X0.250000X-0.225000X0.250000X0.225000X0*%
%ADD11RoundRect,0.100000X0.225000X0.100000X-0.225000X0.100000X-0.225000X-0.100000X0.225000X-0.100000X0*%
%ADD12RoundRect,0.250000X-1.050000X-0.550000X1.050000X-0.550000X1.050000X0.550000X-1.050000X0.550000X0*%
%ADD13O,2.600000X1.600000*%
%ADD14C,3.200000*%
%ADD15C,3.000000*%
%ADD16R,3.000000X3.000000*%
%ADD17RoundRect,0.200000X-0.200000X-0.275000X0.200000X-0.275000X0.200000X0.275000X-0.200000X0.275000X0*%
%ADD18RoundRect,0.218750X-0.256250X0.218750X-0.256250X-0.218750X0.256250X-0.218750X0.256250X0.218750X0*%
%ADD19RoundRect,0.225000X0.225000X0.250000X-0.225000X0.250000X-0.225000X-0.250000X0.225000X-0.250000X0*%
%ADD20RoundRect,0.150000X0.150000X-0.587500X0.150000X0.587500X-0.150000X0.587500X-0.150000X-0.587500X0*%
%ADD21RoundRect,0.200000X0.200000X0.275000X-0.200000X0.275000X-0.200000X-0.275000X0.200000X-0.275000X0*%
%ADD22RoundRect,0.150000X0.587500X0.150000X-0.587500X0.150000X-0.587500X-0.150000X0.587500X-0.150000X0*%
G04 APERTURE END LIST*
D10*
%TO.C,C15*%
X111475000Y-106725000D03*
X111475000Y-108275000D03*
%TD*%
D11*
%TO.C,U5*%
X109650000Y-106850000D03*
X109650000Y-107500000D03*
X109650000Y-108150000D03*
X107750000Y-108150000D03*
X107750000Y-107500000D03*
X107750000Y-106850000D03*
%TD*%
D12*
%TO.C,A1*%
X100140000Y-80960000D03*
D13*
X100140000Y-83500000D03*
X100140000Y-86040000D03*
X100140000Y-88580000D03*
X100140000Y-91120000D03*
X100140000Y-93660000D03*
X100140000Y-96200000D03*
X100140000Y-98740000D03*
X100140000Y-101280000D03*
X100140000Y-103820000D03*
X100140000Y-106360000D03*
X100140000Y-108900000D03*
X100140000Y-111440000D03*
X100140000Y-113980000D03*
X100140000Y-116520000D03*
X100140000Y-119060000D03*
X119860000Y-119060000D03*
X119860000Y-116520000D03*
X119860000Y-113980000D03*
X119860000Y-111440000D03*
X119860000Y-108900000D03*
X119860000Y-106360000D03*
X119860000Y-103820000D03*
X119860000Y-101280000D03*
X119860000Y-98740000D03*
X119860000Y-96200000D03*
X119860000Y-93660000D03*
X119860000Y-91120000D03*
%TD*%
D14*
%TO.C,*%
X123000000Y-137000000D03*
%TD*%
%TO.C,*%
X97000000Y-137000000D03*
%TD*%
%TO.C,*%
X97000000Y-63000000D03*
%TD*%
%TO.C,REF\u002A\u002A*%
X123000000Y-63000000D03*
%TD*%
D15*
%TO.C,TP15*%
X117620000Y-68000000D03*
%TD*%
%TO.C,TP14*%
X102380000Y-68000000D03*
%TD*%
%TO.C,J3*%
X112540000Y-132000000D03*
D16*
X117620000Y-132000000D03*
%TD*%
D15*
%TO.C,J2*%
X102380000Y-132000000D03*
D16*
X107460000Y-132000000D03*
%TD*%
D15*
%TO.C,J1*%
X112540000Y-68000000D03*
D16*
X107460000Y-68000000D03*
%TD*%
D10*
%TO.C,C4*%
X112000000Y-99475000D03*
X112000000Y-101025000D03*
%TD*%
D17*
%TO.C,R6*%
X102925000Y-98250000D03*
X104575000Y-98250000D03*
%TD*%
D18*
%TO.C,D4*%
X96250000Y-131675000D03*
X96250000Y-133250000D03*
%TD*%
D17*
%TO.C,R9*%
X102925000Y-99750000D03*
X104575000Y-99750000D03*
%TD*%
D19*
%TO.C,C5*%
X106725000Y-96250000D03*
X108275000Y-96250000D03*
%TD*%
D18*
%TO.C,D3*%
X98250000Y-131712500D03*
X98250000Y-133287500D03*
%TD*%
D20*
%TO.C,Q3*%
X105450000Y-108937500D03*
X103550000Y-108937500D03*
X104500000Y-107062500D03*
%TD*%
D21*
%TO.C,R10*%
X104575000Y-101250000D03*
X102925000Y-101250000D03*
%TD*%
D19*
%TO.C,C2*%
X104525000Y-96750000D03*
X102975000Y-96750000D03*
%TD*%
D22*
%TO.C,D2*%
X110062500Y-97000000D03*
X111937500Y-97950000D03*
X111937500Y-96050000D03*
%TD*%
M02*
