%TF.GenerationSoftware,KiCad,Pcbnew,8.0.0*%
%TF.CreationDate,2024-05-24T13:22:15-04:00*%
%TF.ProjectId,MPPT Charge Controller,4d505054-2043-4686-9172-676520436f6e,0.1*%
%TF.SameCoordinates,Original*%
%TF.FileFunction,Legend,Top*%
%TF.FilePolarity,Positive*%
%FSLAX46Y46*%
G04 Gerber Fmt 4.6, Leading zero omitted, Abs format (unit mm)*
G04 Created by KiCad (PCBNEW 8.0.0) date 2024-05-24 13:22:15*
%MOMM*%
%LPD*%
G01*
G04 APERTURE LIST*
%ADD10C,0.150000*%
%ADD11C,0.100000*%
%ADD12C,0.120000*%
G04 APERTURE END LIST*
D10*
G36*
X115989009Y-71165000D02*
G01*
X115810223Y-71165000D01*
X115810223Y-70179968D01*
X115989009Y-70179968D01*
X115989009Y-71165000D01*
G37*
G36*
X116998953Y-71165000D02*
G01*
X116820167Y-71165000D01*
X116820167Y-70752718D01*
X116813435Y-70704312D01*
X116808199Y-70689947D01*
X116781744Y-70648699D01*
X116775471Y-70642320D01*
X116733957Y-70614564D01*
X116727111Y-70611789D01*
X116678962Y-70601421D01*
X116667027Y-70601043D01*
X116354396Y-70601043D01*
X116354396Y-71165000D01*
X116175854Y-71165000D01*
X116175854Y-70510917D01*
X116182693Y-70476479D01*
X116201988Y-70448147D01*
X116230809Y-70429340D01*
X116265980Y-70422501D01*
X116668492Y-70422501D01*
X116718837Y-70426413D01*
X116739567Y-70430073D01*
X116788298Y-70444007D01*
X116813573Y-70454497D01*
X116858242Y-70478883D01*
X116883670Y-70496995D01*
X116920650Y-70531410D01*
X116942777Y-70559521D01*
X116968503Y-70604370D01*
X116983810Y-70644274D01*
X116994679Y-70692066D01*
X116998820Y-70741513D01*
X116998953Y-70752718D01*
X116998953Y-71165000D01*
G37*
G36*
X117968841Y-70914162D02*
G01*
X117965132Y-70963158D01*
X117957118Y-70997205D01*
X117937419Y-71043424D01*
X117926099Y-71061685D01*
X117893813Y-71098779D01*
X117881402Y-71109068D01*
X117838513Y-71136144D01*
X117828157Y-71141064D01*
X117781062Y-71157151D01*
X117772226Y-71159138D01*
X117723523Y-71164948D01*
X117718737Y-71165000D01*
X117396580Y-71165000D01*
X117396580Y-70986458D01*
X117718737Y-70986458D01*
X117766219Y-70973243D01*
X117772226Y-70967896D01*
X117789899Y-70920611D01*
X117790055Y-70914162D01*
X117790055Y-70673827D01*
X117777963Y-70626237D01*
X117771737Y-70618872D01*
X117725137Y-70601199D01*
X117718737Y-70601043D01*
X117397801Y-70601043D01*
X117350435Y-70613136D01*
X117342847Y-70619361D01*
X117324690Y-70665961D01*
X117324529Y-70672362D01*
X117324529Y-71397274D01*
X117145743Y-71397274D01*
X117145743Y-70672362D01*
X117149876Y-70621193D01*
X117157466Y-70590052D01*
X117177281Y-70544053D01*
X117188730Y-70525816D01*
X117221336Y-70488722D01*
X117233670Y-70478433D01*
X117276560Y-70451357D01*
X117286915Y-70446437D01*
X117334423Y-70430286D01*
X117343335Y-70428363D01*
X117391921Y-70422553D01*
X117396580Y-70422501D01*
X117718737Y-70422501D01*
X117769906Y-70426634D01*
X117801046Y-70434225D01*
X117847045Y-70453703D01*
X117865282Y-70465000D01*
X117902377Y-70497377D01*
X117912665Y-70509696D01*
X117938956Y-70550876D01*
X117944661Y-70562941D01*
X117960987Y-70610101D01*
X117962979Y-70618872D01*
X117968790Y-70667575D01*
X117968841Y-70672362D01*
X117968841Y-70914162D01*
G37*
G36*
X118928227Y-71075118D02*
G01*
X118921144Y-71110778D01*
X118902337Y-71139354D01*
X118874249Y-71158161D01*
X118839567Y-71165000D01*
X118435589Y-71165000D01*
X118385794Y-71161088D01*
X118365003Y-71157428D01*
X118316377Y-71143493D01*
X118291242Y-71133004D01*
X118246706Y-71108503D01*
X118220900Y-71090505D01*
X118183598Y-71055973D01*
X118161549Y-71027979D01*
X118136064Y-70983011D01*
X118120516Y-70943227D01*
X118109471Y-70895381D01*
X118105264Y-70845787D01*
X118105129Y-70834539D01*
X118105129Y-70422501D01*
X118283670Y-70422501D01*
X118283670Y-70834539D01*
X118290402Y-70883174D01*
X118295638Y-70897554D01*
X118322158Y-70938737D01*
X118328367Y-70945181D01*
X118369934Y-70973124D01*
X118376727Y-70975956D01*
X118425036Y-70986089D01*
X118437055Y-70986458D01*
X118749441Y-70986458D01*
X118749441Y-70422501D01*
X118928227Y-70422501D01*
X118928227Y-71075118D01*
G37*
G36*
X119765492Y-70601043D02*
G01*
X119453593Y-70601043D01*
X119453593Y-71165000D01*
X119272854Y-71165000D01*
X119272854Y-70601043D01*
X119040823Y-70601043D01*
X119040823Y-70422501D01*
X119272854Y-70422501D01*
X119272854Y-70179968D01*
X119453593Y-70179968D01*
X119453593Y-70422501D01*
X119765492Y-70422501D01*
X119765492Y-70601043D01*
G37*
G36*
X101330775Y-70825118D02*
G01*
X101323936Y-70860778D01*
X101305130Y-70889354D01*
X101276553Y-70908161D01*
X101240894Y-70915000D01*
X100596581Y-70915000D01*
X100546893Y-70909848D01*
X100543336Y-70909138D01*
X100495635Y-70894725D01*
X100486916Y-70891064D01*
X100443282Y-70866146D01*
X100433671Y-70859068D01*
X100397559Y-70823469D01*
X100388730Y-70811685D01*
X100364680Y-70767117D01*
X100357467Y-70747205D01*
X100347392Y-70697478D01*
X100345744Y-70664162D01*
X100345744Y-70180561D01*
X100350896Y-70131088D01*
X100351605Y-70127561D01*
X100366018Y-70079860D01*
X100369679Y-70071140D01*
X100394758Y-70027507D01*
X100401919Y-70017896D01*
X100436358Y-69983091D01*
X100449791Y-69972955D01*
X100494233Y-69948806D01*
X100514027Y-69941692D01*
X100563333Y-69931617D01*
X100596581Y-69929968D01*
X101322715Y-69929968D01*
X101322715Y-70108510D01*
X100596581Y-70108510D01*
X100549054Y-70121724D01*
X100542848Y-70127072D01*
X100524816Y-70173207D01*
X100524529Y-70182027D01*
X100524529Y-70664162D01*
X100537918Y-70711322D01*
X100543336Y-70717651D01*
X100590261Y-70736293D01*
X100596581Y-70736458D01*
X101152233Y-70736458D01*
X101152233Y-70512487D01*
X100676937Y-70512487D01*
X100676937Y-70332480D01*
X101240894Y-70332480D01*
X101276553Y-70339808D01*
X101305130Y-70359347D01*
X101323936Y-70387679D01*
X101330775Y-70422362D01*
X101330775Y-70825118D01*
G37*
G36*
X102495081Y-70838796D02*
G01*
X102487753Y-70874699D01*
X102468702Y-70903032D01*
X102440126Y-70921838D01*
X102405199Y-70928677D01*
X102371738Y-70922571D01*
X102341940Y-70902543D01*
X101689323Y-70221106D01*
X101689323Y-70915000D01*
X101510782Y-70915000D01*
X101510782Y-70006172D01*
X101525223Y-69957985D01*
X101526169Y-69956591D01*
X101564234Y-69923827D01*
X101565737Y-69923129D01*
X101614437Y-69917419D01*
X101617760Y-69918000D01*
X101661481Y-69940497D01*
X101663922Y-69942913D01*
X102316539Y-70623618D01*
X102316539Y-69929968D01*
X102495081Y-69929968D01*
X102495081Y-70838796D01*
G37*
G36*
X103316449Y-69932422D02*
G01*
X103368255Y-69940903D01*
X103417485Y-69955444D01*
X103431752Y-69960987D01*
X103476918Y-69982559D01*
X103521972Y-70011687D01*
X103562178Y-70046472D01*
X103597159Y-70086457D01*
X103624103Y-70127215D01*
X103646418Y-70172171D01*
X103648395Y-70176898D01*
X103664882Y-70225660D01*
X103675262Y-70276999D01*
X103679536Y-70330914D01*
X103679658Y-70342006D01*
X103679658Y-70502718D01*
X103677186Y-70552273D01*
X103668637Y-70604662D01*
X103653982Y-70654235D01*
X103648395Y-70668558D01*
X103626542Y-70713700D01*
X103600062Y-70754788D01*
X103565589Y-70795300D01*
X103562178Y-70798740D01*
X103521972Y-70833415D01*
X103476918Y-70862548D01*
X103431752Y-70884225D01*
X103383295Y-70900454D01*
X103332261Y-70910672D01*
X103278652Y-70914879D01*
X103267621Y-70915000D01*
X102785485Y-70915000D01*
X102749582Y-70908161D01*
X102721005Y-70889354D01*
X102702199Y-70860778D01*
X102695360Y-70825118D01*
X102695360Y-70108510D01*
X102873901Y-70108510D01*
X102873901Y-70736458D01*
X103267621Y-70736458D01*
X103317507Y-70732245D01*
X103362631Y-70719605D01*
X103407127Y-70696318D01*
X103436393Y-70672222D01*
X103466807Y-70633934D01*
X103484264Y-70598705D01*
X103497414Y-70550205D01*
X103501117Y-70502718D01*
X103501117Y-70342006D01*
X103496904Y-70292180D01*
X103484264Y-70246751D01*
X103460823Y-70201937D01*
X103436393Y-70172745D01*
X103395542Y-70141313D01*
X103362631Y-70125362D01*
X103314529Y-70112213D01*
X103267621Y-70108510D01*
X102873901Y-70108510D01*
X102695360Y-70108510D01*
X102695360Y-70019849D01*
X102702199Y-69984923D01*
X102721005Y-69956102D01*
X102749582Y-69936807D01*
X102785485Y-69929968D01*
X103267621Y-69929968D01*
X103316449Y-69932422D01*
G37*
D11*
G36*
X124266748Y-95957168D02*
G01*
X124030810Y-96437838D01*
X124014438Y-96456199D01*
X124012980Y-96457133D01*
X123988851Y-96464310D01*
X123987090Y-96464338D01*
X123963040Y-96458006D01*
X123961567Y-96457133D01*
X123944308Y-96439437D01*
X123943493Y-96437960D01*
X123707798Y-95957168D01*
X123816364Y-95957168D01*
X123987090Y-96306924D01*
X124158427Y-95957168D01*
X124266748Y-95957168D01*
G37*
G36*
X124747418Y-96457500D02*
G01*
X124421354Y-96457500D01*
X124396629Y-96455092D01*
X124393877Y-96454569D01*
X124370305Y-96447431D01*
X124364934Y-96445165D01*
X124343279Y-96432932D01*
X124337457Y-96428679D01*
X124319505Y-96411070D01*
X124314253Y-96404132D01*
X124302221Y-96382183D01*
X124298011Y-96370793D01*
X124293015Y-96346636D01*
X124292027Y-96328173D01*
X124292027Y-96086372D01*
X124294435Y-96061748D01*
X124294958Y-96059017D01*
X124302096Y-96035445D01*
X124304362Y-96030075D01*
X124316669Y-96008378D01*
X124320970Y-96002597D01*
X124338808Y-95984645D01*
X124345761Y-95979394D01*
X124367595Y-95967309D01*
X124378856Y-95963152D01*
X124402911Y-95958156D01*
X124421354Y-95957168D01*
X124747418Y-95957168D01*
X124747418Y-96054255D01*
X124421354Y-96054255D01*
X124397808Y-96061933D01*
X124397296Y-96062437D01*
X124389244Y-96086076D01*
X124389236Y-96087105D01*
X124389236Y-96328173D01*
X124396915Y-96351583D01*
X124397418Y-96352109D01*
X124421354Y-96360413D01*
X124747418Y-96360413D01*
X124747418Y-96457500D01*
G37*
G36*
X125266190Y-96457500D02*
G01*
X124940126Y-96457500D01*
X124915401Y-96455092D01*
X124912648Y-96454569D01*
X124889077Y-96447431D01*
X124883706Y-96445165D01*
X124862051Y-96432932D01*
X124856228Y-96428679D01*
X124838277Y-96411070D01*
X124833025Y-96404132D01*
X124820993Y-96382183D01*
X124816783Y-96370793D01*
X124811787Y-96346636D01*
X124810799Y-96328173D01*
X124810799Y-96086372D01*
X124813206Y-96061748D01*
X124813730Y-96059017D01*
X124820868Y-96035445D01*
X124823133Y-96030075D01*
X124835441Y-96008378D01*
X124839742Y-96002597D01*
X124857579Y-95984645D01*
X124864533Y-95979394D01*
X124886367Y-95967309D01*
X124897628Y-95963152D01*
X124921683Y-95958156D01*
X124940126Y-95957168D01*
X125266190Y-95957168D01*
X125266190Y-96054255D01*
X124940126Y-96054255D01*
X124916579Y-96061933D01*
X124916068Y-96062437D01*
X124908016Y-96086076D01*
X124908008Y-96087105D01*
X124908008Y-96328173D01*
X124915687Y-96351583D01*
X124916190Y-96352109D01*
X124940126Y-96360413D01*
X125266190Y-96360413D01*
X125266190Y-96457500D01*
G37*
G36*
X124222435Y-98707168D02*
G01*
X123986497Y-99187838D01*
X123970125Y-99206199D01*
X123968667Y-99207133D01*
X123944538Y-99214310D01*
X123942777Y-99214338D01*
X123918727Y-99208006D01*
X123917254Y-99207133D01*
X123899995Y-99189437D01*
X123899180Y-99187960D01*
X123663485Y-98707168D01*
X123772051Y-98707168D01*
X123942777Y-99056924D01*
X124114114Y-98707168D01*
X124222435Y-98707168D01*
G37*
G36*
X124760136Y-98876550D02*
G01*
X124758640Y-98902643D01*
X124753717Y-98927799D01*
X124752320Y-98932482D01*
X124743222Y-98955594D01*
X124731315Y-98975835D01*
X124715202Y-98995293D01*
X124700907Y-99008075D01*
X124680002Y-99022348D01*
X124665003Y-99030179D01*
X124641352Y-99039052D01*
X124627024Y-99042636D01*
X124602804Y-99046388D01*
X124601500Y-99046421D01*
X124787980Y-99207500D01*
X124638014Y-99207500D01*
X124451779Y-99046421D01*
X124385101Y-99046421D01*
X124385101Y-98949335D01*
X124590876Y-98949335D01*
X124615099Y-98944491D01*
X124620185Y-98942618D01*
X124641202Y-98929870D01*
X124643021Y-98928208D01*
X124657139Y-98907814D01*
X124657798Y-98906226D01*
X124662921Y-98881719D01*
X124663049Y-98876550D01*
X124663049Y-98820252D01*
X124661584Y-98810605D01*
X124658042Y-98806209D01*
X124653280Y-98804621D01*
X124648028Y-98804255D01*
X124357257Y-98804255D01*
X124357257Y-99207500D01*
X124260171Y-99207500D01*
X124260171Y-98756017D01*
X124263834Y-98737088D01*
X124274093Y-98721334D01*
X124289602Y-98710954D01*
X124309019Y-98707168D01*
X124648028Y-98707168D01*
X124673240Y-98709319D01*
X124697588Y-98717043D01*
X124700296Y-98718403D01*
X124720729Y-98731960D01*
X124734979Y-98746613D01*
X124748262Y-98767573D01*
X124754274Y-98783005D01*
X124759443Y-98807599D01*
X124760136Y-98819642D01*
X124760136Y-98876550D01*
G37*
G36*
X125251797Y-99006243D02*
G01*
X124962003Y-99006243D01*
X124962003Y-98908424D01*
X125251797Y-98908424D01*
X125251797Y-99006243D01*
G37*
G36*
X125291975Y-99207500D02*
G01*
X124965910Y-99207500D01*
X124940608Y-99204876D01*
X124924145Y-99200783D01*
X124901037Y-99191199D01*
X124882135Y-99178679D01*
X124864428Y-99160880D01*
X124850710Y-99140034D01*
X124849895Y-99138501D01*
X124841046Y-99114812D01*
X124837266Y-99089048D01*
X124836950Y-99078173D01*
X124836950Y-98756017D01*
X124840614Y-98737088D01*
X124850994Y-98721334D01*
X124866504Y-98710954D01*
X124885799Y-98707168D01*
X125291975Y-98707168D01*
X125291975Y-98804255D01*
X124934037Y-98804255D01*
X124934037Y-99078173D01*
X124941601Y-99101834D01*
X124942097Y-99102353D01*
X124965514Y-99110405D01*
X124966521Y-99110413D01*
X125291975Y-99110413D01*
X125291975Y-99207500D01*
G37*
G36*
X125782659Y-99006243D02*
G01*
X125492498Y-99006243D01*
X125492498Y-98908424D01*
X125782659Y-98908424D01*
X125782659Y-99006243D01*
G37*
G36*
X125822592Y-98804255D02*
G01*
X125464654Y-98804255D01*
X125464654Y-99207500D01*
X125367568Y-99207500D01*
X125367568Y-98756017D01*
X125371231Y-98737088D01*
X125381490Y-98721334D01*
X125396999Y-98710954D01*
X125416416Y-98707168D01*
X125822592Y-98707168D01*
X125822592Y-98804255D01*
G37*
G36*
X123903064Y-106666000D02*
G01*
X123824808Y-106666000D01*
X123824808Y-106440026D01*
X123703957Y-106652615D01*
X123689791Y-106666683D01*
X123670251Y-106671471D01*
X123651201Y-106666683D01*
X123637230Y-106652615D01*
X123515890Y-106440026D01*
X123515890Y-106666000D01*
X123438221Y-106666000D01*
X123438221Y-106299342D01*
X123443051Y-106280184D01*
X123446134Y-106275504D01*
X123461540Y-106263344D01*
X123466944Y-106261436D01*
X123479449Y-106260361D01*
X123491466Y-106262999D01*
X123502115Y-106269349D01*
X123510321Y-106279119D01*
X123670251Y-106557165D01*
X123830182Y-106279119D01*
X123844087Y-106265313D01*
X123849135Y-106262901D01*
X123868660Y-106260370D01*
X123874341Y-106261436D01*
X123891789Y-106271824D01*
X123894955Y-106275504D01*
X123902676Y-106293593D01*
X123903064Y-106299342D01*
X123903064Y-106666000D01*
G37*
G36*
X124376016Y-106433676D02*
G01*
X124374819Y-106454531D01*
X124370880Y-106474594D01*
X124369763Y-106478323D01*
X124362485Y-106496837D01*
X124352959Y-106513103D01*
X124340069Y-106528669D01*
X124328633Y-106538896D01*
X124311827Y-106550245D01*
X124299812Y-106556383D01*
X124280975Y-106563398D01*
X124269526Y-106566251D01*
X124249313Y-106568984D01*
X124240705Y-106569279D01*
X124075988Y-106569279D01*
X124075988Y-106491610D01*
X124240607Y-106491610D01*
X124260204Y-106487735D01*
X124264250Y-106486237D01*
X124280984Y-106476038D01*
X124282422Y-106474709D01*
X124293619Y-106458394D01*
X124294145Y-106457123D01*
X124298244Y-106437726D01*
X124298346Y-106433676D01*
X124298346Y-106401436D01*
X124294189Y-106381928D01*
X124292680Y-106377793D01*
X124282659Y-106360946D01*
X124281347Y-106359524D01*
X124264784Y-106347974D01*
X124264152Y-106347702D01*
X124244807Y-106343508D01*
X124240705Y-106343404D01*
X124079700Y-106343404D01*
X124061004Y-106349157D01*
X124060161Y-106349949D01*
X124053713Y-106369098D01*
X124053713Y-106666000D01*
X123975946Y-106666000D01*
X123975946Y-106369098D01*
X123977402Y-106349104D01*
X123982267Y-106330110D01*
X123986302Y-106321031D01*
X123997197Y-106304064D01*
X124011232Y-106289751D01*
X124012191Y-106288986D01*
X124029337Y-106277913D01*
X124045702Y-106271303D01*
X124065169Y-106266800D01*
X124079114Y-106265734D01*
X124240705Y-106265734D01*
X124261294Y-106266950D01*
X124281236Y-106270950D01*
X124284962Y-106272085D01*
X124303524Y-106279436D01*
X124319742Y-106288986D01*
X124335325Y-106301877D01*
X124345436Y-106313313D01*
X124356739Y-106330119D01*
X124362924Y-106342133D01*
X124370068Y-106361055D01*
X124372889Y-106372517D01*
X124375710Y-106392642D01*
X124376016Y-106401240D01*
X124376016Y-106433676D01*
G37*
G36*
X124827376Y-106433676D02*
G01*
X124826180Y-106454531D01*
X124822241Y-106474594D01*
X124821124Y-106478323D01*
X124813845Y-106496837D01*
X124804320Y-106513103D01*
X124791430Y-106528669D01*
X124779993Y-106538896D01*
X124763187Y-106550245D01*
X124751173Y-106556383D01*
X124732335Y-106563398D01*
X124720887Y-106566251D01*
X124700674Y-106568984D01*
X124692066Y-106569279D01*
X124527348Y-106569279D01*
X124527348Y-106491610D01*
X124691968Y-106491610D01*
X124711565Y-106487735D01*
X124715611Y-106486237D01*
X124732345Y-106476038D01*
X124733783Y-106474709D01*
X124744980Y-106458394D01*
X124745506Y-106457123D01*
X124749605Y-106437726D01*
X124749707Y-106433676D01*
X124749707Y-106401436D01*
X124745550Y-106381928D01*
X124744041Y-106377793D01*
X124734019Y-106360946D01*
X124732708Y-106359524D01*
X124716145Y-106347974D01*
X124715513Y-106347702D01*
X124696167Y-106343508D01*
X124692066Y-106343404D01*
X124531061Y-106343404D01*
X124512365Y-106349157D01*
X124511522Y-106349949D01*
X124505074Y-106369098D01*
X124505074Y-106666000D01*
X124427307Y-106666000D01*
X124427307Y-106369098D01*
X124428763Y-106349104D01*
X124433627Y-106330110D01*
X124437663Y-106321031D01*
X124448558Y-106304064D01*
X124462592Y-106289751D01*
X124463552Y-106288986D01*
X124480698Y-106277913D01*
X124497062Y-106271303D01*
X124516530Y-106266800D01*
X124530475Y-106265734D01*
X124692066Y-106265734D01*
X124712654Y-106266950D01*
X124732597Y-106270950D01*
X124736323Y-106272085D01*
X124754885Y-106279436D01*
X124771103Y-106288986D01*
X124786686Y-106301877D01*
X124796797Y-106313313D01*
X124808100Y-106330119D01*
X124814285Y-106342133D01*
X124821429Y-106361055D01*
X124824250Y-106372517D01*
X124827071Y-106392642D01*
X124827376Y-106401240D01*
X124827376Y-106433676D01*
G37*
G36*
X125264669Y-106546907D02*
G01*
X125263301Y-106567521D01*
X125259198Y-106585986D01*
X125251899Y-106604172D01*
X125244641Y-106616565D01*
X125232146Y-106631647D01*
X125223441Y-106639230D01*
X125207162Y-106650068D01*
X125198332Y-106654569D01*
X125179452Y-106661431D01*
X125171954Y-106663264D01*
X125151995Y-106665869D01*
X125146748Y-106666000D01*
X124868018Y-106666000D01*
X124868018Y-106588330D01*
X125146748Y-106588330D01*
X125166504Y-106584404D01*
X125176448Y-106577193D01*
X125185753Y-106559081D01*
X125187000Y-106546907D01*
X125184166Y-106529907D01*
X125176155Y-106516621D01*
X125163455Y-106508023D01*
X125146748Y-106504995D01*
X124982422Y-106504995D01*
X124962730Y-106503202D01*
X124944027Y-106498644D01*
X124925415Y-106490995D01*
X124908049Y-106479954D01*
X124905827Y-106478226D01*
X124891495Y-106464166D01*
X124880230Y-106448130D01*
X124876420Y-106441198D01*
X124869276Y-106422578D01*
X124865624Y-106403047D01*
X124864697Y-106385316D01*
X124865842Y-106365730D01*
X124869746Y-106346479D01*
X124876420Y-106329628D01*
X124886929Y-106312536D01*
X124900447Y-106297266D01*
X124905827Y-106292601D01*
X124923028Y-106280989D01*
X124941473Y-106272898D01*
X124944027Y-106272085D01*
X124963933Y-106267322D01*
X124982422Y-106265734D01*
X125228716Y-106265734D01*
X125228716Y-106343404D01*
X124982422Y-106343404D01*
X124962877Y-106347433D01*
X124952917Y-106354834D01*
X124943613Y-106373119D01*
X124942366Y-106385316D01*
X124946086Y-106405359D01*
X124952917Y-106415699D01*
X124970384Y-106425435D01*
X124982422Y-106426739D01*
X125146748Y-106426739D01*
X125147237Y-106426739D01*
X125167444Y-106429021D01*
X125172345Y-106430061D01*
X125191344Y-106435990D01*
X125198723Y-106439244D01*
X125216170Y-106449277D01*
X125223734Y-106454876D01*
X125238157Y-106468869D01*
X125244739Y-106477542D01*
X125254301Y-106494732D01*
X125259295Y-106508121D01*
X125263488Y-106527631D01*
X125264669Y-106546907D01*
G37*
G36*
X125645785Y-106504995D02*
G01*
X125413950Y-106504995D01*
X125413950Y-106426739D01*
X125645785Y-106426739D01*
X125645785Y-106504995D01*
G37*
G36*
X125677928Y-106666000D02*
G01*
X125417076Y-106666000D01*
X125396835Y-106663901D01*
X125383664Y-106660626D01*
X125365177Y-106652959D01*
X125350056Y-106642943D01*
X125335890Y-106628704D01*
X125324916Y-106612027D01*
X125324264Y-106610801D01*
X125317185Y-106591850D01*
X125314161Y-106571238D01*
X125313908Y-106562538D01*
X125313908Y-106304813D01*
X125316839Y-106289670D01*
X125325143Y-106277067D01*
X125337551Y-106268763D01*
X125352987Y-106265734D01*
X125677928Y-106265734D01*
X125677928Y-106343404D01*
X125391577Y-106343404D01*
X125391577Y-106562538D01*
X125397629Y-106581467D01*
X125398025Y-106581882D01*
X125416759Y-106588324D01*
X125417565Y-106588330D01*
X125677928Y-106588330D01*
X125677928Y-106666000D01*
G37*
G36*
X126100761Y-106343404D02*
G01*
X125943273Y-106343404D01*
X125943273Y-106666000D01*
X125865604Y-106666000D01*
X125865604Y-106343404D01*
X125707921Y-106343404D01*
X125707921Y-106265734D01*
X126100761Y-106265734D01*
X126100761Y-106343404D01*
G37*
G36*
X124478506Y-103554255D02*
G01*
X124281647Y-103554255D01*
X124281647Y-103957500D01*
X124184560Y-103957500D01*
X124184560Y-103554255D01*
X123987456Y-103554255D01*
X123987456Y-103457168D01*
X124478506Y-103457168D01*
X124478506Y-103554255D01*
G37*
G36*
X125014620Y-103808633D02*
G01*
X125012910Y-103834401D01*
X125007781Y-103857482D01*
X124998657Y-103880215D01*
X124989585Y-103895706D01*
X124973966Y-103914559D01*
X124963084Y-103924038D01*
X124942736Y-103937585D01*
X124931699Y-103943211D01*
X124908099Y-103951789D01*
X124898726Y-103954080D01*
X124873777Y-103957336D01*
X124867219Y-103957500D01*
X124518807Y-103957500D01*
X124518807Y-103860413D01*
X124867219Y-103860413D01*
X124891913Y-103855505D01*
X124904344Y-103846491D01*
X124915975Y-103823851D01*
X124917533Y-103808633D01*
X124913991Y-103787384D01*
X124903978Y-103770776D01*
X124888102Y-103760029D01*
X124867219Y-103756243D01*
X124661811Y-103756243D01*
X124637196Y-103754003D01*
X124613817Y-103748306D01*
X124590553Y-103738744D01*
X124568844Y-103724943D01*
X124566068Y-103722782D01*
X124548152Y-103705208D01*
X124534070Y-103685163D01*
X124529309Y-103676498D01*
X124520379Y-103653223D01*
X124515814Y-103628809D01*
X124514654Y-103606645D01*
X124516086Y-103582163D01*
X124520966Y-103558099D01*
X124529309Y-103537035D01*
X124542445Y-103515670D01*
X124559342Y-103496583D01*
X124566068Y-103490751D01*
X124587568Y-103476236D01*
X124610625Y-103466122D01*
X124613817Y-103465106D01*
X124638699Y-103459153D01*
X124661811Y-103457168D01*
X124969679Y-103457168D01*
X124969679Y-103554255D01*
X124661811Y-103554255D01*
X124637380Y-103559292D01*
X124624930Y-103568543D01*
X124613299Y-103591398D01*
X124611741Y-103606645D01*
X124616391Y-103631699D01*
X124624930Y-103644624D01*
X124646764Y-103656794D01*
X124661811Y-103658424D01*
X124867219Y-103658424D01*
X124867830Y-103658424D01*
X124893088Y-103661277D01*
X124899215Y-103662576D01*
X124922963Y-103669988D01*
X124932188Y-103674056D01*
X124953996Y-103686597D01*
X124963451Y-103693595D01*
X124981480Y-103711086D01*
X124989707Y-103721927D01*
X125001659Y-103743415D01*
X125007903Y-103760151D01*
X125013144Y-103784539D01*
X125014620Y-103808633D01*
G37*
G36*
X124243056Y-100957168D02*
G01*
X124007118Y-101437838D01*
X123990746Y-101456199D01*
X123989288Y-101457133D01*
X123965159Y-101464310D01*
X123963398Y-101464338D01*
X123939348Y-101458006D01*
X123937875Y-101457133D01*
X123920616Y-101439437D01*
X123919801Y-101437960D01*
X123684106Y-100957168D01*
X123792672Y-100957168D01*
X123963398Y-101306924D01*
X124134735Y-100957168D01*
X124243056Y-100957168D01*
G37*
G36*
X124695882Y-101256243D02*
G01*
X124405722Y-101256243D01*
X124405722Y-101158424D01*
X124695882Y-101158424D01*
X124695882Y-101256243D01*
G37*
G36*
X124735816Y-101054255D02*
G01*
X124377878Y-101054255D01*
X124377878Y-101457500D01*
X124280792Y-101457500D01*
X124280792Y-101006017D01*
X124284455Y-100987088D01*
X124294714Y-100971334D01*
X124310223Y-100960954D01*
X124329640Y-100957168D01*
X124735816Y-100957168D01*
X124735816Y-101054255D01*
G37*
G36*
X125169219Y-100959996D02*
G01*
X125181193Y-100963152D01*
X125204568Y-100973542D01*
X125217585Y-100982569D01*
X125234866Y-101000133D01*
X125245795Y-101017374D01*
X125254222Y-101041127D01*
X125256987Y-101065817D01*
X125257030Y-101069642D01*
X125257030Y-101086372D01*
X125255015Y-101111591D01*
X125249466Y-101136896D01*
X125248970Y-101138640D01*
X125240492Y-101161788D01*
X125228244Y-101183892D01*
X125225401Y-101187978D01*
X125245070Y-101203153D01*
X125250924Y-101208738D01*
X125267351Y-101228103D01*
X125274738Y-101239757D01*
X125285370Y-101262276D01*
X125290858Y-101279569D01*
X125295527Y-101304295D01*
X125296842Y-101328173D01*
X125296842Y-101345392D01*
X125294071Y-101370055D01*
X125290980Y-101382028D01*
X125280800Y-101405298D01*
X125271807Y-101418299D01*
X125254243Y-101435382D01*
X125237003Y-101446264D01*
X125213250Y-101454691D01*
X125188559Y-101457456D01*
X125184735Y-101457500D01*
X124845848Y-101457500D01*
X124826430Y-101453836D01*
X124810921Y-101443456D01*
X124800541Y-101427946D01*
X124796877Y-101408651D01*
X124796877Y-101054255D01*
X124893963Y-101054255D01*
X124893963Y-101360413D01*
X125184735Y-101360413D01*
X125189742Y-101360169D01*
X125194504Y-101358703D01*
X125198046Y-101354185D01*
X125199755Y-101344659D01*
X125199755Y-101328173D01*
X125196289Y-101303324D01*
X125194504Y-101298253D01*
X125181131Y-101276958D01*
X125179972Y-101275783D01*
X125158799Y-101262016D01*
X125157135Y-101261372D01*
X125132238Y-101256369D01*
X125127093Y-101256243D01*
X124921929Y-101256243D01*
X124921929Y-101158424D01*
X125086915Y-101158424D01*
X125111845Y-101155119D01*
X125116957Y-101153417D01*
X125137995Y-101140711D01*
X125139794Y-101139007D01*
X125153561Y-101118048D01*
X125154204Y-101116414D01*
X125159089Y-101091550D01*
X125159211Y-101086372D01*
X125159211Y-101069642D01*
X125144557Y-101054255D01*
X124893963Y-101054255D01*
X124796877Y-101054255D01*
X124796877Y-101006017D01*
X124800541Y-100987088D01*
X124810921Y-100971334D01*
X124826430Y-100960954D01*
X124845848Y-100957168D01*
X125144557Y-100957168D01*
X125169219Y-100959996D01*
G37*
G36*
X124097871Y-114068633D02*
G01*
X124096162Y-114094401D01*
X124091033Y-114117482D01*
X124081909Y-114140215D01*
X124072837Y-114155706D01*
X124057218Y-114174559D01*
X124046336Y-114184038D01*
X124025988Y-114197585D01*
X124014951Y-114203211D01*
X123991351Y-114211789D01*
X123981978Y-114214080D01*
X123957029Y-114217336D01*
X123950471Y-114217500D01*
X123602058Y-114217500D01*
X123602058Y-114120413D01*
X123950471Y-114120413D01*
X123975165Y-114115505D01*
X123987596Y-114106491D01*
X123999226Y-114083851D01*
X124000785Y-114068633D01*
X123997243Y-114047384D01*
X123987229Y-114030776D01*
X123971354Y-114020029D01*
X123950471Y-114016243D01*
X123745063Y-114016243D01*
X123720448Y-114014003D01*
X123697069Y-114008306D01*
X123673804Y-113998744D01*
X123652096Y-113984943D01*
X123649319Y-113982782D01*
X123631404Y-113965208D01*
X123617322Y-113945163D01*
X123612561Y-113936498D01*
X123603631Y-113913223D01*
X123599065Y-113888809D01*
X123597906Y-113866645D01*
X123599337Y-113842163D01*
X123604217Y-113818099D01*
X123612561Y-113797035D01*
X123625697Y-113775670D01*
X123642594Y-113756583D01*
X123649319Y-113750751D01*
X123670820Y-113736236D01*
X123693877Y-113726122D01*
X123697069Y-113725106D01*
X123721951Y-113719153D01*
X123745063Y-113717168D01*
X124052931Y-113717168D01*
X124052931Y-113814255D01*
X123745063Y-113814255D01*
X123720631Y-113819292D01*
X123708182Y-113828543D01*
X123696551Y-113851398D01*
X123694993Y-113866645D01*
X123699642Y-113891699D01*
X123708182Y-113904624D01*
X123730016Y-113916794D01*
X123745063Y-113918424D01*
X123950471Y-113918424D01*
X123951081Y-113918424D01*
X123976340Y-113921277D01*
X123982467Y-113922576D01*
X124006215Y-113929988D01*
X124015439Y-113934056D01*
X124037248Y-113946597D01*
X124046703Y-113953595D01*
X124064732Y-113971086D01*
X124072959Y-113981927D01*
X124084911Y-114003415D01*
X124091155Y-114020151D01*
X124096396Y-114044539D01*
X124097871Y-114068633D01*
G37*
G36*
X124609072Y-113814255D02*
G01*
X124412212Y-113814255D01*
X124412212Y-114217500D01*
X124315125Y-114217500D01*
X124315125Y-113814255D01*
X124118021Y-113814255D01*
X124118021Y-113717168D01*
X124609072Y-113717168D01*
X124609072Y-113814255D01*
G37*
G36*
X125108060Y-113720954D02*
G01*
X125123813Y-113731334D01*
X125134316Y-113747088D01*
X125138102Y-113766017D01*
X125138102Y-114217500D01*
X125041015Y-114217500D01*
X125041015Y-114096599D01*
X124734857Y-114096599D01*
X124734857Y-114217500D01*
X124637770Y-114217500D01*
X124637770Y-113999513D01*
X124734857Y-113999513D01*
X125041015Y-113999513D01*
X125041015Y-113814255D01*
X124887875Y-113814255D01*
X124871022Y-113815476D01*
X124846309Y-113820058D01*
X124841102Y-113821460D01*
X124818034Y-113829759D01*
X124805321Y-113835870D01*
X124784209Y-113849910D01*
X124771005Y-113862493D01*
X124755913Y-113882975D01*
X124745115Y-113905113D01*
X124738102Y-113929573D01*
X124735217Y-113953925D01*
X124734857Y-113967273D01*
X124734857Y-113999513D01*
X124637770Y-113999513D01*
X124637770Y-113967273D01*
X124638946Y-113940513D01*
X124642472Y-113914822D01*
X124648349Y-113890199D01*
X124656577Y-113866645D01*
X124666950Y-113844380D01*
X124680790Y-113821285D01*
X124696930Y-113800258D01*
X124708967Y-113787388D01*
X124728814Y-113769872D01*
X124750574Y-113754694D01*
X124774246Y-113741854D01*
X124788224Y-113735730D01*
X124811580Y-113727609D01*
X124835973Y-113721809D01*
X124861405Y-113718328D01*
X124887875Y-113717168D01*
X125089131Y-113717168D01*
X125108060Y-113720954D01*
G37*
G36*
X125683740Y-113814255D02*
G01*
X125486880Y-113814255D01*
X125486880Y-114217500D01*
X125389794Y-114217500D01*
X125389794Y-113814255D01*
X125192690Y-113814255D01*
X125192690Y-113717168D01*
X125683740Y-113717168D01*
X125683740Y-113814255D01*
G37*
G36*
X125889515Y-114217500D02*
G01*
X125792062Y-114217500D01*
X125792062Y-113814255D01*
X125711340Y-113814255D01*
X125711340Y-113717168D01*
X125889515Y-113717168D01*
X125889515Y-114217500D01*
G37*
G36*
X123960362Y-111308633D02*
G01*
X123958653Y-111334401D01*
X123953524Y-111357482D01*
X123944400Y-111380215D01*
X123935328Y-111395706D01*
X123919709Y-111414559D01*
X123908827Y-111424038D01*
X123888479Y-111437585D01*
X123877442Y-111443211D01*
X123853842Y-111451789D01*
X123844469Y-111454080D01*
X123819520Y-111457336D01*
X123812962Y-111457500D01*
X123464549Y-111457500D01*
X123464549Y-111360413D01*
X123812962Y-111360413D01*
X123837656Y-111355505D01*
X123850087Y-111346491D01*
X123861717Y-111323851D01*
X123863276Y-111308633D01*
X123859734Y-111287384D01*
X123849720Y-111270776D01*
X123833845Y-111260029D01*
X123812962Y-111256243D01*
X123607554Y-111256243D01*
X123582939Y-111254003D01*
X123559560Y-111248306D01*
X123536295Y-111238744D01*
X123514587Y-111224943D01*
X123511810Y-111222782D01*
X123493895Y-111205208D01*
X123479813Y-111185163D01*
X123475052Y-111176498D01*
X123466122Y-111153223D01*
X123461556Y-111128809D01*
X123460397Y-111106645D01*
X123461828Y-111082163D01*
X123466708Y-111058099D01*
X123475052Y-111037035D01*
X123488188Y-111015670D01*
X123505085Y-110996583D01*
X123511810Y-110990751D01*
X123533311Y-110976236D01*
X123556368Y-110966122D01*
X123559560Y-110965106D01*
X123584442Y-110959153D01*
X123607554Y-110957168D01*
X123915422Y-110957168D01*
X123915422Y-111054255D01*
X123607554Y-111054255D01*
X123583122Y-111059292D01*
X123570673Y-111068543D01*
X123559042Y-111091398D01*
X123557484Y-111106645D01*
X123562133Y-111131699D01*
X123570673Y-111144624D01*
X123592507Y-111156794D01*
X123607554Y-111158424D01*
X123812962Y-111158424D01*
X123813572Y-111158424D01*
X123838831Y-111161277D01*
X123844958Y-111162576D01*
X123868706Y-111169988D01*
X123877930Y-111174056D01*
X123899739Y-111186597D01*
X123909194Y-111193595D01*
X123927223Y-111211086D01*
X123935450Y-111221927D01*
X123947402Y-111243415D01*
X123953646Y-111260151D01*
X123958887Y-111284539D01*
X123960362Y-111308633D01*
G37*
G36*
X124471563Y-111054255D02*
G01*
X124274703Y-111054255D01*
X124274703Y-111457500D01*
X124177616Y-111457500D01*
X124177616Y-111054255D01*
X123980512Y-111054255D01*
X123980512Y-110957168D01*
X124471563Y-110957168D01*
X124471563Y-111054255D01*
G37*
G36*
X124970551Y-110960954D02*
G01*
X124986304Y-110971334D01*
X124996807Y-110987088D01*
X125000593Y-111006017D01*
X125000593Y-111457500D01*
X124903506Y-111457500D01*
X124903506Y-111336599D01*
X124597348Y-111336599D01*
X124597348Y-111457500D01*
X124500261Y-111457500D01*
X124500261Y-111239513D01*
X124597348Y-111239513D01*
X124903506Y-111239513D01*
X124903506Y-111054255D01*
X124750366Y-111054255D01*
X124733513Y-111055476D01*
X124708800Y-111060058D01*
X124703593Y-111061460D01*
X124680525Y-111069759D01*
X124667812Y-111075870D01*
X124646700Y-111089910D01*
X124633496Y-111102493D01*
X124618404Y-111122975D01*
X124607606Y-111145113D01*
X124600593Y-111169573D01*
X124597708Y-111193925D01*
X124597348Y-111207273D01*
X124597348Y-111239513D01*
X124500261Y-111239513D01*
X124500261Y-111207273D01*
X124501437Y-111180513D01*
X124504963Y-111154822D01*
X124510840Y-111130199D01*
X124519068Y-111106645D01*
X124529441Y-111084380D01*
X124543281Y-111061285D01*
X124559421Y-111040258D01*
X124571458Y-111027388D01*
X124591305Y-111009872D01*
X124613065Y-110994694D01*
X124636737Y-110981854D01*
X124650715Y-110975730D01*
X124674071Y-110967609D01*
X124698464Y-110961809D01*
X124723896Y-110958328D01*
X124750366Y-110957168D01*
X124951622Y-110957168D01*
X124970551Y-110960954D01*
G37*
G36*
X125546231Y-111054255D02*
G01*
X125349371Y-111054255D01*
X125349371Y-111457500D01*
X125252285Y-111457500D01*
X125252285Y-111054255D01*
X125055181Y-111054255D01*
X125055181Y-110957168D01*
X125546231Y-110957168D01*
X125546231Y-111054255D01*
G37*
G36*
X126042533Y-111457500D02*
G01*
X125582379Y-111457500D01*
X125582379Y-111288361D01*
X125584786Y-111263374D01*
X125585310Y-111260640D01*
X125592448Y-111236987D01*
X125594713Y-111231575D01*
X125606946Y-111209762D01*
X125611200Y-111203975D01*
X125628854Y-111185909D01*
X125635746Y-111180650D01*
X125657581Y-111168676D01*
X125668841Y-111164530D01*
X125692896Y-111159432D01*
X125711339Y-111158424D01*
X125912595Y-111158424D01*
X125936286Y-111150975D01*
X125936776Y-111150486D01*
X125944469Y-111126550D01*
X125944469Y-111087105D01*
X125937492Y-111063478D01*
X125936531Y-111062437D01*
X125913328Y-111054255D01*
X125622557Y-111054255D01*
X125622557Y-110957168D01*
X125913328Y-110957168D01*
X125938002Y-110959061D01*
X125955216Y-110963152D01*
X125978006Y-110972847D01*
X125988433Y-110979394D01*
X126007003Y-110995479D01*
X126013101Y-111002597D01*
X126026935Y-111023834D01*
X126029954Y-111030075D01*
X126038252Y-111053535D01*
X126039480Y-111059017D01*
X126042506Y-111083974D01*
X126042533Y-111086372D01*
X126042533Y-111126550D01*
X126040712Y-111151824D01*
X126034632Y-111175676D01*
X126029588Y-111187001D01*
X126016003Y-111208027D01*
X125998318Y-111226078D01*
X125997103Y-111227056D01*
X125975611Y-111241027D01*
X125955216Y-111249405D01*
X125930903Y-111254934D01*
X125913328Y-111256243D01*
X125711339Y-111256243D01*
X125695464Y-111258930D01*
X125686793Y-111266013D01*
X125682030Y-111276638D01*
X125679466Y-111288728D01*
X125679466Y-111360413D01*
X126042533Y-111360413D01*
X126042533Y-111457500D01*
G37*
G36*
X124163695Y-93626550D02*
G01*
X124162199Y-93652643D01*
X124157276Y-93677799D01*
X124155879Y-93682482D01*
X124146781Y-93705594D01*
X124134875Y-93725835D01*
X124118762Y-93745293D01*
X124104466Y-93758075D01*
X124083561Y-93772348D01*
X124068563Y-93780179D01*
X124044911Y-93789052D01*
X124030583Y-93792636D01*
X124006363Y-93796388D01*
X124005059Y-93796421D01*
X124191539Y-93957500D01*
X124041574Y-93957500D01*
X123855339Y-93796421D01*
X123788660Y-93796421D01*
X123788660Y-93699335D01*
X123994435Y-93699335D01*
X124018658Y-93694491D01*
X124023744Y-93692618D01*
X124044761Y-93679870D01*
X124046581Y-93678208D01*
X124060699Y-93657814D01*
X124061357Y-93656226D01*
X124066480Y-93631719D01*
X124066609Y-93626550D01*
X124066609Y-93570252D01*
X124065143Y-93560605D01*
X124061602Y-93556209D01*
X124056839Y-93554621D01*
X124051588Y-93554255D01*
X123760817Y-93554255D01*
X123760817Y-93957500D01*
X123663730Y-93957500D01*
X123663730Y-93506017D01*
X123667394Y-93487088D01*
X123677652Y-93471334D01*
X123693161Y-93460954D01*
X123712579Y-93457168D01*
X124051588Y-93457168D01*
X124076799Y-93459319D01*
X124101147Y-93467043D01*
X124103856Y-93468403D01*
X124124288Y-93481960D01*
X124138538Y-93496613D01*
X124151821Y-93517573D01*
X124157833Y-93533005D01*
X124163003Y-93557599D01*
X124163695Y-93569642D01*
X124163695Y-93626550D01*
G37*
G36*
X124736323Y-93908651D02*
G01*
X124732537Y-93927946D01*
X124722279Y-93943456D01*
X124706769Y-93953836D01*
X124687474Y-93957500D01*
X124365318Y-93957500D01*
X124340593Y-93955092D01*
X124337840Y-93954569D01*
X124314269Y-93947431D01*
X124308898Y-93945165D01*
X124287243Y-93932932D01*
X124281420Y-93928679D01*
X124263468Y-93911070D01*
X124258217Y-93904132D01*
X124246185Y-93882183D01*
X124241975Y-93870793D01*
X124236979Y-93846636D01*
X124235991Y-93828173D01*
X124235991Y-93586372D01*
X124238398Y-93561748D01*
X124238922Y-93559017D01*
X124246060Y-93535445D01*
X124248325Y-93530075D01*
X124260633Y-93508378D01*
X124264934Y-93502597D01*
X124282771Y-93484645D01*
X124289725Y-93479394D01*
X124311559Y-93467309D01*
X124322819Y-93463152D01*
X124346874Y-93458156D01*
X124365318Y-93457168D01*
X124732293Y-93457168D01*
X124732293Y-93554255D01*
X124365318Y-93554255D01*
X124341771Y-93561933D01*
X124341260Y-93562437D01*
X124333208Y-93586076D01*
X124333200Y-93587105D01*
X124333200Y-93828173D01*
X124340878Y-93851583D01*
X124341382Y-93852109D01*
X124365318Y-93860413D01*
X124639236Y-93860413D01*
X124639236Y-93756243D01*
X124401588Y-93756243D01*
X124401588Y-93658424D01*
X124687474Y-93658424D01*
X124706891Y-93662332D01*
X124722401Y-93672957D01*
X124732537Y-93688466D01*
X124736323Y-93707273D01*
X124736323Y-93908651D01*
G37*
G36*
X125231281Y-93756243D02*
G01*
X124941487Y-93756243D01*
X124941487Y-93658424D01*
X125231281Y-93658424D01*
X125231281Y-93756243D01*
G37*
G36*
X125271459Y-93957500D02*
G01*
X124945394Y-93957500D01*
X124920092Y-93954876D01*
X124903629Y-93950783D01*
X124880521Y-93941199D01*
X124861619Y-93928679D01*
X124843912Y-93910880D01*
X124830194Y-93890034D01*
X124829379Y-93888501D01*
X124820530Y-93864812D01*
X124816750Y-93839048D01*
X124816434Y-93828173D01*
X124816434Y-93506017D01*
X124820098Y-93487088D01*
X124830478Y-93471334D01*
X124845988Y-93460954D01*
X124865283Y-93457168D01*
X125271459Y-93457168D01*
X125271459Y-93554255D01*
X124913521Y-93554255D01*
X124913521Y-93828173D01*
X124921085Y-93851834D01*
X124921581Y-93852353D01*
X124944998Y-93860405D01*
X124946005Y-93860413D01*
X125271459Y-93860413D01*
X125271459Y-93957500D01*
G37*
G36*
X125847017Y-93915490D02*
G01*
X125843109Y-93934907D01*
X125832607Y-93950416D01*
X125817097Y-93960553D01*
X125798168Y-93964338D01*
X125779972Y-93960919D01*
X125763730Y-93950050D01*
X125444138Y-93616414D01*
X125444138Y-93957500D01*
X125347052Y-93957500D01*
X125347052Y-93499178D01*
X125353410Y-93475255D01*
X125355356Y-93472189D01*
X125373655Y-93455706D01*
X125376849Y-93454115D01*
X125401680Y-93450736D01*
X125405304Y-93451306D01*
X125427650Y-93462272D01*
X125430339Y-93464862D01*
X125749930Y-93798131D01*
X125749930Y-93457168D01*
X125847017Y-93457168D01*
X125847017Y-93915490D01*
G37*
G36*
X124117405Y-90959996D02*
G01*
X124129378Y-90963152D01*
X124152753Y-90973542D01*
X124165771Y-90982569D01*
X124183051Y-91000133D01*
X124193981Y-91017374D01*
X124202407Y-91041127D01*
X124205172Y-91065817D01*
X124205216Y-91069642D01*
X124205216Y-91086372D01*
X124203201Y-91111591D01*
X124197652Y-91136896D01*
X124197156Y-91138640D01*
X124188678Y-91161788D01*
X124176429Y-91183892D01*
X124173586Y-91187978D01*
X124193255Y-91203153D01*
X124199110Y-91208738D01*
X124215536Y-91228103D01*
X124222924Y-91239757D01*
X124233555Y-91262276D01*
X124239044Y-91279569D01*
X124243713Y-91304295D01*
X124245027Y-91328173D01*
X124245027Y-91345392D01*
X124242257Y-91370055D01*
X124239166Y-91382028D01*
X124228986Y-91405298D01*
X124219993Y-91418299D01*
X124202429Y-91435382D01*
X124185188Y-91446264D01*
X124161435Y-91454691D01*
X124136745Y-91457456D01*
X124132920Y-91457500D01*
X123794033Y-91457500D01*
X123774616Y-91453836D01*
X123759106Y-91443456D01*
X123748726Y-91427946D01*
X123745062Y-91408651D01*
X123745062Y-91054255D01*
X123842149Y-91054255D01*
X123842149Y-91360413D01*
X124132920Y-91360413D01*
X124137927Y-91360169D01*
X124142690Y-91358703D01*
X124146231Y-91354185D01*
X124147941Y-91344659D01*
X124147941Y-91328173D01*
X124144474Y-91303324D01*
X124142690Y-91298253D01*
X124129316Y-91276958D01*
X124128157Y-91275783D01*
X124106984Y-91262016D01*
X124105321Y-91261372D01*
X124080424Y-91256369D01*
X124075279Y-91256243D01*
X123870115Y-91256243D01*
X123870115Y-91158424D01*
X124035101Y-91158424D01*
X124060031Y-91155119D01*
X124065143Y-91153417D01*
X124086181Y-91140711D01*
X124087979Y-91139007D01*
X124101747Y-91118048D01*
X124102390Y-91116414D01*
X124107274Y-91091550D01*
X124107397Y-91086372D01*
X124107397Y-91069642D01*
X124092742Y-91054255D01*
X123842149Y-91054255D01*
X123745062Y-91054255D01*
X123745062Y-91006017D01*
X123748726Y-90987088D01*
X123759106Y-90971334D01*
X123774616Y-90960954D01*
X123794033Y-90957168D01*
X124092742Y-90957168D01*
X124117405Y-90959996D01*
G37*
G36*
X124755617Y-91054255D02*
G01*
X124558757Y-91054255D01*
X124558757Y-91457500D01*
X124461671Y-91457500D01*
X124461671Y-91054255D01*
X124264567Y-91054255D01*
X124264567Y-90957168D01*
X124755617Y-90957168D01*
X124755617Y-91054255D01*
G37*
G36*
X125291730Y-91308633D02*
G01*
X125290021Y-91334401D01*
X125284891Y-91357482D01*
X125275768Y-91380215D01*
X125266695Y-91395706D01*
X125251077Y-91414559D01*
X125240195Y-91424038D01*
X125219846Y-91437585D01*
X125208810Y-91443211D01*
X125185209Y-91451789D01*
X125175837Y-91454080D01*
X125150888Y-91457336D01*
X125144330Y-91457500D01*
X124795917Y-91457500D01*
X124795917Y-91360413D01*
X125144330Y-91360413D01*
X125169024Y-91355505D01*
X125181455Y-91346491D01*
X125193085Y-91323851D01*
X125194644Y-91308633D01*
X125191102Y-91287384D01*
X125181088Y-91270776D01*
X125165212Y-91260029D01*
X125144330Y-91256243D01*
X124938921Y-91256243D01*
X124914307Y-91254003D01*
X124890928Y-91248306D01*
X124867663Y-91238744D01*
X124845955Y-91224943D01*
X124843178Y-91222782D01*
X124825263Y-91205208D01*
X124811181Y-91185163D01*
X124806420Y-91176498D01*
X124797490Y-91153223D01*
X124792924Y-91128809D01*
X124791765Y-91106645D01*
X124793196Y-91082163D01*
X124798076Y-91058099D01*
X124806420Y-91037035D01*
X124819556Y-91015670D01*
X124836453Y-90996583D01*
X124843178Y-90990751D01*
X124864679Y-90976236D01*
X124887736Y-90966122D01*
X124890928Y-90965106D01*
X124915810Y-90959153D01*
X124938921Y-90957168D01*
X125246790Y-90957168D01*
X125246790Y-91054255D01*
X124938921Y-91054255D01*
X124914490Y-91059292D01*
X124902041Y-91068543D01*
X124890410Y-91091398D01*
X124888852Y-91106645D01*
X124893501Y-91131699D01*
X124902041Y-91144624D01*
X124923874Y-91156794D01*
X124938921Y-91158424D01*
X125144330Y-91158424D01*
X125144940Y-91158424D01*
X125170199Y-91161277D01*
X125176325Y-91162576D01*
X125200074Y-91169988D01*
X125209298Y-91174056D01*
X125231106Y-91186597D01*
X125240561Y-91193595D01*
X125258591Y-91211086D01*
X125266817Y-91221927D01*
X125278770Y-91243415D01*
X125285014Y-91260151D01*
X125290254Y-91284539D01*
X125291730Y-91308633D01*
G37*
G36*
X125802930Y-91054255D02*
G01*
X125606071Y-91054255D01*
X125606071Y-91457500D01*
X125508984Y-91457500D01*
X125508984Y-91054255D01*
X125311880Y-91054255D01*
X125311880Y-90957168D01*
X125802930Y-90957168D01*
X125802930Y-91054255D01*
G37*
G36*
X123659700Y-88908424D02*
G01*
X123965370Y-88908424D01*
X123965370Y-88707168D01*
X124062579Y-88707168D01*
X124062579Y-89207500D01*
X123965370Y-89207500D01*
X123965370Y-89006243D01*
X123659700Y-89006243D01*
X123659700Y-89207500D01*
X123562492Y-89207500D01*
X123562492Y-88707168D01*
X123659700Y-88707168D01*
X123659700Y-88908424D01*
G37*
G36*
X124253699Y-89207500D02*
G01*
X124156490Y-89207500D01*
X124156490Y-88707168D01*
X124253699Y-88707168D01*
X124253699Y-89207500D01*
G37*
G36*
X124663452Y-88708414D02*
G01*
X124689813Y-88712722D01*
X124714886Y-88720106D01*
X124722157Y-88722922D01*
X124745174Y-88733948D01*
X124766140Y-88747336D01*
X124785054Y-88763086D01*
X124788591Y-88766519D01*
X124804953Y-88784983D01*
X124818930Y-88805569D01*
X124830522Y-88828279D01*
X124832555Y-88833075D01*
X124840991Y-88857915D01*
X124846303Y-88884042D01*
X124848412Y-88908658D01*
X124848552Y-88917095D01*
X124848552Y-88997451D01*
X124847287Y-89022641D01*
X124842913Y-89049293D01*
X124835414Y-89074538D01*
X124832555Y-89081837D01*
X124821440Y-89104842D01*
X124807939Y-89125772D01*
X124792054Y-89144627D01*
X124788591Y-89148148D01*
X124770087Y-89164370D01*
X124749531Y-89178230D01*
X124726924Y-89189729D01*
X124722157Y-89191746D01*
X124697470Y-89200053D01*
X124671495Y-89205284D01*
X124647017Y-89207361D01*
X124638626Y-89207500D01*
X124397558Y-89207500D01*
X124378141Y-89203836D01*
X124362631Y-89193456D01*
X124352251Y-89177946D01*
X124348587Y-89158651D01*
X124348587Y-88804255D01*
X124445674Y-88804255D01*
X124445674Y-89110413D01*
X124638626Y-89110413D01*
X124664270Y-89108138D01*
X124684665Y-89102353D01*
X124707252Y-89090355D01*
X124720325Y-89079516D01*
X124735606Y-89059859D01*
X124743284Y-89043979D01*
X124749900Y-89019039D01*
X124751466Y-88997451D01*
X124751466Y-88917095D01*
X124749157Y-88891476D01*
X124743284Y-88870933D01*
X124731302Y-88848228D01*
X124720325Y-88835273D01*
X124700566Y-88820094D01*
X124684665Y-88812437D01*
X124659940Y-88805821D01*
X124638626Y-88804255D01*
X124445674Y-88804255D01*
X124348587Y-88804255D01*
X124348587Y-88756017D01*
X124352251Y-88737088D01*
X124362631Y-88721334D01*
X124378141Y-88710954D01*
X124397558Y-88707168D01*
X124638626Y-88707168D01*
X124663452Y-88708414D01*
G37*
G36*
X125425210Y-88876550D02*
G01*
X125423714Y-88902643D01*
X125418791Y-88927799D01*
X125417394Y-88932482D01*
X125408296Y-88955594D01*
X125396389Y-88975835D01*
X125380276Y-88995293D01*
X125365981Y-89008075D01*
X125345075Y-89022348D01*
X125330077Y-89030179D01*
X125306426Y-89039052D01*
X125292097Y-89042636D01*
X125267877Y-89046388D01*
X125266574Y-89046421D01*
X125453053Y-89207500D01*
X125303088Y-89207500D01*
X125116853Y-89046421D01*
X125050175Y-89046421D01*
X125050175Y-88949335D01*
X125255949Y-88949335D01*
X125280172Y-88944491D01*
X125285259Y-88942618D01*
X125306276Y-88929870D01*
X125308095Y-88928208D01*
X125322213Y-88907814D01*
X125322872Y-88906226D01*
X125327995Y-88881719D01*
X125328123Y-88876550D01*
X125328123Y-88820252D01*
X125326658Y-88810605D01*
X125323116Y-88806209D01*
X125318354Y-88804621D01*
X125313102Y-88804255D01*
X125022331Y-88804255D01*
X125022331Y-89207500D01*
X124925245Y-89207500D01*
X124925245Y-88756017D01*
X124928908Y-88737088D01*
X124939167Y-88721334D01*
X124954676Y-88710954D01*
X124974093Y-88707168D01*
X125313102Y-88707168D01*
X125338314Y-88709319D01*
X125362662Y-88717043D01*
X125365370Y-88718403D01*
X125385802Y-88731960D01*
X125400053Y-88746613D01*
X125413336Y-88767573D01*
X125419348Y-88783005D01*
X125424517Y-88807599D01*
X125425210Y-88819642D01*
X125425210Y-88876550D01*
G37*
G36*
X126004187Y-88707168D02*
G01*
X125768249Y-89187838D01*
X125751877Y-89206199D01*
X125750419Y-89207133D01*
X125726291Y-89214310D01*
X125724529Y-89214338D01*
X125700480Y-89208006D01*
X125699006Y-89207133D01*
X125681747Y-89189437D01*
X125680932Y-89187960D01*
X125445238Y-88707168D01*
X125553804Y-88707168D01*
X125724529Y-89056924D01*
X125895866Y-88707168D01*
X126004187Y-88707168D01*
G37*
G36*
X124221424Y-84417095D02*
G01*
X124219928Y-84443164D01*
X124215005Y-84468243D01*
X124213608Y-84472904D01*
X124204510Y-84496046D01*
X124192603Y-84516379D01*
X124176490Y-84535837D01*
X124162195Y-84548620D01*
X124141188Y-84562806D01*
X124126169Y-84570479D01*
X124102623Y-84579247D01*
X124088312Y-84582814D01*
X124063045Y-84586230D01*
X124052286Y-84586599D01*
X123846389Y-84586599D01*
X123846389Y-84489513D01*
X124052164Y-84489513D01*
X124076659Y-84484669D01*
X124081717Y-84482796D01*
X124102634Y-84470048D01*
X124104432Y-84468386D01*
X124118428Y-84447992D01*
X124119086Y-84446404D01*
X124124209Y-84422157D01*
X124124337Y-84417095D01*
X124124337Y-84376795D01*
X124119141Y-84352410D01*
X124117254Y-84347241D01*
X124104728Y-84326182D01*
X124103088Y-84324405D01*
X124082385Y-84309968D01*
X124081595Y-84309628D01*
X124057413Y-84304386D01*
X124052286Y-84304255D01*
X123851030Y-84304255D01*
X123827660Y-84311446D01*
X123826605Y-84312437D01*
X123818545Y-84336372D01*
X123818545Y-84707500D01*
X123721337Y-84707500D01*
X123721337Y-84336372D01*
X123723157Y-84311380D01*
X123729238Y-84287637D01*
X123734282Y-84276289D01*
X123747900Y-84255080D01*
X123765444Y-84237189D01*
X123766644Y-84236233D01*
X123788075Y-84222392D01*
X123808531Y-84214129D01*
X123832866Y-84208500D01*
X123850297Y-84207168D01*
X124052286Y-84207168D01*
X124078021Y-84208687D01*
X124102950Y-84213687D01*
X124107607Y-84215106D01*
X124130810Y-84224296D01*
X124151082Y-84236233D01*
X124170561Y-84252346D01*
X124183200Y-84266641D01*
X124197328Y-84287649D01*
X124205060Y-84302667D01*
X124213990Y-84326318D01*
X124217516Y-84340647D01*
X124221042Y-84365803D01*
X124221424Y-84376550D01*
X124221424Y-84417095D01*
G37*
G36*
X124384822Y-84408424D02*
G01*
X124690492Y-84408424D01*
X124690492Y-84207168D01*
X124787701Y-84207168D01*
X124787701Y-84707500D01*
X124690492Y-84707500D01*
X124690492Y-84506243D01*
X124384822Y-84506243D01*
X124384822Y-84707500D01*
X124287614Y-84707500D01*
X124287614Y-84207168D01*
X124384822Y-84207168D01*
X124384822Y-84408424D01*
G37*
G36*
X123860834Y-86957500D02*
G01*
X123449529Y-86957500D01*
X123430111Y-86953836D01*
X123414602Y-86943456D01*
X123404344Y-86927946D01*
X123400680Y-86908651D01*
X123400680Y-86457168D01*
X123497767Y-86457168D01*
X123497767Y-86860413D01*
X123860834Y-86860413D01*
X123860834Y-86957500D01*
G37*
G36*
X124248414Y-86451575D02*
G01*
X124274699Y-86455883D01*
X124299695Y-86463268D01*
X124306943Y-86466083D01*
X124329896Y-86477110D01*
X124350821Y-86490498D01*
X124369719Y-86506247D01*
X124373255Y-86509680D01*
X124389606Y-86528144D01*
X124403547Y-86548730D01*
X124415079Y-86571440D01*
X124417097Y-86576236D01*
X124425469Y-86601023D01*
X124430740Y-86627146D01*
X124432833Y-86651798D01*
X124432972Y-86660256D01*
X124432972Y-86754412D01*
X124431717Y-86779543D01*
X124427376Y-86806152D01*
X124419934Y-86831377D01*
X124417097Y-86838675D01*
X124406046Y-86861704D01*
X124392587Y-86882706D01*
X124376718Y-86901680D01*
X124373255Y-86905232D01*
X124354763Y-86921506D01*
X124334243Y-86935371D01*
X124311696Y-86946827D01*
X124306943Y-86948829D01*
X124282333Y-86957008D01*
X124256435Y-86962157D01*
X124232025Y-86964202D01*
X124223656Y-86964338D01*
X124102756Y-86964338D01*
X124077920Y-86963111D01*
X124051526Y-86958871D01*
X124026396Y-86951601D01*
X124019103Y-86948829D01*
X123996074Y-86937855D01*
X123975072Y-86924471D01*
X123956098Y-86908679D01*
X123952547Y-86905232D01*
X123936237Y-86886663D01*
X123922265Y-86866067D01*
X123910630Y-86843443D01*
X123908583Y-86838675D01*
X123900211Y-86813865D01*
X123894940Y-86787671D01*
X123892847Y-86762913D01*
X123892707Y-86754412D01*
X123989794Y-86754412D01*
X123991809Y-86778836D01*
X123997854Y-86800818D01*
X124009938Y-86823361D01*
X124020935Y-86836355D01*
X124040694Y-86851476D01*
X124056594Y-86859192D01*
X124081418Y-86865709D01*
X124102756Y-86867252D01*
X124222924Y-86867252D01*
X124248568Y-86864977D01*
X124268963Y-86859192D01*
X124291550Y-86847194D01*
X124304623Y-86836355D01*
X124319904Y-86816698D01*
X124327582Y-86800818D01*
X124334198Y-86775916D01*
X124335764Y-86754412D01*
X124335764Y-86660256D01*
X124333718Y-86635832D01*
X124327582Y-86613850D01*
X124315643Y-86591349D01*
X124304745Y-86578435D01*
X124285190Y-86563255D01*
X124269330Y-86555598D01*
X124244720Y-86548982D01*
X124223656Y-86547416D01*
X124102756Y-86547416D01*
X124077077Y-86549725D01*
X124056594Y-86555598D01*
X124034008Y-86567537D01*
X124020935Y-86578435D01*
X124005610Y-86597990D01*
X123997854Y-86613850D01*
X123991337Y-86638751D01*
X123989794Y-86660256D01*
X123989794Y-86754412D01*
X123892707Y-86754412D01*
X123892707Y-86660256D01*
X123893963Y-86635243D01*
X123898304Y-86608720D01*
X123905746Y-86583532D01*
X123908583Y-86576236D01*
X123919751Y-86553103D01*
X123933255Y-86532091D01*
X123949098Y-86513203D01*
X123952547Y-86509680D01*
X123971115Y-86493459D01*
X123991712Y-86479598D01*
X124014335Y-86468099D01*
X124019103Y-86466083D01*
X124043854Y-86457775D01*
X124069869Y-86452545D01*
X124094364Y-86450468D01*
X124102756Y-86450329D01*
X124223656Y-86450329D01*
X124248414Y-86451575D01*
G37*
G36*
X124824651Y-86458414D02*
G01*
X124851012Y-86462722D01*
X124876086Y-86470106D01*
X124883356Y-86472922D01*
X124906373Y-86483948D01*
X124927339Y-86497336D01*
X124946254Y-86513086D01*
X124949790Y-86516519D01*
X124966153Y-86534983D01*
X124980130Y-86555569D01*
X124991722Y-86578279D01*
X124993754Y-86583075D01*
X125002190Y-86607915D01*
X125007502Y-86634042D01*
X125009611Y-86658658D01*
X125009752Y-86667095D01*
X125009752Y-86747451D01*
X125008487Y-86772641D01*
X125004112Y-86799293D01*
X124996613Y-86824538D01*
X124993754Y-86831837D01*
X124982639Y-86854842D01*
X124969139Y-86875772D01*
X124953254Y-86894627D01*
X124949790Y-86898148D01*
X124931286Y-86914370D01*
X124910731Y-86928230D01*
X124888124Y-86939729D01*
X124883356Y-86941746D01*
X124858670Y-86950053D01*
X124832695Y-86955284D01*
X124808217Y-86957361D01*
X124799825Y-86957500D01*
X124558758Y-86957500D01*
X124539340Y-86953836D01*
X124523831Y-86943456D01*
X124513451Y-86927946D01*
X124509787Y-86908651D01*
X124509787Y-86554255D01*
X124606873Y-86554255D01*
X124606873Y-86860413D01*
X124799825Y-86860413D01*
X124825470Y-86858138D01*
X124845865Y-86852353D01*
X124868452Y-86840355D01*
X124881524Y-86829516D01*
X124896806Y-86809859D01*
X124904483Y-86793979D01*
X124911099Y-86769039D01*
X124912665Y-86747451D01*
X124912665Y-86667095D01*
X124910356Y-86641476D01*
X124904483Y-86620933D01*
X124892501Y-86598228D01*
X124881524Y-86585273D01*
X124861766Y-86570094D01*
X124845865Y-86562437D01*
X124821140Y-86555821D01*
X124799825Y-86554255D01*
X124606873Y-86554255D01*
X124509787Y-86554255D01*
X124509787Y-86506017D01*
X124513451Y-86487088D01*
X124523831Y-86471334D01*
X124539340Y-86460954D01*
X124558758Y-86457168D01*
X124799825Y-86457168D01*
X124824651Y-86458414D01*
G37*
G36*
X125586409Y-86626550D02*
G01*
X125584913Y-86652643D01*
X125579990Y-86677799D01*
X125578594Y-86682482D01*
X125569496Y-86705594D01*
X125557589Y-86725835D01*
X125541476Y-86745293D01*
X125527180Y-86758075D01*
X125506275Y-86772348D01*
X125491277Y-86780179D01*
X125467625Y-86789052D01*
X125453297Y-86792636D01*
X125429077Y-86796388D01*
X125427774Y-86796421D01*
X125614253Y-86957500D01*
X125464288Y-86957500D01*
X125278053Y-86796421D01*
X125211374Y-86796421D01*
X125211374Y-86699335D01*
X125417149Y-86699335D01*
X125441372Y-86694491D01*
X125446458Y-86692618D01*
X125467476Y-86679870D01*
X125469295Y-86678208D01*
X125483413Y-86657814D01*
X125484072Y-86656226D01*
X125489195Y-86631719D01*
X125489323Y-86626550D01*
X125489323Y-86570252D01*
X125487857Y-86560605D01*
X125484316Y-86556209D01*
X125479553Y-86554621D01*
X125474302Y-86554255D01*
X125183531Y-86554255D01*
X125183531Y-86957500D01*
X125086444Y-86957500D01*
X125086444Y-86506017D01*
X125090108Y-86487088D01*
X125100366Y-86471334D01*
X125115875Y-86460954D01*
X125135293Y-86457168D01*
X125474302Y-86457168D01*
X125499513Y-86459319D01*
X125523861Y-86467043D01*
X125526570Y-86468403D01*
X125547002Y-86481960D01*
X125561252Y-86496613D01*
X125574535Y-86517573D01*
X125580548Y-86533005D01*
X125585717Y-86557599D01*
X125586409Y-86569642D01*
X125586409Y-86626550D01*
G37*
G36*
X126165387Y-86457168D02*
G01*
X125929448Y-86937838D01*
X125913077Y-86956199D01*
X125911619Y-86957133D01*
X125887490Y-86964310D01*
X125885729Y-86964338D01*
X125861679Y-86958006D01*
X125860206Y-86957133D01*
X125842946Y-86939437D01*
X125842132Y-86937960D01*
X125606437Y-86457168D01*
X125715003Y-86457168D01*
X125885729Y-86806924D01*
X126057065Y-86457168D01*
X126165387Y-86457168D01*
G37*
G36*
X124017760Y-108957500D02*
G01*
X123691696Y-108957500D01*
X123666971Y-108955092D01*
X123664219Y-108954569D01*
X123640647Y-108947431D01*
X123635276Y-108945165D01*
X123613622Y-108932932D01*
X123607799Y-108928679D01*
X123589847Y-108911070D01*
X123584596Y-108904132D01*
X123572563Y-108882183D01*
X123568353Y-108870793D01*
X123563357Y-108846636D01*
X123562370Y-108828173D01*
X123562370Y-108586372D01*
X123564777Y-108561748D01*
X123565300Y-108559017D01*
X123572438Y-108535445D01*
X123574704Y-108530075D01*
X123587011Y-108508378D01*
X123591312Y-108502597D01*
X123609150Y-108484645D01*
X123616103Y-108479394D01*
X123637937Y-108467309D01*
X123649198Y-108463152D01*
X123673253Y-108458156D01*
X123691696Y-108457168D01*
X124017760Y-108457168D01*
X124017760Y-108554255D01*
X123691696Y-108554255D01*
X123668150Y-108561933D01*
X123667638Y-108562437D01*
X123659586Y-108586076D01*
X123659578Y-108587105D01*
X123659578Y-108828173D01*
X123667257Y-108851583D01*
X123667760Y-108852109D01*
X123691696Y-108860413D01*
X124017760Y-108860413D01*
X124017760Y-108957500D01*
G37*
G36*
X124189463Y-108658424D02*
G01*
X124495133Y-108658424D01*
X124495133Y-108457168D01*
X124592342Y-108457168D01*
X124592342Y-108957500D01*
X124495133Y-108957500D01*
X124495133Y-108756243D01*
X124189463Y-108756243D01*
X124189463Y-108957500D01*
X124092254Y-108957500D01*
X124092254Y-108457168D01*
X124189463Y-108457168D01*
X124189463Y-108658424D01*
G37*
G36*
X125326047Y-108756243D02*
G01*
X125036253Y-108756243D01*
X125036253Y-108658424D01*
X125326047Y-108658424D01*
X125326047Y-108756243D01*
G37*
G36*
X125366225Y-108957500D02*
G01*
X125040161Y-108957500D01*
X125014859Y-108954876D01*
X124998395Y-108950783D01*
X124975287Y-108941199D01*
X124956386Y-108928679D01*
X124938678Y-108910880D01*
X124924961Y-108890034D01*
X124924146Y-108888501D01*
X124915297Y-108864812D01*
X124911517Y-108839048D01*
X124911201Y-108828173D01*
X124911201Y-108506017D01*
X124914864Y-108487088D01*
X124925245Y-108471334D01*
X124940754Y-108460954D01*
X124960049Y-108457168D01*
X125366225Y-108457168D01*
X125366225Y-108554255D01*
X125008287Y-108554255D01*
X125008287Y-108828173D01*
X125015851Y-108851834D01*
X125016347Y-108852353D01*
X125039764Y-108860405D01*
X125040772Y-108860413D01*
X125366225Y-108860413D01*
X125366225Y-108957500D01*
G37*
G36*
X125941783Y-108915490D02*
G01*
X125937875Y-108934907D01*
X125927373Y-108950416D01*
X125911864Y-108960553D01*
X125892935Y-108964338D01*
X125874739Y-108960919D01*
X125858497Y-108950050D01*
X125538905Y-108616414D01*
X125538905Y-108957500D01*
X125441818Y-108957500D01*
X125441818Y-108499178D01*
X125448176Y-108475255D01*
X125450123Y-108472189D01*
X125468422Y-108455706D01*
X125471616Y-108454115D01*
X125496447Y-108450736D01*
X125500070Y-108451306D01*
X125522416Y-108462272D01*
X125525105Y-108464862D01*
X125844697Y-108798131D01*
X125844697Y-108457168D01*
X125941783Y-108457168D01*
X125941783Y-108915490D01*
G37*
G36*
X100109909Y-79162084D02*
G01*
X100127348Y-79173661D01*
X100138926Y-79190953D01*
X100143029Y-79211909D01*
X100143029Y-79749000D01*
X100035904Y-79749000D01*
X100035904Y-79603919D01*
X99659135Y-79603919D01*
X99659135Y-79749000D01*
X99552010Y-79749000D01*
X99552010Y-79496794D01*
X99659135Y-79496794D01*
X100035904Y-79496794D01*
X100035904Y-79265106D01*
X99847446Y-79265106D01*
X99826637Y-79266571D01*
X99797629Y-79271855D01*
X99790000Y-79273898D01*
X99761678Y-79284113D01*
X99746036Y-79291630D01*
X99721312Y-79307906D01*
X99703685Y-79324603D01*
X99686026Y-79348197D01*
X99672532Y-79375108D01*
X99671738Y-79377066D01*
X99663123Y-79407188D01*
X99659578Y-79437070D01*
X99659135Y-79453417D01*
X99659135Y-79496794D01*
X99552010Y-79496794D01*
X99552010Y-79453417D01*
X99553402Y-79421745D01*
X99557579Y-79391355D01*
X99564540Y-79362247D01*
X99574285Y-79334422D01*
X99588182Y-79304974D01*
X99604816Y-79277961D01*
X99624185Y-79253382D01*
X99636127Y-79240779D01*
X99659520Y-79220138D01*
X99685185Y-79202232D01*
X99713121Y-79187062D01*
X99729623Y-79179816D01*
X99760747Y-79169261D01*
X99789735Y-79162778D01*
X99819969Y-79159026D01*
X99847446Y-79157981D01*
X100088953Y-79157981D01*
X100109909Y-79162084D01*
G37*
G36*
X100435094Y-79749000D02*
G01*
X100327530Y-79749000D01*
X100327530Y-79265106D01*
X100230663Y-79265106D01*
X100230663Y-79157981D01*
X100435094Y-79157981D01*
X100435094Y-79749000D01*
G37*
G36*
X105749000Y-106259678D02*
G01*
X105749000Y-106646266D01*
X105745908Y-106676078D01*
X105745482Y-106678213D01*
X105736835Y-106706833D01*
X105734638Y-106712065D01*
X105719687Y-106738245D01*
X105715441Y-106744012D01*
X105694081Y-106765679D01*
X105687011Y-106770976D01*
X105660270Y-106785406D01*
X105648323Y-106789734D01*
X105618487Y-106795779D01*
X105598497Y-106796768D01*
X105308337Y-106796768D01*
X105278652Y-106793677D01*
X105276536Y-106793251D01*
X105247916Y-106784603D01*
X105242684Y-106782407D01*
X105216504Y-106767359D01*
X105210737Y-106763063D01*
X105189854Y-106742400D01*
X105183773Y-106734340D01*
X105169283Y-106707675D01*
X105165015Y-106695798D01*
X105158970Y-106666214D01*
X105157981Y-106646266D01*
X105157981Y-106259678D01*
X105265106Y-106259678D01*
X105265106Y-106646266D01*
X105273034Y-106674782D01*
X105276243Y-106678506D01*
X105303924Y-106689325D01*
X105309216Y-106689497D01*
X105598497Y-106689497D01*
X105626793Y-106681463D01*
X105630591Y-106678213D01*
X105641775Y-106650057D01*
X105641875Y-106646266D01*
X105641875Y-106259678D01*
X105749000Y-106259678D01*
G37*
G36*
X105749000Y-105990180D02*
G01*
X105749000Y-106097745D01*
X105265106Y-106097745D01*
X105265106Y-106194612D01*
X105157981Y-106194612D01*
X105157981Y-105990180D01*
X105749000Y-105990180D01*
G37*
G36*
X105386152Y-105345672D02*
G01*
X105401100Y-105361060D01*
X105594394Y-105650341D01*
X105601868Y-105664849D01*
X105603919Y-105680090D01*
X105597764Y-105705296D01*
X105580032Y-105724640D01*
X105560542Y-105732846D01*
X105539879Y-105733139D01*
X105520974Y-105725519D01*
X105505880Y-105710132D01*
X105312586Y-105419971D01*
X105304233Y-105400481D01*
X105304233Y-105379818D01*
X105312147Y-105360913D01*
X105326948Y-105345819D01*
X105346585Y-105337612D01*
X105367101Y-105337612D01*
X105386152Y-105345672D01*
G37*
G36*
X105532673Y-105193008D02*
G01*
X105562202Y-105198394D01*
X105570360Y-105200592D01*
X105599660Y-105210922D01*
X105626835Y-105224600D01*
X105630297Y-105226677D01*
X105654903Y-105243861D01*
X105677060Y-105263815D01*
X105679830Y-105266684D01*
X105698884Y-105289252D01*
X105715104Y-105313816D01*
X105717053Y-105317243D01*
X105729933Y-105343707D01*
X105739721Y-105371716D01*
X105740793Y-105375568D01*
X105746683Y-105404741D01*
X105748967Y-105434558D01*
X105749000Y-105438582D01*
X105749000Y-105631876D01*
X105747196Y-105662022D01*
X105741787Y-105691459D01*
X105740793Y-105695330D01*
X105731416Y-105723546D01*
X105718948Y-105750216D01*
X105717053Y-105753656D01*
X105701210Y-105778413D01*
X105682534Y-105801303D01*
X105679830Y-105804214D01*
X105657998Y-105824399D01*
X105633720Y-105841815D01*
X105630297Y-105843928D01*
X105603406Y-105857948D01*
X105574390Y-105868683D01*
X105570360Y-105869866D01*
X105541265Y-105876178D01*
X105510654Y-105878955D01*
X105501630Y-105879099D01*
X105405203Y-105879099D01*
X105375340Y-105877488D01*
X105343844Y-105871918D01*
X105314123Y-105862369D01*
X105305552Y-105858729D01*
X105278404Y-105844653D01*
X105253746Y-105827886D01*
X105231578Y-105808428D01*
X105227443Y-105804214D01*
X105208344Y-105781766D01*
X105192078Y-105757285D01*
X105178645Y-105730772D01*
X105176299Y-105725226D01*
X105166639Y-105696904D01*
X105160557Y-105667810D01*
X105158052Y-105637942D01*
X105157981Y-105631876D01*
X105265106Y-105631876D01*
X105267810Y-105661583D01*
X105274338Y-105684046D01*
X105288001Y-105710760D01*
X105302475Y-105729036D01*
X105325587Y-105748505D01*
X105347025Y-105760250D01*
X105376436Y-105769398D01*
X105405203Y-105771974D01*
X105501630Y-105771974D01*
X105532295Y-105769116D01*
X105559809Y-105760543D01*
X105586625Y-105745062D01*
X105604212Y-105729622D01*
X105622177Y-105705841D01*
X105632496Y-105684779D01*
X105640296Y-105655562D01*
X105641875Y-105631876D01*
X105641875Y-105438582D01*
X105639237Y-105408321D01*
X105631323Y-105381137D01*
X105616949Y-105354532D01*
X105602307Y-105337173D01*
X105577726Y-105318539D01*
X105558050Y-105309183D01*
X105529282Y-105301407D01*
X105501630Y-105299217D01*
X105405203Y-105299217D01*
X105374978Y-105302112D01*
X105347611Y-105310795D01*
X105322046Y-105325246D01*
X105303061Y-105341569D01*
X105284905Y-105364949D01*
X105274631Y-105385826D01*
X105266712Y-105414852D01*
X105265106Y-105438582D01*
X105265106Y-105631876D01*
X105157981Y-105631876D01*
X105157981Y-105438582D01*
X105159784Y-105408679D01*
X105165193Y-105379420D01*
X105166187Y-105375568D01*
X105175491Y-105347352D01*
X105188015Y-105320682D01*
X105189928Y-105317243D01*
X105205770Y-105292412D01*
X105224446Y-105269578D01*
X105227150Y-105266684D01*
X105248909Y-105246362D01*
X105273243Y-105228809D01*
X105276683Y-105226677D01*
X105303574Y-105212552D01*
X105332590Y-105201776D01*
X105336620Y-105200592D01*
X105365687Y-105194181D01*
X105396214Y-105191360D01*
X105405203Y-105191213D01*
X105501630Y-105191213D01*
X105532673Y-105193008D01*
G37*
G36*
X118990476Y-86356549D02*
G01*
X118988737Y-86387220D01*
X118983014Y-86416719D01*
X118981390Y-86422202D01*
X118969916Y-86450932D01*
X118956770Y-86473053D01*
X118937929Y-86495789D01*
X118921160Y-86510715D01*
X118896595Y-86527372D01*
X118878954Y-86536507D01*
X118851248Y-86546972D01*
X118834404Y-86551162D01*
X118804822Y-86555261D01*
X118792199Y-86555705D01*
X119015975Y-86748999D01*
X118850378Y-86748999D01*
X118626896Y-86555705D01*
X118549813Y-86555705D01*
X118549813Y-86448580D01*
X118792199Y-86448580D01*
X118821652Y-86442791D01*
X118829129Y-86440080D01*
X118854887Y-86424581D01*
X118857998Y-86421762D01*
X118875471Y-86396927D01*
X118876756Y-86393918D01*
X118883119Y-86364293D01*
X118883351Y-86356549D01*
X118883351Y-86288992D01*
X118881006Y-86275216D01*
X118875291Y-86268329D01*
X118867817Y-86265544D01*
X118860636Y-86265105D01*
X118507021Y-86265105D01*
X118507021Y-86748999D01*
X118399896Y-86748999D01*
X118399896Y-86211908D01*
X118404000Y-86190952D01*
X118415284Y-86173660D01*
X118432283Y-86162083D01*
X118453825Y-86157980D01*
X118860636Y-86157980D01*
X118889892Y-86160476D01*
X118918038Y-86169443D01*
X118921160Y-86171022D01*
X118946054Y-86187663D01*
X118961313Y-86203555D01*
X118977296Y-86229178D01*
X118983588Y-86245761D01*
X118989803Y-86275608D01*
X118990476Y-86288259D01*
X118990476Y-86356549D01*
G37*
G36*
X119627803Y-86598496D02*
G01*
X119624712Y-86628618D01*
X119624286Y-86630736D01*
X119615430Y-86659071D01*
X119613148Y-86664295D01*
X119598056Y-86690475D01*
X119593804Y-86696242D01*
X119572445Y-86717909D01*
X119565374Y-86723206D01*
X119538710Y-86737637D01*
X119526833Y-86741964D01*
X119497421Y-86748009D01*
X119477740Y-86748999D01*
X119084998Y-86748999D01*
X119084998Y-86641874D01*
X119477740Y-86641874D01*
X119505950Y-86632449D01*
X119508808Y-86629564D01*
X119519702Y-86601932D01*
X119519799Y-86598496D01*
X119519799Y-86550722D01*
X119512183Y-86522349D01*
X119509101Y-86518629D01*
X119480925Y-86507589D01*
X119477007Y-86507491D01*
X119235500Y-86507491D01*
X119206099Y-86505389D01*
X119176383Y-86497623D01*
X119165158Y-86492544D01*
X119139293Y-86475544D01*
X119118850Y-86454735D01*
X119102739Y-86429566D01*
X119093058Y-86405642D01*
X119086328Y-86375609D01*
X119084998Y-86356549D01*
X119084998Y-86157980D01*
X119578710Y-86157980D01*
X119578710Y-86265105D01*
X119192123Y-86265105D01*
X119192123Y-86356549D01*
X119200051Y-86385181D01*
X119203260Y-86388789D01*
X119231631Y-86399393D01*
X119235500Y-86399487D01*
X119477740Y-86399487D01*
X119507187Y-86402635D01*
X119526393Y-86407547D01*
X119554817Y-86419721D01*
X119575193Y-86433486D01*
X119597021Y-86455584D01*
X119612709Y-86480234D01*
X119623027Y-86507935D01*
X119627434Y-86538027D01*
X119627803Y-86550722D01*
X119627803Y-86598496D01*
G37*
G36*
X112195071Y-80010550D02*
G01*
X112216466Y-80014654D01*
X112233612Y-80026231D01*
X112244896Y-80043523D01*
X112249000Y-80064479D01*
X112249000Y-80305987D01*
X112247597Y-80336132D01*
X112243390Y-80366558D01*
X112241672Y-80375303D01*
X112233618Y-80405528D01*
X112222534Y-80434913D01*
X112218811Y-80443153D01*
X112204811Y-80469077D01*
X112188054Y-80493743D01*
X112179390Y-80504703D01*
X112158507Y-80526974D01*
X112134673Y-80546875D01*
X112122677Y-80555261D01*
X112096739Y-80570140D01*
X112068162Y-80582463D01*
X112047646Y-80589259D01*
X112017469Y-80596268D01*
X111988023Y-80600115D01*
X111956659Y-80601557D01*
X111953417Y-80601569D01*
X111657981Y-80601569D01*
X111657981Y-80494444D01*
X111953417Y-80494444D01*
X111982987Y-80492955D01*
X112013647Y-80487355D01*
X112030207Y-80481841D01*
X112057248Y-80468545D01*
X112081195Y-80451097D01*
X112082524Y-80449895D01*
X112103271Y-80426973D01*
X112115496Y-80407543D01*
X112127987Y-80379516D01*
X112133228Y-80363579D01*
X112139565Y-80334105D01*
X112140409Y-80326943D01*
X112141875Y-80305987D01*
X112141875Y-80117675D01*
X111657981Y-80117675D01*
X111657981Y-80010550D01*
X112195071Y-80010550D01*
G37*
G36*
X112098497Y-79402532D02*
G01*
X112127898Y-79404655D01*
X112157615Y-79412497D01*
X112168839Y-79417627D01*
X112194778Y-79434479D01*
X112215441Y-79455142D01*
X112231624Y-79480082D01*
X112241233Y-79503942D01*
X112247718Y-79533923D01*
X112249000Y-79552888D01*
X112249000Y-79896684D01*
X112141875Y-79896684D01*
X112141875Y-79552888D01*
X112133946Y-79524179D01*
X112130737Y-79520648D01*
X112102366Y-79510190D01*
X112098497Y-79510097D01*
X112007492Y-79510097D01*
X112007492Y-79896684D01*
X111899488Y-79896684D01*
X111899488Y-79510097D01*
X111809216Y-79510097D01*
X111780656Y-79517159D01*
X111765795Y-79542859D01*
X111765106Y-79552888D01*
X111765106Y-79896684D01*
X111657981Y-79896684D01*
X111657981Y-79552888D01*
X111660460Y-79522187D01*
X111665015Y-79503502D01*
X111676840Y-79475903D01*
X111683773Y-79464961D01*
X111703337Y-79442622D01*
X111710737Y-79436384D01*
X111735445Y-79420470D01*
X111742684Y-79417040D01*
X111771189Y-79407245D01*
X111776536Y-79406049D01*
X111806478Y-79402546D01*
X111808337Y-79402532D01*
X112098497Y-79402532D01*
G37*
G36*
X98106550Y-129713509D02*
G01*
X98137221Y-129715248D01*
X98166720Y-129720971D01*
X98172203Y-129722595D01*
X98200933Y-129734069D01*
X98223054Y-129747215D01*
X98245790Y-129766056D01*
X98260716Y-129782825D01*
X98277373Y-129807390D01*
X98286508Y-129825031D01*
X98296973Y-129852737D01*
X98301163Y-129869581D01*
X98305262Y-129899163D01*
X98305706Y-129911786D01*
X98499000Y-129688010D01*
X98499000Y-129853607D01*
X98305706Y-130077089D01*
X98305706Y-130154172D01*
X98198581Y-130154172D01*
X98198581Y-129911786D01*
X98192792Y-129882333D01*
X98190081Y-129874856D01*
X98174582Y-129849098D01*
X98171763Y-129845987D01*
X98146928Y-129828514D01*
X98143919Y-129827229D01*
X98114294Y-129820866D01*
X98106550Y-129820634D01*
X98038993Y-129820634D01*
X98025217Y-129822979D01*
X98018330Y-129828694D01*
X98015545Y-129836168D01*
X98015106Y-129843349D01*
X98015106Y-130196964D01*
X98499000Y-130196964D01*
X98499000Y-130304089D01*
X97961909Y-130304089D01*
X97940953Y-130299985D01*
X97923661Y-130288701D01*
X97912084Y-130271702D01*
X97907981Y-130250160D01*
X97907981Y-129843349D01*
X97910477Y-129814093D01*
X97919444Y-129785947D01*
X97921023Y-129782825D01*
X97937664Y-129757931D01*
X97953556Y-129742672D01*
X97979179Y-129726689D01*
X97995762Y-129720397D01*
X98025609Y-129714182D01*
X98038260Y-129713509D01*
X98106550Y-129713509D01*
G37*
G36*
X97935092Y-129156929D02*
G01*
X97962203Y-129149895D01*
X97989167Y-129156929D01*
X98499000Y-129454123D01*
X98499000Y-129578248D01*
X98015106Y-129297026D01*
X98015106Y-129644193D01*
X97907981Y-129644193D01*
X97907981Y-129203530D01*
X97915161Y-129176566D01*
X97935092Y-129156929D01*
G37*
G36*
X96106550Y-130005421D02*
G01*
X96137221Y-130007160D01*
X96166720Y-130012883D01*
X96172203Y-130014507D01*
X96200933Y-130025981D01*
X96223054Y-130039127D01*
X96245790Y-130057968D01*
X96260716Y-130074737D01*
X96277373Y-130099302D01*
X96286508Y-130116943D01*
X96296973Y-130144649D01*
X96301163Y-130161493D01*
X96305262Y-130191075D01*
X96305706Y-130203698D01*
X96499000Y-129979922D01*
X96499000Y-130145519D01*
X96305706Y-130369001D01*
X96305706Y-130446084D01*
X96198581Y-130446084D01*
X96198581Y-130203698D01*
X96192792Y-130174245D01*
X96190081Y-130166768D01*
X96174582Y-130141010D01*
X96171763Y-130137899D01*
X96146928Y-130120426D01*
X96143919Y-130119141D01*
X96114294Y-130112778D01*
X96106550Y-130112546D01*
X96038993Y-130112546D01*
X96025217Y-130114891D01*
X96018330Y-130120606D01*
X96015545Y-130128080D01*
X96015106Y-130135261D01*
X96015106Y-130488876D01*
X96499000Y-130488876D01*
X96499000Y-130596001D01*
X95961909Y-130596001D01*
X95940953Y-130591897D01*
X95923661Y-130580613D01*
X95912084Y-130563614D01*
X95907981Y-130542072D01*
X95907981Y-130135261D01*
X95910477Y-130106005D01*
X95919444Y-130077859D01*
X95921023Y-130074737D01*
X95937664Y-130049843D01*
X95953556Y-130034584D01*
X95979179Y-130018601D01*
X95995762Y-130012309D01*
X96025609Y-130006094D01*
X96038260Y-130005421D01*
X96106550Y-130005421D01*
G37*
G36*
X96378619Y-129384961D02*
G01*
X96380737Y-129385386D01*
X96409072Y-129394243D01*
X96414296Y-129396524D01*
X96440476Y-129411809D01*
X96446243Y-129416161D01*
X96467910Y-129437660D01*
X96473207Y-129444737D01*
X96487638Y-129471402D01*
X96491965Y-129483279D01*
X96498010Y-129512634D01*
X96499000Y-129532225D01*
X96499000Y-129774612D01*
X96495966Y-129804058D01*
X96491233Y-129823265D01*
X96479177Y-129851735D01*
X96465441Y-129872211D01*
X96443311Y-129893966D01*
X96418839Y-129909727D01*
X96391238Y-129919945D01*
X96361188Y-129924310D01*
X96348497Y-129924675D01*
X96300723Y-129924675D01*
X96270979Y-129921786D01*
X96267750Y-129921158D01*
X96238882Y-129912301D01*
X96233605Y-129910020D01*
X96208117Y-129895519D01*
X96201365Y-129890530D01*
X96180056Y-129868802D01*
X96174987Y-129861660D01*
X96146597Y-129871245D01*
X96139963Y-129872798D01*
X96110502Y-129876404D01*
X96106550Y-129876461D01*
X96058337Y-129876461D01*
X96026910Y-129873970D01*
X95997610Y-129865715D01*
X95988288Y-129861367D01*
X95962239Y-129844441D01*
X95941833Y-129823851D01*
X95925722Y-129798912D01*
X95916041Y-129775052D01*
X95915942Y-129774612D01*
X96257492Y-129774612D01*
X96267029Y-129802950D01*
X96269949Y-129805973D01*
X96297315Y-129817448D01*
X96300723Y-129817550D01*
X96348497Y-129817550D01*
X96377060Y-129808237D01*
X96380151Y-129805386D01*
X96391772Y-129778045D01*
X96391875Y-129774612D01*
X96391875Y-129532225D01*
X96382450Y-129503839D01*
X96379565Y-129501011D01*
X96351933Y-129490262D01*
X96348497Y-129490167D01*
X96300723Y-129490167D01*
X96271888Y-129498918D01*
X96268923Y-129501597D01*
X96257593Y-129528669D01*
X96257492Y-129532225D01*
X96257492Y-129774612D01*
X95915942Y-129774612D01*
X95909311Y-129745174D01*
X95907981Y-129726398D01*
X95907981Y-129725519D01*
X96015106Y-129725519D01*
X96023034Y-129754333D01*
X96026243Y-129757906D01*
X96054494Y-129768364D01*
X96058337Y-129768457D01*
X96106550Y-129768457D01*
X96135182Y-129760737D01*
X96138790Y-129757613D01*
X96149394Y-129730109D01*
X96149488Y-129726398D01*
X96149488Y-129581318D01*
X96141768Y-129552400D01*
X96138644Y-129548785D01*
X96110418Y-129538181D01*
X96106550Y-129538087D01*
X96059216Y-129538087D01*
X96030796Y-129545440D01*
X96026243Y-129549225D01*
X96015203Y-129577475D01*
X96015106Y-129581318D01*
X96015106Y-129725519D01*
X95907981Y-129725519D01*
X95907981Y-129581318D01*
X95910206Y-129552086D01*
X95915015Y-129531786D01*
X95926840Y-129503922D01*
X95933773Y-129492951D01*
X95953337Y-129470694D01*
X95960737Y-129464521D01*
X95986471Y-129448276D01*
X95992684Y-129445324D01*
X96021189Y-129435528D01*
X96026536Y-129434333D01*
X96056478Y-129430829D01*
X96058337Y-129430816D01*
X96106550Y-129430816D01*
X96137647Y-129433210D01*
X96167188Y-129441144D01*
X96176745Y-129445324D01*
X96195662Y-129422011D01*
X96197115Y-129420557D01*
X96220325Y-129402541D01*
X96224080Y-129400334D01*
X96251458Y-129388799D01*
X96258518Y-129386852D01*
X96288083Y-129382264D01*
X96300723Y-129381869D01*
X96348497Y-129381869D01*
X96378619Y-129384961D01*
G37*
G36*
X113499000Y-75769929D02*
G01*
X113499000Y-76156517D01*
X113495908Y-76186329D01*
X113495482Y-76188464D01*
X113486835Y-76217084D01*
X113484638Y-76222316D01*
X113469687Y-76248496D01*
X113465441Y-76254263D01*
X113444081Y-76275930D01*
X113437011Y-76281227D01*
X113410270Y-76295657D01*
X113398323Y-76299985D01*
X113368487Y-76306030D01*
X113348497Y-76307019D01*
X113058337Y-76307019D01*
X113028652Y-76303928D01*
X113026536Y-76303502D01*
X112997916Y-76294854D01*
X112992684Y-76292658D01*
X112966504Y-76277610D01*
X112960737Y-76273314D01*
X112939854Y-76252651D01*
X112933773Y-76244591D01*
X112919283Y-76217926D01*
X112915015Y-76206049D01*
X112908970Y-76176465D01*
X112907981Y-76156517D01*
X112907981Y-75769929D01*
X113015106Y-75769929D01*
X113015106Y-76156517D01*
X113023034Y-76185033D01*
X113026243Y-76188757D01*
X113053924Y-76199576D01*
X113059216Y-76199748D01*
X113348497Y-76199748D01*
X113376793Y-76191714D01*
X113380591Y-76188464D01*
X113391775Y-76160308D01*
X113391875Y-76156517D01*
X113391875Y-75769929D01*
X113499000Y-75769929D01*
G37*
G36*
X113499000Y-75500431D02*
G01*
X113499000Y-75607996D01*
X113015106Y-75607996D01*
X113015106Y-75704863D01*
X112907981Y-75704863D01*
X112907981Y-75500431D01*
X113499000Y-75500431D01*
G37*
G36*
X113499000Y-75202651D02*
G01*
X113499000Y-75310215D01*
X113015106Y-75310215D01*
X113015106Y-75407082D01*
X112907981Y-75407082D01*
X112907981Y-75202651D01*
X113499000Y-75202651D01*
G37*
G36*
X119999000Y-82520075D02*
G01*
X119999000Y-83008952D01*
X119994896Y-83030494D01*
X119983612Y-83047493D01*
X119966466Y-83058777D01*
X119945071Y-83062881D01*
X119407981Y-83062881D01*
X119407981Y-82955756D01*
X119891875Y-82955756D01*
X119891875Y-82520075D01*
X119999000Y-82520075D01*
G37*
G36*
X119999000Y-81920264D02*
G01*
X119999000Y-82463069D01*
X119800723Y-82463069D01*
X119770601Y-82459978D01*
X119768483Y-82459552D01*
X119739758Y-82450904D01*
X119734484Y-82448708D01*
X119708022Y-82433757D01*
X119702244Y-82429510D01*
X119680577Y-82408101D01*
X119675280Y-82401080D01*
X119660850Y-82374415D01*
X119656522Y-82362539D01*
X119650477Y-82332955D01*
X119649488Y-82313006D01*
X119649488Y-82071499D01*
X119641768Y-82042685D01*
X119638644Y-82039112D01*
X119610418Y-82028654D01*
X119606550Y-82028561D01*
X119559216Y-82028561D01*
X119529985Y-82036281D01*
X119526243Y-82039405D01*
X119515203Y-82066859D01*
X119515106Y-82070620D01*
X119515106Y-82414855D01*
X119407981Y-82414855D01*
X119407981Y-82070620D01*
X119410460Y-82040285D01*
X119415015Y-82021673D01*
X119426840Y-81994074D01*
X119433773Y-81983132D01*
X119453337Y-81960793D01*
X119460737Y-81954555D01*
X119485445Y-81938463D01*
X119492684Y-81934918D01*
X119521189Y-81924980D01*
X119526536Y-81923781D01*
X119556478Y-81920277D01*
X119558337Y-81920264D01*
X119606550Y-81920264D01*
X119636020Y-81922386D01*
X119665712Y-81930228D01*
X119676892Y-81935358D01*
X119702831Y-81952247D01*
X119723494Y-81973020D01*
X119739718Y-81998033D01*
X119749432Y-82021820D01*
X119756162Y-82051678D01*
X119757492Y-82070620D01*
X119757492Y-82313006D01*
X119761156Y-82334109D01*
X119771121Y-82346272D01*
X119785189Y-82352574D01*
X119800723Y-82355944D01*
X119891875Y-82355944D01*
X119891875Y-81920264D01*
X119999000Y-81920264D01*
G37*
G36*
X111749000Y-107285463D02*
G01*
X111749000Y-107672051D01*
X111745908Y-107701863D01*
X111745482Y-107703998D01*
X111736835Y-107732618D01*
X111734638Y-107737850D01*
X111719687Y-107764030D01*
X111715441Y-107769797D01*
X111694081Y-107791464D01*
X111687011Y-107796761D01*
X111660270Y-107811191D01*
X111648323Y-107815519D01*
X111618487Y-107821564D01*
X111598497Y-107822553D01*
X111308337Y-107822553D01*
X111278652Y-107819462D01*
X111276536Y-107819036D01*
X111247916Y-107810388D01*
X111242684Y-107808192D01*
X111216504Y-107793144D01*
X111210737Y-107788848D01*
X111189854Y-107768185D01*
X111183773Y-107760125D01*
X111169283Y-107733460D01*
X111165015Y-107721583D01*
X111158970Y-107691999D01*
X111157981Y-107672051D01*
X111157981Y-107285463D01*
X111265106Y-107285463D01*
X111265106Y-107672051D01*
X111273034Y-107700567D01*
X111276243Y-107704291D01*
X111303924Y-107715110D01*
X111309216Y-107715282D01*
X111598497Y-107715282D01*
X111626793Y-107707248D01*
X111630591Y-107703998D01*
X111641775Y-107675842D01*
X111641875Y-107672051D01*
X111641875Y-107285463D01*
X111749000Y-107285463D01*
G37*
G36*
X111628619Y-106666321D02*
G01*
X111630737Y-106666747D01*
X111659072Y-106675603D01*
X111664296Y-106677885D01*
X111690476Y-106693170D01*
X111696243Y-106697522D01*
X111717910Y-106719020D01*
X111723207Y-106726098D01*
X111737638Y-106752763D01*
X111741965Y-106764640D01*
X111748010Y-106793995D01*
X111749000Y-106813586D01*
X111749000Y-107055972D01*
X111745966Y-107085419D01*
X111741233Y-107104626D01*
X111729177Y-107133096D01*
X111715441Y-107153572D01*
X111693311Y-107175327D01*
X111668839Y-107191088D01*
X111641238Y-107201306D01*
X111611188Y-107205670D01*
X111598497Y-107206035D01*
X111550723Y-107206035D01*
X111520979Y-107203147D01*
X111517750Y-107202518D01*
X111488882Y-107193662D01*
X111483605Y-107191381D01*
X111458117Y-107176880D01*
X111451365Y-107171890D01*
X111430056Y-107150162D01*
X111424987Y-107143021D01*
X111396597Y-107152606D01*
X111389963Y-107154158D01*
X111360502Y-107157764D01*
X111356550Y-107157822D01*
X111308337Y-107157822D01*
X111276910Y-107155331D01*
X111247610Y-107147076D01*
X111238288Y-107142728D01*
X111212239Y-107125801D01*
X111191833Y-107105212D01*
X111175722Y-107080272D01*
X111166041Y-107056412D01*
X111165942Y-107055972D01*
X111507492Y-107055972D01*
X111517029Y-107084311D01*
X111519949Y-107087333D01*
X111547315Y-107098809D01*
X111550723Y-107098910D01*
X111598497Y-107098910D01*
X111627060Y-107089598D01*
X111630151Y-107086747D01*
X111641772Y-107059405D01*
X111641875Y-107055972D01*
X111641875Y-106813586D01*
X111632450Y-106785199D01*
X111629565Y-106782372D01*
X111601933Y-106771623D01*
X111598497Y-106771527D01*
X111550723Y-106771527D01*
X111521888Y-106780279D01*
X111518923Y-106782958D01*
X111507593Y-106810030D01*
X111507492Y-106813586D01*
X111507492Y-107055972D01*
X111165942Y-107055972D01*
X111159311Y-107026535D01*
X111157981Y-107007759D01*
X111157981Y-107006880D01*
X111265106Y-107006880D01*
X111273034Y-107035693D01*
X111276243Y-107039266D01*
X111304494Y-107049725D01*
X111308337Y-107049818D01*
X111356550Y-107049818D01*
X111385182Y-107042097D01*
X111388790Y-107038973D01*
X111399394Y-107011470D01*
X111399488Y-107007759D01*
X111399488Y-106862679D01*
X111391768Y-106833760D01*
X111388644Y-106830146D01*
X111360418Y-106819542D01*
X111356550Y-106819448D01*
X111309216Y-106819448D01*
X111280796Y-106826800D01*
X111276243Y-106830585D01*
X111265203Y-106858836D01*
X111265106Y-106862679D01*
X111265106Y-107006880D01*
X111157981Y-107006880D01*
X111157981Y-106862679D01*
X111160206Y-106833446D01*
X111165015Y-106813146D01*
X111176840Y-106785282D01*
X111183773Y-106774312D01*
X111203337Y-106752055D01*
X111210737Y-106745882D01*
X111236471Y-106729636D01*
X111242684Y-106726684D01*
X111271189Y-106716889D01*
X111276536Y-106715693D01*
X111306478Y-106712190D01*
X111308337Y-106712176D01*
X111356550Y-106712176D01*
X111387647Y-106714571D01*
X111417188Y-106722505D01*
X111426745Y-106726684D01*
X111445662Y-106703371D01*
X111447115Y-106701918D01*
X111470325Y-106683902D01*
X111474080Y-106681695D01*
X111501458Y-106670160D01*
X111508518Y-106668212D01*
X111538083Y-106663624D01*
X111550723Y-106663230D01*
X111598497Y-106663230D01*
X111628619Y-106666321D01*
G37*
G36*
X103753664Y-97606550D02*
G01*
X103751925Y-97637221D01*
X103746202Y-97666720D01*
X103744578Y-97672203D01*
X103733104Y-97700933D01*
X103719958Y-97723054D01*
X103701117Y-97745790D01*
X103684348Y-97760716D01*
X103659783Y-97777373D01*
X103642142Y-97786508D01*
X103614436Y-97796973D01*
X103597592Y-97801163D01*
X103568010Y-97805262D01*
X103555387Y-97805706D01*
X103779163Y-97999000D01*
X103613566Y-97999000D01*
X103390084Y-97805706D01*
X103313001Y-97805706D01*
X103313001Y-97698581D01*
X103555387Y-97698581D01*
X103584840Y-97692792D01*
X103592317Y-97690081D01*
X103618075Y-97674582D01*
X103621186Y-97671763D01*
X103638659Y-97646928D01*
X103639944Y-97643919D01*
X103646307Y-97614294D01*
X103646539Y-97606550D01*
X103646539Y-97538993D01*
X103644194Y-97525217D01*
X103638479Y-97518330D01*
X103631005Y-97515545D01*
X103623824Y-97515106D01*
X103270209Y-97515106D01*
X103270209Y-97999000D01*
X103163084Y-97999000D01*
X103163084Y-97461909D01*
X103167188Y-97440953D01*
X103178472Y-97423661D01*
X103195471Y-97412084D01*
X103217013Y-97407981D01*
X103623824Y-97407981D01*
X103653080Y-97410477D01*
X103681226Y-97419444D01*
X103684348Y-97421023D01*
X103709242Y-97437664D01*
X103724501Y-97453556D01*
X103740484Y-97479179D01*
X103746776Y-97495762D01*
X103752991Y-97525609D01*
X103753664Y-97538260D01*
X103753664Y-97606550D01*
G37*
G36*
X104344829Y-97848497D02*
G01*
X104342706Y-97877898D01*
X104334864Y-97907615D01*
X104329735Y-97918839D01*
X104312882Y-97944778D01*
X104292219Y-97965441D01*
X104267280Y-97981624D01*
X104243419Y-97991233D01*
X104213438Y-97997718D01*
X104194473Y-97999000D01*
X103850677Y-97999000D01*
X103850677Y-97891875D01*
X104194473Y-97891875D01*
X104223183Y-97883946D01*
X104226713Y-97880737D01*
X104237172Y-97852366D01*
X104237264Y-97848497D01*
X104237264Y-97757492D01*
X103850677Y-97757492D01*
X103850677Y-97649488D01*
X104237264Y-97649488D01*
X104237264Y-97559216D01*
X104230202Y-97530656D01*
X104204502Y-97515795D01*
X104194473Y-97515106D01*
X103850677Y-97515106D01*
X103850677Y-97407981D01*
X104194473Y-97407981D01*
X104225175Y-97410460D01*
X104243859Y-97415015D01*
X104271458Y-97426840D01*
X104282401Y-97433773D01*
X104304740Y-97453337D01*
X104310977Y-97460737D01*
X104326891Y-97485445D01*
X104330321Y-97492684D01*
X104340116Y-97521189D01*
X104341312Y-97526536D01*
X104344815Y-97556478D01*
X104344829Y-97558337D01*
X104344829Y-97848497D01*
G37*
G36*
X104195071Y-114033411D02*
G01*
X104216466Y-114037515D01*
X104233612Y-114049092D01*
X104244896Y-114066384D01*
X104249000Y-114087340D01*
X104249000Y-114328848D01*
X104247597Y-114358993D01*
X104243390Y-114389419D01*
X104241672Y-114398164D01*
X104233618Y-114428389D01*
X104222534Y-114457774D01*
X104218811Y-114466014D01*
X104204811Y-114491938D01*
X104188054Y-114516604D01*
X104179390Y-114527564D01*
X104158507Y-114549835D01*
X104134673Y-114569736D01*
X104122677Y-114578122D01*
X104096739Y-114593001D01*
X104068162Y-114605324D01*
X104047646Y-114612120D01*
X104017469Y-114619129D01*
X103988023Y-114622976D01*
X103956659Y-114624418D01*
X103953417Y-114624430D01*
X103657981Y-114624430D01*
X103657981Y-114517305D01*
X103953417Y-114517305D01*
X103982987Y-114515816D01*
X104013647Y-114510216D01*
X104030207Y-114504702D01*
X104057248Y-114491406D01*
X104081195Y-114473958D01*
X104082524Y-114472756D01*
X104103271Y-114449834D01*
X104115496Y-114430404D01*
X104127987Y-114402377D01*
X104133228Y-114386440D01*
X104139565Y-114356966D01*
X104140409Y-114349804D01*
X104141875Y-114328848D01*
X104141875Y-114140536D01*
X103657981Y-114140536D01*
X103657981Y-114033411D01*
X104195071Y-114033411D01*
G37*
G36*
X104249000Y-113387438D02*
G01*
X104249000Y-113495442D01*
X104007492Y-113495442D01*
X104007492Y-113876314D01*
X104003242Y-113897857D01*
X103991665Y-113914856D01*
X103974519Y-113926140D01*
X103953417Y-113930243D01*
X103657981Y-113930243D01*
X103657981Y-113823118D01*
X103899488Y-113823118D01*
X103899488Y-113495442D01*
X103657981Y-113495442D01*
X103657981Y-113387438D01*
X104249000Y-113387438D01*
G37*
G36*
X104249000Y-105774032D02*
G01*
X104249000Y-106160620D01*
X104245908Y-106190432D01*
X104245482Y-106192567D01*
X104236835Y-106221187D01*
X104234638Y-106226419D01*
X104219687Y-106252599D01*
X104215441Y-106258366D01*
X104194081Y-106280033D01*
X104187011Y-106285330D01*
X104160270Y-106299760D01*
X104148323Y-106304088D01*
X104118487Y-106310133D01*
X104098497Y-106311122D01*
X103808337Y-106311122D01*
X103778652Y-106308031D01*
X103776536Y-106307605D01*
X103747916Y-106298957D01*
X103742684Y-106296761D01*
X103716504Y-106281713D01*
X103710737Y-106277417D01*
X103689854Y-106256754D01*
X103683773Y-106248694D01*
X103669283Y-106222029D01*
X103665015Y-106210152D01*
X103658970Y-106180568D01*
X103657981Y-106160620D01*
X103657981Y-105774032D01*
X103765106Y-105774032D01*
X103765106Y-106160620D01*
X103773034Y-106189136D01*
X103776243Y-106192860D01*
X103803924Y-106203679D01*
X103809216Y-106203851D01*
X104098497Y-106203851D01*
X104126793Y-106195817D01*
X104130591Y-106192567D01*
X104141775Y-106164411D01*
X104141875Y-106160620D01*
X104141875Y-105774032D01*
X104249000Y-105774032D01*
G37*
G36*
X104098497Y-105188875D02*
G01*
X104127898Y-105190998D01*
X104157615Y-105198840D01*
X104168839Y-105203969D01*
X104194778Y-105220822D01*
X104215441Y-105241485D01*
X104231624Y-105266424D01*
X104241233Y-105290285D01*
X104247718Y-105320266D01*
X104249000Y-105339231D01*
X104249000Y-105683027D01*
X104141875Y-105683027D01*
X104141875Y-105339231D01*
X104133946Y-105310521D01*
X104130737Y-105306991D01*
X104102366Y-105296532D01*
X104098497Y-105296440D01*
X104007492Y-105296440D01*
X104007492Y-105683027D01*
X103899488Y-105683027D01*
X103899488Y-105296440D01*
X103809216Y-105296440D01*
X103780656Y-105303502D01*
X103765795Y-105329202D01*
X103765106Y-105339231D01*
X103765106Y-105683027D01*
X103657981Y-105683027D01*
X103657981Y-105339231D01*
X103660460Y-105308529D01*
X103665015Y-105289845D01*
X103676840Y-105262246D01*
X103683773Y-105251303D01*
X103703337Y-105228964D01*
X103710737Y-105222727D01*
X103735445Y-105206813D01*
X103742684Y-105203383D01*
X103771189Y-105193588D01*
X103776536Y-105192392D01*
X103806478Y-105188889D01*
X103808337Y-105188875D01*
X104098497Y-105188875D01*
G37*
G36*
X104090705Y-80356550D02*
G01*
X104088966Y-80387221D01*
X104083243Y-80416720D01*
X104081619Y-80422203D01*
X104070145Y-80450933D01*
X104056999Y-80473054D01*
X104038158Y-80495790D01*
X104021389Y-80510716D01*
X103996824Y-80527373D01*
X103979183Y-80536508D01*
X103951477Y-80546973D01*
X103934633Y-80551163D01*
X103905051Y-80555262D01*
X103892428Y-80555706D01*
X104116204Y-80749000D01*
X103950607Y-80749000D01*
X103727125Y-80555706D01*
X103650042Y-80555706D01*
X103650042Y-80448581D01*
X103892428Y-80448581D01*
X103921881Y-80442792D01*
X103929358Y-80440081D01*
X103955116Y-80424582D01*
X103958227Y-80421763D01*
X103975700Y-80396928D01*
X103976985Y-80393919D01*
X103983348Y-80364294D01*
X103983580Y-80356550D01*
X103983580Y-80288993D01*
X103981235Y-80275217D01*
X103975520Y-80268330D01*
X103968046Y-80265545D01*
X103960865Y-80265106D01*
X103607250Y-80265106D01*
X103607250Y-80749000D01*
X103500125Y-80749000D01*
X103500125Y-80211909D01*
X103504229Y-80190953D01*
X103515513Y-80173661D01*
X103532512Y-80162084D01*
X103554054Y-80157981D01*
X103960865Y-80157981D01*
X103990121Y-80160477D01*
X104018267Y-80169444D01*
X104021389Y-80171023D01*
X104046283Y-80187664D01*
X104061542Y-80203556D01*
X104077525Y-80229179D01*
X104083817Y-80245762D01*
X104090032Y-80275609D01*
X104090705Y-80288260D01*
X104090705Y-80356550D01*
G37*
G36*
X104366211Y-80749000D02*
G01*
X104258646Y-80749000D01*
X104258646Y-80265106D01*
X104161779Y-80265106D01*
X104161779Y-80157981D01*
X104366211Y-80157981D01*
X104366211Y-80749000D01*
G37*
G36*
X105016727Y-80749000D02*
G01*
X104473922Y-80749000D01*
X104473922Y-80550723D01*
X104477013Y-80520601D01*
X104477439Y-80518483D01*
X104486086Y-80489758D01*
X104488283Y-80484484D01*
X104503234Y-80458022D01*
X104507481Y-80452244D01*
X104528890Y-80430577D01*
X104535910Y-80425280D01*
X104562575Y-80410850D01*
X104574452Y-80406522D01*
X104604036Y-80400477D01*
X104623984Y-80399488D01*
X104865492Y-80399488D01*
X104894306Y-80391768D01*
X104897878Y-80388644D01*
X104908337Y-80360418D01*
X104908430Y-80356550D01*
X104908430Y-80309216D01*
X104900709Y-80279985D01*
X104897585Y-80276243D01*
X104870132Y-80265203D01*
X104866371Y-80265106D01*
X104522135Y-80265106D01*
X104522135Y-80157981D01*
X104866371Y-80157981D01*
X104896705Y-80160460D01*
X104915317Y-80165015D01*
X104942917Y-80176840D01*
X104953859Y-80183773D01*
X104976198Y-80203337D01*
X104982435Y-80210737D01*
X104998528Y-80235445D01*
X105002072Y-80242684D01*
X105012011Y-80271189D01*
X105013210Y-80276536D01*
X105016713Y-80306478D01*
X105016727Y-80308337D01*
X105016727Y-80356550D01*
X105014604Y-80386020D01*
X105006762Y-80415712D01*
X105001633Y-80426892D01*
X104984743Y-80452831D01*
X104963971Y-80473494D01*
X104938958Y-80489718D01*
X104915171Y-80499432D01*
X104885312Y-80506162D01*
X104866371Y-80507492D01*
X104623984Y-80507492D01*
X104602882Y-80511156D01*
X104590719Y-80521121D01*
X104584417Y-80535189D01*
X104581047Y-80550723D01*
X104581047Y-80641875D01*
X105016727Y-80641875D01*
X105016727Y-80749000D01*
G37*
G36*
X117628960Y-82999000D02*
G01*
X117242372Y-82999000D01*
X117212560Y-82995908D01*
X117210425Y-82995482D01*
X117181805Y-82986835D01*
X117176573Y-82984638D01*
X117150393Y-82969687D01*
X117144626Y-82965441D01*
X117122959Y-82944081D01*
X117117662Y-82937011D01*
X117103232Y-82910270D01*
X117098904Y-82898323D01*
X117092859Y-82868487D01*
X117091870Y-82848497D01*
X117091870Y-82558337D01*
X117094961Y-82528652D01*
X117095387Y-82526536D01*
X117104035Y-82497916D01*
X117106231Y-82492684D01*
X117121279Y-82466504D01*
X117125575Y-82460737D01*
X117146238Y-82439854D01*
X117154298Y-82433773D01*
X117180963Y-82419283D01*
X117192840Y-82415015D01*
X117222424Y-82408970D01*
X117242372Y-82407981D01*
X117628960Y-82407981D01*
X117628960Y-82515106D01*
X117242372Y-82515106D01*
X117213856Y-82523034D01*
X117210132Y-82526243D01*
X117199313Y-82553924D01*
X117199141Y-82559216D01*
X117199141Y-82848497D01*
X117207175Y-82876793D01*
X117210425Y-82880591D01*
X117238581Y-82891775D01*
X117242372Y-82891875D01*
X117628960Y-82891875D01*
X117628960Y-82999000D01*
G37*
G36*
X117898458Y-82999000D02*
G01*
X117790893Y-82999000D01*
X117790893Y-82515106D01*
X117694026Y-82515106D01*
X117694026Y-82407981D01*
X117898458Y-82407981D01*
X117898458Y-82999000D01*
G37*
G36*
X104211455Y-95151592D02*
G01*
X104242292Y-95157044D01*
X104271584Y-95166132D01*
X104277257Y-95168385D01*
X104304279Y-95181328D01*
X104331260Y-95198805D01*
X104355366Y-95219676D01*
X104376338Y-95243668D01*
X104393916Y-95270706D01*
X104406950Y-95297932D01*
X104416765Y-95327126D01*
X104422944Y-95357924D01*
X104425489Y-95390324D01*
X104425561Y-95396997D01*
X104425561Y-95509983D01*
X104424016Y-95540209D01*
X104418853Y-95571464D01*
X104414570Y-95587653D01*
X104404165Y-95616188D01*
X104390809Y-95642499D01*
X104383649Y-95653891D01*
X104364612Y-95678391D01*
X104342376Y-95700085D01*
X104335436Y-95705769D01*
X104309482Y-95723436D01*
X104283222Y-95736576D01*
X104272568Y-95740793D01*
X104397864Y-95840151D01*
X104242526Y-95840151D01*
X104139504Y-95757206D01*
X104033991Y-95757206D01*
X104004683Y-95755757D01*
X103973559Y-95750748D01*
X103943952Y-95742162D01*
X103935366Y-95738888D01*
X103908267Y-95726008D01*
X103881234Y-95708534D01*
X103857111Y-95687597D01*
X103836122Y-95663473D01*
X103819956Y-95639019D01*
X103806566Y-95612160D01*
X103805380Y-95609341D01*
X103795488Y-95580118D01*
X103789260Y-95549235D01*
X103786787Y-95520020D01*
X103786622Y-95509983D01*
X103893747Y-95509983D01*
X103896275Y-95540172D01*
X103903859Y-95567429D01*
X103917877Y-95594081D01*
X103932435Y-95611540D01*
X103955645Y-95629551D01*
X103976838Y-95639969D01*
X104005814Y-95647859D01*
X104033991Y-95650081D01*
X104178192Y-95650081D01*
X104208124Y-95647553D01*
X104235199Y-95639969D01*
X104261896Y-95625997D01*
X104279455Y-95611540D01*
X104297704Y-95588567D01*
X104308178Y-95567429D01*
X104316068Y-95538371D01*
X104318290Y-95509983D01*
X104318290Y-95396997D01*
X104315762Y-95366808D01*
X104308178Y-95339551D01*
X104294206Y-95312900D01*
X104279748Y-95295441D01*
X104255361Y-95276581D01*
X104235638Y-95267011D01*
X104206901Y-95259121D01*
X104179072Y-95256899D01*
X104033991Y-95256899D01*
X104004023Y-95259427D01*
X103976838Y-95267011D01*
X103950094Y-95280983D01*
X103932435Y-95295441D01*
X103913453Y-95319828D01*
X103903859Y-95339551D01*
X103895969Y-95368609D01*
X103893747Y-95396997D01*
X103893747Y-95509983D01*
X103786622Y-95509983D01*
X103786622Y-95396997D01*
X103788106Y-95367476D01*
X103793235Y-95336197D01*
X103802028Y-95306522D01*
X103805380Y-95297932D01*
X103818492Y-95270706D01*
X103834380Y-95246000D01*
X103855064Y-95221731D01*
X103857111Y-95219676D01*
X103881234Y-95198805D01*
X103908267Y-95181328D01*
X103935366Y-95168385D01*
X103964518Y-95158571D01*
X103995186Y-95152391D01*
X104027372Y-95149847D01*
X104033991Y-95149774D01*
X104179072Y-95149774D01*
X104211455Y-95151592D01*
G37*
G36*
X104693007Y-95749000D02*
G01*
X104585443Y-95749000D01*
X104585443Y-95265106D01*
X104488576Y-95265106D01*
X104488576Y-95157981D01*
X104693007Y-95157981D01*
X104693007Y-95749000D01*
G37*
G36*
X108356550Y-105343341D02*
G01*
X108387221Y-105345080D01*
X108416720Y-105350803D01*
X108422203Y-105352427D01*
X108450933Y-105363901D01*
X108473054Y-105377047D01*
X108495790Y-105395888D01*
X108510716Y-105412657D01*
X108527373Y-105437222D01*
X108536508Y-105454863D01*
X108546973Y-105482569D01*
X108551163Y-105499413D01*
X108555262Y-105528995D01*
X108555706Y-105541618D01*
X108749000Y-105317842D01*
X108749000Y-105483439D01*
X108555706Y-105706921D01*
X108555706Y-105784004D01*
X108448581Y-105784004D01*
X108448581Y-105541618D01*
X108442792Y-105512165D01*
X108440081Y-105504688D01*
X108424582Y-105478930D01*
X108421763Y-105475819D01*
X108396928Y-105458346D01*
X108393919Y-105457061D01*
X108364294Y-105450698D01*
X108356550Y-105450466D01*
X108288993Y-105450466D01*
X108275217Y-105452811D01*
X108268330Y-105458526D01*
X108265545Y-105466000D01*
X108265106Y-105473181D01*
X108265106Y-105826796D01*
X108749000Y-105826796D01*
X108749000Y-105933921D01*
X108211909Y-105933921D01*
X108190953Y-105929817D01*
X108173661Y-105918533D01*
X108162084Y-105901534D01*
X108157981Y-105879992D01*
X108157981Y-105473181D01*
X108160477Y-105443925D01*
X108169444Y-105415779D01*
X108171023Y-105412657D01*
X108187664Y-105387763D01*
X108203556Y-105372504D01*
X108229179Y-105356521D01*
X108245762Y-105350229D01*
X108275609Y-105344014D01*
X108288260Y-105343341D01*
X108356550Y-105343341D01*
G37*
G36*
X108749000Y-105067835D02*
G01*
X108749000Y-105175400D01*
X108265106Y-105175400D01*
X108265106Y-105272267D01*
X108157981Y-105272267D01*
X108157981Y-105067835D01*
X108749000Y-105067835D01*
G37*
G36*
X105581912Y-75356550D02*
G01*
X105580173Y-75387221D01*
X105574450Y-75416720D01*
X105572826Y-75422203D01*
X105561352Y-75450933D01*
X105548206Y-75473054D01*
X105529365Y-75495790D01*
X105512596Y-75510716D01*
X105488031Y-75527373D01*
X105470390Y-75536508D01*
X105442684Y-75546973D01*
X105425840Y-75551163D01*
X105396258Y-75555262D01*
X105383635Y-75555706D01*
X105607411Y-75749000D01*
X105441814Y-75749000D01*
X105218332Y-75555706D01*
X105141249Y-75555706D01*
X105141249Y-75448581D01*
X105383635Y-75448581D01*
X105413088Y-75442792D01*
X105420565Y-75440081D01*
X105446323Y-75424582D01*
X105449434Y-75421763D01*
X105466907Y-75396928D01*
X105468192Y-75393919D01*
X105474555Y-75364294D01*
X105474787Y-75356550D01*
X105474787Y-75288993D01*
X105472442Y-75275217D01*
X105466727Y-75268330D01*
X105459253Y-75265545D01*
X105452072Y-75265106D01*
X105098457Y-75265106D01*
X105098457Y-75749000D01*
X104991332Y-75749000D01*
X104991332Y-75211909D01*
X104995436Y-75190953D01*
X105006720Y-75173661D01*
X105023719Y-75162084D01*
X105045261Y-75157981D01*
X105452072Y-75157981D01*
X105481328Y-75160477D01*
X105509474Y-75169444D01*
X105512596Y-75171023D01*
X105537490Y-75187664D01*
X105552749Y-75203556D01*
X105568732Y-75229179D01*
X105575024Y-75245762D01*
X105581239Y-75275609D01*
X105581912Y-75288260D01*
X105581912Y-75356550D01*
G37*
G36*
X105857418Y-75749000D02*
G01*
X105749853Y-75749000D01*
X105749853Y-75265106D01*
X105652986Y-75265106D01*
X105652986Y-75157981D01*
X105857418Y-75157981D01*
X105857418Y-75749000D01*
G37*
G36*
X106508813Y-75749000D02*
G01*
X106400809Y-75749000D01*
X106400809Y-75507492D01*
X106019937Y-75507492D01*
X105998395Y-75503242D01*
X105981395Y-75491665D01*
X105970111Y-75474519D01*
X105966008Y-75453417D01*
X105966008Y-75157981D01*
X106073133Y-75157981D01*
X106073133Y-75399488D01*
X106400809Y-75399488D01*
X106400809Y-75157981D01*
X106508813Y-75157981D01*
X106508813Y-75749000D01*
G37*
G36*
X114606550Y-100017452D02*
G01*
X114637221Y-100019191D01*
X114666720Y-100024914D01*
X114672203Y-100026538D01*
X114700933Y-100038012D01*
X114723054Y-100051158D01*
X114745790Y-100069999D01*
X114760716Y-100086768D01*
X114777373Y-100111333D01*
X114786508Y-100128974D01*
X114796973Y-100156680D01*
X114801163Y-100173524D01*
X114805262Y-100203106D01*
X114805706Y-100215729D01*
X114999000Y-99991953D01*
X114999000Y-100157550D01*
X114805706Y-100381032D01*
X114805706Y-100458115D01*
X114698581Y-100458115D01*
X114698581Y-100215729D01*
X114692792Y-100186276D01*
X114690081Y-100178799D01*
X114674582Y-100153041D01*
X114671763Y-100149930D01*
X114646928Y-100132457D01*
X114643919Y-100131172D01*
X114614294Y-100124809D01*
X114606550Y-100124577D01*
X114538993Y-100124577D01*
X114525217Y-100126922D01*
X114518330Y-100132637D01*
X114515545Y-100140111D01*
X114515106Y-100147292D01*
X114515106Y-100500907D01*
X114999000Y-100500907D01*
X114999000Y-100608032D01*
X114461909Y-100608032D01*
X114440953Y-100603928D01*
X114423661Y-100592644D01*
X114412084Y-100575645D01*
X114407981Y-100554103D01*
X114407981Y-100147292D01*
X114410477Y-100118036D01*
X114419444Y-100089890D01*
X114421023Y-100086768D01*
X114437664Y-100061874D01*
X114453556Y-100046615D01*
X114479179Y-100030632D01*
X114495762Y-100024340D01*
X114525609Y-100018125D01*
X114538260Y-100017452D01*
X114606550Y-100017452D01*
G37*
G36*
X114825050Y-99345540D02*
G01*
X114855238Y-99347555D01*
X114882203Y-99353600D01*
X114910190Y-99364857D01*
X114926899Y-99374703D01*
X114949827Y-99393970D01*
X114959872Y-99405624D01*
X114976256Y-99430629D01*
X114982147Y-99442407D01*
X114992229Y-99469961D01*
X114994896Y-99480949D01*
X114998803Y-99510061D01*
X114999000Y-99517732D01*
X114999000Y-99931137D01*
X114891875Y-99931137D01*
X114891875Y-99517732D01*
X114886746Y-99488807D01*
X114873703Y-99469811D01*
X114847784Y-99455495D01*
X114825050Y-99452665D01*
X114797939Y-99457208D01*
X114776397Y-99470251D01*
X114762475Y-99490767D01*
X114757492Y-99517732D01*
X114757492Y-99764221D01*
X114754571Y-99794747D01*
X114748260Y-99820348D01*
X114737020Y-99847579D01*
X114720886Y-99872942D01*
X114718364Y-99876182D01*
X114696192Y-99898463D01*
X114670442Y-99915829D01*
X114664289Y-99919120D01*
X114634699Y-99930127D01*
X114603048Y-99935306D01*
X114582663Y-99936120D01*
X114551300Y-99934111D01*
X114521154Y-99927338D01*
X114501330Y-99919120D01*
X114476358Y-99903762D01*
X114454062Y-99884031D01*
X114447255Y-99876182D01*
X114430290Y-99851068D01*
X114418412Y-99824087D01*
X114417213Y-99820348D01*
X114410289Y-99791222D01*
X114407981Y-99764221D01*
X114407981Y-99399469D01*
X114515106Y-99399469D01*
X114515106Y-99764221D01*
X114520994Y-99794294D01*
X114533717Y-99811849D01*
X114559880Y-99826165D01*
X114582663Y-99828995D01*
X114611877Y-99824156D01*
X114631609Y-99811849D01*
X114646974Y-99785207D01*
X114649488Y-99764221D01*
X114649488Y-99517732D01*
X114649488Y-99516999D01*
X114652814Y-99487544D01*
X114654324Y-99480362D01*
X114663419Y-99451374D01*
X114667660Y-99441821D01*
X114682369Y-99416325D01*
X114690521Y-99405331D01*
X114710999Y-99384209D01*
X114723640Y-99374556D01*
X114750110Y-99360062D01*
X114768190Y-99353454D01*
X114798587Y-99347055D01*
X114825050Y-99345540D01*
G37*
G36*
X114606550Y-98669232D02*
G01*
X114637221Y-98670971D01*
X114666720Y-98676694D01*
X114672203Y-98678318D01*
X114700933Y-98689791D01*
X114723054Y-98702937D01*
X114745790Y-98721778D01*
X114760716Y-98738548D01*
X114777373Y-98763112D01*
X114786508Y-98780753D01*
X114796973Y-98808459D01*
X114801163Y-98825303D01*
X114805262Y-98854886D01*
X114805706Y-98867508D01*
X114999000Y-98643733D01*
X114999000Y-98809330D01*
X114805706Y-99032812D01*
X114805706Y-99109895D01*
X114698581Y-99109895D01*
X114698581Y-98867508D01*
X114692792Y-98838056D01*
X114690081Y-98830579D01*
X114674582Y-98804821D01*
X114671763Y-98801709D01*
X114646928Y-98784237D01*
X114643919Y-98782951D01*
X114614294Y-98776589D01*
X114606550Y-98776357D01*
X114538993Y-98776357D01*
X114525217Y-98778701D01*
X114518330Y-98784417D01*
X114515545Y-98791891D01*
X114515106Y-98799071D01*
X114515106Y-99152686D01*
X114999000Y-99152686D01*
X114999000Y-99259811D01*
X114461909Y-99259811D01*
X114440953Y-99255708D01*
X114423661Y-99244424D01*
X114412084Y-99227424D01*
X114407981Y-99205882D01*
X114407981Y-98799071D01*
X114410477Y-98769815D01*
X114419444Y-98741670D01*
X114421023Y-98738548D01*
X114437664Y-98713654D01*
X114453556Y-98698394D01*
X114479179Y-98682412D01*
X114495762Y-98676120D01*
X114525609Y-98669904D01*
X114538260Y-98669232D01*
X114606550Y-98669232D01*
G37*
G36*
X114999000Y-98393726D02*
G01*
X114999000Y-98501290D01*
X114515106Y-98501290D01*
X114515106Y-98598157D01*
X114407981Y-98598157D01*
X114407981Y-98393726D01*
X114999000Y-98393726D01*
G37*
G36*
X115945071Y-80274618D02*
G01*
X115966466Y-80278722D01*
X115983612Y-80290299D01*
X115994896Y-80307591D01*
X115999000Y-80328547D01*
X115999000Y-80570055D01*
X115997597Y-80600200D01*
X115993390Y-80630626D01*
X115991672Y-80639371D01*
X115983618Y-80669596D01*
X115972534Y-80698981D01*
X115968811Y-80707221D01*
X115954811Y-80733145D01*
X115938054Y-80757811D01*
X115929390Y-80768771D01*
X115908507Y-80791042D01*
X115884673Y-80810943D01*
X115872677Y-80819329D01*
X115846739Y-80834208D01*
X115818162Y-80846531D01*
X115797646Y-80853327D01*
X115767469Y-80860336D01*
X115738023Y-80864183D01*
X115706659Y-80865625D01*
X115703417Y-80865637D01*
X115407981Y-80865637D01*
X115407981Y-80758512D01*
X115703417Y-80758512D01*
X115732987Y-80757023D01*
X115763647Y-80751423D01*
X115780207Y-80745909D01*
X115807248Y-80732613D01*
X115831195Y-80715165D01*
X115832524Y-80713963D01*
X115853271Y-80691041D01*
X115865496Y-80671611D01*
X115877987Y-80643584D01*
X115883228Y-80627647D01*
X115889565Y-80598173D01*
X115890409Y-80591011D01*
X115891875Y-80570055D01*
X115891875Y-80381743D01*
X115407981Y-80381743D01*
X115407981Y-80274618D01*
X115945071Y-80274618D01*
G37*
G36*
X115999000Y-79629524D02*
G01*
X115999000Y-80172330D01*
X115800723Y-80172330D01*
X115770601Y-80169238D01*
X115768483Y-80168812D01*
X115739758Y-80160165D01*
X115734484Y-80157968D01*
X115708022Y-80143018D01*
X115702244Y-80138771D01*
X115680577Y-80117361D01*
X115675280Y-80110341D01*
X115660850Y-80083676D01*
X115656522Y-80071799D01*
X115650477Y-80042215D01*
X115649488Y-80022267D01*
X115649488Y-79780759D01*
X115641768Y-79751946D01*
X115638644Y-79748373D01*
X115610418Y-79737914D01*
X115606550Y-79737822D01*
X115559216Y-79737822D01*
X115529985Y-79745542D01*
X115526243Y-79748666D01*
X115515203Y-79776120D01*
X115515106Y-79779880D01*
X115515106Y-80124116D01*
X115407981Y-80124116D01*
X115407981Y-79779880D01*
X115410460Y-79749546D01*
X115415015Y-79730934D01*
X115426840Y-79703335D01*
X115433773Y-79692392D01*
X115453337Y-79670053D01*
X115460737Y-79663816D01*
X115485445Y-79647723D01*
X115492684Y-79644179D01*
X115521189Y-79634241D01*
X115526536Y-79633041D01*
X115556478Y-79629538D01*
X115558337Y-79629524D01*
X115606550Y-79629524D01*
X115636020Y-79631647D01*
X115665712Y-79639489D01*
X115676892Y-79644618D01*
X115702831Y-79661508D01*
X115723494Y-79682281D01*
X115739718Y-79707293D01*
X115749432Y-79731080D01*
X115756162Y-79760939D01*
X115757492Y-79779880D01*
X115757492Y-80022267D01*
X115761156Y-80043369D01*
X115771121Y-80055533D01*
X115785189Y-80061834D01*
X115800723Y-80065205D01*
X115891875Y-80065205D01*
X115891875Y-79629524D01*
X115999000Y-79629524D01*
G37*
G36*
X103730803Y-101356550D02*
G01*
X103729064Y-101387221D01*
X103723341Y-101416720D01*
X103721717Y-101422203D01*
X103710243Y-101450933D01*
X103697097Y-101473054D01*
X103678256Y-101495790D01*
X103661487Y-101510716D01*
X103636922Y-101527373D01*
X103619281Y-101536508D01*
X103591575Y-101546973D01*
X103574731Y-101551163D01*
X103545149Y-101555262D01*
X103532526Y-101555706D01*
X103756302Y-101749000D01*
X103590705Y-101749000D01*
X103367223Y-101555706D01*
X103290140Y-101555706D01*
X103290140Y-101448581D01*
X103532526Y-101448581D01*
X103561979Y-101442792D01*
X103569456Y-101440081D01*
X103595214Y-101424582D01*
X103598325Y-101421763D01*
X103615798Y-101396928D01*
X103617083Y-101393919D01*
X103623446Y-101364294D01*
X103623678Y-101356550D01*
X103623678Y-101288993D01*
X103621333Y-101275217D01*
X103615618Y-101268330D01*
X103608144Y-101265545D01*
X103600963Y-101265106D01*
X103247348Y-101265106D01*
X103247348Y-101749000D01*
X103140223Y-101749000D01*
X103140223Y-101211909D01*
X103144327Y-101190953D01*
X103155611Y-101173661D01*
X103172610Y-101162084D01*
X103194152Y-101157981D01*
X103600963Y-101157981D01*
X103630219Y-101160477D01*
X103658365Y-101169444D01*
X103661487Y-101171023D01*
X103686381Y-101187664D01*
X103701640Y-101203556D01*
X103717623Y-101229179D01*
X103723915Y-101245762D01*
X103730130Y-101275609D01*
X103730803Y-101288260D01*
X103730803Y-101356550D01*
G37*
G36*
X104359923Y-101749000D02*
G01*
X104251919Y-101749000D01*
X104251919Y-101507492D01*
X103871047Y-101507492D01*
X103849505Y-101503242D01*
X103832505Y-101491665D01*
X103821221Y-101474519D01*
X103817118Y-101453417D01*
X103817118Y-101157981D01*
X103924243Y-101157981D01*
X103924243Y-101399488D01*
X104251919Y-101399488D01*
X104251919Y-101157981D01*
X104359923Y-101157981D01*
X104359923Y-101749000D01*
G37*
G36*
X118749000Y-73695784D02*
G01*
X118749000Y-74082372D01*
X118745908Y-74112184D01*
X118745482Y-74114319D01*
X118736835Y-74142939D01*
X118734638Y-74148171D01*
X118719687Y-74174351D01*
X118715441Y-74180118D01*
X118694081Y-74201785D01*
X118687011Y-74207082D01*
X118660270Y-74221512D01*
X118648323Y-74225840D01*
X118618487Y-74231885D01*
X118598497Y-74232874D01*
X118308337Y-74232874D01*
X118278652Y-74229783D01*
X118276536Y-74229357D01*
X118247916Y-74220709D01*
X118242684Y-74218513D01*
X118216504Y-74203465D01*
X118210737Y-74199169D01*
X118189854Y-74178506D01*
X118183773Y-74170446D01*
X118169283Y-74143781D01*
X118165015Y-74131904D01*
X118158970Y-74102320D01*
X118157981Y-74082372D01*
X118157981Y-73695784D01*
X118265106Y-73695784D01*
X118265106Y-74082372D01*
X118273034Y-74110888D01*
X118276243Y-74114612D01*
X118303924Y-74125431D01*
X118309216Y-74125603D01*
X118598497Y-74125603D01*
X118626793Y-74117569D01*
X118630591Y-74114319D01*
X118641775Y-74086163D01*
X118641875Y-74082372D01*
X118641875Y-73695784D01*
X118749000Y-73695784D01*
G37*
G36*
X118749000Y-73426286D02*
G01*
X118749000Y-73533851D01*
X118265106Y-73533851D01*
X118265106Y-73630718D01*
X118157981Y-73630718D01*
X118157981Y-73426286D01*
X118749000Y-73426286D01*
G37*
G36*
X118749000Y-72774891D02*
G01*
X118749000Y-72882895D01*
X118507492Y-72882895D01*
X118507492Y-73263767D01*
X118503242Y-73285309D01*
X118491665Y-73302309D01*
X118474519Y-73313593D01*
X118453417Y-73317696D01*
X118157981Y-73317696D01*
X118157981Y-73210571D01*
X118399488Y-73210571D01*
X118399488Y-72882895D01*
X118157981Y-72882895D01*
X118157981Y-72774891D01*
X118749000Y-72774891D01*
G37*
G36*
X117403141Y-89499000D02*
G01*
X116914264Y-89499000D01*
X116892722Y-89494896D01*
X116875723Y-89483612D01*
X116864439Y-89466466D01*
X116860335Y-89445071D01*
X116860335Y-88907981D01*
X116967460Y-88907981D01*
X116967460Y-89391875D01*
X117403141Y-89391875D01*
X117403141Y-89499000D01*
G37*
G36*
X117637907Y-89499000D02*
G01*
X117530342Y-89499000D01*
X117530342Y-89015106D01*
X117433476Y-89015106D01*
X117433476Y-88907981D01*
X117637907Y-88907981D01*
X117637907Y-89499000D01*
G37*
G36*
X106856550Y-105760403D02*
G01*
X106887221Y-105762142D01*
X106916720Y-105767865D01*
X106922203Y-105769489D01*
X106950933Y-105780963D01*
X106973054Y-105794109D01*
X106995790Y-105812950D01*
X107010716Y-105829719D01*
X107027373Y-105854284D01*
X107036508Y-105871925D01*
X107046973Y-105899631D01*
X107051163Y-105916475D01*
X107055262Y-105946057D01*
X107055706Y-105958680D01*
X107249000Y-105734904D01*
X107249000Y-105900501D01*
X107055706Y-106123983D01*
X107055706Y-106201066D01*
X106948581Y-106201066D01*
X106948581Y-105958680D01*
X106942792Y-105929227D01*
X106940081Y-105921750D01*
X106924582Y-105895992D01*
X106921763Y-105892881D01*
X106896928Y-105875408D01*
X106893919Y-105874123D01*
X106864294Y-105867760D01*
X106856550Y-105867528D01*
X106788993Y-105867528D01*
X106775217Y-105869873D01*
X106768330Y-105875588D01*
X106765545Y-105883062D01*
X106765106Y-105890243D01*
X106765106Y-106243858D01*
X107249000Y-106243858D01*
X107249000Y-106350983D01*
X106711909Y-106350983D01*
X106690953Y-106346879D01*
X106673661Y-106335595D01*
X106662084Y-106318596D01*
X106657981Y-106297054D01*
X106657981Y-105890243D01*
X106660477Y-105860987D01*
X106669444Y-105832841D01*
X106671023Y-105829719D01*
X106687664Y-105804825D01*
X106703556Y-105789566D01*
X106729179Y-105773583D01*
X106745762Y-105767291D01*
X106775609Y-105761076D01*
X106788260Y-105760403D01*
X106856550Y-105760403D01*
G37*
G36*
X107249000Y-105132162D02*
G01*
X107249000Y-105674967D01*
X107050723Y-105674967D01*
X107020601Y-105671876D01*
X107018483Y-105671450D01*
X106989758Y-105662802D01*
X106984484Y-105660606D01*
X106958022Y-105645655D01*
X106952244Y-105641408D01*
X106930577Y-105619999D01*
X106925280Y-105612978D01*
X106910850Y-105586314D01*
X106906522Y-105574437D01*
X106900477Y-105544853D01*
X106899488Y-105524904D01*
X106899488Y-105283397D01*
X106891768Y-105254583D01*
X106888644Y-105251010D01*
X106860418Y-105240552D01*
X106856550Y-105240459D01*
X106809216Y-105240459D01*
X106779985Y-105248179D01*
X106776243Y-105251304D01*
X106765203Y-105278757D01*
X106765106Y-105282518D01*
X106765106Y-105626754D01*
X106657981Y-105626754D01*
X106657981Y-105282518D01*
X106660460Y-105252183D01*
X106665015Y-105233572D01*
X106676840Y-105205972D01*
X106683773Y-105195030D01*
X106703337Y-105172691D01*
X106710737Y-105166454D01*
X106735445Y-105150361D01*
X106742684Y-105146816D01*
X106771189Y-105136878D01*
X106776536Y-105135679D01*
X106806478Y-105132176D01*
X106808337Y-105132162D01*
X106856550Y-105132162D01*
X106886020Y-105134285D01*
X106915712Y-105142126D01*
X106926892Y-105147256D01*
X106952831Y-105164146D01*
X106973494Y-105184918D01*
X106989718Y-105209931D01*
X106999432Y-105233718D01*
X107006162Y-105263577D01*
X107007492Y-105282518D01*
X107007492Y-105524904D01*
X107011156Y-105546007D01*
X107021121Y-105558170D01*
X107035189Y-105564472D01*
X107050723Y-105567842D01*
X107141875Y-105567842D01*
X107141875Y-105132162D01*
X107249000Y-105132162D01*
G37*
G36*
X104104774Y-79606550D02*
G01*
X104103035Y-79637221D01*
X104097312Y-79666720D01*
X104095688Y-79672203D01*
X104084214Y-79700933D01*
X104071068Y-79723054D01*
X104052227Y-79745790D01*
X104035458Y-79760716D01*
X104010893Y-79777373D01*
X103993252Y-79786508D01*
X103965546Y-79796973D01*
X103948702Y-79801163D01*
X103919120Y-79805262D01*
X103906497Y-79805706D01*
X104130273Y-79999000D01*
X103964676Y-79999000D01*
X103741194Y-79805706D01*
X103664111Y-79805706D01*
X103664111Y-79698581D01*
X103906497Y-79698581D01*
X103935950Y-79692792D01*
X103943427Y-79690081D01*
X103969185Y-79674582D01*
X103972296Y-79671763D01*
X103989769Y-79646928D01*
X103991054Y-79643919D01*
X103997417Y-79614294D01*
X103997649Y-79606550D01*
X103997649Y-79538993D01*
X103995304Y-79525217D01*
X103989589Y-79518330D01*
X103982115Y-79515545D01*
X103974934Y-79515106D01*
X103621319Y-79515106D01*
X103621319Y-79999000D01*
X103514194Y-79999000D01*
X103514194Y-79461909D01*
X103518298Y-79440953D01*
X103529582Y-79423661D01*
X103546581Y-79412084D01*
X103568123Y-79407981D01*
X103974934Y-79407981D01*
X104004190Y-79410477D01*
X104032336Y-79419444D01*
X104035458Y-79421023D01*
X104060352Y-79437664D01*
X104075611Y-79453556D01*
X104091594Y-79479179D01*
X104097886Y-79495762D01*
X104104101Y-79525609D01*
X104104774Y-79538260D01*
X104104774Y-79606550D01*
G37*
G36*
X104380280Y-79999000D02*
G01*
X104272715Y-79999000D01*
X104272715Y-79515106D01*
X104175848Y-79515106D01*
X104175848Y-79407981D01*
X104380280Y-79407981D01*
X104380280Y-79999000D01*
G37*
G36*
X104993720Y-79848497D02*
G01*
X104991597Y-79877898D01*
X104983755Y-79907615D01*
X104978626Y-79918839D01*
X104961773Y-79944778D01*
X104941110Y-79965441D01*
X104916170Y-79981624D01*
X104892310Y-79991233D01*
X104862329Y-79997718D01*
X104843364Y-79999000D01*
X104499568Y-79999000D01*
X104499568Y-79891875D01*
X104843364Y-79891875D01*
X104872074Y-79883946D01*
X104875604Y-79880737D01*
X104886063Y-79852366D01*
X104886155Y-79848497D01*
X104886155Y-79757492D01*
X104499568Y-79757492D01*
X104499568Y-79649488D01*
X104886155Y-79649488D01*
X104886155Y-79559216D01*
X104879093Y-79530656D01*
X104853393Y-79515795D01*
X104843364Y-79515106D01*
X104499568Y-79515106D01*
X104499568Y-79407981D01*
X104843364Y-79407981D01*
X104874065Y-79410460D01*
X104892750Y-79415015D01*
X104920349Y-79426840D01*
X104931291Y-79433773D01*
X104953630Y-79453337D01*
X104959868Y-79460737D01*
X104975782Y-79485445D01*
X104979212Y-79492684D01*
X104989007Y-79521189D01*
X104990203Y-79526536D01*
X104993706Y-79556478D01*
X104993720Y-79558337D01*
X104993720Y-79848497D01*
G37*
G36*
X118749000Y-81186991D02*
G01*
X118749000Y-81573579D01*
X118745908Y-81603391D01*
X118745482Y-81605526D01*
X118736835Y-81634146D01*
X118734638Y-81639378D01*
X118719687Y-81665558D01*
X118715441Y-81671325D01*
X118694081Y-81692992D01*
X118687011Y-81698289D01*
X118660270Y-81712719D01*
X118648323Y-81717047D01*
X118618487Y-81723092D01*
X118598497Y-81724081D01*
X118308337Y-81724081D01*
X118278652Y-81720990D01*
X118276536Y-81720564D01*
X118247916Y-81711916D01*
X118242684Y-81709720D01*
X118216504Y-81694672D01*
X118210737Y-81690376D01*
X118189854Y-81669713D01*
X118183773Y-81661653D01*
X118169283Y-81634988D01*
X118165015Y-81623111D01*
X118158970Y-81593527D01*
X118157981Y-81573579D01*
X118157981Y-81186991D01*
X118265106Y-81186991D01*
X118265106Y-81573579D01*
X118273034Y-81602095D01*
X118276243Y-81605819D01*
X118303924Y-81616638D01*
X118309216Y-81616810D01*
X118598497Y-81616810D01*
X118626793Y-81608776D01*
X118630591Y-81605526D01*
X118641775Y-81577370D01*
X118641875Y-81573579D01*
X118641875Y-81186991D01*
X118749000Y-81186991D01*
G37*
G36*
X118749000Y-80917493D02*
G01*
X118749000Y-81025058D01*
X118265106Y-81025058D01*
X118265106Y-81121925D01*
X118157981Y-81121925D01*
X118157981Y-80917493D01*
X118749000Y-80917493D01*
G37*
G36*
X118749000Y-80266977D02*
G01*
X118749000Y-80809782D01*
X118550723Y-80809782D01*
X118520601Y-80806691D01*
X118518483Y-80806265D01*
X118489758Y-80797618D01*
X118484484Y-80795421D01*
X118458022Y-80780470D01*
X118452244Y-80776223D01*
X118430577Y-80754814D01*
X118425280Y-80747794D01*
X118410850Y-80721129D01*
X118406522Y-80709252D01*
X118400477Y-80679668D01*
X118399488Y-80659720D01*
X118399488Y-80418212D01*
X118391768Y-80389398D01*
X118388644Y-80385826D01*
X118360418Y-80375367D01*
X118356550Y-80375274D01*
X118309216Y-80375274D01*
X118279985Y-80382995D01*
X118276243Y-80386119D01*
X118265203Y-80413572D01*
X118265106Y-80417333D01*
X118265106Y-80761569D01*
X118157981Y-80761569D01*
X118157981Y-80417333D01*
X118160460Y-80386999D01*
X118165015Y-80368387D01*
X118176840Y-80340787D01*
X118183773Y-80329845D01*
X118203337Y-80307506D01*
X118210737Y-80301269D01*
X118235445Y-80285176D01*
X118242684Y-80281632D01*
X118271189Y-80271693D01*
X118276536Y-80270494D01*
X118306478Y-80266991D01*
X118308337Y-80266977D01*
X118356550Y-80266977D01*
X118386020Y-80269100D01*
X118415712Y-80276942D01*
X118426892Y-80282071D01*
X118452831Y-80298961D01*
X118473494Y-80319734D01*
X118489718Y-80344746D01*
X118499432Y-80368533D01*
X118506162Y-80398392D01*
X118507492Y-80417333D01*
X118507492Y-80659720D01*
X118511156Y-80680822D01*
X118521121Y-80692985D01*
X118535189Y-80699287D01*
X118550723Y-80702657D01*
X118641875Y-80702657D01*
X118641875Y-80266977D01*
X118749000Y-80266977D01*
G37*
G36*
X113999000Y-106784584D02*
G01*
X113999000Y-107171172D01*
X113995908Y-107200984D01*
X113995482Y-107203119D01*
X113986835Y-107231739D01*
X113984638Y-107236971D01*
X113969687Y-107263151D01*
X113965441Y-107268918D01*
X113944081Y-107290585D01*
X113937011Y-107295882D01*
X113910270Y-107310312D01*
X113898323Y-107314640D01*
X113868487Y-107320685D01*
X113848497Y-107321674D01*
X113558337Y-107321674D01*
X113528652Y-107318583D01*
X113526536Y-107318157D01*
X113497916Y-107309509D01*
X113492684Y-107307313D01*
X113466504Y-107292265D01*
X113460737Y-107287969D01*
X113439854Y-107267306D01*
X113433773Y-107259246D01*
X113419283Y-107232581D01*
X113415015Y-107220704D01*
X113408970Y-107191120D01*
X113407981Y-107171172D01*
X113407981Y-106784584D01*
X113515106Y-106784584D01*
X113515106Y-107171172D01*
X113523034Y-107199688D01*
X113526243Y-107203412D01*
X113553924Y-107214231D01*
X113559216Y-107214403D01*
X113848497Y-107214403D01*
X113876793Y-107206369D01*
X113880591Y-107203119D01*
X113891775Y-107174963D01*
X113891875Y-107171172D01*
X113891875Y-106784584D01*
X113999000Y-106784584D01*
G37*
G36*
X113831093Y-106172764D02*
G01*
X113860457Y-106178580D01*
X113865936Y-106180230D01*
X113894593Y-106191817D01*
X113916787Y-106204996D01*
X113939477Y-106223837D01*
X113954303Y-106240606D01*
X113970716Y-106265293D01*
X113979802Y-106282958D01*
X113990266Y-106310722D01*
X113994457Y-106327655D01*
X113998556Y-106357370D01*
X113999000Y-106370006D01*
X113999000Y-106637599D01*
X113891875Y-106637599D01*
X113891875Y-106370006D01*
X113886175Y-106340643D01*
X113883521Y-106333223D01*
X113868391Y-106307466D01*
X113865643Y-106304354D01*
X113841099Y-106286881D01*
X113838092Y-106285596D01*
X113808467Y-106279233D01*
X113800723Y-106279001D01*
X113757492Y-106279001D01*
X113757492Y-106563300D01*
X113754401Y-106593422D01*
X113753975Y-106595540D01*
X113745119Y-106623875D01*
X113742838Y-106629099D01*
X113727746Y-106655279D01*
X113723494Y-106661046D01*
X113702045Y-106682713D01*
X113694917Y-106688010D01*
X113667982Y-106702441D01*
X113656083Y-106706768D01*
X113626499Y-106712813D01*
X113606550Y-106713802D01*
X113558337Y-106713802D01*
X113528652Y-106710711D01*
X113526536Y-106710285D01*
X113497916Y-106701638D01*
X113492684Y-106699441D01*
X113466504Y-106684394D01*
X113460737Y-106680097D01*
X113439854Y-106659434D01*
X113433773Y-106651374D01*
X113419283Y-106624709D01*
X113415015Y-106612832D01*
X113408970Y-106583249D01*
X113407981Y-106563300D01*
X113515106Y-106563300D01*
X113524642Y-106591863D01*
X113527562Y-106594954D01*
X113554929Y-106606574D01*
X113558337Y-106606678D01*
X113606550Y-106606678D01*
X113634962Y-106598749D01*
X113638644Y-106595540D01*
X113649319Y-106567859D01*
X113649488Y-106562567D01*
X113649488Y-106279001D01*
X113606550Y-106279001D01*
X113577424Y-106282958D01*
X113568741Y-106286036D01*
X113543706Y-106301414D01*
X113539872Y-106305086D01*
X113523218Y-106329850D01*
X113521554Y-106333956D01*
X113515332Y-106362845D01*
X113515106Y-106370006D01*
X113515106Y-106563300D01*
X113407981Y-106563300D01*
X113407981Y-106370006D01*
X113410328Y-106340129D01*
X113412524Y-106327655D01*
X113420884Y-106298157D01*
X113427178Y-106282958D01*
X113441993Y-106256042D01*
X113452970Y-106240606D01*
X113473741Y-106218296D01*
X113490632Y-106204996D01*
X113517541Y-106189514D01*
X113541484Y-106180230D01*
X113570159Y-106173603D01*
X113599828Y-106171078D01*
X113606550Y-106170997D01*
X113800723Y-106170997D01*
X113831093Y-106172764D01*
G37*
G36*
X110606550Y-113408415D02*
G01*
X110637221Y-113410154D01*
X110666720Y-113415877D01*
X110672203Y-113417501D01*
X110700933Y-113428975D01*
X110723054Y-113442121D01*
X110745790Y-113460962D01*
X110760716Y-113477731D01*
X110777373Y-113502296D01*
X110786508Y-113519937D01*
X110796973Y-113547643D01*
X110801163Y-113564487D01*
X110805262Y-113594069D01*
X110805706Y-113606692D01*
X110999000Y-113382916D01*
X110999000Y-113548513D01*
X110805706Y-113771995D01*
X110805706Y-113849078D01*
X110698581Y-113849078D01*
X110698581Y-113606692D01*
X110692792Y-113577239D01*
X110690081Y-113569762D01*
X110674582Y-113544004D01*
X110671763Y-113540893D01*
X110646928Y-113523420D01*
X110643919Y-113522135D01*
X110614294Y-113515772D01*
X110606550Y-113515540D01*
X110538993Y-113515540D01*
X110525217Y-113517885D01*
X110518330Y-113523600D01*
X110515545Y-113531074D01*
X110515106Y-113538255D01*
X110515106Y-113891870D01*
X110999000Y-113891870D01*
X110999000Y-113998995D01*
X110461909Y-113998995D01*
X110440953Y-113994891D01*
X110423661Y-113983607D01*
X110412084Y-113966608D01*
X110407981Y-113945066D01*
X110407981Y-113538255D01*
X110410477Y-113508999D01*
X110419444Y-113480853D01*
X110421023Y-113477731D01*
X110437664Y-113452837D01*
X110453556Y-113437578D01*
X110479179Y-113421595D01*
X110495762Y-113415303D01*
X110525609Y-113409088D01*
X110538260Y-113408415D01*
X110606550Y-113408415D01*
G37*
G36*
X110999000Y-113132909D02*
G01*
X110999000Y-113240474D01*
X110515106Y-113240474D01*
X110515106Y-113337341D01*
X110407981Y-113337341D01*
X110407981Y-113132909D01*
X110999000Y-113132909D01*
G37*
G36*
X110848497Y-112473307D02*
G01*
X110878619Y-112476398D01*
X110880737Y-112476824D01*
X110909072Y-112485681D01*
X110914296Y-112487962D01*
X110940476Y-112503054D01*
X110946243Y-112507306D01*
X110967910Y-112528665D01*
X110973207Y-112535736D01*
X110987638Y-112562401D01*
X110991965Y-112574277D01*
X110998010Y-112603689D01*
X110999000Y-112623370D01*
X110999000Y-113016113D01*
X110891875Y-113016113D01*
X110891875Y-112623370D01*
X110882450Y-112595160D01*
X110879565Y-112592302D01*
X110851933Y-112581408D01*
X110848497Y-112581311D01*
X110800723Y-112581311D01*
X110772350Y-112588927D01*
X110768630Y-112592009D01*
X110757590Y-112620185D01*
X110757492Y-112624103D01*
X110757492Y-112865610D01*
X110755390Y-112895011D01*
X110747624Y-112924728D01*
X110742545Y-112935952D01*
X110725545Y-112961817D01*
X110704736Y-112982260D01*
X110679567Y-112998371D01*
X110655643Y-113008052D01*
X110625610Y-113014782D01*
X110606550Y-113016113D01*
X110407981Y-113016113D01*
X110407981Y-112522400D01*
X110515106Y-112522400D01*
X110515106Y-112908988D01*
X110606550Y-112908988D01*
X110635182Y-112901059D01*
X110638790Y-112897850D01*
X110649394Y-112869479D01*
X110649488Y-112865610D01*
X110649488Y-112623370D01*
X110652636Y-112593923D01*
X110657548Y-112574717D01*
X110669722Y-112546293D01*
X110683487Y-112525917D01*
X110705585Y-112504089D01*
X110730235Y-112488401D01*
X110757936Y-112478083D01*
X110788028Y-112473676D01*
X110800723Y-112473307D01*
X110848497Y-112473307D01*
G37*
G36*
X112106550Y-113405777D02*
G01*
X112137221Y-113407516D01*
X112166720Y-113413239D01*
X112172203Y-113414863D01*
X112200933Y-113426337D01*
X112223054Y-113439483D01*
X112245790Y-113458324D01*
X112260716Y-113475093D01*
X112277373Y-113499658D01*
X112286508Y-113517299D01*
X112296973Y-113545005D01*
X112301163Y-113561849D01*
X112305262Y-113591431D01*
X112305706Y-113604054D01*
X112499000Y-113380278D01*
X112499000Y-113545875D01*
X112305706Y-113769357D01*
X112305706Y-113846440D01*
X112198581Y-113846440D01*
X112198581Y-113604054D01*
X112192792Y-113574601D01*
X112190081Y-113567124D01*
X112174582Y-113541366D01*
X112171763Y-113538255D01*
X112146928Y-113520782D01*
X112143919Y-113519497D01*
X112114294Y-113513134D01*
X112106550Y-113512902D01*
X112038993Y-113512902D01*
X112025217Y-113515247D01*
X112018330Y-113520962D01*
X112015545Y-113528436D01*
X112015106Y-113535617D01*
X112015106Y-113889232D01*
X112499000Y-113889232D01*
X112499000Y-113996357D01*
X111961909Y-113996357D01*
X111940953Y-113992253D01*
X111923661Y-113980969D01*
X111912084Y-113963970D01*
X111907981Y-113942428D01*
X111907981Y-113535617D01*
X111910477Y-113506361D01*
X111919444Y-113478215D01*
X111921023Y-113475093D01*
X111937664Y-113450199D01*
X111953556Y-113434940D01*
X111979179Y-113418957D01*
X111995762Y-113412665D01*
X112025609Y-113406450D01*
X112038260Y-113405777D01*
X112106550Y-113405777D01*
G37*
G36*
X112499000Y-113130271D02*
G01*
X112499000Y-113237836D01*
X112015106Y-113237836D01*
X112015106Y-113334703D01*
X111907981Y-113334703D01*
X111907981Y-113130271D01*
X112499000Y-113130271D01*
G37*
G36*
X112378619Y-112476252D02*
G01*
X112380737Y-112476678D01*
X112409072Y-112485534D01*
X112414296Y-112487815D01*
X112440476Y-112502907D01*
X112446243Y-112507159D01*
X112467910Y-112528518D01*
X112473207Y-112535589D01*
X112487638Y-112562254D01*
X112491965Y-112574130D01*
X112498010Y-112603657D01*
X112499000Y-112623516D01*
X112499000Y-112817689D01*
X112496653Y-112847567D01*
X112494457Y-112860041D01*
X112486096Y-112889217D01*
X112479802Y-112904298D01*
X112465102Y-112931020D01*
X112454303Y-112946503D01*
X112433583Y-112968884D01*
X112416787Y-112982114D01*
X112389806Y-112997405D01*
X112365936Y-113006733D01*
X112337229Y-113013360D01*
X112307472Y-113015885D01*
X112300723Y-113015966D01*
X112106550Y-113015966D01*
X112076280Y-113014199D01*
X112046961Y-113008383D01*
X112041484Y-113006733D01*
X112012754Y-112995114D01*
X111990632Y-112982114D01*
X111967825Y-112963345D01*
X111952970Y-112946503D01*
X111936313Y-112921797D01*
X111927178Y-112904298D01*
X111916714Y-112876775D01*
X111912524Y-112860041D01*
X111908424Y-112830326D01*
X111907981Y-112817689D01*
X111907981Y-112548925D01*
X112015106Y-112548925D01*
X112015106Y-112817689D01*
X112020934Y-112847560D01*
X112023752Y-112855059D01*
X112039540Y-112880560D01*
X112042363Y-112883635D01*
X112067173Y-112900962D01*
X112070207Y-112902246D01*
X112099155Y-112908609D01*
X112106550Y-112908841D01*
X112149488Y-112908841D01*
X112257492Y-112908841D01*
X112300723Y-112908841D01*
X112329904Y-112904802D01*
X112338532Y-112901660D01*
X112363242Y-112885748D01*
X112367108Y-112882023D01*
X112383874Y-112857083D01*
X112385573Y-112853007D01*
X112391653Y-112824021D01*
X112391875Y-112816810D01*
X112391875Y-112623516D01*
X112382450Y-112595018D01*
X112379565Y-112592156D01*
X112351933Y-112581261D01*
X112348497Y-112581165D01*
X112300723Y-112581165D01*
X112272350Y-112588781D01*
X112268630Y-112591863D01*
X112257666Y-112619111D01*
X112257492Y-112624396D01*
X112257492Y-112908841D01*
X112149488Y-112908841D01*
X112149488Y-112623516D01*
X112152636Y-112593875D01*
X112157548Y-112574717D01*
X112169722Y-112546365D01*
X112183487Y-112525917D01*
X112205585Y-112503975D01*
X112230235Y-112488255D01*
X112257936Y-112477936D01*
X112288028Y-112473529D01*
X112300723Y-112473160D01*
X112348497Y-112473160D01*
X112378619Y-112476252D01*
G37*
G36*
X115790209Y-120996269D02*
G01*
X115821464Y-121001432D01*
X115837653Y-121005715D01*
X115866188Y-121016120D01*
X115892499Y-121029476D01*
X115903891Y-121036636D01*
X115928391Y-121055673D01*
X115950085Y-121077909D01*
X115955769Y-121084849D01*
X115973436Y-121110803D01*
X115986576Y-121137063D01*
X115990793Y-121147717D01*
X116090151Y-121022421D01*
X116090151Y-121177759D01*
X116007206Y-121280781D01*
X116007206Y-121386294D01*
X116005757Y-121415602D01*
X116000748Y-121446726D01*
X115992162Y-121476333D01*
X115988888Y-121484919D01*
X115976008Y-121512018D01*
X115958534Y-121539051D01*
X115937597Y-121563174D01*
X115913473Y-121584163D01*
X115889019Y-121600329D01*
X115862160Y-121613719D01*
X115859341Y-121614905D01*
X115830118Y-121624797D01*
X115799235Y-121631025D01*
X115770020Y-121633498D01*
X115759983Y-121633663D01*
X115646997Y-121633663D01*
X115617476Y-121632179D01*
X115586197Y-121627050D01*
X115556522Y-121618257D01*
X115547932Y-121614905D01*
X115520706Y-121601793D01*
X115496000Y-121585905D01*
X115471731Y-121565221D01*
X115469676Y-121563174D01*
X115448805Y-121539051D01*
X115431328Y-121512018D01*
X115418385Y-121484919D01*
X115408571Y-121455767D01*
X115402391Y-121425099D01*
X115399847Y-121392913D01*
X115399774Y-121386294D01*
X115506899Y-121386294D01*
X115509427Y-121416262D01*
X115517011Y-121443447D01*
X115530983Y-121470191D01*
X115545441Y-121487850D01*
X115569828Y-121506832D01*
X115589551Y-121516426D01*
X115618609Y-121524316D01*
X115646997Y-121526538D01*
X115759983Y-121526538D01*
X115790172Y-121524010D01*
X115817429Y-121516426D01*
X115844081Y-121502408D01*
X115861540Y-121487850D01*
X115879551Y-121464640D01*
X115889969Y-121443447D01*
X115897859Y-121414471D01*
X115900081Y-121386294D01*
X115900081Y-121242093D01*
X115897553Y-121212161D01*
X115889969Y-121185086D01*
X115875997Y-121158389D01*
X115861540Y-121140830D01*
X115838567Y-121122581D01*
X115817429Y-121112107D01*
X115788371Y-121104217D01*
X115759983Y-121101995D01*
X115646997Y-121101995D01*
X115616808Y-121104523D01*
X115589551Y-121112107D01*
X115562900Y-121126079D01*
X115545441Y-121140537D01*
X115526581Y-121164924D01*
X115517011Y-121184647D01*
X115509121Y-121213384D01*
X115506899Y-121241213D01*
X115506899Y-121386294D01*
X115399774Y-121386294D01*
X115399774Y-121241213D01*
X115401592Y-121208830D01*
X115407044Y-121177993D01*
X115416132Y-121148701D01*
X115418385Y-121143028D01*
X115431328Y-121116006D01*
X115448805Y-121089025D01*
X115469676Y-121064919D01*
X115493668Y-121043947D01*
X115520706Y-121026369D01*
X115547932Y-121013335D01*
X115577126Y-121003520D01*
X115607924Y-120997341D01*
X115640324Y-120994796D01*
X115646997Y-120994724D01*
X115759983Y-120994724D01*
X115790209Y-120996269D01*
G37*
G36*
X115999000Y-120368094D02*
G01*
X115999000Y-120910899D01*
X115800723Y-120910899D01*
X115770601Y-120907808D01*
X115768483Y-120907382D01*
X115739758Y-120898735D01*
X115734484Y-120896538D01*
X115708022Y-120881587D01*
X115702244Y-120877340D01*
X115680577Y-120855931D01*
X115675280Y-120848911D01*
X115660850Y-120822246D01*
X115656522Y-120810369D01*
X115650477Y-120780785D01*
X115649488Y-120760837D01*
X115649488Y-120519329D01*
X115641768Y-120490515D01*
X115638644Y-120486943D01*
X115610418Y-120476484D01*
X115606550Y-120476391D01*
X115559216Y-120476391D01*
X115529985Y-120484112D01*
X115526243Y-120487236D01*
X115515203Y-120514690D01*
X115515106Y-120518450D01*
X115515106Y-120862686D01*
X115407981Y-120862686D01*
X115407981Y-120518450D01*
X115410460Y-120488116D01*
X115415015Y-120469504D01*
X115426840Y-120441905D01*
X115433773Y-120430962D01*
X115453337Y-120408623D01*
X115460737Y-120402386D01*
X115485445Y-120386293D01*
X115492684Y-120382749D01*
X115521189Y-120372811D01*
X115526536Y-120371611D01*
X115556478Y-120368108D01*
X115558337Y-120368094D01*
X115606550Y-120368094D01*
X115636020Y-120370217D01*
X115665712Y-120378059D01*
X115676892Y-120383188D01*
X115702831Y-120400078D01*
X115723494Y-120420851D01*
X115739718Y-120445863D01*
X115749432Y-120469650D01*
X115756162Y-120499509D01*
X115757492Y-120518450D01*
X115757492Y-120760837D01*
X115761156Y-120781939D01*
X115771121Y-120794103D01*
X115785189Y-120800404D01*
X115800723Y-120803775D01*
X115891875Y-120803775D01*
X115891875Y-120368094D01*
X115999000Y-120368094D01*
G37*
G36*
X115749000Y-99491206D02*
G01*
X115749000Y-99877794D01*
X115745908Y-99907606D01*
X115745482Y-99909741D01*
X115736835Y-99938361D01*
X115734638Y-99943593D01*
X115719687Y-99969773D01*
X115715441Y-99975540D01*
X115694081Y-99997207D01*
X115687011Y-100002504D01*
X115660270Y-100016934D01*
X115648323Y-100021262D01*
X115618487Y-100027307D01*
X115598497Y-100028296D01*
X115308337Y-100028296D01*
X115278652Y-100025205D01*
X115276536Y-100024779D01*
X115247916Y-100016131D01*
X115242684Y-100013935D01*
X115216504Y-99998887D01*
X115210737Y-99994591D01*
X115189854Y-99973928D01*
X115183773Y-99965868D01*
X115169283Y-99939203D01*
X115165015Y-99927326D01*
X115158970Y-99897742D01*
X115157981Y-99877794D01*
X115157981Y-99491206D01*
X115265106Y-99491206D01*
X115265106Y-99877794D01*
X115273034Y-99906310D01*
X115276243Y-99910034D01*
X115303924Y-99920853D01*
X115309216Y-99921025D01*
X115598497Y-99921025D01*
X115626793Y-99912991D01*
X115630591Y-99909741D01*
X115641775Y-99881585D01*
X115641875Y-99877794D01*
X115641875Y-99491206D01*
X115749000Y-99491206D01*
G37*
G36*
X115185092Y-98940634D02*
G01*
X115212203Y-98933600D01*
X115239167Y-98940634D01*
X115749000Y-99237828D01*
X115749000Y-99361953D01*
X115265106Y-99080731D01*
X115265106Y-99427898D01*
X115157981Y-99427898D01*
X115157981Y-98987235D01*
X115165161Y-98960271D01*
X115185092Y-98940634D01*
G37*
G36*
X103749000Y-89784584D02*
G01*
X103749000Y-90171172D01*
X103745908Y-90200984D01*
X103745482Y-90203119D01*
X103736835Y-90231739D01*
X103734638Y-90236971D01*
X103719687Y-90263151D01*
X103715441Y-90268918D01*
X103694081Y-90290585D01*
X103687011Y-90295882D01*
X103660270Y-90310312D01*
X103648323Y-90314640D01*
X103618487Y-90320685D01*
X103598497Y-90321674D01*
X103308337Y-90321674D01*
X103278652Y-90318583D01*
X103276536Y-90318157D01*
X103247916Y-90309509D01*
X103242684Y-90307313D01*
X103216504Y-90292265D01*
X103210737Y-90287969D01*
X103189854Y-90267306D01*
X103183773Y-90259246D01*
X103169283Y-90232581D01*
X103165015Y-90220704D01*
X103158970Y-90191120D01*
X103157981Y-90171172D01*
X103157981Y-89784584D01*
X103265106Y-89784584D01*
X103265106Y-90171172D01*
X103273034Y-90199688D01*
X103276243Y-90203412D01*
X103303924Y-90214231D01*
X103309216Y-90214403D01*
X103598497Y-90214403D01*
X103626793Y-90206369D01*
X103630591Y-90203119D01*
X103641775Y-90174963D01*
X103641875Y-90171172D01*
X103641875Y-89784584D01*
X103749000Y-89784584D01*
G37*
G36*
X103628619Y-89158848D02*
G01*
X103630737Y-89159273D01*
X103659072Y-89168130D01*
X103664296Y-89170411D01*
X103690476Y-89185503D01*
X103696243Y-89189755D01*
X103717910Y-89211114D01*
X103723207Y-89218185D01*
X103737638Y-89244850D01*
X103741965Y-89256726D01*
X103748010Y-89286253D01*
X103749000Y-89306112D01*
X103749000Y-89500285D01*
X103746653Y-89530163D01*
X103744457Y-89542637D01*
X103736096Y-89571813D01*
X103729802Y-89586894D01*
X103715102Y-89613616D01*
X103704303Y-89629099D01*
X103683583Y-89651480D01*
X103666787Y-89664710D01*
X103639806Y-89680001D01*
X103615936Y-89689329D01*
X103587229Y-89695956D01*
X103557472Y-89698481D01*
X103550723Y-89698562D01*
X103356550Y-89698562D01*
X103326280Y-89696795D01*
X103296961Y-89690979D01*
X103291484Y-89689329D01*
X103262754Y-89677710D01*
X103240632Y-89664710D01*
X103217825Y-89645941D01*
X103202970Y-89629099D01*
X103186313Y-89604393D01*
X103177178Y-89586894D01*
X103166714Y-89559371D01*
X103162524Y-89542637D01*
X103158424Y-89512922D01*
X103157981Y-89500285D01*
X103157981Y-89231521D01*
X103265106Y-89231521D01*
X103265106Y-89500285D01*
X103270934Y-89530156D01*
X103273752Y-89537655D01*
X103289540Y-89563156D01*
X103292363Y-89566231D01*
X103317173Y-89583558D01*
X103320207Y-89584842D01*
X103349155Y-89591205D01*
X103356550Y-89591437D01*
X103399488Y-89591437D01*
X103507492Y-89591437D01*
X103550723Y-89591437D01*
X103579904Y-89587398D01*
X103588532Y-89584256D01*
X103613242Y-89568344D01*
X103617108Y-89564619D01*
X103633874Y-89539679D01*
X103635573Y-89535603D01*
X103641653Y-89506617D01*
X103641875Y-89499406D01*
X103641875Y-89306112D01*
X103632450Y-89277614D01*
X103629565Y-89274752D01*
X103601933Y-89263857D01*
X103598497Y-89263761D01*
X103550723Y-89263761D01*
X103522350Y-89271377D01*
X103518630Y-89274458D01*
X103507666Y-89301707D01*
X103507492Y-89306992D01*
X103507492Y-89591437D01*
X103399488Y-89591437D01*
X103399488Y-89306112D01*
X103402636Y-89276471D01*
X103407548Y-89257313D01*
X103419722Y-89228961D01*
X103433487Y-89208513D01*
X103455585Y-89186571D01*
X103480235Y-89170851D01*
X103507936Y-89160532D01*
X103538028Y-89156125D01*
X103550723Y-89155756D01*
X103598497Y-89155756D01*
X103628619Y-89158848D01*
G37*
G36*
X104257767Y-108856550D02*
G01*
X104256028Y-108887221D01*
X104250305Y-108916720D01*
X104248681Y-108922203D01*
X104237207Y-108950933D01*
X104224061Y-108973054D01*
X104205220Y-108995790D01*
X104188451Y-109010716D01*
X104163886Y-109027373D01*
X104146245Y-109036508D01*
X104118539Y-109046973D01*
X104101695Y-109051163D01*
X104072113Y-109055262D01*
X104059490Y-109055706D01*
X104283266Y-109249000D01*
X104117669Y-109249000D01*
X103894187Y-109055706D01*
X103817104Y-109055706D01*
X103817104Y-108948581D01*
X104059490Y-108948581D01*
X104088943Y-108942792D01*
X104096420Y-108940081D01*
X104122178Y-108924582D01*
X104125289Y-108921763D01*
X104142762Y-108896928D01*
X104144047Y-108893919D01*
X104150410Y-108864294D01*
X104150642Y-108856550D01*
X104150642Y-108788993D01*
X104148297Y-108775217D01*
X104142582Y-108768330D01*
X104135108Y-108765545D01*
X104127927Y-108765106D01*
X103774312Y-108765106D01*
X103774312Y-109249000D01*
X103667187Y-109249000D01*
X103667187Y-108711909D01*
X103671291Y-108690953D01*
X103682575Y-108673661D01*
X103699574Y-108662084D01*
X103721116Y-108657981D01*
X104127927Y-108657981D01*
X104157183Y-108660477D01*
X104185329Y-108669444D01*
X104188451Y-108671023D01*
X104213345Y-108687664D01*
X104228604Y-108703556D01*
X104244587Y-108729179D01*
X104250879Y-108745762D01*
X104257094Y-108775609D01*
X104257767Y-108788260D01*
X104257767Y-108856550D01*
G37*
G36*
X104533273Y-109249000D02*
G01*
X104425708Y-109249000D01*
X104425708Y-108765106D01*
X104328841Y-108765106D01*
X104328841Y-108657981D01*
X104533273Y-108657981D01*
X104533273Y-109249000D01*
G37*
G36*
X104831053Y-109249000D02*
G01*
X104723489Y-109249000D01*
X104723489Y-108765106D01*
X104626622Y-108765106D01*
X104626622Y-108657981D01*
X104831053Y-108657981D01*
X104831053Y-109249000D01*
G37*
G36*
X120249000Y-73672923D02*
G01*
X120249000Y-74059511D01*
X120245908Y-74089323D01*
X120245482Y-74091458D01*
X120236835Y-74120078D01*
X120234638Y-74125310D01*
X120219687Y-74151490D01*
X120215441Y-74157257D01*
X120194081Y-74178924D01*
X120187011Y-74184221D01*
X120160270Y-74198651D01*
X120148323Y-74202979D01*
X120118487Y-74209024D01*
X120098497Y-74210013D01*
X119808337Y-74210013D01*
X119778652Y-74206922D01*
X119776536Y-74206496D01*
X119747916Y-74197848D01*
X119742684Y-74195652D01*
X119716504Y-74180604D01*
X119710737Y-74176308D01*
X119689854Y-74155645D01*
X119683773Y-74147585D01*
X119669283Y-74120920D01*
X119665015Y-74109043D01*
X119658970Y-74079459D01*
X119657981Y-74059511D01*
X119657981Y-73672923D01*
X119765106Y-73672923D01*
X119765106Y-74059511D01*
X119773034Y-74088027D01*
X119776243Y-74091751D01*
X119803924Y-74102570D01*
X119809216Y-74102742D01*
X120098497Y-74102742D01*
X120126793Y-74094708D01*
X120130591Y-74091458D01*
X120141775Y-74063302D01*
X120141875Y-74059511D01*
X120141875Y-73672923D01*
X120249000Y-73672923D01*
G37*
G36*
X120249000Y-73403425D02*
G01*
X120249000Y-73510990D01*
X119765106Y-73510990D01*
X119765106Y-73607857D01*
X119657981Y-73607857D01*
X119657981Y-73403425D01*
X120249000Y-73403425D01*
G37*
G36*
X120098497Y-72789985D02*
G01*
X120127898Y-72792108D01*
X120157615Y-72799950D01*
X120168839Y-72805079D01*
X120194778Y-72821932D01*
X120215441Y-72842595D01*
X120231624Y-72867535D01*
X120241233Y-72891395D01*
X120247718Y-72921376D01*
X120249000Y-72940341D01*
X120249000Y-73284137D01*
X120141875Y-73284137D01*
X120141875Y-72940341D01*
X120133946Y-72911632D01*
X120130737Y-72908101D01*
X120102366Y-72897642D01*
X120098497Y-72897550D01*
X120007492Y-72897550D01*
X120007492Y-73284137D01*
X119899488Y-73284137D01*
X119899488Y-72897550D01*
X119809216Y-72897550D01*
X119780656Y-72904612D01*
X119765795Y-72930312D01*
X119765106Y-72940341D01*
X119765106Y-73284137D01*
X119657981Y-73284137D01*
X119657981Y-72940341D01*
X119660460Y-72909640D01*
X119665015Y-72890955D01*
X119676840Y-72863356D01*
X119683773Y-72852414D01*
X119703337Y-72830075D01*
X119710737Y-72823837D01*
X119735445Y-72807923D01*
X119742684Y-72804493D01*
X119771189Y-72794698D01*
X119776536Y-72793502D01*
X119806478Y-72789999D01*
X119808337Y-72789985D01*
X120098497Y-72789985D01*
G37*
G36*
X102281364Y-86340429D02*
G01*
X102312797Y-86345559D01*
X102342541Y-86354351D01*
X102351135Y-86357703D01*
X102378220Y-86370815D01*
X102402872Y-86386704D01*
X102427180Y-86407387D01*
X102429244Y-86409434D01*
X102450049Y-86433557D01*
X102467529Y-86460590D01*
X102480535Y-86487690D01*
X102490272Y-86516764D01*
X102496403Y-86547384D01*
X102498927Y-86579550D01*
X102499000Y-86586168D01*
X102499000Y-86875449D01*
X102494896Y-86896992D01*
X102483612Y-86914138D01*
X102466466Y-86925422D01*
X102445071Y-86929525D01*
X101961909Y-86929525D01*
X101940953Y-86925422D01*
X101923661Y-86914138D01*
X101912084Y-86896992D01*
X101907981Y-86875449D01*
X101907981Y-86822400D01*
X102015106Y-86822400D01*
X102391875Y-86822400D01*
X102391875Y-86586168D01*
X102389347Y-86556236D01*
X102381763Y-86529162D01*
X102367791Y-86502464D01*
X102353333Y-86484905D01*
X102330360Y-86466657D01*
X102309223Y-86456182D01*
X102280123Y-86448292D01*
X102251630Y-86446071D01*
X102155203Y-86446071D01*
X102125308Y-86448598D01*
X102098050Y-86456182D01*
X102071162Y-86470247D01*
X102053647Y-86484905D01*
X102034787Y-86509415D01*
X102025217Y-86529162D01*
X102017327Y-86558023D01*
X102015106Y-86586168D01*
X102015106Y-86822400D01*
X101907981Y-86822400D01*
X101907981Y-86586168D01*
X101909453Y-86556871D01*
X101914542Y-86525788D01*
X101923266Y-86496250D01*
X101926592Y-86487690D01*
X101939535Y-86460590D01*
X101957012Y-86433557D01*
X101977883Y-86409434D01*
X102001874Y-86388445D01*
X102026329Y-86372279D01*
X102053302Y-86358890D01*
X102056138Y-86357703D01*
X102085396Y-86347812D01*
X102116199Y-86341583D01*
X102148548Y-86339019D01*
X102155203Y-86338946D01*
X102251630Y-86338946D01*
X102281364Y-86340429D01*
G37*
G36*
X102499000Y-86073112D02*
G01*
X102499000Y-86180676D01*
X102015106Y-86180676D01*
X102015106Y-86277543D01*
X101907981Y-86277543D01*
X101907981Y-86073112D01*
X102499000Y-86073112D01*
G37*
G36*
X104892443Y-96945071D02*
G01*
X104888339Y-96966466D01*
X104876762Y-96983612D01*
X104859470Y-96994896D01*
X104838514Y-96999000D01*
X104597006Y-96999000D01*
X104566861Y-96997597D01*
X104536435Y-96993390D01*
X104527690Y-96991672D01*
X104497465Y-96983618D01*
X104468080Y-96972534D01*
X104459840Y-96968811D01*
X104433916Y-96954811D01*
X104409250Y-96938054D01*
X104398290Y-96929390D01*
X104376019Y-96908507D01*
X104356118Y-96884673D01*
X104347732Y-96872677D01*
X104332853Y-96846739D01*
X104320530Y-96818162D01*
X104313734Y-96797646D01*
X104306725Y-96767469D01*
X104302878Y-96738023D01*
X104301436Y-96706659D01*
X104301424Y-96703417D01*
X104301424Y-96407981D01*
X104408549Y-96407981D01*
X104408549Y-96703417D01*
X104410038Y-96732987D01*
X104415638Y-96763647D01*
X104421152Y-96780207D01*
X104434448Y-96807248D01*
X104451896Y-96831195D01*
X104453098Y-96832524D01*
X104476020Y-96853271D01*
X104495450Y-96865496D01*
X104523477Y-96877987D01*
X104539414Y-96883228D01*
X104568888Y-96889565D01*
X104576050Y-96890409D01*
X104597006Y-96891875D01*
X104785318Y-96891875D01*
X104785318Y-96407981D01*
X104892443Y-96407981D01*
X104892443Y-96945071D01*
G37*
G36*
X105184801Y-96999000D02*
G01*
X105077237Y-96999000D01*
X105077237Y-96515106D01*
X104980370Y-96515106D01*
X104980370Y-96407981D01*
X105184801Y-96407981D01*
X105184801Y-96999000D01*
G37*
D12*
%TO.C,A1*%
X98140000Y-81960000D02*
X98140000Y-79960000D01*
X98460000Y-77150000D02*
X98460000Y-122870000D01*
X118890000Y-74500000D02*
X101110000Y-74500000D01*
X118890000Y-125520000D02*
X101110000Y-125520000D01*
X121540000Y-77150000D02*
X121540000Y-122870000D01*
X98460000Y-77150000D02*
G75*
G02*
X101110000Y-74500000I2650000J0D01*
G01*
X101110000Y-125520000D02*
G75*
G02*
X98460000Y-122870000I0J2650000D01*
G01*
X118890000Y-74500000D02*
G75*
G02*
X121540000Y-77150000I0J-2650000D01*
G01*
X121540000Y-122870000D02*
G75*
G02*
X118890000Y-125520000I-2650000J0D01*
G01*
%TO.C,TP15*%
X119320000Y-68000000D02*
G75*
G02*
X115920000Y-68000000I-1700000J0D01*
G01*
X115920000Y-68000000D02*
G75*
G02*
X119320000Y-68000000I1700000J0D01*
G01*
%TO.C,TP14*%
X104080000Y-68000000D02*
G75*
G02*
X100680000Y-68000000I-1700000J0D01*
G01*
X100680000Y-68000000D02*
G75*
G02*
X104080000Y-68000000I1700000J0D01*
G01*
%TO.C,C10*%
X104990000Y-103359420D02*
X104990000Y-103640580D01*
X106010000Y-103359420D02*
X106010000Y-103640580D01*
%TO.C,R5*%
X112322936Y-84790000D02*
X116677064Y-84790000D01*
X112322936Y-88210000D02*
X116677064Y-88210000D01*
%TO.C,U3*%
X106190000Y-80000000D02*
X106190000Y-78050000D01*
X106190000Y-80000000D02*
X106190000Y-81950000D01*
X111310000Y-80000000D02*
X111310000Y-78050000D01*
X111310000Y-80000000D02*
X111310000Y-81950000D01*
X106285000Y-82700000D02*
X105955000Y-82940000D01*
X105955000Y-82460000D01*
X106285000Y-82700000D01*
G36*
X106285000Y-82700000D02*
G01*
X105955000Y-82940000D01*
X105955000Y-82460000D01*
X106285000Y-82700000D01*
G37*
%TO.C,R7*%
X97727500Y-132262742D02*
X97727500Y-132737258D01*
X98772500Y-132262742D02*
X98772500Y-132737258D01*
%TO.C,R8*%
X95727500Y-132225242D02*
X95727500Y-132699758D01*
X96772500Y-132225242D02*
X96772500Y-132699758D01*
%TO.C,TP8*%
X123450000Y-93750000D02*
G75*
G02*
X122050000Y-93750000I-700000J0D01*
G01*
X122050000Y-93750000D02*
G75*
G02*
X123450000Y-93750000I700000J0D01*
G01*
%TO.C,C11*%
X112740000Y-77890580D02*
X112740000Y-77609420D01*
X113760000Y-77890580D02*
X113760000Y-77609420D01*
%TO.C,L2*%
X119390000Y-81750000D02*
X119390000Y-77750000D01*
X123610000Y-77750000D02*
X123610000Y-81750000D01*
%TO.C,TP3*%
X123450000Y-106500000D02*
G75*
G02*
X122050000Y-106500000I-700000J0D01*
G01*
X122050000Y-106500000D02*
G75*
G02*
X123450000Y-106500000I700000J0D01*
G01*
%TO.C,TP4*%
X123450000Y-103750000D02*
G75*
G02*
X122050000Y-103750000I-700000J0D01*
G01*
X122050000Y-103750000D02*
G75*
G02*
X123450000Y-103750000I700000J0D01*
G01*
%TO.C,C8*%
X110590000Y-104961252D02*
X110590000Y-103538748D01*
X112410000Y-104961252D02*
X112410000Y-103538748D01*
%TO.C,TP9*%
X123450000Y-91250000D02*
G75*
G02*
X122050000Y-91250000I-700000J0D01*
G01*
X122050000Y-91250000D02*
G75*
G02*
X123450000Y-91250000I700000J0D01*
G01*
%TO.C,R3*%
X103512742Y-99272500D02*
X103987258Y-99272500D01*
X103512742Y-98227500D02*
X103987258Y-98227500D01*
%TO.C,U4*%
X104440000Y-114000000D02*
X104440000Y-112050000D01*
X104440000Y-114000000D02*
X104440000Y-115950000D01*
X109560000Y-114000000D02*
X109560000Y-112050000D01*
X109560000Y-114000000D02*
X109560000Y-115950000D01*
X104535000Y-116700000D02*
X104205000Y-116940000D01*
X104205000Y-116460000D01*
X104535000Y-116700000D01*
G36*
X104535000Y-116700000D02*
G01*
X104205000Y-116940000D01*
X104205000Y-116460000D01*
X104535000Y-116700000D01*
G37*
%TO.C,C3*%
X103490000Y-103359420D02*
X103490000Y-103640580D01*
X104510000Y-103359420D02*
X104510000Y-103640580D01*
%TO.C,TP11*%
X123450000Y-86750000D02*
G75*
G02*
X122050000Y-86750000I-700000J0D01*
G01*
X122050000Y-86750000D02*
G75*
G02*
X123450000Y-86750000I700000J0D01*
G01*
%TO.C,R12*%
X104487258Y-82477500D02*
X104012742Y-82477500D01*
X104487258Y-83522500D02*
X104012742Y-83522500D01*
%TO.C,TP1*%
X123450000Y-96250000D02*
G75*
G02*
X122050000Y-96250000I-700000J0D01*
G01*
X122050000Y-96250000D02*
G75*
G02*
X123450000Y-96250000I700000J0D01*
G01*
%TO.C,C1*%
X115211252Y-81390000D02*
X113788748Y-81390000D01*
X115211252Y-84110000D02*
X113788748Y-84110000D01*
%TO.C,Q1*%
X105180000Y-95695000D02*
X105180000Y-89805000D01*
X110320000Y-95695000D02*
X110320000Y-89805000D01*
X106078108Y-96655000D02*
X105598108Y-96655000D01*
X105838108Y-96325000D01*
X106078108Y-96655000D01*
G36*
X106078108Y-96655000D02*
G01*
X105598108Y-96655000D01*
X105838108Y-96325000D01*
X106078108Y-96655000D01*
G37*
%TO.C,R1*%
X107977500Y-103262742D02*
X107977500Y-103737258D01*
X109022500Y-103262742D02*
X109022500Y-103737258D01*
%TO.C,R14*%
X108237258Y-74977500D02*
X107762742Y-74977500D01*
X108237258Y-76022500D02*
X107762742Y-76022500D01*
%TO.C,RSR1*%
X110590000Y-100227064D02*
X110590000Y-98772936D01*
X112410000Y-100227064D02*
X112410000Y-98772936D01*
%TO.C,U2*%
X114190000Y-77750000D02*
X114190000Y-76950000D01*
X114190000Y-77750000D02*
X114190000Y-78550000D01*
X117310000Y-77750000D02*
X117310000Y-76950000D01*
X117310000Y-77750000D02*
X117310000Y-78550000D01*
X117590000Y-76690000D02*
X117260000Y-76450000D01*
X117590000Y-76210000D01*
X117590000Y-76690000D01*
G36*
X117590000Y-76690000D02*
G01*
X117260000Y-76450000D01*
X117590000Y-76210000D01*
X117590000Y-76690000D01*
G37*
%TO.C,R4*%
X103987258Y-99727500D02*
X103512742Y-99727500D01*
X103987258Y-100772500D02*
X103512742Y-100772500D01*
%TO.C,C14*%
X117990000Y-75890580D02*
X117990000Y-75609420D01*
X119010000Y-75890580D02*
X119010000Y-75609420D01*
%TO.C,TP6*%
X123450000Y-114010000D02*
G75*
G02*
X122050000Y-114010000I-700000J0D01*
G01*
X122050000Y-114010000D02*
G75*
G02*
X123450000Y-114010000I700000J0D01*
G01*
%TO.C,L1*%
D11*
X117800000Y-89750000D02*
X111200000Y-89750000D01*
X111200000Y-96750000D01*
X117800000Y-96750000D01*
X117800000Y-89750000D01*
D12*
%TO.C,R2*%
X106477500Y-103737258D02*
X106477500Y-103262742D01*
X107522500Y-103737258D02*
X107522500Y-103262742D01*
%TO.C,TP5*%
X123450000Y-101250000D02*
G75*
G02*
X122050000Y-101250000I-700000J0D01*
G01*
X122050000Y-101250000D02*
G75*
G02*
X123450000Y-101250000I700000J0D01*
G01*
%TO.C,TP7*%
X123450000Y-111250000D02*
G75*
G02*
X122050000Y-111250000I-700000J0D01*
G01*
X122050000Y-111250000D02*
G75*
G02*
X123450000Y-111250000I700000J0D01*
G01*
%TO.C,R13*%
X104012742Y-80977500D02*
X104487258Y-80977500D01*
X104012742Y-82022500D02*
X104487258Y-82022500D01*
%TO.C,TP13*%
X123450000Y-108750000D02*
G75*
G02*
X122050000Y-108750000I-700000J0D01*
G01*
X122050000Y-108750000D02*
G75*
G02*
X123450000Y-108750000I700000J0D01*
G01*
%TO.C,C12*%
X117990000Y-78890580D02*
X117990000Y-78609420D01*
X119010000Y-78890580D02*
X119010000Y-78609420D01*
%TO.C,C9*%
X113015000Y-104511252D02*
X113015000Y-103988748D01*
X114485000Y-104511252D02*
X114485000Y-103988748D01*
%TO.C,R15*%
X110227500Y-115737258D02*
X110227500Y-115262742D01*
X111272500Y-115737258D02*
X111272500Y-115262742D01*
%TO.C,R16*%
X111727500Y-115262742D02*
X111727500Y-115737258D01*
X112772500Y-115262742D02*
X112772500Y-115737258D01*
%TO.C,Q2*%
X109930000Y-118055000D02*
X109930000Y-123945000D01*
X115070000Y-118055000D02*
X115070000Y-123945000D01*
X114411892Y-117425000D02*
X114171892Y-117095000D01*
X114651892Y-117095000D01*
X114411892Y-117425000D01*
G36*
X114411892Y-117425000D02*
G01*
X114171892Y-117095000D01*
X114651892Y-117095000D01*
X114411892Y-117425000D01*
G37*
%TO.C,C7*%
X112990000Y-99359420D02*
X112990000Y-99640580D01*
X114010000Y-99359420D02*
X114010000Y-99640580D01*
%TO.C,C6*%
X102590000Y-93461252D02*
X102590000Y-92038748D01*
X104410000Y-93461252D02*
X104410000Y-92038748D01*
%TO.C,TP12*%
X123450000Y-84500000D02*
G75*
G02*
X122050000Y-84500000I-700000J0D01*
G01*
X122050000Y-84500000D02*
G75*
G02*
X123450000Y-84500000I700000J0D01*
G01*
%TO.C,TP2*%
X123450000Y-99000000D02*
G75*
G02*
X122050000Y-99000000I-700000J0D01*
G01*
X122050000Y-99000000D02*
G75*
G02*
X123450000Y-99000000I700000J0D01*
G01*
%TO.C,R11*%
X106737258Y-108477500D02*
X106262742Y-108477500D01*
X106737258Y-109522500D02*
X106262742Y-109522500D01*
%TO.C,C13*%
X119490000Y-75890580D02*
X119490000Y-75609420D01*
X120510000Y-75890580D02*
X120510000Y-75609420D01*
%TO.C,D1*%
X102940000Y-88625000D02*
X102940000Y-84375000D01*
X102940000Y-88625000D02*
X107750000Y-88625000D01*
X107750000Y-84375000D02*
X102940000Y-84375000D01*
%TO.C,U1*%
X105850000Y-100900000D02*
X105850000Y-100250000D01*
X106500000Y-97100000D02*
X105600000Y-97100000D01*
X106500000Y-100900000D02*
X105850000Y-100900000D01*
X109000000Y-97100000D02*
X109650000Y-97100000D01*
X109000000Y-100900000D02*
X109650000Y-100900000D01*
X109650000Y-97100000D02*
X109650000Y-97750000D01*
X109650000Y-100900000D02*
X109650000Y-100250000D01*
%TO.C,TP10*%
X123450000Y-89000000D02*
G75*
G02*
X122050000Y-89000000I-700000J0D01*
G01*
X122050000Y-89000000D02*
G75*
G02*
X123450000Y-89000000I700000J0D01*
G01*
%TD*%
M02*
