%TF.GenerationSoftware,KiCad,Pcbnew,8.0.0*%
%TF.CreationDate,2024-05-24T13:22:15-04:00*%
%TF.ProjectId,MPPT Charge Controller,4d505054-2043-4686-9172-676520436f6e,0.1*%
%TF.SameCoordinates,Original*%
%TF.FileFunction,Legend,Bot*%
%TF.FilePolarity,Positive*%
%FSLAX46Y46*%
G04 Gerber Fmt 4.6, Leading zero omitted, Abs format (unit mm)*
G04 Created by KiCad (PCBNEW 8.0.0) date 2024-05-24 13:22:15*
%MOMM*%
%LPD*%
G01*
G04 APERTURE LIST*
%ADD10C,0.100000*%
%ADD11C,0.150000*%
%ADD12C,0.000000*%
%ADD13C,0.120000*%
G04 APERTURE END LIST*
D10*
G36*
X122400218Y-71500279D02*
G01*
X122400218Y-71320272D01*
X121813546Y-71320272D01*
X122370664Y-71003489D01*
X122402904Y-70971004D01*
X122413895Y-70926064D01*
X122402904Y-70882344D01*
X122370664Y-70850348D01*
X121813546Y-70532344D01*
X122400218Y-70532344D01*
X122400218Y-70353803D01*
X121491390Y-70353803D01*
X121444088Y-70366670D01*
X121436435Y-70371877D01*
X121406515Y-70412535D01*
X121404195Y-70419748D01*
X121401753Y-70448569D01*
X121407859Y-70476413D01*
X121422269Y-70500837D01*
X121444739Y-70519399D01*
X122151578Y-70926064D01*
X121444739Y-71332728D01*
X121410599Y-71369433D01*
X121407615Y-71376203D01*
X121402282Y-71424928D01*
X121404195Y-71434333D01*
X121430696Y-71476915D01*
X121436435Y-71481716D01*
X121481869Y-71499825D01*
X121491390Y-71500279D01*
X122400218Y-71500279D01*
G37*
G36*
X121827224Y-72682658D02*
G01*
X121878341Y-72679760D01*
X121927507Y-72670221D01*
X121936645Y-72667515D01*
X121984406Y-72648393D01*
X122021397Y-72626482D01*
X122059290Y-72595081D01*
X122084167Y-72567131D01*
X122111843Y-72526073D01*
X122126910Y-72496789D01*
X122143930Y-72450612D01*
X122150846Y-72422540D01*
X122157678Y-72373235D01*
X122158417Y-72352198D01*
X122158417Y-71948220D01*
X121979876Y-71948220D01*
X121979876Y-72352198D01*
X121970227Y-72401833D01*
X121965709Y-72414235D01*
X121939877Y-72456978D01*
X121935179Y-72462107D01*
X121893788Y-72490986D01*
X121888773Y-72493126D01*
X121839881Y-72503730D01*
X121827224Y-72504117D01*
X121746135Y-72504117D01*
X121697132Y-72493920D01*
X121684586Y-72489462D01*
X121641550Y-72464244D01*
X121636470Y-72459665D01*
X121607391Y-72418958D01*
X121605207Y-72413991D01*
X121594131Y-72365012D01*
X121593728Y-72352198D01*
X121593728Y-71949685D01*
X121606942Y-71901682D01*
X121612290Y-71895464D01*
X121659374Y-71877064D01*
X121665779Y-71876901D01*
X122400218Y-71876901D01*
X122400218Y-71698115D01*
X121665779Y-71698115D01*
X121613402Y-71702267D01*
X121564568Y-71716025D01*
X121549031Y-71723272D01*
X121505617Y-71751482D01*
X121471606Y-71785799D01*
X121444755Y-71827364D01*
X121428619Y-71867131D01*
X121417403Y-71916927D01*
X121415186Y-71948220D01*
X121415186Y-72352198D01*
X121418131Y-72402647D01*
X121427824Y-72451512D01*
X121430573Y-72460642D01*
X121449886Y-72508525D01*
X121471850Y-72545394D01*
X121503252Y-72583330D01*
X121531201Y-72607920D01*
X121572346Y-72635478D01*
X121601788Y-72650662D01*
X121647869Y-72668103D01*
X121675793Y-72675087D01*
X121725098Y-72681919D01*
X121746135Y-72682658D01*
X121827224Y-72682658D01*
G37*
G36*
X121827224Y-73811060D02*
G01*
X121878341Y-73808162D01*
X121927507Y-73798623D01*
X121936645Y-73795917D01*
X121984406Y-73776795D01*
X122021397Y-73754884D01*
X122059290Y-73723483D01*
X122084167Y-73695533D01*
X122111843Y-73654475D01*
X122126910Y-73625191D01*
X122143930Y-73579014D01*
X122150846Y-73550942D01*
X122157678Y-73501637D01*
X122158417Y-73480600D01*
X122158417Y-73076622D01*
X121979876Y-73076622D01*
X121979876Y-73480600D01*
X121970227Y-73530235D01*
X121965709Y-73542637D01*
X121939877Y-73585380D01*
X121935179Y-73590509D01*
X121893788Y-73619388D01*
X121888773Y-73621528D01*
X121839881Y-73632132D01*
X121827224Y-73632519D01*
X121746135Y-73632519D01*
X121697132Y-73622322D01*
X121684586Y-73617864D01*
X121641550Y-73592646D01*
X121636470Y-73588066D01*
X121607391Y-73547360D01*
X121605207Y-73542393D01*
X121594131Y-73493414D01*
X121593728Y-73480600D01*
X121593728Y-73078087D01*
X121606942Y-73030084D01*
X121612290Y-73023866D01*
X121659374Y-73005466D01*
X121665779Y-73005303D01*
X122400218Y-73005303D01*
X122400218Y-72826517D01*
X121665779Y-72826517D01*
X121613402Y-72830669D01*
X121564568Y-72844427D01*
X121549031Y-72851674D01*
X121505617Y-72879884D01*
X121471606Y-72914200D01*
X121444755Y-72955766D01*
X121428619Y-72995533D01*
X121417403Y-73045329D01*
X121415186Y-73076622D01*
X121415186Y-73480600D01*
X121418131Y-73531049D01*
X121427824Y-73579914D01*
X121430573Y-73589043D01*
X121449886Y-73636927D01*
X121471850Y-73673796D01*
X121503252Y-73711732D01*
X121531201Y-73736322D01*
X121572346Y-73763880D01*
X121601788Y-73779064D01*
X121647869Y-73796505D01*
X121675793Y-73803489D01*
X121725098Y-73810321D01*
X121746135Y-73811060D01*
X121827224Y-73811060D01*
G37*
G36*
X121593728Y-74848115D02*
G01*
X121593728Y-74454396D01*
X122400218Y-74454396D01*
X122400218Y-74275854D01*
X121593728Y-74275854D01*
X121593728Y-73881646D01*
X121415186Y-73881646D01*
X121415186Y-74848115D01*
X121593728Y-74848115D01*
G37*
G36*
X122400218Y-76296475D02*
G01*
X122400218Y-75652163D01*
X122395066Y-75602475D01*
X122394356Y-75598918D01*
X122379943Y-75551217D01*
X122376282Y-75542498D01*
X122351364Y-75498864D01*
X122344286Y-75489253D01*
X122308687Y-75453141D01*
X122296903Y-75444312D01*
X122252335Y-75420262D01*
X122232423Y-75413049D01*
X122182696Y-75402974D01*
X122149380Y-75401325D01*
X121665779Y-75401325D01*
X121616306Y-75406477D01*
X121612779Y-75407187D01*
X121565078Y-75421600D01*
X121556358Y-75425261D01*
X121512725Y-75450340D01*
X121503114Y-75457501D01*
X121468309Y-75491939D01*
X121458173Y-75505373D01*
X121434024Y-75549814D01*
X121426910Y-75569609D01*
X121416835Y-75618915D01*
X121415186Y-75652163D01*
X121415186Y-76296475D01*
X121593728Y-76296475D01*
X121593728Y-75652163D01*
X121606942Y-75604636D01*
X121612290Y-75598429D01*
X121658425Y-75580397D01*
X121667245Y-75580111D01*
X122149380Y-75580111D01*
X122196540Y-75593500D01*
X122202869Y-75598918D01*
X122221511Y-75645843D01*
X122221676Y-75652163D01*
X122221676Y-76296475D01*
X122400218Y-76296475D01*
G37*
G36*
X122400218Y-77265631D02*
G01*
X122400218Y-77087090D01*
X121907580Y-77087090D01*
X121859361Y-77073252D01*
X121854579Y-77069016D01*
X121836422Y-77022056D01*
X121836261Y-77015526D01*
X121836261Y-76693370D01*
X121657719Y-76693370D01*
X121657719Y-77015526D01*
X121662871Y-77065515D01*
X121663581Y-77069016D01*
X121677929Y-77116478D01*
X121681655Y-77125191D01*
X121706573Y-77168825D01*
X121713651Y-77178436D01*
X121749250Y-77214250D01*
X121761034Y-77222889D01*
X121805475Y-77246714D01*
X121825270Y-77253907D01*
X121874481Y-77263982D01*
X121907580Y-77265631D01*
X122400218Y-77265631D01*
G37*
G36*
X122400218Y-76621318D02*
G01*
X122400218Y-76442533D01*
X121343623Y-76442533D01*
X121343623Y-76621318D01*
X122400218Y-76621318D01*
G37*
G36*
X122154265Y-78190334D02*
G01*
X122202961Y-78185182D01*
X122234377Y-78177145D01*
X122280727Y-78157405D01*
X122314000Y-78134891D01*
X122349617Y-78098909D01*
X122375549Y-78058688D01*
X122393255Y-78010216D01*
X122399832Y-77960914D01*
X122400218Y-77944382D01*
X122400218Y-77622226D01*
X122395161Y-77573530D01*
X122387273Y-77542114D01*
X122367412Y-77495883D01*
X122345019Y-77462491D01*
X122308915Y-77426873D01*
X122268815Y-77400942D01*
X122220168Y-77383235D01*
X122170801Y-77376658D01*
X122154265Y-77376273D01*
X122105474Y-77381330D01*
X122073909Y-77389218D01*
X122027361Y-77409079D01*
X121994042Y-77431472D01*
X121958303Y-77467576D01*
X121932492Y-77507676D01*
X121914611Y-77556323D01*
X121907969Y-77605690D01*
X121907580Y-77622226D01*
X121907580Y-77944382D01*
X122078061Y-77944382D01*
X122078061Y-77622226D01*
X122092895Y-77573891D01*
X122100532Y-77565806D01*
X122145689Y-77546505D01*
X122155730Y-77546022D01*
X122202328Y-77561178D01*
X122210197Y-77568981D01*
X122229259Y-77613983D01*
X122229736Y-77623691D01*
X122229736Y-77944382D01*
X122215225Y-77992555D01*
X122207754Y-78000558D01*
X122162835Y-78020097D01*
X122152799Y-78020586D01*
X121903672Y-78020586D01*
X121856193Y-78006235D01*
X121847984Y-77998848D01*
X121827548Y-77952446D01*
X121827224Y-77944382D01*
X121827224Y-77552128D01*
X121657719Y-77552128D01*
X121657719Y-77944382D01*
X121662871Y-77992982D01*
X121670908Y-78024249D01*
X121690649Y-78070600D01*
X121713162Y-78103872D01*
X121749145Y-78139612D01*
X121789366Y-78165422D01*
X121837838Y-78183303D01*
X121887140Y-78189945D01*
X121903672Y-78190334D01*
X122154265Y-78190334D01*
G37*
G36*
X121836261Y-78988032D02*
G01*
X121836261Y-78586008D01*
X121848354Y-78538641D01*
X121854579Y-78531053D01*
X121901179Y-78512896D01*
X121907580Y-78512735D01*
X122400218Y-78512735D01*
X122400218Y-78333949D01*
X121907580Y-78333949D01*
X121856411Y-78338082D01*
X121825270Y-78345673D01*
X121779271Y-78365487D01*
X121761034Y-78376936D01*
X121723940Y-78409542D01*
X121713651Y-78421877D01*
X121686575Y-78464766D01*
X121681655Y-78475122D01*
X121665504Y-78522629D01*
X121663581Y-78531542D01*
X121657771Y-78580127D01*
X121657719Y-78584787D01*
X121657719Y-78988032D01*
X121836261Y-78988032D01*
G37*
G36*
X122471781Y-79906140D02*
G01*
X122520501Y-79902431D01*
X122554335Y-79894417D01*
X122600774Y-79874718D01*
X122619059Y-79863398D01*
X122656153Y-79831112D01*
X122666442Y-79818702D01*
X122693357Y-79775812D01*
X122698194Y-79765457D01*
X122714519Y-79718187D01*
X122716512Y-79709281D01*
X122722322Y-79660094D01*
X122722374Y-79655303D01*
X122722374Y-79333147D01*
X122543832Y-79333147D01*
X122543832Y-79655303D01*
X122530617Y-79703500D01*
X122525270Y-79709525D01*
X122478186Y-79727198D01*
X122471781Y-79727355D01*
X121907580Y-79727355D01*
X121859361Y-79713704D01*
X121854579Y-79709525D01*
X121836547Y-79664111D01*
X121836261Y-79655303D01*
X121836261Y-79333147D01*
X121851782Y-79285916D01*
X121856533Y-79280879D01*
X121901902Y-79261995D01*
X121907580Y-79261828D01*
X122149380Y-79261828D01*
X122196907Y-79274869D01*
X122203114Y-79280146D01*
X122221386Y-79325907D01*
X122221676Y-79334612D01*
X122221676Y-79655303D01*
X122400218Y-79655303D01*
X122400218Y-79333147D01*
X122395066Y-79282943D01*
X122394356Y-79279413D01*
X122379943Y-79232189D01*
X122376282Y-79223482D01*
X122351364Y-79179923D01*
X122344286Y-79170237D01*
X122308687Y-79134274D01*
X122296903Y-79125540D01*
X122252335Y-79101940D01*
X122232423Y-79094766D01*
X122182696Y-79084691D01*
X122149380Y-79083042D01*
X121907580Y-79083042D01*
X121857591Y-79088194D01*
X121854090Y-79088904D01*
X121806866Y-79103317D01*
X121798159Y-79106978D01*
X121754525Y-79131895D01*
X121744914Y-79138974D01*
X121708951Y-79174656D01*
X121700218Y-79186357D01*
X121676518Y-79230798D01*
X121669443Y-79250593D01*
X121659368Y-79300014D01*
X121657719Y-79333147D01*
X121657719Y-79655303D01*
X121662534Y-79703951D01*
X121663581Y-79709281D01*
X121677929Y-79756808D01*
X121681655Y-79765457D01*
X121706573Y-79809090D01*
X121713651Y-79818702D01*
X121749250Y-79854748D01*
X121761034Y-79863398D01*
X121805475Y-79887223D01*
X121825270Y-79894417D01*
X121874481Y-79904492D01*
X121907580Y-79906140D01*
X122471781Y-79906140D01*
G37*
G36*
X121903672Y-80863328D02*
G01*
X121954707Y-80857648D01*
X121983539Y-80850139D01*
X122029967Y-80830398D01*
X122063407Y-80807885D01*
X122098955Y-80771903D01*
X122124712Y-80731681D01*
X122142418Y-80683210D01*
X122148995Y-80633908D01*
X122149380Y-80617376D01*
X122149380Y-80295219D01*
X121979876Y-80295219D01*
X121979876Y-80617376D01*
X121965203Y-80665549D01*
X121957649Y-80673551D01*
X121912254Y-80693090D01*
X121902206Y-80693579D01*
X121855212Y-80678907D01*
X121847252Y-80671353D01*
X121827537Y-80625165D01*
X121827224Y-80617376D01*
X121827224Y-80295219D01*
X121842058Y-80246885D01*
X121849694Y-80238799D01*
X121894851Y-80219499D01*
X121904893Y-80219016D01*
X122154265Y-80219016D01*
X122201892Y-80233688D01*
X122209952Y-80241242D01*
X122229253Y-80286637D01*
X122229736Y-80296685D01*
X122229736Y-80617376D01*
X122400218Y-80617376D01*
X122400218Y-80295219D01*
X122395161Y-80246523D01*
X122387273Y-80215108D01*
X122367412Y-80168877D01*
X122345019Y-80135484D01*
X122308915Y-80099867D01*
X122268815Y-80073935D01*
X122220168Y-80056229D01*
X122170801Y-80049652D01*
X122154265Y-80049267D01*
X121903672Y-80049267D01*
X121854976Y-80054323D01*
X121823560Y-80062212D01*
X121777209Y-80082073D01*
X121743937Y-80104466D01*
X121708198Y-80140639D01*
X121682388Y-80180914D01*
X121664681Y-80229507D01*
X121658105Y-80278741D01*
X121657719Y-80295219D01*
X121657719Y-80617376D01*
X121662871Y-80666072D01*
X121670908Y-80697487D01*
X121690649Y-80743838D01*
X121713162Y-80777110D01*
X121749145Y-80812850D01*
X121789366Y-80838660D01*
X121837838Y-80856366D01*
X121887140Y-80862943D01*
X121903672Y-80863328D01*
G37*
G36*
X122400218Y-82336113D02*
G01*
X122400218Y-81691800D01*
X122395066Y-81642112D01*
X122394356Y-81638555D01*
X122379943Y-81590854D01*
X122376282Y-81582135D01*
X122351364Y-81538501D01*
X122344286Y-81528890D01*
X122308687Y-81492778D01*
X122296903Y-81483949D01*
X122252335Y-81459899D01*
X122232423Y-81452686D01*
X122182696Y-81442611D01*
X122149380Y-81440963D01*
X121665779Y-81440963D01*
X121616306Y-81446115D01*
X121612779Y-81446824D01*
X121565078Y-81461237D01*
X121556358Y-81464898D01*
X121512725Y-81489977D01*
X121503114Y-81497138D01*
X121468309Y-81531577D01*
X121458173Y-81545010D01*
X121434024Y-81589451D01*
X121426910Y-81609246D01*
X121416835Y-81658552D01*
X121415186Y-81691800D01*
X121415186Y-82336113D01*
X121593728Y-82336113D01*
X121593728Y-81691800D01*
X121606942Y-81644273D01*
X121612290Y-81638066D01*
X121658425Y-81620035D01*
X121667245Y-81619748D01*
X122149380Y-81619748D01*
X122196540Y-81633137D01*
X122202869Y-81638555D01*
X122221511Y-81685480D01*
X122221676Y-81691800D01*
X122221676Y-82336113D01*
X122400218Y-82336113D01*
G37*
G36*
X122170532Y-82456161D02*
G01*
X122220615Y-82463507D01*
X122266617Y-82480704D01*
X122307403Y-82506972D01*
X122344286Y-82543230D01*
X122367180Y-82577191D01*
X122387273Y-82624563D01*
X122395161Y-82656574D01*
X122400218Y-82705652D01*
X122400218Y-83027808D01*
X122400166Y-83032599D01*
X122394356Y-83081786D01*
X122392369Y-83090692D01*
X122376282Y-83137962D01*
X122371362Y-83148317D01*
X122344286Y-83191207D01*
X122333997Y-83203617D01*
X122296903Y-83235903D01*
X122278642Y-83247223D01*
X122232423Y-83266922D01*
X122198376Y-83274936D01*
X122149380Y-83278646D01*
X121907580Y-83278646D01*
X121875971Y-83276429D01*
X121826003Y-83265212D01*
X121786236Y-83249077D01*
X121744670Y-83222226D01*
X121710293Y-83188032D01*
X121682388Y-83144556D01*
X121675281Y-83129019D01*
X121661791Y-83080186D01*
X121657719Y-83027808D01*
X121836261Y-83027808D01*
X121836417Y-83034255D01*
X121854090Y-83081297D01*
X121861455Y-83087606D01*
X121909045Y-83099860D01*
X122149380Y-83099860D01*
X122155829Y-83099703D01*
X122203114Y-83082030D01*
X122208461Y-83076005D01*
X122221676Y-83027808D01*
X122221676Y-82707117D01*
X122221386Y-82698412D01*
X122203114Y-82652651D01*
X122196907Y-82647374D01*
X122149380Y-82634333D01*
X121907580Y-82634333D01*
X121901179Y-82634494D01*
X121854579Y-82652651D01*
X121849302Y-82658875D01*
X121836261Y-82707117D01*
X121836261Y-83027808D01*
X121657719Y-83027808D01*
X121657719Y-82705652D01*
X121659896Y-82674359D01*
X121670908Y-82624563D01*
X121686747Y-82584796D01*
X121713651Y-82543230D01*
X121747967Y-82508914D01*
X121791320Y-82480704D01*
X121806716Y-82473457D01*
X121855283Y-82459699D01*
X121907580Y-82455547D01*
X122149380Y-82455547D01*
X122170532Y-82456161D01*
G37*
G36*
X122400218Y-84248290D02*
G01*
X122400218Y-84069504D01*
X121987936Y-84069504D01*
X121939530Y-84062772D01*
X121925165Y-84057536D01*
X121883917Y-84031081D01*
X121877538Y-84024808D01*
X121849782Y-83983294D01*
X121847007Y-83976448D01*
X121836639Y-83928299D01*
X121836261Y-83916364D01*
X121836261Y-83603733D01*
X122400218Y-83603733D01*
X122400218Y-83425191D01*
X121746135Y-83425191D01*
X121711697Y-83432030D01*
X121683365Y-83451325D01*
X121664558Y-83480146D01*
X121657719Y-83515317D01*
X121657719Y-83917829D01*
X121661631Y-83968174D01*
X121665291Y-83988904D01*
X121679225Y-84037635D01*
X121689715Y-84062909D01*
X121714101Y-84107579D01*
X121732213Y-84133007D01*
X121766628Y-84169987D01*
X121794739Y-84192114D01*
X121839588Y-84217840D01*
X121879492Y-84233147D01*
X121927284Y-84244016D01*
X121976731Y-84248157D01*
X121987936Y-84248290D01*
X122400218Y-84248290D01*
G37*
G36*
X121836261Y-85053070D02*
G01*
X121836261Y-84741172D01*
X122400218Y-84741172D01*
X122400218Y-84560432D01*
X121836261Y-84560432D01*
X121836261Y-84328401D01*
X121657719Y-84328401D01*
X121657719Y-84560432D01*
X121415186Y-84560432D01*
X121415186Y-84741172D01*
X121657719Y-84741172D01*
X121657719Y-85053070D01*
X121836261Y-85053070D01*
G37*
G36*
X121836261Y-85812177D02*
G01*
X121836261Y-85410153D01*
X121848354Y-85362786D01*
X121854579Y-85355198D01*
X121901179Y-85337041D01*
X121907580Y-85336880D01*
X122400218Y-85336880D01*
X122400218Y-85158094D01*
X121907580Y-85158094D01*
X121856411Y-85162227D01*
X121825270Y-85169818D01*
X121779271Y-85189632D01*
X121761034Y-85201081D01*
X121723940Y-85233688D01*
X121713651Y-85246022D01*
X121686575Y-85288911D01*
X121681655Y-85299267D01*
X121665504Y-85346775D01*
X121663581Y-85355687D01*
X121657771Y-85404272D01*
X121657719Y-85408932D01*
X121657719Y-85812177D01*
X121836261Y-85812177D01*
G37*
G36*
X122170532Y-85907801D02*
G01*
X122220615Y-85915147D01*
X122266617Y-85932344D01*
X122307403Y-85958612D01*
X122344286Y-85994870D01*
X122367180Y-86028831D01*
X122387273Y-86076203D01*
X122395161Y-86108214D01*
X122400218Y-86157292D01*
X122400218Y-86479448D01*
X122400166Y-86484239D01*
X122394356Y-86533426D01*
X122392369Y-86542332D01*
X122376282Y-86589602D01*
X122371362Y-86599957D01*
X122344286Y-86642847D01*
X122333997Y-86655257D01*
X122296903Y-86687543D01*
X122278642Y-86698863D01*
X122232423Y-86718562D01*
X122198376Y-86726576D01*
X122149380Y-86730286D01*
X121907580Y-86730286D01*
X121875971Y-86728069D01*
X121826003Y-86716852D01*
X121786236Y-86700716D01*
X121744670Y-86673866D01*
X121710293Y-86639672D01*
X121682388Y-86596196D01*
X121675281Y-86580659D01*
X121661791Y-86531826D01*
X121657719Y-86479448D01*
X121836261Y-86479448D01*
X121836417Y-86485895D01*
X121854090Y-86532937D01*
X121861455Y-86539246D01*
X121909045Y-86551500D01*
X122149380Y-86551500D01*
X122155829Y-86551343D01*
X122203114Y-86533670D01*
X122208461Y-86527645D01*
X122221676Y-86479448D01*
X122221676Y-86158757D01*
X122221386Y-86150052D01*
X122203114Y-86104291D01*
X122196907Y-86099014D01*
X122149380Y-86085973D01*
X121907580Y-86085973D01*
X121901179Y-86086134D01*
X121854579Y-86104291D01*
X121849302Y-86110515D01*
X121836261Y-86158757D01*
X121836261Y-86479448D01*
X121657719Y-86479448D01*
X121657719Y-86157292D01*
X121659896Y-86125999D01*
X121670908Y-86076203D01*
X121686747Y-86036436D01*
X121713651Y-85994870D01*
X121747967Y-85960554D01*
X121791320Y-85932344D01*
X121806716Y-85925097D01*
X121855283Y-85911339D01*
X121907580Y-85907187D01*
X122149380Y-85907187D01*
X122170532Y-85907801D01*
G37*
G36*
X122400218Y-87203140D02*
G01*
X122400218Y-87123517D01*
X122395161Y-87073275D01*
X122387273Y-87041207D01*
X122367180Y-86994075D01*
X122344286Y-86959874D01*
X122307403Y-86923494D01*
X122266617Y-86897348D01*
X122220615Y-86880484D01*
X122170532Y-86873281D01*
X122149380Y-86872679D01*
X121343623Y-86872679D01*
X121343623Y-87051465D01*
X122149380Y-87051465D01*
X122196985Y-87067173D01*
X122202137Y-87071981D01*
X122221504Y-87117793D01*
X122221676Y-87123517D01*
X122221676Y-87203140D01*
X122400218Y-87203140D01*
G37*
G36*
X122400218Y-87641800D02*
G01*
X122400218Y-87562177D01*
X122395161Y-87511935D01*
X122387273Y-87479867D01*
X122367180Y-87432735D01*
X122344286Y-87398534D01*
X122307403Y-87362154D01*
X122266617Y-87336008D01*
X122220615Y-87319145D01*
X122170532Y-87311942D01*
X122149380Y-87311339D01*
X121343623Y-87311339D01*
X121343623Y-87490125D01*
X122149380Y-87490125D01*
X122196985Y-87505833D01*
X122202137Y-87510642D01*
X122221504Y-87556453D01*
X122221676Y-87562177D01*
X122221676Y-87641800D01*
X122400218Y-87641800D01*
G37*
G36*
X121903672Y-88553070D02*
G01*
X121954707Y-88547390D01*
X121983539Y-88539881D01*
X122029967Y-88520140D01*
X122063407Y-88497627D01*
X122098955Y-88461644D01*
X122124712Y-88421423D01*
X122142418Y-88372951D01*
X122148995Y-88323650D01*
X122149380Y-88307117D01*
X122149380Y-87984961D01*
X121979876Y-87984961D01*
X121979876Y-88307117D01*
X121965203Y-88355291D01*
X121957649Y-88363293D01*
X121912254Y-88382832D01*
X121902206Y-88383321D01*
X121855212Y-88368649D01*
X121847252Y-88361095D01*
X121827537Y-88314906D01*
X121827224Y-88307117D01*
X121827224Y-87984961D01*
X121842058Y-87936627D01*
X121849694Y-87928541D01*
X121894851Y-87909240D01*
X121904893Y-87908757D01*
X122154265Y-87908757D01*
X122201892Y-87923430D01*
X122209952Y-87930983D01*
X122229253Y-87976379D01*
X122229736Y-87986427D01*
X122229736Y-88307117D01*
X122400218Y-88307117D01*
X122400218Y-87984961D01*
X122395161Y-87936265D01*
X122387273Y-87904849D01*
X122367412Y-87858619D01*
X122345019Y-87825226D01*
X122308915Y-87789609D01*
X122268815Y-87763677D01*
X122220168Y-87745971D01*
X122170801Y-87739394D01*
X122154265Y-87739009D01*
X121903672Y-87739009D01*
X121854976Y-87744065D01*
X121823560Y-87751953D01*
X121777209Y-87771814D01*
X121743937Y-87794207D01*
X121708198Y-87830380D01*
X121682388Y-87870655D01*
X121664681Y-87919249D01*
X121658105Y-87968482D01*
X121657719Y-87984961D01*
X121657719Y-88307117D01*
X121662871Y-88355813D01*
X121670908Y-88387229D01*
X121690649Y-88433580D01*
X121713162Y-88466852D01*
X121749145Y-88502591D01*
X121789366Y-88528401D01*
X121837838Y-88546108D01*
X121887140Y-88552685D01*
X121903672Y-88553070D01*
G37*
G36*
X121836261Y-89318527D02*
G01*
X121836261Y-88916503D01*
X121848354Y-88869136D01*
X121854579Y-88861549D01*
X121901179Y-88843391D01*
X121907580Y-88843230D01*
X122400218Y-88843230D01*
X122400218Y-88664445D01*
X121907580Y-88664445D01*
X121856411Y-88668578D01*
X121825270Y-88676168D01*
X121779271Y-88695983D01*
X121761034Y-88707431D01*
X121723940Y-88740038D01*
X121713651Y-88752372D01*
X121686575Y-88795262D01*
X121681655Y-88805617D01*
X121665504Y-88853125D01*
X121663581Y-88862037D01*
X121657771Y-88910622D01*
X121657719Y-88915282D01*
X121657719Y-89318527D01*
X121836261Y-89318527D01*
G37*
G36*
X123426135Y-71338101D02*
G01*
X123477253Y-71335203D01*
X123526418Y-71325665D01*
X123535556Y-71322958D01*
X123583439Y-71303836D01*
X123620308Y-71281926D01*
X123658201Y-71250524D01*
X123683079Y-71222575D01*
X123710841Y-71181634D01*
X123726065Y-71152233D01*
X123743506Y-71106055D01*
X123750490Y-71077983D01*
X123757322Y-71028678D01*
X123758061Y-71007641D01*
X124080218Y-71380600D01*
X124080218Y-71104605D01*
X123758061Y-70732135D01*
X123758061Y-70603663D01*
X123579520Y-70603663D01*
X123579520Y-71007641D01*
X123569872Y-71056728D01*
X123565354Y-71069190D01*
X123539521Y-71112120D01*
X123534823Y-71117306D01*
X123493432Y-71146427D01*
X123488417Y-71148569D01*
X123439041Y-71159173D01*
X123426135Y-71159560D01*
X123313539Y-71159560D01*
X123290580Y-71155652D01*
X123279101Y-71146127D01*
X123274460Y-71133670D01*
X123273728Y-71121702D01*
X123273728Y-70532344D01*
X124080218Y-70532344D01*
X124080218Y-70353803D01*
X123185067Y-70353803D01*
X123150141Y-70360642D01*
X123121320Y-70379448D01*
X123102025Y-70407780D01*
X123095186Y-70443684D01*
X123095186Y-71121702D01*
X123099347Y-71170462D01*
X123114291Y-71217372D01*
X123116924Y-71222575D01*
X123144659Y-71264065D01*
X123171146Y-71289497D01*
X123213850Y-71316135D01*
X123241488Y-71326622D01*
X123291233Y-71336980D01*
X123312318Y-71338101D01*
X123426135Y-71338101D01*
G37*
G36*
X123677705Y-72321423D02*
G01*
X123677705Y-71757466D01*
X123497698Y-71757466D01*
X123497698Y-72321423D01*
X123677705Y-72321423D01*
G37*
G36*
X124080218Y-72401779D02*
G01*
X124080218Y-71757466D01*
X124075161Y-71708389D01*
X124067273Y-71676378D01*
X124047180Y-71628928D01*
X124024286Y-71594801D01*
X123987403Y-71558542D01*
X123946617Y-71532274D01*
X123900615Y-71515244D01*
X123850532Y-71507970D01*
X123829380Y-71507362D01*
X123185067Y-71507362D01*
X123150141Y-71514200D01*
X123121320Y-71533007D01*
X123102025Y-71561584D01*
X123095186Y-71597243D01*
X123095186Y-72401779D01*
X123273728Y-72401779D01*
X123273728Y-71685903D01*
X123829380Y-71685903D01*
X123876907Y-71699118D01*
X123883114Y-71704466D01*
X123901386Y-71750040D01*
X123901676Y-71758688D01*
X123901676Y-72401779D01*
X124080218Y-72401779D01*
G37*
G36*
X123095186Y-73554361D02*
G01*
X124045291Y-73087857D01*
X124080462Y-73055129D01*
X124093895Y-73007501D01*
X124080462Y-72960362D01*
X124045291Y-72927145D01*
X123095186Y-72461374D01*
X123095186Y-72661165D01*
X123804712Y-73007501D01*
X123095186Y-73355059D01*
X123095186Y-73554361D01*
G37*
G36*
X123990336Y-73790300D02*
G01*
X124025019Y-73782972D01*
X124053107Y-73763921D01*
X124071913Y-73735589D01*
X124078752Y-73701639D01*
X124071913Y-73666957D01*
X124053107Y-73638869D01*
X124025019Y-73620062D01*
X123990336Y-73613224D01*
X123956142Y-73620062D01*
X123928054Y-73638869D01*
X123909003Y-73666957D01*
X123901676Y-73701639D01*
X123909003Y-73735589D01*
X123928054Y-73763921D01*
X123956142Y-73782972D01*
X123990336Y-73790300D01*
G37*
G36*
X123427601Y-73790300D02*
G01*
X123462283Y-73782972D01*
X123490615Y-73763921D01*
X123509422Y-73735589D01*
X123516261Y-73701639D01*
X123509422Y-73666957D01*
X123490615Y-73638869D01*
X123462283Y-73620062D01*
X123427601Y-73613224D01*
X123393651Y-73620062D01*
X123365563Y-73638869D01*
X123346268Y-73666957D01*
X123338940Y-73701639D01*
X123346268Y-73735589D01*
X123365563Y-73763921D01*
X123393651Y-73782972D01*
X123427601Y-73790300D01*
G37*
G36*
X123766121Y-74192812D02*
G01*
X123798605Y-74206489D01*
X123828159Y-74238729D01*
X123838417Y-74280739D01*
X123834998Y-74306140D01*
X123822541Y-74330321D01*
X123500385Y-74812456D01*
X123475472Y-74838101D01*
X123443721Y-74851535D01*
X123409527Y-74851535D01*
X123376798Y-74837857D01*
X123352130Y-74812700D01*
X123338940Y-74781193D01*
X123338940Y-74746755D01*
X123352862Y-74714270D01*
X123675019Y-74230669D01*
X123700176Y-74205024D01*
X123731683Y-74192323D01*
X123766121Y-74192812D01*
G37*
G36*
X123682976Y-73949298D02*
G01*
X123733993Y-73953926D01*
X123782485Y-73964445D01*
X123789201Y-73966417D01*
X123837562Y-73984309D01*
X123882381Y-74007676D01*
X123888084Y-74011197D01*
X123928549Y-74040224D01*
X123964935Y-74073866D01*
X123969442Y-74078717D01*
X124000569Y-74116867D01*
X124026973Y-74158129D01*
X124030132Y-74163861D01*
X124050912Y-74208312D01*
X124066540Y-74255338D01*
X124068196Y-74261790D01*
X124077212Y-74310852D01*
X124080218Y-74361095D01*
X124080218Y-74683251D01*
X124080164Y-74689959D01*
X124076357Y-74739654D01*
X124066540Y-74788276D01*
X124064754Y-74794695D01*
X124048439Y-74841378D01*
X124026973Y-74885484D01*
X124023725Y-74891195D01*
X123996691Y-74932135D01*
X123964935Y-74969748D01*
X123960319Y-74974531D01*
X123923389Y-75007786D01*
X123882381Y-75036427D01*
X123876610Y-75039888D01*
X123831319Y-75062686D01*
X123782485Y-75079902D01*
X123768888Y-75083565D01*
X123719674Y-75092541D01*
X123667936Y-75095533D01*
X123507224Y-75095533D01*
X123492241Y-75095289D01*
X123441364Y-75090587D01*
X123392918Y-75079902D01*
X123386202Y-75077929D01*
X123337842Y-75059968D01*
X123293023Y-75036427D01*
X123287291Y-75032875D01*
X123246733Y-75003619D01*
X123210469Y-74969748D01*
X123205962Y-74964925D01*
X123174835Y-74926869D01*
X123148431Y-74885484D01*
X123145243Y-74879752D01*
X123124370Y-74835302D01*
X123108864Y-74788276D01*
X123107207Y-74781855D01*
X123098191Y-74733090D01*
X123095186Y-74683251D01*
X123273728Y-74683251D01*
X123276406Y-74722802D01*
X123289603Y-74771179D01*
X123306727Y-74805974D01*
X123336987Y-74844940D01*
X123368628Y-74872146D01*
X123411236Y-74896231D01*
X123456849Y-74910703D01*
X123507224Y-74915526D01*
X123667936Y-74915526D01*
X123714021Y-74911877D01*
X123761969Y-74898918D01*
X123794762Y-74883324D01*
X123835730Y-74852267D01*
X123860134Y-74823336D01*
X123884090Y-74778995D01*
X123897280Y-74733688D01*
X123901676Y-74683251D01*
X123901676Y-74361095D01*
X123899045Y-74321618D01*
X123886044Y-74272923D01*
X123868847Y-74237821D01*
X123838906Y-74198185D01*
X123809594Y-74172453D01*
X123764900Y-74146650D01*
X123719043Y-74132362D01*
X123667936Y-74127599D01*
X123507224Y-74127599D01*
X123459278Y-74131892D01*
X123410259Y-74147138D01*
X123374529Y-74166713D01*
X123336010Y-74199162D01*
X123311887Y-74229623D01*
X123289115Y-74274145D01*
X123278236Y-74311584D01*
X123273728Y-74361095D01*
X123273728Y-74683251D01*
X123095186Y-74683251D01*
X123095186Y-74361095D01*
X123095305Y-74350985D01*
X123099479Y-74301206D01*
X123109616Y-74252715D01*
X123125716Y-74205512D01*
X123129627Y-74196268D01*
X123152015Y-74152080D01*
X123179125Y-74111280D01*
X123210957Y-74073866D01*
X123217848Y-74066842D01*
X123254795Y-74034413D01*
X123295892Y-74006468D01*
X123341139Y-73983007D01*
X123355423Y-73976940D01*
X123404958Y-73961026D01*
X123457451Y-73951743D01*
X123507224Y-73949057D01*
X123667936Y-73949057D01*
X123682976Y-73949298D01*
G37*
G36*
X123990336Y-75386182D02*
G01*
X124025019Y-75378855D01*
X124053107Y-75359804D01*
X124071913Y-75331716D01*
X124078752Y-75297766D01*
X124071913Y-75263084D01*
X124053107Y-75234752D01*
X124025019Y-75215945D01*
X123990336Y-75209106D01*
X123956142Y-75215945D01*
X123928054Y-75234752D01*
X123909003Y-75263084D01*
X123901676Y-75297766D01*
X123909003Y-75331716D01*
X123928054Y-75359804D01*
X123956142Y-75378855D01*
X123990336Y-75386182D01*
G37*
G36*
X124080218Y-75807745D02*
G01*
X124080218Y-75628471D01*
X123273728Y-75628471D01*
X123273728Y-75467027D01*
X123095186Y-75467027D01*
X123095186Y-75807745D01*
X124080218Y-75807745D01*
G37*
D11*
G36*
X97918000Y-129983251D02*
G01*
X97918000Y-130504954D01*
X97921851Y-130544514D01*
X97922689Y-130548917D01*
X97934110Y-130586632D01*
X97937734Y-130595226D01*
X97957307Y-130629873D01*
X97964113Y-130639190D01*
X97992286Y-130667913D01*
X98003387Y-130676314D01*
X98038507Y-130695566D01*
X98056729Y-130702302D01*
X98095381Y-130710296D01*
X98124922Y-130711876D01*
X98511803Y-130711876D01*
X98551202Y-130708025D01*
X98555571Y-130707187D01*
X98593286Y-130695766D01*
X98601879Y-130692141D01*
X98636593Y-130672449D01*
X98645843Y-130665568D01*
X98674566Y-130637028D01*
X98682968Y-130625903D01*
X98702304Y-130590968D01*
X98708956Y-130572951D01*
X98716950Y-130534463D01*
X98718530Y-130504954D01*
X98718530Y-129983251D01*
X98563191Y-129983251D01*
X98563191Y-130504954D01*
X98550905Y-130542628D01*
X98550100Y-130543446D01*
X98512278Y-130556330D01*
X98510630Y-130556342D01*
X98124922Y-130556342D01*
X98087467Y-130544056D01*
X98086625Y-130543251D01*
X98073338Y-130504954D01*
X98073338Y-129983251D01*
X97918000Y-129983251D01*
G37*
G36*
X97918000Y-129207926D02*
G01*
X97918000Y-129363265D01*
X98318362Y-129363265D01*
X98355658Y-129375001D01*
X98356464Y-129375770D01*
X98369165Y-129414263D01*
X98369165Y-129678240D01*
X98524503Y-129678240D01*
X98524503Y-129414263D01*
X98520652Y-129374443D01*
X98519814Y-129370104D01*
X98508453Y-129332577D01*
X98504769Y-129323991D01*
X98485196Y-129289277D01*
X98478390Y-129280027D01*
X98450217Y-129251341D01*
X98439116Y-129243097D01*
X98404089Y-129224291D01*
X98385969Y-129217696D01*
X98347713Y-129209539D01*
X98318362Y-129207926D01*
X97918000Y-129207926D01*
G37*
G36*
X97918000Y-129723377D02*
G01*
X97918000Y-129878910D01*
X98775780Y-129878910D01*
X98775780Y-129723377D01*
X97918000Y-129723377D01*
G37*
G36*
X98121014Y-128468164D02*
G01*
X98080836Y-128472362D01*
X98054971Y-128478910D01*
X98018828Y-128494134D01*
X97989318Y-128513886D01*
X97961475Y-128541632D01*
X97939808Y-128574387D01*
X97938516Y-128576803D01*
X97924491Y-128614005D01*
X97918500Y-128654243D01*
X97918000Y-128671178D01*
X97918000Y-128928903D01*
X97922197Y-128969081D01*
X97928746Y-128994947D01*
X97943914Y-129030992D01*
X97963526Y-129060599D01*
X97991419Y-129088443D01*
X98024223Y-129110110D01*
X98026639Y-129111402D01*
X98063841Y-129125427D01*
X98104078Y-129131417D01*
X98121014Y-129131918D01*
X98161268Y-129127720D01*
X98187253Y-129121171D01*
X98223548Y-129106003D01*
X98253101Y-129086391D01*
X98281091Y-129058499D01*
X98302807Y-129025695D01*
X98304099Y-129023279D01*
X98318123Y-128986077D01*
X98324114Y-128945839D01*
X98324615Y-128928903D01*
X98324615Y-128664926D01*
X98175725Y-128664926D01*
X98175725Y-128928903D01*
X98162566Y-128966765D01*
X98159702Y-128969545D01*
X98122814Y-128983559D01*
X98119842Y-128983614D01*
X98082564Y-128969188D01*
X98080763Y-128967201D01*
X98066944Y-128930587D01*
X98066890Y-128927731D01*
X98066890Y-128671178D01*
X98079728Y-128633478D01*
X98082521Y-128630732D01*
X98119215Y-128616524D01*
X98122187Y-128616468D01*
X98321489Y-128616468D01*
X98358702Y-128629146D01*
X98361545Y-128631904D01*
X98376336Y-128668231D01*
X98376394Y-128671178D01*
X98376394Y-128991234D01*
X98524503Y-128991234D01*
X98524503Y-128671178D01*
X98520305Y-128631077D01*
X98513757Y-128605331D01*
X98498533Y-128569188D01*
X98478781Y-128539678D01*
X98451035Y-128511688D01*
X98418280Y-128489972D01*
X98415864Y-128488680D01*
X98378662Y-128474655D01*
X98338424Y-128468665D01*
X98321489Y-128468164D01*
X98121014Y-128468164D01*
G37*
G36*
X98369165Y-127830006D02*
G01*
X98369165Y-128157878D01*
X98358002Y-128195682D01*
X98356464Y-128197347D01*
X98318362Y-128210243D01*
X97918000Y-128210243D01*
X97918000Y-128365777D01*
X98318362Y-128365777D01*
X98358314Y-128362748D01*
X98385969Y-128356203D01*
X98422433Y-128340603D01*
X98439116Y-128330215D01*
X98468727Y-128304480D01*
X98478390Y-128293090D01*
X98500033Y-128259230D01*
X98504769Y-128249322D01*
X98517856Y-128211597D01*
X98519814Y-128202818D01*
X98524430Y-128163987D01*
X98524503Y-128158855D01*
X98524503Y-127830006D01*
X98369165Y-127830006D01*
G37*
G36*
X97867002Y-127095519D02*
G01*
X97826926Y-127098610D01*
X97799004Y-127105289D01*
X97762367Y-127120632D01*
X97745662Y-127130885D01*
X97714924Y-127157593D01*
X97706387Y-127167815D01*
X97684744Y-127201861D01*
X97680009Y-127211779D01*
X97667110Y-127249255D01*
X97665159Y-127258087D01*
X97660351Y-127297175D01*
X97660274Y-127302441D01*
X97660274Y-127566419D01*
X97815613Y-127566419D01*
X97815613Y-127302441D01*
X97827899Y-127264353D01*
X97828704Y-127263558D01*
X97867002Y-127251053D01*
X98318362Y-127251053D01*
X98355658Y-127262789D01*
X98356464Y-127263558D01*
X98369152Y-127300795D01*
X98369165Y-127302441D01*
X98369165Y-127560167D01*
X98354706Y-127597487D01*
X98318362Y-127610969D01*
X98124922Y-127610969D01*
X98087064Y-127598866D01*
X98086234Y-127598073D01*
X98073351Y-127560618D01*
X98073338Y-127558994D01*
X98073338Y-127296189D01*
X97918000Y-127296189D01*
X97918000Y-127560167D01*
X97921851Y-127599987D01*
X97922689Y-127604326D01*
X97934110Y-127641852D01*
X97937734Y-127650439D01*
X97957307Y-127684900D01*
X97964113Y-127694207D01*
X97992286Y-127723003D01*
X98003387Y-127731332D01*
X98038507Y-127750231D01*
X98056729Y-127756929D01*
X98095381Y-127764923D01*
X98124922Y-127766503D01*
X98318362Y-127766503D01*
X98358022Y-127762651D01*
X98362326Y-127761813D01*
X98399852Y-127750393D01*
X98408439Y-127746768D01*
X98443153Y-127727195D01*
X98452403Y-127720390D01*
X98481016Y-127692143D01*
X98489332Y-127681116D01*
X98508315Y-127646088D01*
X98514929Y-127627968D01*
X98522923Y-127589549D01*
X98524503Y-127560167D01*
X98524503Y-127302441D01*
X98520652Y-127262461D01*
X98519814Y-127258087D01*
X98508453Y-127220184D01*
X98504769Y-127211583D01*
X98485196Y-127177055D01*
X98478390Y-127167815D01*
X98450217Y-127139128D01*
X98439116Y-127130885D01*
X98404089Y-127111902D01*
X98385969Y-127105289D01*
X98347713Y-127097131D01*
X98318362Y-127095519D01*
X97867002Y-127095519D01*
G37*
G36*
X98634120Y-126823725D02*
G01*
X98634120Y-126979259D01*
X98775780Y-126979259D01*
X98775780Y-126823725D01*
X98634120Y-126823725D01*
G37*
G36*
X97918000Y-126823725D02*
G01*
X97918000Y-126979259D01*
X98524503Y-126979259D01*
X98524503Y-126823725D01*
X97918000Y-126823725D01*
G37*
G36*
X97918000Y-126029839D02*
G01*
X97918000Y-126185372D01*
X98254078Y-126185372D01*
X98293648Y-126191435D01*
X98301754Y-126194556D01*
X98335028Y-126216303D01*
X98337902Y-126219176D01*
X98359394Y-126252001D01*
X98360958Y-126255910D01*
X98369037Y-126295532D01*
X98369165Y-126301632D01*
X98369165Y-126545484D01*
X97918000Y-126545484D01*
X97918000Y-126700822D01*
X98447518Y-126700822D01*
X98477609Y-126694961D01*
X98502228Y-126678157D01*
X98518446Y-126652951D01*
X98524503Y-126622469D01*
X98524503Y-126300460D01*
X98521548Y-126261192D01*
X98518251Y-126242428D01*
X98507702Y-126204310D01*
X98498516Y-126181660D01*
X98479587Y-126146960D01*
X98463540Y-126124409D01*
X98436894Y-126095613D01*
X98412152Y-126075952D01*
X98377533Y-126055859D01*
X98342591Y-126042344D01*
X98303582Y-126033368D01*
X98263222Y-126029948D01*
X98254078Y-126029839D01*
X97918000Y-126029839D01*
G37*
G36*
X97867002Y-125262721D02*
G01*
X97826926Y-125265812D01*
X97799004Y-125272490D01*
X97762367Y-125287834D01*
X97745662Y-125298087D01*
X97714924Y-125324795D01*
X97706387Y-125335016D01*
X97684744Y-125369063D01*
X97680009Y-125378980D01*
X97667110Y-125416457D01*
X97665159Y-125425289D01*
X97660351Y-125464377D01*
X97660274Y-125469643D01*
X97660274Y-125733621D01*
X97815613Y-125733621D01*
X97815613Y-125469643D01*
X97827899Y-125431555D01*
X97828704Y-125430760D01*
X97867002Y-125418254D01*
X98318362Y-125418254D01*
X98355658Y-125429990D01*
X98356464Y-125430760D01*
X98369152Y-125467996D01*
X98369165Y-125469643D01*
X98369165Y-125727368D01*
X98354706Y-125764689D01*
X98318362Y-125778171D01*
X98124922Y-125778171D01*
X98087064Y-125766068D01*
X98086234Y-125765275D01*
X98073351Y-125727819D01*
X98073338Y-125726196D01*
X98073338Y-125463391D01*
X97918000Y-125463391D01*
X97918000Y-125727368D01*
X97921851Y-125767188D01*
X97922689Y-125771527D01*
X97934110Y-125809054D01*
X97937734Y-125817640D01*
X97957307Y-125852101D01*
X97964113Y-125861409D01*
X97992286Y-125890205D01*
X98003387Y-125898534D01*
X98038507Y-125917433D01*
X98056729Y-125924130D01*
X98095381Y-125932124D01*
X98124922Y-125933705D01*
X98318362Y-125933705D01*
X98358022Y-125929853D01*
X98362326Y-125929015D01*
X98399852Y-125917594D01*
X98408439Y-125913970D01*
X98443153Y-125894397D01*
X98452403Y-125887592D01*
X98481016Y-125859345D01*
X98489332Y-125848317D01*
X98508315Y-125813290D01*
X98514929Y-125795170D01*
X98522923Y-125756751D01*
X98524503Y-125727368D01*
X98524503Y-125469643D01*
X98520652Y-125429663D01*
X98519814Y-125425289D01*
X98508453Y-125387385D01*
X98504769Y-125378785D01*
X98485196Y-125344257D01*
X98478390Y-125335016D01*
X98450217Y-125306330D01*
X98439116Y-125298087D01*
X98404089Y-125279104D01*
X98385969Y-125272490D01*
X98347713Y-125264333D01*
X98318362Y-125262721D01*
X97867002Y-125262721D01*
G37*
G36*
X105967313Y-138848661D02*
G01*
X105502079Y-138848661D01*
X105494068Y-138848270D01*
X105486447Y-138845926D01*
X105480781Y-138838696D01*
X105478045Y-138823455D01*
X105478045Y-138797077D01*
X105483592Y-138757318D01*
X105486447Y-138749205D01*
X105507845Y-138715133D01*
X105509699Y-138713253D01*
X105543577Y-138691225D01*
X105546238Y-138690196D01*
X105586073Y-138682190D01*
X105594305Y-138681990D01*
X105922567Y-138681990D01*
X105922567Y-138525479D01*
X105658590Y-138525479D01*
X105618702Y-138520190D01*
X105610523Y-138517468D01*
X105576862Y-138497137D01*
X105573984Y-138494411D01*
X105551956Y-138460877D01*
X105550928Y-138458263D01*
X105543112Y-138418480D01*
X105542916Y-138410196D01*
X105542916Y-138383427D01*
X105566364Y-138358808D01*
X105967313Y-138358808D01*
X105967313Y-138848661D01*
G37*
G36*
X108708484Y-139350614D02*
G01*
X101144802Y-139350614D01*
X101144802Y-138397496D01*
X101233691Y-138397496D01*
X101233691Y-139054997D01*
X101236782Y-139095073D01*
X101243461Y-139122995D01*
X101258804Y-139159632D01*
X101269057Y-139176337D01*
X101295765Y-139207075D01*
X101305987Y-139215612D01*
X101340033Y-139237255D01*
X101349951Y-139241990D01*
X101387169Y-139254889D01*
X101395868Y-139256840D01*
X101434764Y-139261648D01*
X101440027Y-139261725D01*
X101704005Y-139261725D01*
X101704005Y-139106386D01*
X101440027Y-139106386D01*
X101402525Y-139094100D01*
X101401730Y-139093295D01*
X101389225Y-139054997D01*
X101389225Y-139004000D01*
X101433775Y-139004000D01*
X101697752Y-139004000D01*
X101737020Y-139000211D01*
X101765554Y-138993253D01*
X101802278Y-138977919D01*
X101832574Y-138957886D01*
X101861004Y-138929408D01*
X101882866Y-138896054D01*
X101884158Y-138893602D01*
X101898183Y-138855700D01*
X101904174Y-138814477D01*
X101904675Y-138797077D01*
X101904675Y-138397496D01*
X101979316Y-138397496D01*
X101979316Y-138552834D01*
X102307187Y-138552834D01*
X102344991Y-138563997D01*
X102346657Y-138565535D01*
X102359553Y-138603637D01*
X102359553Y-139004000D01*
X102515087Y-139004000D01*
X102515087Y-138603637D01*
X102514850Y-138600510D01*
X102591681Y-138600510D01*
X102595879Y-138640520D01*
X102602428Y-138666358D01*
X102617651Y-138702556D01*
X102637403Y-138732206D01*
X102665149Y-138760050D01*
X102697905Y-138781717D01*
X102700320Y-138783009D01*
X102737522Y-138796900D01*
X102777760Y-138802833D01*
X102794696Y-138803330D01*
X103058674Y-138803330D01*
X103058674Y-138655221D01*
X102794696Y-138655221D01*
X102756995Y-138642222D01*
X102754249Y-138639394D01*
X102740041Y-138602311D01*
X102739985Y-138599338D01*
X102753896Y-138561671D01*
X102755812Y-138559868D01*
X102793262Y-138545618D01*
X102794696Y-138545605D01*
X103052421Y-138545605D01*
X103090282Y-138558763D01*
X103093063Y-138561627D01*
X103107076Y-138598515D01*
X103107131Y-138601487D01*
X103107131Y-138800985D01*
X103094133Y-138838265D01*
X103091304Y-138841041D01*
X103054221Y-138855054D01*
X103051249Y-138855109D01*
X102788443Y-138855109D01*
X102788443Y-139004000D01*
X103052421Y-139004000D01*
X103092599Y-138999802D01*
X103118464Y-138993253D01*
X103154510Y-138978085D01*
X103184117Y-138958473D01*
X103211960Y-138930580D01*
X103233627Y-138897776D01*
X103234919Y-138895360D01*
X103248944Y-138858158D01*
X103254935Y-138817921D01*
X103255436Y-138800985D01*
X103255436Y-138600510D01*
X103251238Y-138560332D01*
X103249340Y-138552834D01*
X103318939Y-138552834D01*
X103568457Y-138552834D01*
X103568457Y-139004000D01*
X103725554Y-139004000D01*
X103725554Y-138552834D01*
X103911179Y-138552834D01*
X103949671Y-138552834D01*
X104199190Y-138552834D01*
X104199190Y-139004000D01*
X104356287Y-139004000D01*
X104356287Y-138800985D01*
X104605805Y-138800985D01*
X104610003Y-138841163D01*
X104616552Y-138867028D01*
X104631775Y-138903171D01*
X104651528Y-138932681D01*
X104679274Y-138960524D01*
X104712029Y-138982191D01*
X104714445Y-138983483D01*
X104751647Y-138997508D01*
X104791884Y-139003499D01*
X104808820Y-139004000D01*
X105066545Y-139004000D01*
X105106723Y-138999802D01*
X105132588Y-138993253D01*
X105168634Y-138978085D01*
X105198241Y-138958473D01*
X105226085Y-138930580D01*
X105247752Y-138897776D01*
X105249043Y-138895360D01*
X105263068Y-138858158D01*
X105268060Y-138824628D01*
X105322707Y-138824628D01*
X105327140Y-138864088D01*
X105332086Y-138883246D01*
X105348374Y-138920478D01*
X105362763Y-138941278D01*
X105390865Y-138968611D01*
X105418450Y-138986023D01*
X105456454Y-138999505D01*
X105495959Y-139003929D01*
X105502079Y-139004000D01*
X106044298Y-139004000D01*
X106075366Y-138998138D01*
X106100181Y-138981529D01*
X106116789Y-138956714D01*
X106122651Y-138925842D01*
X106122651Y-138281627D01*
X106116789Y-138251341D01*
X106100181Y-138226135D01*
X106075366Y-138209526D01*
X106044298Y-138203469D01*
X106531221Y-138203469D01*
X106908722Y-138972541D01*
X106934917Y-139001919D01*
X106937250Y-139003413D01*
X106975856Y-139014897D01*
X106978674Y-139014942D01*
X107017153Y-139004809D01*
X107018519Y-139004000D01*
X107467159Y-139004000D01*
X108203405Y-139004000D01*
X108203405Y-138733378D01*
X108199553Y-138693398D01*
X108198715Y-138689024D01*
X108187295Y-138651180D01*
X108183670Y-138642520D01*
X108164097Y-138607620D01*
X108157292Y-138598361D01*
X108129045Y-138569455D01*
X108118018Y-138561041D01*
X108083082Y-138541881D01*
X108065066Y-138535249D01*
X108026578Y-138527091D01*
X107997068Y-138525479D01*
X107675059Y-138525479D01*
X107637154Y-138513560D01*
X107636371Y-138512778D01*
X107624061Y-138474481D01*
X107624061Y-138411369D01*
X107635223Y-138373564D01*
X107636761Y-138371899D01*
X107673886Y-138358808D01*
X108139120Y-138358808D01*
X108139120Y-138203469D01*
X108334514Y-138203469D01*
X108334514Y-139004000D01*
X108490439Y-139004000D01*
X108490439Y-138358808D01*
X108619595Y-138358808D01*
X108619595Y-138203469D01*
X108334514Y-138203469D01*
X108139120Y-138203469D01*
X107673886Y-138203469D01*
X107634408Y-138206499D01*
X107606866Y-138213043D01*
X107570401Y-138228555D01*
X107553719Y-138239031D01*
X107524007Y-138264766D01*
X107514249Y-138276156D01*
X107492115Y-138310135D01*
X107487285Y-138320120D01*
X107474009Y-138357656D01*
X107472044Y-138366428D01*
X107467202Y-138406359D01*
X107467159Y-138410196D01*
X107467159Y-138474481D01*
X107470072Y-138514918D01*
X107479801Y-138553082D01*
X107487871Y-138571201D01*
X107509607Y-138604844D01*
X107537902Y-138633725D01*
X107539846Y-138635290D01*
X107574234Y-138657644D01*
X107606866Y-138671048D01*
X107645767Y-138679895D01*
X107673886Y-138681990D01*
X107997068Y-138681990D01*
X108022470Y-138686288D01*
X108036343Y-138697621D01*
X108043963Y-138714621D01*
X108048066Y-138733965D01*
X108048066Y-138848661D01*
X107467159Y-138848661D01*
X107467159Y-139004000D01*
X107018519Y-139004000D01*
X107019511Y-139003413D01*
X107047126Y-138975100D01*
X107048429Y-138972736D01*
X107425540Y-138203469D01*
X107251835Y-138203469D01*
X106978674Y-138763078D01*
X106704535Y-138203469D01*
X106531221Y-138203469D01*
X106044298Y-138203469D01*
X105566364Y-138203469D01*
X105526903Y-138207995D01*
X105507745Y-138213043D01*
X105470346Y-138229667D01*
X105449518Y-138244111D01*
X105421869Y-138272214D01*
X105404382Y-138299799D01*
X105390900Y-138337803D01*
X105386476Y-138377307D01*
X105386406Y-138383427D01*
X105386406Y-138410196D01*
X105389630Y-138450545D01*
X105398508Y-138491034D01*
X105399302Y-138493825D01*
X105412867Y-138530861D01*
X105432465Y-138566227D01*
X105437013Y-138572764D01*
X105405543Y-138597046D01*
X105396175Y-138605981D01*
X105369893Y-138636964D01*
X105358073Y-138655612D01*
X105341063Y-138691642D01*
X105332281Y-138719310D01*
X105324811Y-138758872D01*
X105322707Y-138797077D01*
X105322707Y-138823455D01*
X105322707Y-138824628D01*
X105268060Y-138824628D01*
X105269059Y-138817921D01*
X105269560Y-138800985D01*
X105265362Y-138760731D01*
X105258813Y-138734746D01*
X105243645Y-138698451D01*
X105224033Y-138668898D01*
X105196140Y-138640908D01*
X105163336Y-138619192D01*
X105160921Y-138617900D01*
X105123719Y-138603876D01*
X105083481Y-138597885D01*
X105066545Y-138597384D01*
X104802567Y-138597384D01*
X104802567Y-138746274D01*
X105066545Y-138746274D01*
X105104406Y-138759433D01*
X105107187Y-138762297D01*
X105121201Y-138799185D01*
X105121255Y-138802157D01*
X105106830Y-138839435D01*
X105104842Y-138841236D01*
X105068229Y-138855055D01*
X105065373Y-138855109D01*
X104808820Y-138855109D01*
X104771119Y-138842271D01*
X104768373Y-138839478D01*
X104754165Y-138802784D01*
X104754110Y-138799812D01*
X104754110Y-138600510D01*
X104766787Y-138563297D01*
X104769546Y-138560454D01*
X104805873Y-138545663D01*
X104808820Y-138545605D01*
X105128876Y-138545605D01*
X105128876Y-138397496D01*
X104808820Y-138397496D01*
X104768718Y-138401694D01*
X104742972Y-138408242D01*
X104706829Y-138423466D01*
X104677320Y-138443218D01*
X104649329Y-138470964D01*
X104627614Y-138503719D01*
X104626322Y-138506135D01*
X104612297Y-138543337D01*
X104606306Y-138583575D01*
X104605805Y-138600510D01*
X104605805Y-138800985D01*
X104356287Y-138800985D01*
X104356287Y-138552834D01*
X104541911Y-138552834D01*
X104541911Y-138397496D01*
X104356287Y-138397496D01*
X104356287Y-138203469D01*
X104199190Y-138203469D01*
X104199190Y-138397496D01*
X103949671Y-138397496D01*
X103949671Y-138552834D01*
X103911179Y-138552834D01*
X103911179Y-138397496D01*
X103725554Y-138397496D01*
X103725554Y-138203469D01*
X103568457Y-138203469D01*
X103568457Y-138397496D01*
X103318939Y-138397496D01*
X103318939Y-138552834D01*
X103249340Y-138552834D01*
X103244689Y-138534467D01*
X103229521Y-138498324D01*
X103209909Y-138468815D01*
X103182016Y-138440873D01*
X103149212Y-138419292D01*
X103146796Y-138418012D01*
X103109498Y-138403987D01*
X103069305Y-138397997D01*
X103052421Y-138397496D01*
X102794696Y-138397496D01*
X102754518Y-138401694D01*
X102728653Y-138408242D01*
X102692510Y-138423466D01*
X102663000Y-138443218D01*
X102635059Y-138470964D01*
X102613478Y-138503719D01*
X102612198Y-138506135D01*
X102598173Y-138543337D01*
X102592182Y-138583575D01*
X102591681Y-138600510D01*
X102514850Y-138600510D01*
X102512057Y-138563685D01*
X102505512Y-138536030D01*
X102489913Y-138499566D01*
X102479525Y-138482883D01*
X102453789Y-138453272D01*
X102442400Y-138443609D01*
X102408540Y-138421966D01*
X102398632Y-138417230D01*
X102360907Y-138404143D01*
X102352128Y-138402185D01*
X102313296Y-138397569D01*
X102308164Y-138397496D01*
X101979316Y-138397496D01*
X101904675Y-138397496D01*
X101749141Y-138397496D01*
X101749141Y-138797077D01*
X101737038Y-138834935D01*
X101736245Y-138835765D01*
X101698423Y-138848648D01*
X101696775Y-138848661D01*
X101433775Y-138848661D01*
X101433775Y-139004000D01*
X101389225Y-139004000D01*
X101389225Y-138397496D01*
X101233691Y-138397496D01*
X101144802Y-138397496D01*
X101144802Y-137330174D01*
X102871485Y-137330174D01*
X103064926Y-137330174D01*
X103064926Y-137523614D01*
X103205610Y-137523614D01*
X103205610Y-137330174D01*
X103399636Y-137330174D01*
X103399636Y-137189099D01*
X106406559Y-137189099D01*
X106406559Y-137330174D01*
X106934514Y-137330174D01*
X106934514Y-137189099D01*
X106406559Y-137189099D01*
X103399636Y-137189099D01*
X103205610Y-137189099D01*
X103205610Y-136995659D01*
X103064926Y-136995659D01*
X103064926Y-137189099D01*
X102871485Y-137189099D01*
X102871485Y-137330174D01*
X101144802Y-137330174D01*
X101144802Y-136906770D01*
X108708484Y-136906770D01*
X108708484Y-139350614D01*
G37*
G36*
X114356026Y-138564753D02*
G01*
X114356845Y-138565535D01*
X114369741Y-138603637D01*
X114369741Y-138797077D01*
X114357638Y-138834935D01*
X114356845Y-138835765D01*
X114319389Y-138848648D01*
X114317766Y-138848661D01*
X114061213Y-138848661D01*
X114023125Y-138836558D01*
X114022330Y-138835765D01*
X114009837Y-138798665D01*
X114009825Y-138797077D01*
X114009825Y-138604809D01*
X114021159Y-138566959D01*
X114022721Y-138565339D01*
X114061213Y-138552834D01*
X114317766Y-138552834D01*
X114356026Y-138564753D01*
G37*
G36*
X117908707Y-139103831D02*
G01*
X112264774Y-139103831D01*
X112264774Y-138146219D01*
X112353663Y-138146219D01*
X112353663Y-138797077D01*
X112356754Y-138837311D01*
X112363432Y-138865270D01*
X112378692Y-138901907D01*
X112388834Y-138918612D01*
X112415542Y-138949350D01*
X112425763Y-138957886D01*
X112459809Y-138979530D01*
X112469727Y-138984265D01*
X112507392Y-138997293D01*
X112516231Y-138999310D01*
X112555319Y-139003926D01*
X112560585Y-139004000D01*
X112818310Y-139004000D01*
X112858324Y-139000970D01*
X112886112Y-138994425D01*
X112922405Y-138978826D01*
X112939064Y-138968438D01*
X112968776Y-138942702D01*
X112978534Y-138931313D01*
X113000177Y-138897453D01*
X113004912Y-138887545D01*
X113017940Y-138849820D01*
X113019957Y-138841041D01*
X113024601Y-138800985D01*
X113123712Y-138800985D01*
X113127909Y-138841163D01*
X113134458Y-138867028D01*
X113149682Y-138903171D01*
X113169434Y-138932681D01*
X113197180Y-138960524D01*
X113229935Y-138982191D01*
X113232351Y-138983483D01*
X113269553Y-138997508D01*
X113309790Y-139003499D01*
X113326726Y-139004000D01*
X113584451Y-139004000D01*
X113624629Y-138999802D01*
X113650495Y-138993253D01*
X113686540Y-138978085D01*
X113716147Y-138958473D01*
X113743991Y-138930580D01*
X113765658Y-138897776D01*
X113766950Y-138895360D01*
X113780974Y-138858158D01*
X113786965Y-138817921D01*
X113787466Y-138800985D01*
X113787058Y-138797077D01*
X113854291Y-138797077D01*
X113857382Y-138837311D01*
X113864060Y-138865270D01*
X113879404Y-138901907D01*
X113889657Y-138918612D01*
X113916365Y-138949350D01*
X113926587Y-138957886D01*
X113960633Y-138979530D01*
X113970550Y-138984265D01*
X114008027Y-138997293D01*
X114016859Y-138999310D01*
X114055947Y-139003926D01*
X114061213Y-139004000D01*
X114318938Y-139004000D01*
X114585456Y-139004000D01*
X115243544Y-139004000D01*
X115274612Y-138998138D01*
X115299427Y-138981529D01*
X115315840Y-138956714D01*
X115321702Y-138925842D01*
X115321702Y-138203469D01*
X115731444Y-138203469D01*
X116108945Y-138972541D01*
X116135140Y-139001919D01*
X116137473Y-139003413D01*
X116176079Y-139014897D01*
X116178897Y-139014942D01*
X116217376Y-139004809D01*
X116218742Y-139004000D01*
X116667382Y-139004000D01*
X117403628Y-139004000D01*
X117403628Y-138733378D01*
X117399776Y-138693398D01*
X117398938Y-138689024D01*
X117387518Y-138651180D01*
X117383893Y-138642520D01*
X117364320Y-138607620D01*
X117357515Y-138598361D01*
X117329268Y-138569455D01*
X117318241Y-138561041D01*
X117283305Y-138541881D01*
X117265289Y-138535249D01*
X117226801Y-138527091D01*
X117197291Y-138525479D01*
X116875282Y-138525479D01*
X116837377Y-138513560D01*
X116836594Y-138512778D01*
X116824284Y-138474481D01*
X116824284Y-138411369D01*
X116835446Y-138373564D01*
X116836984Y-138371899D01*
X116874109Y-138358808D01*
X117339343Y-138358808D01*
X117339343Y-138203469D01*
X117534737Y-138203469D01*
X117534737Y-139004000D01*
X117690662Y-139004000D01*
X117690662Y-138358808D01*
X117819818Y-138358808D01*
X117819818Y-138203469D01*
X117534737Y-138203469D01*
X117339343Y-138203469D01*
X116874109Y-138203469D01*
X116834631Y-138206499D01*
X116807089Y-138213043D01*
X116770624Y-138228555D01*
X116753942Y-138239031D01*
X116724230Y-138264766D01*
X116714472Y-138276156D01*
X116692338Y-138310135D01*
X116687508Y-138320120D01*
X116674232Y-138357656D01*
X116672267Y-138366428D01*
X116667425Y-138406359D01*
X116667382Y-138410196D01*
X116667382Y-138474481D01*
X116670295Y-138514918D01*
X116680024Y-138553082D01*
X116688094Y-138571201D01*
X116709830Y-138604844D01*
X116738125Y-138633725D01*
X116740069Y-138635290D01*
X116774457Y-138657644D01*
X116807089Y-138671048D01*
X116845990Y-138679895D01*
X116874109Y-138681990D01*
X117197291Y-138681990D01*
X117222693Y-138686288D01*
X117236566Y-138697621D01*
X117244186Y-138714621D01*
X117248289Y-138733965D01*
X117248289Y-138848661D01*
X116667382Y-138848661D01*
X116667382Y-139004000D01*
X116218742Y-139004000D01*
X116219734Y-139003413D01*
X116247349Y-138975100D01*
X116248652Y-138972736D01*
X116625763Y-138203469D01*
X116452058Y-138203469D01*
X116178897Y-138763078D01*
X115904758Y-138203469D01*
X115731444Y-138203469D01*
X115321702Y-138203469D01*
X115166363Y-138203469D01*
X115166363Y-138848661D01*
X114585456Y-138848661D01*
X114585456Y-139004000D01*
X114318938Y-139004000D01*
X114359422Y-138999802D01*
X114385763Y-138993253D01*
X114422681Y-138977919D01*
X114452783Y-138957886D01*
X114481164Y-138929408D01*
X114503247Y-138896054D01*
X114504563Y-138893602D01*
X114518721Y-138855700D01*
X114524769Y-138814477D01*
X114525275Y-138797077D01*
X114525275Y-138603637D01*
X114522362Y-138563675D01*
X114512633Y-138525779D01*
X114504563Y-138507698D01*
X114482773Y-138473958D01*
X114454703Y-138445162D01*
X114452783Y-138443609D01*
X114418493Y-138421366D01*
X114385763Y-138408242D01*
X114346828Y-138399553D01*
X114318938Y-138397496D01*
X114061213Y-138397496D01*
X114021225Y-138400381D01*
X113983237Y-138410018D01*
X113965079Y-138418012D01*
X113931102Y-138439424D01*
X113902336Y-138467470D01*
X113900795Y-138469401D01*
X113878649Y-138503691D01*
X113865428Y-138536421D01*
X113856423Y-138575480D01*
X113854291Y-138603637D01*
X113854291Y-138797077D01*
X113787058Y-138797077D01*
X113783268Y-138760731D01*
X113776719Y-138734746D01*
X113761551Y-138698451D01*
X113741939Y-138668898D01*
X113714047Y-138640908D01*
X113681243Y-138619192D01*
X113678827Y-138617900D01*
X113641625Y-138603876D01*
X113601387Y-138597885D01*
X113584451Y-138597384D01*
X113320474Y-138597384D01*
X113320474Y-138746274D01*
X113584451Y-138746274D01*
X113622312Y-138759433D01*
X113625093Y-138762297D01*
X113639107Y-138799185D01*
X113639162Y-138802157D01*
X113624736Y-138839435D01*
X113622749Y-138841236D01*
X113586135Y-138855055D01*
X113583279Y-138855109D01*
X113326726Y-138855109D01*
X113289026Y-138842271D01*
X113286280Y-138839478D01*
X113272072Y-138802784D01*
X113272016Y-138799812D01*
X113272016Y-138600510D01*
X113284693Y-138563297D01*
X113287452Y-138560454D01*
X113323779Y-138545663D01*
X113326726Y-138545605D01*
X113646782Y-138545605D01*
X113646782Y-138397496D01*
X113326726Y-138397496D01*
X113286625Y-138401694D01*
X113260878Y-138408242D01*
X113224735Y-138423466D01*
X113195226Y-138443218D01*
X113167236Y-138470964D01*
X113145520Y-138503719D01*
X113144228Y-138506135D01*
X113130203Y-138543337D01*
X113124212Y-138583575D01*
X113123712Y-138600510D01*
X113123712Y-138800985D01*
X113024601Y-138800985D01*
X113024605Y-138800950D01*
X113024647Y-138797077D01*
X113024647Y-138603637D01*
X113021734Y-138563675D01*
X113012005Y-138525779D01*
X113003935Y-138507698D01*
X112982145Y-138473958D01*
X112954075Y-138445162D01*
X112952155Y-138443609D01*
X112917865Y-138421366D01*
X112885135Y-138408242D01*
X112846200Y-138399553D01*
X112818310Y-138397496D01*
X112554333Y-138397496D01*
X112554333Y-138552834D01*
X112817138Y-138552834D01*
X112855386Y-138564753D01*
X112856217Y-138565535D01*
X112869113Y-138603637D01*
X112869113Y-138796100D01*
X112857950Y-138834076D01*
X112856412Y-138835765D01*
X112818310Y-138848661D01*
X112560585Y-138848661D01*
X112522497Y-138836558D01*
X112521702Y-138835765D01*
X112509014Y-138798665D01*
X112509001Y-138797077D01*
X112509001Y-138146219D01*
X112353663Y-138146219D01*
X112264774Y-138146219D01*
X112264774Y-137330174D01*
X113031485Y-137330174D01*
X113224926Y-137330174D01*
X113224926Y-137523614D01*
X113365610Y-137523614D01*
X113365610Y-137330174D01*
X113559636Y-137330174D01*
X113559636Y-137189099D01*
X116566559Y-137189099D01*
X116566559Y-137330174D01*
X117094514Y-137330174D01*
X117094514Y-137189099D01*
X116566559Y-137189099D01*
X113559636Y-137189099D01*
X113365610Y-137189099D01*
X113365610Y-136995659D01*
X113224926Y-136995659D01*
X113224926Y-137189099D01*
X113031485Y-137189099D01*
X113031485Y-137330174D01*
X112264774Y-137330174D01*
X112264774Y-136906770D01*
X117908707Y-136906770D01*
X117908707Y-139103831D01*
G37*
G36*
X96396146Y-129716344D02*
G01*
X96435532Y-129719719D01*
X96477335Y-129728218D01*
X96517078Y-129741716D01*
X96524753Y-129744967D01*
X96561088Y-129763514D01*
X96594026Y-129785878D01*
X96623568Y-129812058D01*
X96629061Y-129817717D01*
X96654260Y-129847980D01*
X96675681Y-129881525D01*
X96693324Y-129918352D01*
X96697829Y-129929985D01*
X96709644Y-129970102D01*
X96716536Y-130012280D01*
X96718530Y-130052002D01*
X96718530Y-130437710D01*
X96712473Y-130468778D01*
X96695864Y-130493593D01*
X96670658Y-130510201D01*
X96640372Y-130516063D01*
X95996157Y-130516063D01*
X95965285Y-130510201D01*
X95940470Y-130493593D01*
X95923861Y-130468778D01*
X95918000Y-130437710D01*
X95918000Y-130360725D01*
X96073338Y-130360725D01*
X96563191Y-130360725D01*
X96563191Y-130052002D01*
X96560686Y-130017899D01*
X96550100Y-129978338D01*
X96537848Y-129952897D01*
X96513561Y-129921283D01*
X96492833Y-129903721D01*
X96456506Y-129884549D01*
X96423636Y-129875152D01*
X96382647Y-129871458D01*
X96254078Y-129871458D01*
X96219536Y-129873963D01*
X96179632Y-129884549D01*
X96154224Y-129896833D01*
X96122773Y-129921283D01*
X96105431Y-129942199D01*
X96086234Y-129978338D01*
X96076978Y-130010970D01*
X96073338Y-130052002D01*
X96073338Y-130360725D01*
X95918000Y-130360725D01*
X95918000Y-130052002D01*
X95918221Y-130038576D01*
X95921544Y-129999410D01*
X95929913Y-129957851D01*
X95943205Y-129918352D01*
X95946432Y-129910724D01*
X95964830Y-129874553D01*
X95987007Y-129841665D01*
X96012961Y-129812058D01*
X96018596Y-129806516D01*
X96048764Y-129781100D01*
X96082252Y-129759500D01*
X96119060Y-129741716D01*
X96130739Y-129737141D01*
X96171130Y-129725143D01*
X96213774Y-129718144D01*
X96254078Y-129716119D01*
X96382647Y-129716119D01*
X96396146Y-129716344D01*
G37*
G36*
X96346519Y-128952696D02*
G01*
X96385578Y-128961702D01*
X96418308Y-128974922D01*
X96452598Y-128997068D01*
X96454529Y-128998610D01*
X96482575Y-129027375D01*
X96503987Y-129061353D01*
X96511981Y-129079510D01*
X96521618Y-129117498D01*
X96524503Y-129157487D01*
X96524503Y-129415212D01*
X96522446Y-129443101D01*
X96513757Y-129482037D01*
X96500633Y-129514766D01*
X96478390Y-129549057D01*
X96476837Y-129550977D01*
X96448041Y-129579046D01*
X96414301Y-129600837D01*
X96396220Y-129608907D01*
X96358324Y-129618636D01*
X96318362Y-129621548D01*
X96124922Y-129621548D01*
X96107522Y-129621043D01*
X96066299Y-129614995D01*
X96028397Y-129600837D01*
X96025945Y-129599520D01*
X95992591Y-129577438D01*
X95964113Y-129549057D01*
X95944080Y-129518955D01*
X95928746Y-129482037D01*
X95922197Y-129455695D01*
X95918000Y-129415212D01*
X95918000Y-129414040D01*
X96073338Y-129414040D01*
X96073351Y-129415663D01*
X96086234Y-129453118D01*
X96087064Y-129453912D01*
X96124922Y-129466014D01*
X96318362Y-129466014D01*
X96356464Y-129453118D01*
X96357246Y-129452299D01*
X96369165Y-129414040D01*
X96369165Y-129157487D01*
X96356660Y-129118994D01*
X96355040Y-129117433D01*
X96317190Y-129106098D01*
X96124922Y-129106098D01*
X96123334Y-129106110D01*
X96086234Y-129118603D01*
X96085441Y-129119399D01*
X96073338Y-129157487D01*
X96073338Y-129414040D01*
X95918000Y-129414040D01*
X95918000Y-129157487D01*
X95918073Y-129152220D01*
X95922689Y-129113132D01*
X95924706Y-129104301D01*
X95937734Y-129066824D01*
X95942469Y-129056906D01*
X95964113Y-129022860D01*
X95972649Y-129012639D01*
X96003387Y-128985931D01*
X96020092Y-128975677D01*
X96056729Y-128960334D01*
X96084688Y-128953656D01*
X96124922Y-128950564D01*
X96318362Y-128950564D01*
X96346519Y-128952696D01*
G37*
G36*
X95918000Y-128174849D02*
G01*
X95918000Y-128330383D01*
X96254078Y-128330383D01*
X96293648Y-128336445D01*
X96301754Y-128339566D01*
X96335028Y-128361314D01*
X96337902Y-128364186D01*
X96359394Y-128397012D01*
X96360958Y-128400920D01*
X96369037Y-128440543D01*
X96369165Y-128446643D01*
X96369165Y-128690495D01*
X95918000Y-128690495D01*
X95918000Y-128845833D01*
X96447518Y-128845833D01*
X96477609Y-128839971D01*
X96502228Y-128823167D01*
X96518446Y-128797961D01*
X96524503Y-128767480D01*
X96524503Y-128445470D01*
X96521548Y-128406203D01*
X96518251Y-128387438D01*
X96507702Y-128349321D01*
X96498516Y-128326670D01*
X96479587Y-128291971D01*
X96463540Y-128269420D01*
X96436894Y-128240624D01*
X96412152Y-128220962D01*
X96377533Y-128200870D01*
X96342591Y-128187354D01*
X96303582Y-128178378D01*
X96263222Y-128174959D01*
X96254078Y-128174849D01*
X95918000Y-128174849D01*
G37*
G36*
X96321489Y-127414961D02*
G01*
X96281479Y-127419159D01*
X96255641Y-127425707D01*
X96219443Y-127440931D01*
X96189793Y-127460683D01*
X96161949Y-127488429D01*
X96140282Y-127521184D01*
X96138990Y-127523600D01*
X96125099Y-127560802D01*
X96119166Y-127601040D01*
X96118669Y-127617975D01*
X96118669Y-127881953D01*
X96266778Y-127881953D01*
X96266778Y-127617975D01*
X96279777Y-127580275D01*
X96282605Y-127577529D01*
X96319688Y-127563321D01*
X96322661Y-127563265D01*
X96360328Y-127577175D01*
X96362131Y-127579092D01*
X96376381Y-127616541D01*
X96376394Y-127617975D01*
X96376394Y-127875700D01*
X96363236Y-127913561D01*
X96360372Y-127916342D01*
X96323484Y-127930356D01*
X96320512Y-127930411D01*
X96121014Y-127930411D01*
X96083734Y-127917412D01*
X96080958Y-127914584D01*
X96066945Y-127877501D01*
X96066890Y-127874528D01*
X96066890Y-127611723D01*
X95918000Y-127611723D01*
X95918000Y-127875700D01*
X95922197Y-127915878D01*
X95928746Y-127941744D01*
X95943914Y-127977789D01*
X95963526Y-128007396D01*
X95991419Y-128035240D01*
X96024223Y-128056907D01*
X96026639Y-128058199D01*
X96063841Y-128072224D01*
X96104078Y-128078214D01*
X96121014Y-128078715D01*
X96321489Y-128078715D01*
X96361667Y-128074517D01*
X96387532Y-128067968D01*
X96423675Y-128052800D01*
X96453184Y-128033188D01*
X96481126Y-128005296D01*
X96502707Y-127972492D01*
X96503987Y-127970076D01*
X96518012Y-127932778D01*
X96524002Y-127892585D01*
X96524503Y-127875700D01*
X96524503Y-127617975D01*
X96520305Y-127577797D01*
X96513757Y-127551932D01*
X96498533Y-127515789D01*
X96478781Y-127486280D01*
X96451035Y-127458338D01*
X96418280Y-127436757D01*
X96415864Y-127435477D01*
X96378662Y-127421452D01*
X96338424Y-127415462D01*
X96321489Y-127414961D01*
G37*
G36*
X107649014Y-61486439D02*
G01*
X107649797Y-61487221D01*
X107662303Y-61525518D01*
X107662303Y-61588630D01*
X107650796Y-61626435D01*
X107649211Y-61628100D01*
X107610914Y-61641191D01*
X107418646Y-61641191D01*
X107380741Y-61628905D01*
X107379958Y-61628100D01*
X107367648Y-61589803D01*
X107367648Y-61525518D01*
X107379567Y-61487625D01*
X107380349Y-61486830D01*
X107417474Y-61474520D01*
X107610914Y-61474520D01*
X107649014Y-61486439D01*
G37*
G36*
X107713496Y-61165797D02*
G01*
X107726196Y-61202922D01*
X107726196Y-61266621D01*
X107713727Y-61303881D01*
X107712910Y-61304722D01*
X107676371Y-61318009D01*
X107353189Y-61318009D01*
X107315868Y-61303355D01*
X107302191Y-61266621D01*
X107302191Y-61202922D01*
X107315577Y-61166100D01*
X107316455Y-61165211D01*
X107353189Y-61151338D01*
X107676371Y-61151338D01*
X107713496Y-61165797D01*
G37*
G36*
X110551584Y-61163441D02*
G01*
X110552379Y-61164234D01*
X110564872Y-61201334D01*
X110564885Y-61202922D01*
X110564885Y-61395190D01*
X110553550Y-61433040D01*
X110551989Y-61434660D01*
X110513496Y-61447165D01*
X110256943Y-61447165D01*
X110218683Y-61435246D01*
X110217864Y-61434464D01*
X110204968Y-61396362D01*
X110204968Y-61202922D01*
X110217071Y-61165064D01*
X110217864Y-61164234D01*
X110255320Y-61151351D01*
X110256943Y-61151338D01*
X110513496Y-61151338D01*
X110551584Y-61163441D01*
G37*
G36*
X116156272Y-63093229D02*
G01*
X103903127Y-63093229D01*
X103903127Y-62669825D01*
X107985485Y-62669825D01*
X107985485Y-62810900D01*
X108513440Y-62810900D01*
X111520363Y-62810900D01*
X111714389Y-62810900D01*
X111714389Y-63004340D01*
X111855073Y-63004340D01*
X111855073Y-62810900D01*
X112048514Y-62810900D01*
X112048514Y-62669825D01*
X111855073Y-62669825D01*
X111855073Y-62476385D01*
X111714389Y-62476385D01*
X111714389Y-62669825D01*
X111520363Y-62669825D01*
X111520363Y-62810900D01*
X108513440Y-62810900D01*
X108513440Y-62669825D01*
X107985485Y-62669825D01*
X103903127Y-62669825D01*
X103903127Y-61853780D01*
X110821828Y-61853780D01*
X110977362Y-61853780D01*
X110977362Y-61202922D01*
X110978802Y-61199014D01*
X111138171Y-61199014D01*
X111142369Y-61239268D01*
X111148918Y-61265253D01*
X111164086Y-61301548D01*
X111183698Y-61331101D01*
X111211591Y-61359091D01*
X111244395Y-61380807D01*
X111246811Y-61382099D01*
X111284013Y-61396123D01*
X111324250Y-61402114D01*
X111341186Y-61402615D01*
X111605164Y-61402615D01*
X111605164Y-61253725D01*
X111341186Y-61253725D01*
X111303325Y-61240566D01*
X111300544Y-61237702D01*
X111286531Y-61200814D01*
X111286476Y-61197842D01*
X111300901Y-61160564D01*
X111302889Y-61158763D01*
X111339502Y-61144944D01*
X111342358Y-61144890D01*
X111598911Y-61144890D01*
X111636612Y-61157728D01*
X111639358Y-61160521D01*
X111653566Y-61197215D01*
X111653621Y-61200187D01*
X111653621Y-61399489D01*
X111640944Y-61436702D01*
X111638185Y-61439545D01*
X111601858Y-61454336D01*
X111598911Y-61454394D01*
X111278855Y-61454394D01*
X111278855Y-61602503D01*
X111598911Y-61602503D01*
X111639013Y-61598305D01*
X111664759Y-61591757D01*
X111700902Y-61576533D01*
X111730411Y-61556781D01*
X111758402Y-61529035D01*
X111780117Y-61496280D01*
X111781409Y-61493864D01*
X111795434Y-61456662D01*
X111801425Y-61416424D01*
X111801926Y-61399489D01*
X111801926Y-61199014D01*
X111797728Y-61158836D01*
X111791179Y-61132971D01*
X111775956Y-61096828D01*
X111756203Y-61067318D01*
X111728457Y-61039475D01*
X111695702Y-61017808D01*
X111693287Y-61016516D01*
X111656085Y-61002491D01*
X111615847Y-60996500D01*
X111598911Y-60996000D01*
X111904312Y-60996000D01*
X111904312Y-61396362D01*
X111907342Y-61436314D01*
X111913887Y-61463969D01*
X111929486Y-61500433D01*
X111939874Y-61517116D01*
X111965610Y-61546727D01*
X111976999Y-61556390D01*
X112010859Y-61578033D01*
X112020767Y-61582769D01*
X112058492Y-61595856D01*
X112067271Y-61597814D01*
X112106103Y-61602430D01*
X112111235Y-61602503D01*
X112440083Y-61602503D01*
X112440083Y-61447165D01*
X112112212Y-61447165D01*
X112074408Y-61436002D01*
X112072742Y-61434464D01*
X112059846Y-61396362D01*
X112059846Y-60996000D01*
X112890663Y-60996000D01*
X112890663Y-61796530D01*
X113046196Y-61796530D01*
X113046196Y-60996000D01*
X113183168Y-60996000D01*
X113183168Y-61525518D01*
X113189030Y-61555609D01*
X113205834Y-61580228D01*
X113231039Y-61596446D01*
X113261521Y-61602503D01*
X113583531Y-61602503D01*
X113622798Y-61599548D01*
X113641563Y-61596251D01*
X113679680Y-61585702D01*
X113702330Y-61576516D01*
X113737030Y-61557587D01*
X113759581Y-61541540D01*
X113788377Y-61514894D01*
X113808039Y-61490152D01*
X113828131Y-61455533D01*
X113841647Y-61420591D01*
X113850623Y-61381582D01*
X113854042Y-61341222D01*
X113854152Y-61332078D01*
X113854152Y-60996000D01*
X113698618Y-60996000D01*
X113698618Y-61332078D01*
X113692555Y-61371648D01*
X113689434Y-61379754D01*
X113667687Y-61413028D01*
X113664815Y-61415902D01*
X113631989Y-61437394D01*
X113628081Y-61438958D01*
X113588458Y-61447037D01*
X113582358Y-61447165D01*
X113338506Y-61447165D01*
X113338506Y-60996000D01*
X113183168Y-60996000D01*
X113046196Y-60996000D01*
X112890663Y-60996000D01*
X112059846Y-60996000D01*
X111904312Y-60996000D01*
X111598911Y-60996000D01*
X111341186Y-60996000D01*
X111301008Y-61000197D01*
X111275143Y-61006746D01*
X111239097Y-61021914D01*
X111209490Y-61041526D01*
X111181647Y-61069419D01*
X111159980Y-61102223D01*
X111158688Y-61104639D01*
X111144663Y-61141841D01*
X111138672Y-61182078D01*
X111138171Y-61199014D01*
X110978802Y-61199014D01*
X110990931Y-61166100D01*
X110991821Y-61165211D01*
X111028751Y-61151338D01*
X111098702Y-61151338D01*
X111098702Y-60996000D01*
X111028751Y-60996000D01*
X110989483Y-60999788D01*
X110960949Y-61006746D01*
X110924225Y-61022080D01*
X110893929Y-61042113D01*
X110865499Y-61070591D01*
X110843637Y-61103945D01*
X110842344Y-61106397D01*
X110828320Y-61144299D01*
X110822329Y-61185522D01*
X110821828Y-61202922D01*
X110821828Y-61853780D01*
X103903127Y-61853780D01*
X103903127Y-60996000D01*
X103992016Y-60996000D01*
X103992016Y-61151338D01*
X104521926Y-61151338D01*
X104558855Y-61165797D01*
X104571751Y-61202922D01*
X104571751Y-61266621D01*
X104560015Y-61304100D01*
X104559246Y-61304918D01*
X104520949Y-61318009D01*
X104198939Y-61318009D01*
X104158621Y-61320922D01*
X104120524Y-61330651D01*
X104102414Y-61338721D01*
X104068717Y-61360457D01*
X104040061Y-61388752D01*
X104038520Y-61390696D01*
X104016319Y-61425292D01*
X104002959Y-61458107D01*
X103994111Y-61497228D01*
X103992016Y-61525518D01*
X103992016Y-61796530D01*
X104662805Y-61796530D01*
X104755422Y-61796530D01*
X104929127Y-61796530D01*
X105202289Y-61236921D01*
X105476427Y-61796530D01*
X105649741Y-61796530D01*
X105418694Y-61325825D01*
X105670453Y-61325825D01*
X105670453Y-61466900D01*
X106198409Y-61466900D01*
X106198409Y-61325825D01*
X105670453Y-61325825D01*
X105418694Y-61325825D01*
X105272240Y-61027458D01*
X105246045Y-60998080D01*
X105243712Y-60996586D01*
X105241742Y-60996000D01*
X106304312Y-60996000D01*
X106304312Y-61266621D01*
X106308164Y-61306601D01*
X106309002Y-61310975D01*
X106320422Y-61348819D01*
X106324047Y-61357479D01*
X106343620Y-61392379D01*
X106350425Y-61401638D01*
X106378672Y-61430544D01*
X106389700Y-61438958D01*
X106424635Y-61458118D01*
X106442651Y-61464750D01*
X106481140Y-61472908D01*
X106510649Y-61474520D01*
X106832658Y-61474520D01*
X106870563Y-61486439D01*
X106871347Y-61487221D01*
X106883656Y-61525518D01*
X106883656Y-61588630D01*
X106872494Y-61626435D01*
X106870956Y-61628100D01*
X106833831Y-61641191D01*
X106368597Y-61641191D01*
X106368597Y-61796530D01*
X106833831Y-61796530D01*
X106873309Y-61793500D01*
X106900851Y-61786956D01*
X106937316Y-61771444D01*
X106953998Y-61760968D01*
X106983710Y-61735233D01*
X106993468Y-61723843D01*
X107015602Y-61689864D01*
X107020432Y-61679879D01*
X107033708Y-61642343D01*
X107035673Y-61633571D01*
X107040515Y-61593640D01*
X107040558Y-61589803D01*
X107040558Y-61525518D01*
X107037645Y-61485081D01*
X107027916Y-61446917D01*
X107019846Y-61428798D01*
X106998110Y-61395155D01*
X106969815Y-61366274D01*
X106967871Y-61364709D01*
X106933483Y-61342355D01*
X106900851Y-61328951D01*
X106861950Y-61320104D01*
X106833831Y-61318009D01*
X106510649Y-61318009D01*
X106485247Y-61313711D01*
X106471374Y-61302378D01*
X106463754Y-61285378D01*
X106459776Y-61266621D01*
X107146852Y-61266621D01*
X107150443Y-61305880D01*
X107151542Y-61311757D01*
X107163092Y-61350107D01*
X107166783Y-61358847D01*
X107186847Y-61393747D01*
X107193747Y-61403006D01*
X107222284Y-61431622D01*
X107229309Y-61436614D01*
X107217196Y-61475106D01*
X107216217Y-61479600D01*
X107211261Y-61518730D01*
X107211137Y-61525518D01*
X107211137Y-61589803D01*
X107214050Y-61629791D01*
X107223779Y-61667779D01*
X107231849Y-61685937D01*
X107253639Y-61719871D01*
X107281709Y-61748496D01*
X107283628Y-61750026D01*
X107317919Y-61772172D01*
X107350649Y-61785392D01*
X107389584Y-61794398D01*
X107417474Y-61796530D01*
X107610914Y-61796530D01*
X107902051Y-61796530D01*
X108075757Y-61796530D01*
X108348918Y-61236921D01*
X108623056Y-61796530D01*
X108796371Y-61796530D01*
X108678977Y-61557367D01*
X109175827Y-61557367D01*
X109178116Y-61596538D01*
X109185925Y-61635041D01*
X109199274Y-61668742D01*
X109220292Y-61702927D01*
X109247327Y-61733467D01*
X109258088Y-61742796D01*
X109292489Y-61766020D01*
X109329380Y-61782203D01*
X109334487Y-61783829D01*
X109374298Y-61793355D01*
X109411277Y-61796530D01*
X109903866Y-61796530D01*
X109903866Y-61641191D01*
X109411277Y-61641191D01*
X109372187Y-61633132D01*
X109352268Y-61618330D01*
X109333659Y-61581761D01*
X109331165Y-61557367D01*
X109338605Y-61517280D01*
X109352268Y-61496600D01*
X109387202Y-61477129D01*
X109411277Y-61474520D01*
X109739930Y-61474520D01*
X109740907Y-61474520D01*
X109781321Y-61469956D01*
X109791123Y-61467877D01*
X109829121Y-61456018D01*
X109843880Y-61449510D01*
X109878773Y-61429444D01*
X109893901Y-61418247D01*
X109916459Y-61396362D01*
X110049434Y-61396362D01*
X110052347Y-61436324D01*
X110062076Y-61474220D01*
X110070146Y-61492301D01*
X110091936Y-61526041D01*
X110120006Y-61554837D01*
X110121926Y-61556390D01*
X110156216Y-61578633D01*
X110188946Y-61591757D01*
X110227881Y-61600446D01*
X110255771Y-61602503D01*
X110513496Y-61602503D01*
X110553485Y-61599618D01*
X110591472Y-61589981D01*
X110609630Y-61581987D01*
X110643607Y-61560575D01*
X110672373Y-61532529D01*
X110673915Y-61530598D01*
X110696060Y-61496308D01*
X110709281Y-61463578D01*
X110718287Y-61424519D01*
X110720418Y-61396362D01*
X110720418Y-61202922D01*
X110717327Y-61162688D01*
X110710649Y-61134729D01*
X110695305Y-61098092D01*
X110685052Y-61081387D01*
X110658344Y-61050649D01*
X110648123Y-61042113D01*
X110614076Y-61020469D01*
X110604159Y-61015734D01*
X110566682Y-61002706D01*
X110557850Y-61000689D01*
X110518762Y-60996073D01*
X110513496Y-60996000D01*
X110255771Y-60996000D01*
X110215288Y-61000197D01*
X110188946Y-61006746D01*
X110152028Y-61022080D01*
X110121926Y-61042113D01*
X110093545Y-61070591D01*
X110071463Y-61103945D01*
X110070146Y-61106397D01*
X110055988Y-61144299D01*
X110049940Y-61185522D01*
X110049434Y-61202922D01*
X110049434Y-61396362D01*
X109916459Y-61396362D01*
X109922748Y-61390261D01*
X109935910Y-61372915D01*
X109955035Y-61338535D01*
X109965024Y-61311757D01*
X109973409Y-61272736D01*
X109975771Y-61234185D01*
X109973035Y-61192957D01*
X109964829Y-61156027D01*
X109950231Y-61119654D01*
X109935715Y-61094869D01*
X109910726Y-61064705D01*
X109893314Y-61049538D01*
X109860757Y-61027863D01*
X109843098Y-61018861D01*
X109805337Y-61005137D01*
X109790342Y-61001471D01*
X109750423Y-60996261D01*
X109739930Y-60996000D01*
X109182470Y-60996000D01*
X109182470Y-61151338D01*
X109739930Y-61151338D01*
X109779440Y-61159191D01*
X109799330Y-61173613D01*
X109817939Y-61209837D01*
X109820432Y-61234185D01*
X109814766Y-61268184D01*
X109798744Y-61294757D01*
X109773342Y-61311952D01*
X109739930Y-61318009D01*
X109411277Y-61318009D01*
X109371893Y-61321594D01*
X109334487Y-61330710D01*
X109297264Y-61346008D01*
X109262531Y-61368091D01*
X109258088Y-61371547D01*
X109229423Y-61399667D01*
X109206892Y-61431738D01*
X109199274Y-61445602D01*
X109184986Y-61482843D01*
X109177681Y-61521904D01*
X109175827Y-61557367D01*
X108678977Y-61557367D01*
X108418869Y-61027458D01*
X108392674Y-60998080D01*
X108390342Y-60996586D01*
X108351736Y-60985102D01*
X108348918Y-60985057D01*
X108310438Y-60995190D01*
X108308081Y-60996586D01*
X108280466Y-61024899D01*
X108279162Y-61027263D01*
X107902051Y-61796530D01*
X107610914Y-61796530D01*
X107650990Y-61793500D01*
X107678911Y-61786956D01*
X107715548Y-61771444D01*
X107732254Y-61760968D01*
X107761865Y-61735233D01*
X107771528Y-61723843D01*
X107793171Y-61689864D01*
X107797906Y-61679879D01*
X107810994Y-61642343D01*
X107812952Y-61633571D01*
X107817793Y-61593640D01*
X107817836Y-61589803D01*
X107817836Y-61525518D01*
X107814934Y-61483750D01*
X107805317Y-61445837D01*
X107800251Y-61434073D01*
X107829755Y-61409063D01*
X107853872Y-61378218D01*
X107857697Y-61371743D01*
X107873100Y-61335736D01*
X107876259Y-61324457D01*
X107882430Y-61285786D01*
X107883098Y-61266621D01*
X107883098Y-61202922D01*
X107879086Y-61163102D01*
X107878213Y-61158763D01*
X107866723Y-61121108D01*
X107862972Y-61112454D01*
X107842975Y-61077927D01*
X107836008Y-61068686D01*
X107807651Y-61039963D01*
X107796538Y-61031561D01*
X107761511Y-61012310D01*
X107743391Y-61005574D01*
X107703198Y-60997346D01*
X107676371Y-60996000D01*
X107353189Y-60996000D01*
X107312706Y-61000197D01*
X107286364Y-61006746D01*
X107249391Y-61022080D01*
X107219148Y-61042113D01*
X107190816Y-61070591D01*
X107168869Y-61103945D01*
X107167564Y-61106397D01*
X107153406Y-61144299D01*
X107147358Y-61185522D01*
X107146852Y-61202922D01*
X107146852Y-61266621D01*
X106459776Y-61266621D01*
X106459651Y-61266034D01*
X106459651Y-61151338D01*
X107040558Y-61151338D01*
X107040558Y-60996000D01*
X106304312Y-60996000D01*
X105241742Y-60996000D01*
X105205107Y-60985102D01*
X105202289Y-60985057D01*
X105163809Y-60995190D01*
X105161451Y-60996586D01*
X105133836Y-61024899D01*
X105132533Y-61027263D01*
X104755422Y-61796530D01*
X104662805Y-61796530D01*
X104662805Y-61641191D01*
X104147355Y-61641191D01*
X104147355Y-61525518D01*
X104159458Y-61487820D01*
X104160251Y-61487025D01*
X104197351Y-61474532D01*
X104198939Y-61474520D01*
X104521926Y-61474520D01*
X104562409Y-61470170D01*
X104588751Y-61463383D01*
X104625669Y-61447896D01*
X104655771Y-61427821D01*
X104684250Y-61399391D01*
X104706246Y-61365817D01*
X104707550Y-61363341D01*
X104721709Y-61325305D01*
X104727756Y-61284026D01*
X104728262Y-61266621D01*
X104728262Y-61202922D01*
X104724250Y-61163102D01*
X104723377Y-61158763D01*
X104711887Y-61121108D01*
X104708136Y-61112454D01*
X104688378Y-61077927D01*
X104681563Y-61068686D01*
X104653389Y-61039963D01*
X104642289Y-61031561D01*
X104607261Y-61012310D01*
X104589141Y-61005574D01*
X104548872Y-60997346D01*
X104521926Y-60996000D01*
X103992016Y-60996000D01*
X103903127Y-60996000D01*
X103903127Y-60810180D01*
X113959079Y-60810180D01*
X113959079Y-61396362D01*
X113962108Y-61436314D01*
X113968653Y-61463969D01*
X113984253Y-61500433D01*
X113994640Y-61517116D01*
X114020376Y-61546727D01*
X114031765Y-61556390D01*
X114065625Y-61578033D01*
X114075534Y-61582769D01*
X114113258Y-61595856D01*
X114122037Y-61597814D01*
X114160869Y-61602430D01*
X114166001Y-61602503D01*
X114423726Y-61602503D01*
X114726587Y-61602503D01*
X114881926Y-61602503D01*
X114881926Y-61266621D01*
X114887988Y-61226862D01*
X114891109Y-61218749D01*
X114913050Y-61185508D01*
X114915924Y-61182601D01*
X114948589Y-61160948D01*
X114952463Y-61159349D01*
X114992235Y-61151463D01*
X114998381Y-61151338D01*
X115242037Y-61151338D01*
X115242037Y-61602503D01*
X115397571Y-61602503D01*
X115475143Y-61602503D01*
X115660767Y-61602503D01*
X115660767Y-61796530D01*
X115817864Y-61796530D01*
X115817864Y-61602503D01*
X116067383Y-61602503D01*
X116067383Y-61447165D01*
X115817864Y-61447165D01*
X115817864Y-60996000D01*
X115660767Y-60996000D01*
X115660767Y-61447165D01*
X115475143Y-61447165D01*
X115475143Y-61602503D01*
X115397571Y-61602503D01*
X115397571Y-61074157D01*
X115391514Y-61043285D01*
X115374905Y-61018470D01*
X115350481Y-61001861D01*
X115320390Y-60996000D01*
X114997208Y-60996000D01*
X114956529Y-60999129D01*
X114939567Y-61002057D01*
X114901526Y-61012773D01*
X114878995Y-61021987D01*
X114844415Y-61041010D01*
X114821549Y-61056963D01*
X114792498Y-61083705D01*
X114772896Y-61108351D01*
X114752998Y-61143067D01*
X114739288Y-61177912D01*
X114730172Y-61216964D01*
X114726699Y-61257441D01*
X114726587Y-61266621D01*
X114726587Y-61602503D01*
X114423726Y-61602503D01*
X114463678Y-61599474D01*
X114491333Y-61592929D01*
X114527797Y-61577586D01*
X114544480Y-61567332D01*
X114574091Y-61541777D01*
X114583754Y-61530403D01*
X114605583Y-61496424D01*
X114610328Y-61486439D01*
X114623227Y-61449032D01*
X114625178Y-61440326D01*
X114630020Y-61400301D01*
X114630062Y-61396362D01*
X114630062Y-61202922D01*
X114626971Y-61162688D01*
X114620293Y-61134729D01*
X114604950Y-61098092D01*
X114594696Y-61081387D01*
X114567988Y-61050649D01*
X114557767Y-61042113D01*
X114523720Y-61020469D01*
X114513803Y-61015734D01*
X114476584Y-61002706D01*
X114467885Y-61000689D01*
X114428990Y-60996073D01*
X114423726Y-60996000D01*
X114159748Y-60996000D01*
X114159748Y-61151338D01*
X114423726Y-61151338D01*
X114461229Y-61163441D01*
X114462023Y-61164234D01*
X114474516Y-61201334D01*
X114474529Y-61202922D01*
X114474529Y-61395190D01*
X114463366Y-61433063D01*
X114461828Y-61434660D01*
X114423726Y-61447165D01*
X114166978Y-61447165D01*
X114129174Y-61436002D01*
X114127508Y-61434464D01*
X114114612Y-61396362D01*
X114114612Y-60810180D01*
X113959079Y-60810180D01*
X103903127Y-60810180D01*
X103903127Y-60721291D01*
X116156272Y-60721291D01*
X116156272Y-63093229D01*
G37*
G36*
X115164752Y-127084162D02*
G01*
X115168830Y-127132874D01*
X115182172Y-127181165D01*
X115183314Y-127184057D01*
X115207241Y-127229398D01*
X115235338Y-127263681D01*
X115274284Y-127295166D01*
X115314717Y-127316193D01*
X115362710Y-127330298D01*
X115411475Y-127334981D01*
X115414856Y-127335000D01*
X116069427Y-127335000D01*
X116069427Y-127156458D01*
X115414856Y-127156458D01*
X115366928Y-127141012D01*
X115363321Y-127137651D01*
X115344922Y-127090484D01*
X115344759Y-127084162D01*
X115344759Y-126349968D01*
X115164752Y-126349968D01*
X115164752Y-127084162D01*
G37*
G36*
X114153586Y-127084162D02*
G01*
X114157124Y-127133163D01*
X114170194Y-127182691D01*
X114178743Y-127201399D01*
X114206831Y-127244630D01*
X114241269Y-127279068D01*
X114282835Y-127306041D01*
X114322602Y-127322055D01*
X114372570Y-127332863D01*
X114404179Y-127335000D01*
X114977173Y-127335000D01*
X114977173Y-127156458D01*
X114404179Y-127156458D01*
X114356330Y-127143243D01*
X114350446Y-127137896D01*
X114333015Y-127090611D01*
X114332860Y-127084162D01*
X114332860Y-126932487D01*
X114977173Y-126932487D01*
X114977173Y-126752480D01*
X114332860Y-126752480D01*
X114332860Y-126602027D01*
X114344631Y-126554427D01*
X114387464Y-126529658D01*
X114404179Y-126528510D01*
X114977173Y-126528510D01*
X114977173Y-126349968D01*
X114404179Y-126349968D01*
X114353010Y-126354101D01*
X114321869Y-126361692D01*
X114275871Y-126381401D01*
X114257634Y-126392955D01*
X114220402Y-126425561D01*
X114210006Y-126437896D01*
X114183483Y-126479076D01*
X114177766Y-126491140D01*
X114161441Y-126538648D01*
X114159448Y-126547561D01*
X114153609Y-126597463D01*
X114153586Y-126600561D01*
X114153586Y-127084162D01*
G37*
G36*
X105028199Y-127084162D02*
G01*
X105032277Y-127132874D01*
X105045619Y-127181165D01*
X105046761Y-127184057D01*
X105070688Y-127229398D01*
X105098785Y-127263681D01*
X105137731Y-127295166D01*
X105178164Y-127316193D01*
X105226157Y-127330298D01*
X105274922Y-127334981D01*
X105278303Y-127335000D01*
X105932874Y-127335000D01*
X105932874Y-127156458D01*
X105278303Y-127156458D01*
X105230375Y-127141012D01*
X105226768Y-127137651D01*
X105208369Y-127090484D01*
X105208206Y-127084162D01*
X105208206Y-126349968D01*
X105028199Y-126349968D01*
X105028199Y-127084162D01*
G37*
G36*
X103955240Y-127335000D02*
G01*
X104859915Y-127335000D01*
X104859915Y-127004539D01*
X104854763Y-126954336D01*
X104854053Y-126950806D01*
X104839641Y-126902931D01*
X104835979Y-126894141D01*
X104811062Y-126850036D01*
X104803984Y-126840408D01*
X104768301Y-126804296D01*
X104756601Y-126795467D01*
X104712159Y-126771417D01*
X104692365Y-126764204D01*
X104643058Y-126754129D01*
X104609811Y-126752480D01*
X104207298Y-126752480D01*
X104159275Y-126739613D01*
X104153321Y-126734406D01*
X104135890Y-126687364D01*
X104135735Y-126680917D01*
X104135735Y-126602027D01*
X104148602Y-126553308D01*
X104153809Y-126547072D01*
X104199565Y-126528673D01*
X104205833Y-126528510D01*
X104779559Y-126528510D01*
X104779559Y-126349968D01*
X104205833Y-126349968D01*
X104155276Y-126354101D01*
X104124256Y-126361692D01*
X104078257Y-126381401D01*
X104060020Y-126392955D01*
X104022788Y-126425561D01*
X104012393Y-126437896D01*
X103985571Y-126479076D01*
X103979664Y-126491140D01*
X103963100Y-126538648D01*
X103961102Y-126547561D01*
X103955263Y-126597463D01*
X103955240Y-126600561D01*
X103955240Y-126680917D01*
X103958777Y-126730033D01*
X103971847Y-126779521D01*
X103980397Y-126798154D01*
X104008546Y-126841385D01*
X104043167Y-126875823D01*
X104084855Y-126902864D01*
X104124500Y-126919054D01*
X104174264Y-126930270D01*
X104205833Y-126932487D01*
X104609811Y-126932487D01*
X104644982Y-126938593D01*
X104665254Y-126955202D01*
X104675756Y-126978649D01*
X104681374Y-127004539D01*
X104681374Y-127156458D01*
X103955240Y-127156458D01*
X103955240Y-127335000D01*
G37*
G36*
X103579762Y-71414162D02*
G01*
X103583840Y-71462874D01*
X103597182Y-71511165D01*
X103598324Y-71514057D01*
X103622251Y-71559398D01*
X103650348Y-71593681D01*
X103689294Y-71625166D01*
X103729727Y-71646193D01*
X103777720Y-71660298D01*
X103826485Y-71664981D01*
X103829866Y-71665000D01*
X104484437Y-71665000D01*
X104484437Y-71486458D01*
X103829866Y-71486458D01*
X103781938Y-71471012D01*
X103778331Y-71467651D01*
X103759932Y-71420484D01*
X103759769Y-71414162D01*
X103759769Y-70679968D01*
X103579762Y-70679968D01*
X103579762Y-71414162D01*
G37*
G36*
X103094695Y-71665000D02*
G01*
X103273970Y-71665000D01*
X103273970Y-70858510D01*
X103435414Y-70858510D01*
X103435414Y-70679968D01*
X103094695Y-70679968D01*
X103094695Y-71665000D01*
G37*
D10*
G36*
X112249000Y-102453105D02*
G01*
X112249000Y-102066517D01*
X112245908Y-102036705D01*
X112245482Y-102034570D01*
X112236835Y-102005950D01*
X112234638Y-102000718D01*
X112219687Y-101974538D01*
X112215441Y-101968771D01*
X112194081Y-101947104D01*
X112187011Y-101941807D01*
X112160270Y-101927377D01*
X112148323Y-101923049D01*
X112118487Y-101917004D01*
X112098497Y-101916015D01*
X111808337Y-101916015D01*
X111778652Y-101919106D01*
X111776536Y-101919532D01*
X111747916Y-101928180D01*
X111742684Y-101930376D01*
X111716504Y-101945424D01*
X111710737Y-101949720D01*
X111689854Y-101970383D01*
X111683773Y-101978443D01*
X111669283Y-102005108D01*
X111665015Y-102016985D01*
X111658970Y-102046569D01*
X111657981Y-102066517D01*
X111657981Y-102453105D01*
X111765106Y-102453105D01*
X111765106Y-102066517D01*
X111773034Y-102038001D01*
X111776243Y-102034277D01*
X111803924Y-102023458D01*
X111809216Y-102023286D01*
X112098497Y-102023286D01*
X112126793Y-102031320D01*
X112130591Y-102034570D01*
X112141775Y-102062726D01*
X112141875Y-102066517D01*
X112141875Y-102453105D01*
X112249000Y-102453105D01*
G37*
G36*
X112249000Y-103076217D02*
G01*
X112249000Y-102968213D01*
X112007492Y-102968213D01*
X112007492Y-102587341D01*
X112003242Y-102565799D01*
X111991665Y-102548799D01*
X111974519Y-102537515D01*
X111953417Y-102533412D01*
X111657981Y-102533412D01*
X111657981Y-102640537D01*
X111899488Y-102640537D01*
X111899488Y-102968213D01*
X111657981Y-102968213D01*
X111657981Y-103076217D01*
X112249000Y-103076217D01*
G37*
G36*
X106006886Y-98106550D02*
G01*
X106008625Y-98137221D01*
X106014348Y-98166720D01*
X106015972Y-98172203D01*
X106027446Y-98200933D01*
X106040592Y-98223054D01*
X106059433Y-98245790D01*
X106076202Y-98260716D01*
X106100767Y-98277373D01*
X106118408Y-98286508D01*
X106146114Y-98296973D01*
X106162958Y-98301163D01*
X106192540Y-98305262D01*
X106205163Y-98305706D01*
X105981387Y-98499000D01*
X106146984Y-98499000D01*
X106370466Y-98305706D01*
X106447549Y-98305706D01*
X106447549Y-98198581D01*
X106205163Y-98198581D01*
X106175710Y-98192792D01*
X106168233Y-98190081D01*
X106142475Y-98174582D01*
X106139364Y-98171763D01*
X106121891Y-98146928D01*
X106120606Y-98143919D01*
X106114243Y-98114294D01*
X106114011Y-98106550D01*
X106114011Y-98038993D01*
X106116356Y-98025217D01*
X106122071Y-98018330D01*
X106129545Y-98015545D01*
X106136726Y-98015106D01*
X106490341Y-98015106D01*
X106490341Y-98499000D01*
X106597466Y-98499000D01*
X106597466Y-97961909D01*
X106593362Y-97940953D01*
X106582078Y-97923661D01*
X106565079Y-97912084D01*
X106543537Y-97907981D01*
X106136726Y-97907981D01*
X106107470Y-97910477D01*
X106079324Y-97919444D01*
X106076202Y-97921023D01*
X106051308Y-97937664D01*
X106036049Y-97953556D01*
X106020066Y-97979179D01*
X106013774Y-97995762D01*
X106007559Y-98025609D01*
X106006886Y-98038260D01*
X106006886Y-98106550D01*
G37*
G36*
X105729216Y-97908424D02*
G01*
X105758931Y-97912524D01*
X105775665Y-97916714D01*
X105803188Y-97927178D01*
X105820687Y-97936313D01*
X105845393Y-97952970D01*
X105862235Y-97967825D01*
X105881004Y-97990632D01*
X105894004Y-98012754D01*
X105905623Y-98041484D01*
X105907273Y-98046961D01*
X105913089Y-98076280D01*
X105914856Y-98106550D01*
X105914856Y-98300723D01*
X105914775Y-98307472D01*
X105912250Y-98337229D01*
X105905623Y-98365936D01*
X105896295Y-98389806D01*
X105881004Y-98416787D01*
X105867774Y-98433583D01*
X105845393Y-98454303D01*
X105829910Y-98465102D01*
X105803188Y-98479802D01*
X105788107Y-98486096D01*
X105758931Y-98494457D01*
X105746457Y-98496653D01*
X105716579Y-98499000D01*
X105522406Y-98499000D01*
X105502547Y-98498010D01*
X105473020Y-98491965D01*
X105461144Y-98487638D01*
X105434479Y-98473207D01*
X105427408Y-98467910D01*
X105406049Y-98446243D01*
X105401797Y-98440476D01*
X105386705Y-98414296D01*
X105384424Y-98409072D01*
X105375567Y-98380737D01*
X105375142Y-98378619D01*
X105372050Y-98348497D01*
X105480055Y-98348497D01*
X105480151Y-98351933D01*
X105491045Y-98379565D01*
X105493908Y-98382450D01*
X105522406Y-98391875D01*
X105715700Y-98391875D01*
X105722911Y-98391653D01*
X105751897Y-98385573D01*
X105755973Y-98383874D01*
X105780913Y-98367108D01*
X105784638Y-98363242D01*
X105800550Y-98338532D01*
X105803692Y-98329904D01*
X105807731Y-98300723D01*
X105807731Y-98257492D01*
X105523286Y-98257492D01*
X105518001Y-98257666D01*
X105490752Y-98268630D01*
X105487670Y-98272350D01*
X105480055Y-98300723D01*
X105480055Y-98348497D01*
X105372050Y-98348497D01*
X105372050Y-98300723D01*
X105372419Y-98288028D01*
X105376826Y-98257936D01*
X105387145Y-98230235D01*
X105402865Y-98205585D01*
X105424807Y-98183487D01*
X105445255Y-98169722D01*
X105473607Y-98157548D01*
X105492765Y-98152636D01*
X105522406Y-98149488D01*
X105807731Y-98149488D01*
X105807731Y-98106550D01*
X105807499Y-98099155D01*
X105801136Y-98070207D01*
X105799852Y-98067173D01*
X105782525Y-98042363D01*
X105779450Y-98039540D01*
X105753948Y-98023752D01*
X105746450Y-98020934D01*
X105716579Y-98015106D01*
X105447814Y-98015106D01*
X105447814Y-97907981D01*
X105716579Y-97907981D01*
X105729216Y-97908424D01*
G37*
G36*
X96351451Y-134768391D02*
G01*
X96383800Y-134770955D01*
X96414603Y-134777184D01*
X96443861Y-134787075D01*
X96446697Y-134788262D01*
X96473670Y-134801651D01*
X96498125Y-134817817D01*
X96522116Y-134838806D01*
X96542987Y-134862929D01*
X96560464Y-134889962D01*
X96573407Y-134917062D01*
X96576733Y-134925622D01*
X96585457Y-134955160D01*
X96590546Y-134986243D01*
X96592018Y-135015540D01*
X96592018Y-135304821D01*
X96587915Y-135326364D01*
X96576338Y-135343510D01*
X96559046Y-135354794D01*
X96538090Y-135358897D01*
X96054928Y-135358897D01*
X96033533Y-135354794D01*
X96016387Y-135343510D01*
X96005103Y-135326364D01*
X96001000Y-135304821D01*
X96001000Y-135251772D01*
X96108124Y-135251772D01*
X96484893Y-135251772D01*
X96484893Y-135015540D01*
X96482672Y-134987395D01*
X96474782Y-134958534D01*
X96465212Y-134938787D01*
X96446352Y-134914277D01*
X96428837Y-134899619D01*
X96401949Y-134885554D01*
X96374691Y-134877970D01*
X96344796Y-134875443D01*
X96248369Y-134875443D01*
X96219876Y-134877664D01*
X96190776Y-134885554D01*
X96169639Y-134896029D01*
X96146666Y-134914277D01*
X96132208Y-134931836D01*
X96118236Y-134958534D01*
X96110652Y-134985608D01*
X96108124Y-135015540D01*
X96108124Y-135251772D01*
X96001000Y-135251772D01*
X96001000Y-135015540D01*
X96001072Y-135008922D01*
X96003596Y-134976756D01*
X96009727Y-134946136D01*
X96019464Y-134917062D01*
X96032470Y-134889962D01*
X96049950Y-134862929D01*
X96070755Y-134838806D01*
X96072819Y-134836759D01*
X96097127Y-134816076D01*
X96121779Y-134800187D01*
X96148864Y-134787075D01*
X96157458Y-134783723D01*
X96187202Y-134774931D01*
X96218635Y-134769801D01*
X96248369Y-134768318D01*
X96344796Y-134768318D01*
X96351451Y-134768391D01*
G37*
G36*
X96001000Y-134141835D02*
G01*
X96001000Y-134249839D01*
X96242507Y-134249839D01*
X96242507Y-134630711D01*
X96246757Y-134652253D01*
X96258334Y-134669253D01*
X96275480Y-134680537D01*
X96296582Y-134684640D01*
X96592018Y-134684640D01*
X96592018Y-134577515D01*
X96350511Y-134577515D01*
X96350511Y-134249839D01*
X96592018Y-134249839D01*
X96592018Y-134141835D01*
X96001000Y-134141835D01*
G37*
G36*
X106006886Y-99606550D02*
G01*
X106008625Y-99637221D01*
X106014348Y-99666720D01*
X106015972Y-99672203D01*
X106027446Y-99700933D01*
X106040592Y-99723054D01*
X106059433Y-99745790D01*
X106076202Y-99760716D01*
X106100767Y-99777373D01*
X106118408Y-99786508D01*
X106146114Y-99796973D01*
X106162958Y-99801163D01*
X106192540Y-99805262D01*
X106205163Y-99805706D01*
X105981387Y-99999000D01*
X106146984Y-99999000D01*
X106370466Y-99805706D01*
X106447549Y-99805706D01*
X106447549Y-99698581D01*
X106205163Y-99698581D01*
X106175710Y-99692792D01*
X106168233Y-99690081D01*
X106142475Y-99674582D01*
X106139364Y-99671763D01*
X106121891Y-99646928D01*
X106120606Y-99643919D01*
X106114243Y-99614294D01*
X106114011Y-99606550D01*
X106114011Y-99538993D01*
X106116356Y-99525217D01*
X106122071Y-99518330D01*
X106129545Y-99515545D01*
X106136726Y-99515106D01*
X106490341Y-99515106D01*
X106490341Y-99999000D01*
X106597466Y-99999000D01*
X106597466Y-99461909D01*
X106593362Y-99440953D01*
X106582078Y-99423661D01*
X106565079Y-99412084D01*
X106543537Y-99407981D01*
X106136726Y-99407981D01*
X106107470Y-99410477D01*
X106079324Y-99419444D01*
X106076202Y-99421023D01*
X106051308Y-99437664D01*
X106036049Y-99453556D01*
X106020066Y-99479179D01*
X106013774Y-99495762D01*
X106007559Y-99525609D01*
X106006886Y-99538260D01*
X106006886Y-99606550D01*
G37*
G36*
X105799543Y-99408970D02*
G01*
X105829126Y-99415015D01*
X105841003Y-99419283D01*
X105867668Y-99433773D01*
X105875728Y-99439854D01*
X105896391Y-99460737D01*
X105900688Y-99466504D01*
X105915735Y-99492684D01*
X105917932Y-99497916D01*
X105926579Y-99526536D01*
X105927005Y-99528652D01*
X105930096Y-99558337D01*
X105930096Y-99606550D01*
X105929107Y-99626499D01*
X105923062Y-99656083D01*
X105918735Y-99667982D01*
X105904304Y-99694917D01*
X105899007Y-99702045D01*
X105877340Y-99723494D01*
X105871573Y-99727746D01*
X105845393Y-99742838D01*
X105840169Y-99745119D01*
X105811834Y-99753975D01*
X105809716Y-99754401D01*
X105779594Y-99757492D01*
X105495295Y-99757492D01*
X105495295Y-99800723D01*
X105495527Y-99808467D01*
X105501890Y-99838092D01*
X105503175Y-99841099D01*
X105520648Y-99865643D01*
X105523760Y-99868391D01*
X105549517Y-99883521D01*
X105556937Y-99886175D01*
X105586300Y-99891875D01*
X105853893Y-99891875D01*
X105853893Y-99999000D01*
X105586300Y-99999000D01*
X105573663Y-99998556D01*
X105543948Y-99994457D01*
X105527016Y-99990266D01*
X105499252Y-99979802D01*
X105481587Y-99970716D01*
X105456900Y-99954303D01*
X105440131Y-99939477D01*
X105421290Y-99916787D01*
X105408111Y-99894593D01*
X105396523Y-99865936D01*
X105394874Y-99860457D01*
X105389058Y-99831093D01*
X105387291Y-99800723D01*
X105387291Y-99649488D01*
X105495295Y-99649488D01*
X105778861Y-99649488D01*
X105784153Y-99649319D01*
X105811834Y-99638644D01*
X105815043Y-99634962D01*
X105822972Y-99606550D01*
X105822972Y-99558337D01*
X105822868Y-99554929D01*
X105811248Y-99527562D01*
X105808157Y-99524642D01*
X105779594Y-99515106D01*
X105586300Y-99515106D01*
X105579139Y-99515332D01*
X105550250Y-99521554D01*
X105546144Y-99523218D01*
X105521380Y-99539872D01*
X105517708Y-99543706D01*
X105502329Y-99568741D01*
X105499252Y-99577424D01*
X105495295Y-99606550D01*
X105495295Y-99649488D01*
X105387291Y-99649488D01*
X105387291Y-99606550D01*
X105387372Y-99599828D01*
X105389897Y-99570159D01*
X105396523Y-99541484D01*
X105405808Y-99517541D01*
X105421290Y-99490632D01*
X105434590Y-99473741D01*
X105456900Y-99452970D01*
X105472336Y-99441993D01*
X105499252Y-99427178D01*
X105514451Y-99420884D01*
X105543948Y-99412524D01*
X105556423Y-99410328D01*
X105586300Y-99407981D01*
X105779594Y-99407981D01*
X105799543Y-99408970D01*
G37*
G36*
X107537222Y-95499000D02*
G01*
X107923810Y-95499000D01*
X107953622Y-95495908D01*
X107955757Y-95495482D01*
X107984377Y-95486835D01*
X107989609Y-95484638D01*
X108015789Y-95469687D01*
X108021556Y-95465441D01*
X108043223Y-95444081D01*
X108048520Y-95437011D01*
X108062950Y-95410270D01*
X108067278Y-95398323D01*
X108073323Y-95368487D01*
X108074312Y-95348497D01*
X108074312Y-95058337D01*
X108071221Y-95028652D01*
X108070795Y-95026536D01*
X108062147Y-94997916D01*
X108059951Y-94992684D01*
X108044903Y-94966504D01*
X108040607Y-94960737D01*
X108019944Y-94939854D01*
X108011884Y-94933773D01*
X107985219Y-94919283D01*
X107973342Y-94915015D01*
X107943758Y-94908970D01*
X107923810Y-94907981D01*
X107537222Y-94907981D01*
X107537222Y-95015106D01*
X107923810Y-95015106D01*
X107952326Y-95023034D01*
X107956050Y-95026243D01*
X107966869Y-95053924D01*
X107967041Y-95059216D01*
X107967041Y-95348497D01*
X107959007Y-95376793D01*
X107955757Y-95380591D01*
X107927601Y-95391775D01*
X107923810Y-95391875D01*
X107537222Y-95391875D01*
X107537222Y-95499000D01*
G37*
G36*
X106905903Y-95348497D02*
G01*
X106908994Y-95378619D01*
X106909420Y-95380737D01*
X106918276Y-95409072D01*
X106920558Y-95414296D01*
X106935650Y-95440476D01*
X106939902Y-95446243D01*
X106961261Y-95467910D01*
X106968332Y-95473207D01*
X106994996Y-95487638D01*
X107006873Y-95491965D01*
X107036285Y-95498010D01*
X107055966Y-95499000D01*
X107448708Y-95499000D01*
X107448708Y-95391875D01*
X107055966Y-95391875D01*
X107027756Y-95382450D01*
X107024898Y-95379565D01*
X107014004Y-95351933D01*
X107013907Y-95348497D01*
X107013907Y-95300723D01*
X107021523Y-95272350D01*
X107024605Y-95268630D01*
X107052781Y-95257590D01*
X107056699Y-95257492D01*
X107298206Y-95257492D01*
X107327607Y-95255390D01*
X107357323Y-95247624D01*
X107368548Y-95242545D01*
X107394413Y-95225545D01*
X107414856Y-95204736D01*
X107430967Y-95179567D01*
X107440648Y-95155643D01*
X107447378Y-95125610D01*
X107448708Y-95106550D01*
X107448708Y-94907981D01*
X106954996Y-94907981D01*
X106954996Y-95015106D01*
X107341584Y-95015106D01*
X107341584Y-95106550D01*
X107333655Y-95135182D01*
X107330446Y-95138790D01*
X107302075Y-95149394D01*
X107298206Y-95149488D01*
X107055966Y-95149488D01*
X107026519Y-95152636D01*
X107007313Y-95157548D01*
X106978889Y-95169722D01*
X106958513Y-95183487D01*
X106936685Y-95205585D01*
X106920997Y-95230235D01*
X106910679Y-95257936D01*
X106906272Y-95288028D01*
X106905903Y-95300723D01*
X106905903Y-95348497D01*
G37*
G36*
X98351451Y-134745529D02*
G01*
X98383800Y-134748093D01*
X98414603Y-134754322D01*
X98443861Y-134764213D01*
X98446697Y-134765400D01*
X98473670Y-134778789D01*
X98498125Y-134794955D01*
X98522116Y-134815944D01*
X98542987Y-134840067D01*
X98560464Y-134867100D01*
X98573407Y-134894200D01*
X98576733Y-134902760D01*
X98585457Y-134932298D01*
X98590546Y-134963381D01*
X98592018Y-134992678D01*
X98592018Y-135281959D01*
X98587915Y-135303502D01*
X98576338Y-135320648D01*
X98559046Y-135331932D01*
X98538090Y-135336035D01*
X98054928Y-135336035D01*
X98033533Y-135331932D01*
X98016387Y-135320648D01*
X98005103Y-135303502D01*
X98001000Y-135281959D01*
X98001000Y-135228910D01*
X98108124Y-135228910D01*
X98484893Y-135228910D01*
X98484893Y-134992678D01*
X98482672Y-134964533D01*
X98474782Y-134935672D01*
X98465212Y-134915925D01*
X98446352Y-134891415D01*
X98428837Y-134876757D01*
X98401949Y-134862692D01*
X98374691Y-134855108D01*
X98344796Y-134852581D01*
X98248369Y-134852581D01*
X98219876Y-134854802D01*
X98190776Y-134862692D01*
X98169639Y-134873167D01*
X98146666Y-134891415D01*
X98132208Y-134908974D01*
X98118236Y-134935672D01*
X98110652Y-134962746D01*
X98108124Y-134992678D01*
X98108124Y-135228910D01*
X98001000Y-135228910D01*
X98001000Y-134992678D01*
X98001072Y-134986060D01*
X98003596Y-134953894D01*
X98009727Y-134923274D01*
X98019464Y-134894200D01*
X98032470Y-134867100D01*
X98049950Y-134840067D01*
X98070755Y-134815944D01*
X98072819Y-134813897D01*
X98097127Y-134793214D01*
X98121779Y-134777325D01*
X98148864Y-134764213D01*
X98157458Y-134760861D01*
X98187202Y-134752069D01*
X98218635Y-134746939D01*
X98248369Y-134745456D01*
X98344796Y-134745456D01*
X98351451Y-134745529D01*
G37*
G36*
X98151502Y-134156928D02*
G01*
X98122101Y-134159051D01*
X98092384Y-134166893D01*
X98081160Y-134172022D01*
X98055221Y-134188875D01*
X98034558Y-134209538D01*
X98018375Y-134234478D01*
X98008766Y-134258338D01*
X98002281Y-134288319D01*
X98001000Y-134307284D01*
X98001000Y-134651080D01*
X98108124Y-134651080D01*
X98108124Y-134307284D01*
X98116053Y-134278574D01*
X98119262Y-134275044D01*
X98147633Y-134264585D01*
X98151502Y-134264493D01*
X98242507Y-134264493D01*
X98242507Y-134651080D01*
X98350511Y-134651080D01*
X98350511Y-134264493D01*
X98440783Y-134264493D01*
X98469343Y-134271555D01*
X98484204Y-134297255D01*
X98484893Y-134307284D01*
X98484893Y-134651080D01*
X98592018Y-134651080D01*
X98592018Y-134307284D01*
X98589539Y-134276583D01*
X98584984Y-134257898D01*
X98573159Y-134230299D01*
X98566226Y-134219357D01*
X98546662Y-134197017D01*
X98539262Y-134190780D01*
X98514554Y-134174866D01*
X98507315Y-134171436D01*
X98478810Y-134161641D01*
X98473463Y-134160445D01*
X98443521Y-134156942D01*
X98441662Y-134156928D01*
X98151502Y-134156928D01*
G37*
G36*
X106920020Y-107380570D02*
G01*
X106949235Y-107383043D01*
X106980118Y-107389271D01*
X107009341Y-107399163D01*
X107012160Y-107400349D01*
X107039019Y-107413739D01*
X107063473Y-107429905D01*
X107087597Y-107450894D01*
X107108534Y-107475017D01*
X107126008Y-107502050D01*
X107138888Y-107529149D01*
X107142162Y-107537735D01*
X107150748Y-107567342D01*
X107155757Y-107598466D01*
X107157206Y-107627774D01*
X107157206Y-107733287D01*
X107240151Y-107836309D01*
X107240151Y-107991647D01*
X107140793Y-107866351D01*
X107136576Y-107877005D01*
X107123436Y-107903265D01*
X107105769Y-107929219D01*
X107100085Y-107936159D01*
X107078391Y-107958395D01*
X107053891Y-107977432D01*
X107042499Y-107984592D01*
X107016188Y-107997948D01*
X106987653Y-108008353D01*
X106971464Y-108012636D01*
X106940209Y-108017799D01*
X106909983Y-108019344D01*
X106796997Y-108019344D01*
X106790324Y-108019272D01*
X106757924Y-108016727D01*
X106727126Y-108010548D01*
X106697932Y-108000733D01*
X106670706Y-107987699D01*
X106643668Y-107970121D01*
X106619676Y-107949149D01*
X106598805Y-107925043D01*
X106581328Y-107898062D01*
X106568385Y-107871040D01*
X106566132Y-107865367D01*
X106557044Y-107836075D01*
X106551592Y-107805238D01*
X106549774Y-107772855D01*
X106656899Y-107772855D01*
X106659121Y-107800684D01*
X106667011Y-107829421D01*
X106676581Y-107849144D01*
X106695441Y-107873531D01*
X106712900Y-107887989D01*
X106739551Y-107901961D01*
X106766808Y-107909545D01*
X106796997Y-107912073D01*
X106909983Y-107912073D01*
X106938371Y-107909851D01*
X106967429Y-107901961D01*
X106988567Y-107891487D01*
X107011540Y-107873238D01*
X107025997Y-107855679D01*
X107039969Y-107828982D01*
X107047553Y-107801907D01*
X107050081Y-107771975D01*
X107050081Y-107627774D01*
X107047859Y-107599597D01*
X107039969Y-107570621D01*
X107029551Y-107549428D01*
X107011540Y-107526218D01*
X106994081Y-107511660D01*
X106967429Y-107497642D01*
X106940172Y-107490058D01*
X106909983Y-107487530D01*
X106796997Y-107487530D01*
X106768609Y-107489752D01*
X106739551Y-107497642D01*
X106719828Y-107507236D01*
X106695441Y-107526218D01*
X106680983Y-107543877D01*
X106667011Y-107570621D01*
X106659427Y-107597806D01*
X106656899Y-107627774D01*
X106656899Y-107772855D01*
X106549774Y-107772855D01*
X106549774Y-107627774D01*
X106549847Y-107621155D01*
X106552391Y-107588969D01*
X106558571Y-107558301D01*
X106568385Y-107529149D01*
X106581328Y-107502050D01*
X106598805Y-107475017D01*
X106619676Y-107450894D01*
X106621731Y-107448847D01*
X106646000Y-107428163D01*
X106670706Y-107412275D01*
X106697932Y-107399163D01*
X106706522Y-107395811D01*
X106736197Y-107387018D01*
X106767476Y-107381889D01*
X106796997Y-107380405D01*
X106909983Y-107380405D01*
X106920020Y-107380570D01*
G37*
G36*
X106998497Y-108608898D02*
G01*
X107027898Y-108606775D01*
X107057615Y-108598933D01*
X107068839Y-108593804D01*
X107094778Y-108576951D01*
X107115441Y-108556288D01*
X107131624Y-108531348D01*
X107141233Y-108507488D01*
X107147718Y-108477507D01*
X107149000Y-108458542D01*
X107149000Y-108114746D01*
X107041875Y-108114746D01*
X107041875Y-108458542D01*
X107033946Y-108487251D01*
X107030737Y-108490782D01*
X107002366Y-108501241D01*
X106998497Y-108501333D01*
X106907492Y-108501333D01*
X106907492Y-108114746D01*
X106799488Y-108114746D01*
X106799488Y-108501333D01*
X106709216Y-108501333D01*
X106680656Y-108494271D01*
X106665795Y-108468571D01*
X106665106Y-108458542D01*
X106665106Y-108114746D01*
X106557981Y-108114746D01*
X106557981Y-108458542D01*
X106560460Y-108489243D01*
X106565015Y-108507928D01*
X106576840Y-108535527D01*
X106583773Y-108546469D01*
X106603337Y-108568808D01*
X106610737Y-108575046D01*
X106635445Y-108590960D01*
X106642684Y-108594390D01*
X106671189Y-108604185D01*
X106676536Y-108605381D01*
X106706478Y-108608884D01*
X106708337Y-108608898D01*
X106998497Y-108608898D01*
G37*
G36*
X106481980Y-101106550D02*
G01*
X106483719Y-101137221D01*
X106489442Y-101166720D01*
X106491066Y-101172203D01*
X106502540Y-101200933D01*
X106515686Y-101223054D01*
X106534527Y-101245790D01*
X106551296Y-101260716D01*
X106575861Y-101277373D01*
X106593502Y-101286508D01*
X106621208Y-101296973D01*
X106638052Y-101301163D01*
X106667634Y-101305262D01*
X106680257Y-101305706D01*
X106456481Y-101499000D01*
X106622078Y-101499000D01*
X106845560Y-101305706D01*
X106922643Y-101305706D01*
X106922643Y-101198581D01*
X106680257Y-101198581D01*
X106650804Y-101192792D01*
X106643327Y-101190081D01*
X106617569Y-101174582D01*
X106614458Y-101171763D01*
X106596985Y-101146928D01*
X106595700Y-101143919D01*
X106589337Y-101114294D01*
X106589105Y-101106550D01*
X106589105Y-101038993D01*
X106591450Y-101025217D01*
X106597165Y-101018330D01*
X106604639Y-101015545D01*
X106611820Y-101015106D01*
X106965435Y-101015106D01*
X106965435Y-101499000D01*
X107072560Y-101499000D01*
X107072560Y-100961909D01*
X107068456Y-100940953D01*
X107057172Y-100923661D01*
X107040173Y-100912084D01*
X107018631Y-100907981D01*
X106611820Y-100907981D01*
X106582564Y-100910477D01*
X106554418Y-100919444D01*
X106551296Y-100921023D01*
X106526402Y-100937664D01*
X106511143Y-100953556D01*
X106495160Y-100979179D01*
X106488868Y-100995762D01*
X106482653Y-101025609D01*
X106481980Y-101038260D01*
X106481980Y-101106550D01*
G37*
G36*
X106206474Y-101499000D02*
G01*
X106314039Y-101499000D01*
X106314039Y-101015106D01*
X106410906Y-101015106D01*
X106410906Y-100907981D01*
X106206474Y-100907981D01*
X106206474Y-101499000D01*
G37*
G36*
X105636265Y-101062586D02*
G01*
X105926426Y-101255880D01*
X105941813Y-101270974D01*
X105949433Y-101289879D01*
X105949140Y-101310542D01*
X105940934Y-101330032D01*
X105921590Y-101347764D01*
X105896384Y-101353919D01*
X105881143Y-101351868D01*
X105866635Y-101344394D01*
X105577354Y-101151100D01*
X105561966Y-101136152D01*
X105553906Y-101117101D01*
X105553906Y-101096585D01*
X105562113Y-101076948D01*
X105577207Y-101062147D01*
X105596112Y-101054233D01*
X105616775Y-101054233D01*
X105636265Y-101062586D01*
G37*
G36*
X105854236Y-100908052D02*
G01*
X105884104Y-100910557D01*
X105913198Y-100916639D01*
X105941520Y-100926299D01*
X105947066Y-100928645D01*
X105973579Y-100942078D01*
X105998060Y-100958344D01*
X106020508Y-100977443D01*
X106024722Y-100981578D01*
X106044180Y-101003746D01*
X106060947Y-101028404D01*
X106075023Y-101055552D01*
X106078663Y-101064123D01*
X106088212Y-101093844D01*
X106093782Y-101125340D01*
X106095393Y-101155203D01*
X106095393Y-101251630D01*
X106095249Y-101260654D01*
X106092472Y-101291265D01*
X106086160Y-101320360D01*
X106084977Y-101324390D01*
X106074242Y-101353406D01*
X106060222Y-101380297D01*
X106058109Y-101383720D01*
X106040693Y-101407998D01*
X106020508Y-101429830D01*
X106017597Y-101432534D01*
X105994707Y-101451210D01*
X105969950Y-101467053D01*
X105966510Y-101468948D01*
X105939840Y-101481416D01*
X105911624Y-101490793D01*
X105907753Y-101491787D01*
X105878316Y-101497196D01*
X105848170Y-101499000D01*
X105654876Y-101499000D01*
X105650852Y-101498967D01*
X105621035Y-101496683D01*
X105591862Y-101490793D01*
X105588010Y-101489721D01*
X105560001Y-101479933D01*
X105533537Y-101467053D01*
X105530110Y-101465104D01*
X105505546Y-101448884D01*
X105482978Y-101429830D01*
X105480109Y-101427060D01*
X105460155Y-101404903D01*
X105442971Y-101380297D01*
X105440894Y-101376835D01*
X105427216Y-101349660D01*
X105416886Y-101320360D01*
X105414688Y-101312202D01*
X105409302Y-101282673D01*
X105407507Y-101251630D01*
X105515511Y-101251630D01*
X105517701Y-101279282D01*
X105525477Y-101308050D01*
X105534833Y-101327726D01*
X105553467Y-101352307D01*
X105570826Y-101366949D01*
X105597430Y-101381323D01*
X105624615Y-101389237D01*
X105654876Y-101391875D01*
X105848170Y-101391875D01*
X105871856Y-101390296D01*
X105901073Y-101382496D01*
X105922135Y-101372177D01*
X105945916Y-101354212D01*
X105961356Y-101336625D01*
X105976837Y-101309809D01*
X105985410Y-101282295D01*
X105988268Y-101251630D01*
X105988268Y-101155203D01*
X105985692Y-101126436D01*
X105976544Y-101097025D01*
X105964799Y-101075587D01*
X105945330Y-101052475D01*
X105927054Y-101038001D01*
X105900340Y-101024338D01*
X105877877Y-101017810D01*
X105848170Y-101015106D01*
X105654876Y-101015106D01*
X105631146Y-101016712D01*
X105602120Y-101024631D01*
X105581243Y-101034905D01*
X105557863Y-101053061D01*
X105541540Y-101072046D01*
X105527089Y-101097611D01*
X105518406Y-101124978D01*
X105515511Y-101155203D01*
X105515511Y-101251630D01*
X105407507Y-101251630D01*
X105407507Y-101155203D01*
X105407654Y-101146214D01*
X105410475Y-101115687D01*
X105416886Y-101086620D01*
X105418070Y-101082590D01*
X105428846Y-101053574D01*
X105442971Y-101026683D01*
X105445103Y-101023243D01*
X105462656Y-100998909D01*
X105482978Y-100977150D01*
X105485872Y-100974446D01*
X105508706Y-100955770D01*
X105533537Y-100939928D01*
X105536976Y-100938015D01*
X105563646Y-100925491D01*
X105591862Y-100916187D01*
X105595714Y-100915193D01*
X105624973Y-100909784D01*
X105654876Y-100907981D01*
X105848170Y-100907981D01*
X105854236Y-100908052D01*
G37*
G36*
X103788101Y-95749000D02*
G01*
X104174689Y-95749000D01*
X104204501Y-95745908D01*
X104206636Y-95745482D01*
X104235256Y-95736835D01*
X104240488Y-95734638D01*
X104266668Y-95719687D01*
X104272435Y-95715441D01*
X104294102Y-95694081D01*
X104299399Y-95687011D01*
X104313829Y-95660270D01*
X104318157Y-95648323D01*
X104324202Y-95618487D01*
X104325191Y-95598497D01*
X104325191Y-95308337D01*
X104322100Y-95278652D01*
X104321674Y-95276536D01*
X104313026Y-95247916D01*
X104310830Y-95242684D01*
X104295782Y-95216504D01*
X104291486Y-95210737D01*
X104270823Y-95189854D01*
X104262763Y-95183773D01*
X104236098Y-95169283D01*
X104224221Y-95165015D01*
X104194637Y-95158970D01*
X104174689Y-95157981D01*
X103788101Y-95157981D01*
X103788101Y-95265106D01*
X104174689Y-95265106D01*
X104203205Y-95273034D01*
X104206929Y-95276243D01*
X104217748Y-95303924D01*
X104217920Y-95309216D01*
X104217920Y-95598497D01*
X104209886Y-95626793D01*
X104206636Y-95630591D01*
X104178480Y-95641775D01*
X104174689Y-95641875D01*
X103788101Y-95641875D01*
X103788101Y-95749000D01*
G37*
G36*
X103165868Y-95749000D02*
G01*
X103708673Y-95749000D01*
X103708673Y-95550723D01*
X103705582Y-95520601D01*
X103705156Y-95518483D01*
X103696509Y-95489758D01*
X103694312Y-95484484D01*
X103679361Y-95458022D01*
X103675114Y-95452244D01*
X103653705Y-95430577D01*
X103646684Y-95425280D01*
X103620020Y-95410850D01*
X103608143Y-95406522D01*
X103578559Y-95400477D01*
X103558610Y-95399488D01*
X103317103Y-95399488D01*
X103288289Y-95391768D01*
X103284717Y-95388644D01*
X103274258Y-95360418D01*
X103274165Y-95356550D01*
X103274165Y-95309216D01*
X103281885Y-95279985D01*
X103285010Y-95276243D01*
X103312463Y-95265203D01*
X103316224Y-95265106D01*
X103660460Y-95265106D01*
X103660460Y-95157981D01*
X103316224Y-95157981D01*
X103285889Y-95160460D01*
X103267278Y-95165015D01*
X103239678Y-95176840D01*
X103228736Y-95183773D01*
X103206397Y-95203337D01*
X103200160Y-95210737D01*
X103184067Y-95235445D01*
X103180523Y-95242684D01*
X103170584Y-95271189D01*
X103169385Y-95276536D01*
X103165882Y-95306478D01*
X103165868Y-95308337D01*
X103165868Y-95356550D01*
X103167991Y-95386020D01*
X103175832Y-95415712D01*
X103180962Y-95426892D01*
X103197852Y-95452831D01*
X103218624Y-95473494D01*
X103243637Y-95489718D01*
X103267424Y-95499432D01*
X103297283Y-95506162D01*
X103316224Y-95507492D01*
X103558610Y-95507492D01*
X103579713Y-95511156D01*
X103591876Y-95521121D01*
X103598178Y-95535189D01*
X103601548Y-95550723D01*
X103601548Y-95641875D01*
X103165868Y-95641875D01*
X103165868Y-95749000D01*
G37*
G36*
X111567571Y-94412084D02*
G01*
X111584717Y-94423661D01*
X111596001Y-94440953D01*
X111600104Y-94461909D01*
X111600104Y-94945071D01*
X111596001Y-94966466D01*
X111584717Y-94983612D01*
X111567571Y-94994896D01*
X111546028Y-94999000D01*
X111256747Y-94999000D01*
X111250129Y-94998927D01*
X111217963Y-94996403D01*
X111187343Y-94990272D01*
X111158269Y-94980535D01*
X111131169Y-94967529D01*
X111104136Y-94950049D01*
X111080013Y-94929244D01*
X111077966Y-94927180D01*
X111057283Y-94902872D01*
X111041394Y-94878220D01*
X111028282Y-94851135D01*
X111024930Y-94842541D01*
X111016138Y-94812797D01*
X111011008Y-94781364D01*
X111009525Y-94751630D01*
X111116650Y-94751630D01*
X111118871Y-94780123D01*
X111126761Y-94809223D01*
X111137236Y-94830360D01*
X111155484Y-94853333D01*
X111173043Y-94867791D01*
X111199741Y-94881763D01*
X111226815Y-94889347D01*
X111256747Y-94891875D01*
X111492979Y-94891875D01*
X111492979Y-94515106D01*
X111256747Y-94515106D01*
X111228602Y-94517327D01*
X111199741Y-94525217D01*
X111179994Y-94534787D01*
X111155484Y-94553647D01*
X111140826Y-94571162D01*
X111126761Y-94598050D01*
X111119177Y-94625308D01*
X111116650Y-94655203D01*
X111116650Y-94751630D01*
X111009525Y-94751630D01*
X111009525Y-94655203D01*
X111009598Y-94648548D01*
X111012162Y-94616199D01*
X111018391Y-94585396D01*
X111028282Y-94556138D01*
X111029469Y-94553302D01*
X111042858Y-94526329D01*
X111059024Y-94501874D01*
X111080013Y-94477883D01*
X111104136Y-94457012D01*
X111131169Y-94439535D01*
X111158269Y-94426592D01*
X111166829Y-94423266D01*
X111196367Y-94414542D01*
X111227450Y-94409453D01*
X111256747Y-94407981D01*
X111546028Y-94407981D01*
X111567571Y-94412084D01*
G37*
G36*
X110383921Y-94999000D02*
G01*
X110926726Y-94999000D01*
X110926726Y-94800723D01*
X110923635Y-94770601D01*
X110923209Y-94768483D01*
X110914562Y-94739758D01*
X110912365Y-94734484D01*
X110897414Y-94708022D01*
X110893167Y-94702244D01*
X110871758Y-94680577D01*
X110864737Y-94675280D01*
X110838073Y-94660850D01*
X110826196Y-94656522D01*
X110796612Y-94650477D01*
X110776664Y-94649488D01*
X110535156Y-94649488D01*
X110506342Y-94641768D01*
X110502770Y-94638644D01*
X110492311Y-94610418D01*
X110492218Y-94606550D01*
X110492218Y-94559216D01*
X110499939Y-94529985D01*
X110503063Y-94526243D01*
X110530516Y-94515203D01*
X110534277Y-94515106D01*
X110878513Y-94515106D01*
X110878513Y-94407981D01*
X110534277Y-94407981D01*
X110503943Y-94410460D01*
X110485331Y-94415015D01*
X110457731Y-94426840D01*
X110446789Y-94433773D01*
X110424450Y-94453337D01*
X110418213Y-94460737D01*
X110402120Y-94485445D01*
X110398576Y-94492684D01*
X110388637Y-94521189D01*
X110387438Y-94526536D01*
X110383935Y-94556478D01*
X110383921Y-94558337D01*
X110383921Y-94606550D01*
X110386044Y-94636020D01*
X110393886Y-94665712D01*
X110399015Y-94676892D01*
X110415905Y-94702831D01*
X110436677Y-94723494D01*
X110461690Y-94739718D01*
X110485477Y-94749432D01*
X110515336Y-94756162D01*
X110534277Y-94757492D01*
X110776664Y-94757492D01*
X110797766Y-94761156D01*
X110809929Y-94771121D01*
X110816231Y-94785189D01*
X110819601Y-94800723D01*
X110819601Y-94891875D01*
X110383921Y-94891875D01*
X110383921Y-94999000D01*
G37*
D12*
%TO.C,G\u002A\u002A\u002A*%
G36*
X124837446Y-66847270D02*
G01*
X124859408Y-66848455D01*
X124893481Y-66854307D01*
X124926969Y-66864167D01*
X124959561Y-66878045D01*
X124990943Y-66895951D01*
X125020804Y-66917896D01*
X125031930Y-66927584D01*
X125056547Y-66953120D01*
X125077879Y-66981478D01*
X125095784Y-67012391D01*
X125110117Y-67045590D01*
X125120735Y-67080809D01*
X125127497Y-67117777D01*
X125127733Y-67120080D01*
X125128138Y-67129610D01*
X125128111Y-67142006D01*
X125127706Y-67156104D01*
X125126977Y-67170736D01*
X125125979Y-67184737D01*
X125124766Y-67196940D01*
X125123391Y-67206179D01*
X125120737Y-67218426D01*
X125110465Y-67252402D01*
X125096498Y-67284414D01*
X125079126Y-67314255D01*
X125058642Y-67341718D01*
X125035335Y-67366598D01*
X125009497Y-67388688D01*
X124981419Y-67407782D01*
X124951393Y-67423674D01*
X124919709Y-67436157D01*
X124886659Y-67445025D01*
X124852534Y-67450072D01*
X124817624Y-67451092D01*
X124782222Y-67447878D01*
X124778898Y-67447354D01*
X124743516Y-67439344D01*
X124709354Y-67427146D01*
X124676729Y-67410918D01*
X124645964Y-67390818D01*
X124617378Y-67367001D01*
X124602766Y-67353333D01*
X124434628Y-67353333D01*
X124415939Y-67353332D01*
X124387017Y-67353323D01*
X124362049Y-67353298D01*
X124340725Y-67353249D01*
X124322735Y-67353170D01*
X124307768Y-67353051D01*
X124295514Y-67352885D01*
X124285662Y-67352665D01*
X124277903Y-67352382D01*
X124271926Y-67352030D01*
X124267420Y-67351600D01*
X124264075Y-67351086D01*
X124261581Y-67350478D01*
X124259627Y-67349770D01*
X124257904Y-67348953D01*
X124256839Y-67348388D01*
X124246626Y-67340618D01*
X124238458Y-67330245D01*
X124233529Y-67318747D01*
X124233472Y-67318491D01*
X124233001Y-67313872D01*
X124232581Y-67305302D01*
X124232210Y-67293222D01*
X124231888Y-67278073D01*
X124231645Y-67262107D01*
X124322222Y-67262107D01*
X124479444Y-67262720D01*
X124496354Y-67262778D01*
X124525057Y-67262852D01*
X124549828Y-67262921D01*
X124570998Y-67263034D01*
X124588901Y-67263240D01*
X124603872Y-67263589D01*
X124616243Y-67264131D01*
X124626347Y-67264913D01*
X124634520Y-67265987D01*
X124641093Y-67267400D01*
X124646401Y-67269203D01*
X124650776Y-67271445D01*
X124654554Y-67274175D01*
X124658066Y-67277442D01*
X124661646Y-67281297D01*
X124665629Y-67285787D01*
X124670347Y-67290963D01*
X124680697Y-67301394D01*
X124704381Y-67321165D01*
X124729585Y-67336783D01*
X124756431Y-67348307D01*
X124785046Y-67355795D01*
X124815555Y-67359307D01*
X124836052Y-67359610D01*
X124855842Y-67358045D01*
X124875231Y-67354258D01*
X124896138Y-67347980D01*
X124909016Y-67343155D01*
X124932317Y-67331731D01*
X124953793Y-67317196D01*
X124974501Y-67298888D01*
X124982083Y-67291061D01*
X125001137Y-67267430D01*
X125016150Y-67242022D01*
X125027225Y-67214642D01*
X125034461Y-67185100D01*
X125037240Y-67161877D01*
X125037054Y-67131771D01*
X125032616Y-67102395D01*
X125024034Y-67074083D01*
X125011415Y-67047171D01*
X124994868Y-67021995D01*
X124974501Y-66998888D01*
X124964008Y-66989073D01*
X124943042Y-66972765D01*
X124920771Y-66959893D01*
X124896138Y-66949796D01*
X124876580Y-66943863D01*
X124857148Y-66939915D01*
X124837446Y-66938208D01*
X124815555Y-66938470D01*
X124801373Y-66939585D01*
X124771745Y-66944906D01*
X124743953Y-66954231D01*
X124717873Y-66967618D01*
X124693379Y-66985126D01*
X124670347Y-67006814D01*
X124667736Y-67009643D01*
X124663449Y-67014450D01*
X124659721Y-67018598D01*
X124656218Y-67022135D01*
X124652607Y-67025112D01*
X124648555Y-67027577D01*
X124643727Y-67029580D01*
X124637790Y-67031171D01*
X124630412Y-67032398D01*
X124621258Y-67033311D01*
X124609994Y-67033960D01*
X124596288Y-67034393D01*
X124579805Y-67034660D01*
X124560213Y-67034811D01*
X124537178Y-67034895D01*
X124510366Y-67034960D01*
X124479444Y-67035057D01*
X124322222Y-67035670D01*
X124322222Y-67262107D01*
X124231645Y-67262107D01*
X124231617Y-67260298D01*
X124231396Y-67240340D01*
X124231224Y-67218638D01*
X124231102Y-67195637D01*
X124231030Y-67171776D01*
X124231008Y-67147499D01*
X124231036Y-67123248D01*
X124231113Y-67099463D01*
X124231241Y-67076587D01*
X124231418Y-67055063D01*
X124231645Y-67035331D01*
X124231922Y-67017834D01*
X124232249Y-67003013D01*
X124232626Y-66991311D01*
X124233053Y-66983169D01*
X124233529Y-66979030D01*
X124233835Y-66977895D01*
X124239134Y-66966442D01*
X124247555Y-66956259D01*
X124257904Y-66948824D01*
X124258892Y-66948337D01*
X124260711Y-66947584D01*
X124262940Y-66946935D01*
X124265889Y-66946382D01*
X124269869Y-66945917D01*
X124275190Y-66945534D01*
X124282162Y-66945223D01*
X124291096Y-66944978D01*
X124302301Y-66944790D01*
X124316090Y-66944652D01*
X124332770Y-66944557D01*
X124352654Y-66944496D01*
X124376052Y-66944462D01*
X124403273Y-66944447D01*
X124434628Y-66944444D01*
X124602766Y-66944444D01*
X124617378Y-66930775D01*
X124630798Y-66918887D01*
X124660208Y-66896961D01*
X124691222Y-66878972D01*
X124723527Y-66864932D01*
X124756811Y-66854850D01*
X124790760Y-66848737D01*
X124825064Y-66846602D01*
X124837446Y-66847270D01*
G37*
G36*
X124837446Y-67698381D02*
G01*
X124859408Y-67699567D01*
X124893481Y-67705418D01*
X124926969Y-67715278D01*
X124959561Y-67729156D01*
X124990943Y-67747062D01*
X125020804Y-67769007D01*
X125031930Y-67778695D01*
X125056547Y-67804231D01*
X125077879Y-67832589D01*
X125095784Y-67863502D01*
X125110117Y-67896702D01*
X125120735Y-67931920D01*
X125127497Y-67968888D01*
X125127733Y-67971191D01*
X125128138Y-67980721D01*
X125128111Y-67993117D01*
X125127706Y-68007215D01*
X125126977Y-68021847D01*
X125125979Y-68035848D01*
X125124766Y-68048051D01*
X125123391Y-68057290D01*
X125120737Y-68069537D01*
X125110465Y-68103513D01*
X125096498Y-68135525D01*
X125079126Y-68165366D01*
X125058642Y-68192829D01*
X125035335Y-68217709D01*
X125009497Y-68239799D01*
X124981419Y-68258893D01*
X124951393Y-68274785D01*
X124919709Y-68287268D01*
X124886659Y-68296136D01*
X124852534Y-68301183D01*
X124817624Y-68302203D01*
X124782222Y-68298989D01*
X124778898Y-68298465D01*
X124743516Y-68290455D01*
X124709354Y-68278257D01*
X124676729Y-68262029D01*
X124645964Y-68241929D01*
X124617378Y-68218112D01*
X124602766Y-68204444D01*
X124434628Y-68204444D01*
X124415939Y-68204443D01*
X124387017Y-68204434D01*
X124362049Y-68204409D01*
X124340725Y-68204361D01*
X124322735Y-68204281D01*
X124307768Y-68204162D01*
X124295514Y-68203996D01*
X124285662Y-68203776D01*
X124277903Y-68203493D01*
X124271926Y-68203141D01*
X124267420Y-68202712D01*
X124264075Y-68202197D01*
X124261581Y-68201589D01*
X124259627Y-68200881D01*
X124257904Y-68200064D01*
X124256839Y-68199499D01*
X124246626Y-68191729D01*
X124238458Y-68181356D01*
X124233529Y-68169858D01*
X124233472Y-68169602D01*
X124233001Y-68164984D01*
X124232581Y-68156413D01*
X124232210Y-68144333D01*
X124231888Y-68129184D01*
X124231645Y-68113218D01*
X124322222Y-68113218D01*
X124479444Y-68113831D01*
X124496354Y-68113889D01*
X124525057Y-68113963D01*
X124549828Y-68114032D01*
X124570998Y-68114145D01*
X124588901Y-68114351D01*
X124603872Y-68114700D01*
X124616243Y-68115242D01*
X124626347Y-68116024D01*
X124634520Y-68117098D01*
X124641093Y-68118511D01*
X124646401Y-68120314D01*
X124650776Y-68122556D01*
X124654554Y-68125286D01*
X124658066Y-68128554D01*
X124661646Y-68132408D01*
X124665629Y-68136898D01*
X124670347Y-68142074D01*
X124680697Y-68152505D01*
X124704381Y-68172276D01*
X124729585Y-68187894D01*
X124756431Y-68199418D01*
X124785046Y-68206906D01*
X124815555Y-68210418D01*
X124836052Y-68210722D01*
X124855842Y-68209156D01*
X124875231Y-68205369D01*
X124896138Y-68199092D01*
X124909016Y-68194266D01*
X124932317Y-68182842D01*
X124953793Y-68168307D01*
X124974501Y-68150000D01*
X124982083Y-68142172D01*
X125001137Y-68118542D01*
X125016150Y-68093133D01*
X125027225Y-68065753D01*
X125034461Y-68036212D01*
X125037240Y-68012988D01*
X125037054Y-67982882D01*
X125032616Y-67953506D01*
X125024034Y-67925194D01*
X125011415Y-67898282D01*
X124994868Y-67873106D01*
X124974501Y-67850000D01*
X124964008Y-67840184D01*
X124943042Y-67823876D01*
X124920771Y-67811004D01*
X124896138Y-67800907D01*
X124876580Y-67794974D01*
X124857148Y-67791027D01*
X124837446Y-67789319D01*
X124815555Y-67789581D01*
X124801373Y-67790696D01*
X124771745Y-67796017D01*
X124743953Y-67805342D01*
X124717873Y-67818729D01*
X124693379Y-67836237D01*
X124670347Y-67857925D01*
X124667736Y-67860755D01*
X124663449Y-67865561D01*
X124659721Y-67869709D01*
X124656218Y-67873246D01*
X124652607Y-67876223D01*
X124648555Y-67878688D01*
X124643727Y-67880691D01*
X124637790Y-67882282D01*
X124630412Y-67883509D01*
X124621258Y-67884422D01*
X124609994Y-67885071D01*
X124596288Y-67885504D01*
X124579805Y-67885772D01*
X124560213Y-67885922D01*
X124537178Y-67886006D01*
X124510366Y-67886071D01*
X124479444Y-67886168D01*
X124322222Y-67886781D01*
X124322222Y-68113218D01*
X124231645Y-68113218D01*
X124231617Y-68111410D01*
X124231396Y-68091451D01*
X124231224Y-68069749D01*
X124231102Y-68046748D01*
X124231030Y-68022887D01*
X124231008Y-67998610D01*
X124231036Y-67974359D01*
X124231113Y-67950574D01*
X124231241Y-67927699D01*
X124231418Y-67906174D01*
X124231645Y-67886442D01*
X124231922Y-67868945D01*
X124232249Y-67854124D01*
X124232626Y-67842422D01*
X124233053Y-67834280D01*
X124233529Y-67830141D01*
X124233835Y-67829007D01*
X124239134Y-67817553D01*
X124247555Y-67807370D01*
X124257904Y-67799935D01*
X124258892Y-67799448D01*
X124260711Y-67798695D01*
X124262940Y-67798046D01*
X124265889Y-67797493D01*
X124269869Y-67797029D01*
X124275190Y-67796645D01*
X124282162Y-67796334D01*
X124291096Y-67796089D01*
X124302301Y-67795901D01*
X124316090Y-67795763D01*
X124332770Y-67795668D01*
X124352654Y-67795607D01*
X124376052Y-67795573D01*
X124403273Y-67795558D01*
X124434628Y-67795555D01*
X124602766Y-67795555D01*
X124617378Y-67781887D01*
X124630798Y-67769999D01*
X124660208Y-67748072D01*
X124691222Y-67730083D01*
X124723527Y-67716043D01*
X124756811Y-67705962D01*
X124790760Y-67699848D01*
X124825064Y-67697713D01*
X124837446Y-67698381D01*
G37*
G36*
X124837446Y-68549492D02*
G01*
X124859408Y-68550678D01*
X124893481Y-68556529D01*
X124926969Y-68566389D01*
X124959561Y-68580267D01*
X124990943Y-68598173D01*
X125020804Y-68620118D01*
X125031930Y-68629806D01*
X125056547Y-68655342D01*
X125077879Y-68683700D01*
X125095784Y-68714613D01*
X125110117Y-68747813D01*
X125120735Y-68783031D01*
X125127497Y-68820000D01*
X125127733Y-68822302D01*
X125128138Y-68831832D01*
X125128111Y-68844228D01*
X125127706Y-68858326D01*
X125126977Y-68872958D01*
X125125979Y-68886959D01*
X125124766Y-68899162D01*
X125123391Y-68908401D01*
X125120737Y-68920648D01*
X125110465Y-68954625D01*
X125096498Y-68986636D01*
X125079126Y-69016477D01*
X125058642Y-69043940D01*
X125035335Y-69068820D01*
X125009497Y-69090910D01*
X124981419Y-69110004D01*
X124951393Y-69125896D01*
X124919709Y-69138379D01*
X124886659Y-69147247D01*
X124852534Y-69152294D01*
X124817624Y-69153314D01*
X124782222Y-69150100D01*
X124778898Y-69149576D01*
X124743516Y-69141566D01*
X124709354Y-69129368D01*
X124676729Y-69113140D01*
X124645964Y-69093040D01*
X124617378Y-69069224D01*
X124602766Y-69055555D01*
X124434628Y-69055555D01*
X124415939Y-69055554D01*
X124387017Y-69055545D01*
X124362049Y-69055520D01*
X124340725Y-69055472D01*
X124322735Y-69055392D01*
X124307768Y-69055273D01*
X124295514Y-69055107D01*
X124285662Y-69054887D01*
X124277903Y-69054604D01*
X124271926Y-69054252D01*
X124267420Y-69053823D01*
X124264075Y-69053308D01*
X124261581Y-69052700D01*
X124259627Y-69051992D01*
X124257904Y-69051175D01*
X124256839Y-69050610D01*
X124246626Y-69042840D01*
X124238458Y-69032467D01*
X124233529Y-69020969D01*
X124233472Y-69020713D01*
X124233001Y-69016095D01*
X124232581Y-69007524D01*
X124232210Y-68995444D01*
X124231888Y-68980295D01*
X124231645Y-68964329D01*
X124322222Y-68964329D01*
X124479444Y-68964942D01*
X124496354Y-68965000D01*
X124525057Y-68965074D01*
X124549828Y-68965143D01*
X124570998Y-68965256D01*
X124588901Y-68965462D01*
X124603872Y-68965812D01*
X124616243Y-68966353D01*
X124626347Y-68967135D01*
X124634520Y-68968209D01*
X124641093Y-68969622D01*
X124646401Y-68971425D01*
X124650776Y-68973667D01*
X124654554Y-68976397D01*
X124658066Y-68979665D01*
X124661646Y-68983519D01*
X124665629Y-68988009D01*
X124670347Y-68993185D01*
X124680697Y-69003617D01*
X124704381Y-69023387D01*
X124729585Y-69039005D01*
X124756431Y-69050529D01*
X124785046Y-69058017D01*
X124815555Y-69061529D01*
X124836052Y-69061833D01*
X124855842Y-69060267D01*
X124875231Y-69056480D01*
X124896138Y-69050203D01*
X124909016Y-69045377D01*
X124932317Y-69033953D01*
X124953793Y-69019418D01*
X124974501Y-69001111D01*
X124982083Y-68993283D01*
X125001137Y-68969653D01*
X125016150Y-68944244D01*
X125027225Y-68916864D01*
X125034461Y-68887323D01*
X125037240Y-68864099D01*
X125037054Y-68833993D01*
X125032616Y-68804617D01*
X125024034Y-68776305D01*
X125011415Y-68749394D01*
X124994868Y-68724217D01*
X124974501Y-68701111D01*
X124964008Y-68691295D01*
X124943042Y-68674987D01*
X124920771Y-68662116D01*
X124896138Y-68652019D01*
X124876580Y-68646085D01*
X124857148Y-68642138D01*
X124837446Y-68640430D01*
X124815555Y-68640692D01*
X124801373Y-68641807D01*
X124771745Y-68647128D01*
X124743953Y-68656453D01*
X124717873Y-68669840D01*
X124693379Y-68687348D01*
X124670347Y-68709036D01*
X124667736Y-68711866D01*
X124663449Y-68716672D01*
X124659721Y-68720820D01*
X124656218Y-68724357D01*
X124652607Y-68727334D01*
X124648555Y-68729799D01*
X124643727Y-68731802D01*
X124637790Y-68733393D01*
X124630412Y-68734620D01*
X124621258Y-68735533D01*
X124609994Y-68736182D01*
X124596288Y-68736615D01*
X124579805Y-68736883D01*
X124560213Y-68737033D01*
X124537178Y-68737117D01*
X124510366Y-68737182D01*
X124479444Y-68737279D01*
X124322222Y-68737892D01*
X124322222Y-68964329D01*
X124231645Y-68964329D01*
X124231617Y-68962521D01*
X124231396Y-68942562D01*
X124231224Y-68920861D01*
X124231102Y-68897859D01*
X124231030Y-68873999D01*
X124231008Y-68849722D01*
X124231036Y-68825470D01*
X124231113Y-68801685D01*
X124231241Y-68778810D01*
X124231418Y-68757285D01*
X124231645Y-68737553D01*
X124231922Y-68720056D01*
X124232249Y-68705235D01*
X124232626Y-68693533D01*
X124233053Y-68685391D01*
X124233529Y-68681252D01*
X124233835Y-68680118D01*
X124239134Y-68668665D01*
X124247555Y-68658481D01*
X124257904Y-68651046D01*
X124258892Y-68650559D01*
X124260711Y-68649806D01*
X124262940Y-68649157D01*
X124265889Y-68648604D01*
X124269869Y-68648140D01*
X124275190Y-68647756D01*
X124282162Y-68647445D01*
X124291096Y-68647200D01*
X124302301Y-68647012D01*
X124316090Y-68646874D01*
X124332770Y-68646779D01*
X124352654Y-68646718D01*
X124376052Y-68646684D01*
X124403273Y-68646669D01*
X124434628Y-68646666D01*
X124602766Y-68646666D01*
X124617378Y-68632998D01*
X124630798Y-68621110D01*
X124660208Y-68599183D01*
X124691222Y-68581194D01*
X124723527Y-68567154D01*
X124756811Y-68557073D01*
X124790760Y-68550959D01*
X124825064Y-68548824D01*
X124837446Y-68549492D01*
G37*
G36*
X123263691Y-66243333D02*
G01*
X123865555Y-66243333D01*
X123885282Y-66248358D01*
X123904766Y-66254320D01*
X123931839Y-66266209D01*
X123956673Y-66281489D01*
X123978971Y-66299825D01*
X123998435Y-66320879D01*
X124014767Y-66344316D01*
X124027670Y-66369798D01*
X124036846Y-66396990D01*
X124041998Y-66425555D01*
X124042038Y-66426156D01*
X124042168Y-66430966D01*
X124042293Y-66440041D01*
X124042415Y-66453240D01*
X124042533Y-66470427D01*
X124042646Y-66491463D01*
X124042756Y-66516210D01*
X124042862Y-66544529D01*
X124042963Y-66576283D01*
X124043061Y-66611333D01*
X124043154Y-66649542D01*
X124043244Y-66690769D01*
X124043330Y-66734879D01*
X124043411Y-66781732D01*
X124043489Y-66831190D01*
X124043562Y-66883115D01*
X124043632Y-66937368D01*
X124043697Y-66993812D01*
X124043759Y-67052308D01*
X124043816Y-67112719D01*
X124043869Y-67174905D01*
X124043919Y-67238729D01*
X124043964Y-67304052D01*
X124044005Y-67370737D01*
X124044042Y-67438644D01*
X124044075Y-67507636D01*
X124044104Y-67577575D01*
X124044128Y-67648322D01*
X124044149Y-67719740D01*
X124044166Y-67791689D01*
X124044178Y-67864032D01*
X124044186Y-67936630D01*
X124044191Y-68009346D01*
X124044191Y-68082041D01*
X124044187Y-68154576D01*
X124044178Y-68226814D01*
X124044166Y-68298617D01*
X124044150Y-68369846D01*
X124044129Y-68440363D01*
X124044104Y-68510029D01*
X124044075Y-68578707D01*
X124044042Y-68646259D01*
X124044005Y-68712545D01*
X124043963Y-68777429D01*
X124043917Y-68840771D01*
X124043868Y-68902434D01*
X124043814Y-68962279D01*
X124043755Y-69020168D01*
X124043693Y-69075963D01*
X124043626Y-69129525D01*
X124043555Y-69180717D01*
X124043480Y-69229400D01*
X124043401Y-69275436D01*
X124043317Y-69318687D01*
X124043229Y-69359014D01*
X124043137Y-69396280D01*
X124043041Y-69430346D01*
X124042941Y-69461074D01*
X124042836Y-69488325D01*
X124042727Y-69511962D01*
X124042613Y-69531846D01*
X124042496Y-69547840D01*
X124042374Y-69559804D01*
X124042248Y-69567600D01*
X124042117Y-69571091D01*
X124039366Y-69589814D01*
X124031672Y-69618669D01*
X124020172Y-69645636D01*
X124005117Y-69670427D01*
X123986758Y-69692752D01*
X123965344Y-69712325D01*
X123941127Y-69728856D01*
X123914356Y-69742057D01*
X123885282Y-69751641D01*
X123865555Y-69756666D01*
X122134444Y-69756666D01*
X122114717Y-69751641D01*
X122096424Y-69746137D01*
X122068749Y-69734276D01*
X122043533Y-69718975D01*
X122021025Y-69700523D01*
X122001477Y-69679209D01*
X121985138Y-69655320D01*
X121972259Y-69629146D01*
X121963090Y-69600973D01*
X121957882Y-69571091D01*
X121957861Y-69570850D01*
X121957712Y-69566575D01*
X121957567Y-69558013D01*
X121957427Y-69545303D01*
X121957292Y-69528583D01*
X121957162Y-69507991D01*
X121957036Y-69483666D01*
X121956915Y-69455748D01*
X121956799Y-69424374D01*
X121956687Y-69389683D01*
X121956581Y-69351813D01*
X121956479Y-69310904D01*
X121956382Y-69267094D01*
X121956289Y-69220521D01*
X121956202Y-69171324D01*
X121956119Y-69119642D01*
X121956041Y-69065613D01*
X121955967Y-69009376D01*
X121955899Y-68951069D01*
X121955835Y-68890832D01*
X121955776Y-68828802D01*
X121955721Y-68765118D01*
X121955672Y-68699919D01*
X121955627Y-68633343D01*
X121955587Y-68565529D01*
X121955552Y-68496616D01*
X121955521Y-68426742D01*
X121955495Y-68356046D01*
X121955474Y-68284667D01*
X121955458Y-68212742D01*
X121955446Y-68140411D01*
X121955439Y-68067812D01*
X121955438Y-68046059D01*
X122047777Y-68046059D01*
X122047778Y-68144250D01*
X122047779Y-68238138D01*
X122047781Y-68327821D01*
X122047785Y-68413395D01*
X122047790Y-68494957D01*
X122047797Y-68572606D01*
X122047806Y-68646437D01*
X122047817Y-68716548D01*
X122047831Y-68783038D01*
X122047848Y-68846001D01*
X122047867Y-68905537D01*
X122047890Y-68961742D01*
X122047917Y-69014713D01*
X122047947Y-69064547D01*
X122047981Y-69111343D01*
X122048020Y-69155196D01*
X122048063Y-69196205D01*
X122048111Y-69234465D01*
X122048164Y-69270076D01*
X122048222Y-69303134D01*
X122048286Y-69333735D01*
X122048355Y-69361978D01*
X122048431Y-69387959D01*
X122048513Y-69411776D01*
X122048601Y-69433526D01*
X122048697Y-69453306D01*
X122048799Y-69471214D01*
X122048908Y-69487346D01*
X122049026Y-69501800D01*
X122049150Y-69514673D01*
X122049283Y-69526062D01*
X122049425Y-69536065D01*
X122049575Y-69544778D01*
X122049733Y-69552299D01*
X122049901Y-69558725D01*
X122050078Y-69564154D01*
X122050264Y-69568682D01*
X122050461Y-69572407D01*
X122050667Y-69575426D01*
X122050884Y-69577836D01*
X122051111Y-69579735D01*
X122051349Y-69581219D01*
X122051598Y-69582386D01*
X122051859Y-69583333D01*
X122059752Y-69603005D01*
X122071720Y-69621928D01*
X122086945Y-69637983D01*
X122105154Y-69650889D01*
X122126075Y-69660362D01*
X122141111Y-69665555D01*
X123858888Y-69665555D01*
X123873924Y-69660362D01*
X123891514Y-69652729D01*
X123910203Y-69640360D01*
X123926011Y-69624711D01*
X123938723Y-69605999D01*
X123948125Y-69584444D01*
X123948237Y-69584094D01*
X123948495Y-69583140D01*
X123948740Y-69581928D01*
X123948975Y-69580361D01*
X123949200Y-69578342D01*
X123949413Y-69575774D01*
X123949617Y-69572558D01*
X123949811Y-69568598D01*
X123949995Y-69563796D01*
X123950170Y-69558055D01*
X123950335Y-69551277D01*
X123950492Y-69543365D01*
X123950641Y-69534223D01*
X123950781Y-69523751D01*
X123950913Y-69511854D01*
X123951037Y-69498433D01*
X123951154Y-69483392D01*
X123951264Y-69466632D01*
X123951367Y-69448057D01*
X123951463Y-69427569D01*
X123951553Y-69405071D01*
X123951637Y-69380465D01*
X123951715Y-69353654D01*
X123951787Y-69324541D01*
X123951854Y-69293028D01*
X123951916Y-69259018D01*
X123951973Y-69222414D01*
X123952026Y-69183118D01*
X123952075Y-69141033D01*
X123952120Y-69096061D01*
X123952161Y-69048105D01*
X123952198Y-68997068D01*
X123952233Y-68942853D01*
X123952265Y-68885361D01*
X123952294Y-68824496D01*
X123952321Y-68760160D01*
X123952345Y-68692256D01*
X123952368Y-68620687D01*
X123952390Y-68545355D01*
X123952410Y-68466162D01*
X123952429Y-68383012D01*
X123952448Y-68295807D01*
X123952466Y-68204450D01*
X123952484Y-68108843D01*
X123952503Y-68008888D01*
X123952513Y-67943141D01*
X123952521Y-67860684D01*
X123952525Y-67779382D01*
X123952523Y-67699347D01*
X123952517Y-67620694D01*
X123952506Y-67543536D01*
X123952491Y-67467986D01*
X123952471Y-67394158D01*
X123952446Y-67322164D01*
X123952418Y-67252120D01*
X123952385Y-67184137D01*
X123952348Y-67118330D01*
X123952307Y-67054812D01*
X123952263Y-66993696D01*
X123952215Y-66935096D01*
X123952163Y-66879125D01*
X123952107Y-66825897D01*
X123952048Y-66775525D01*
X123951986Y-66728123D01*
X123951921Y-66683804D01*
X123951853Y-66642681D01*
X123951781Y-66604869D01*
X123951707Y-66570479D01*
X123951630Y-66539627D01*
X123951550Y-66512425D01*
X123951468Y-66488987D01*
X123951384Y-66469425D01*
X123951297Y-66453855D01*
X123951207Y-66442388D01*
X123951116Y-66435140D01*
X123951023Y-66432222D01*
X123947477Y-66415378D01*
X123939492Y-66395440D01*
X123927985Y-66377623D01*
X123913343Y-66362314D01*
X123895948Y-66349899D01*
X123876187Y-66340764D01*
X123854444Y-66335295D01*
X123854259Y-66335272D01*
X123850338Y-66335099D01*
X123842081Y-66334936D01*
X123829585Y-66334782D01*
X123812947Y-66334638D01*
X123792264Y-66334504D01*
X123767631Y-66334380D01*
X123739147Y-66334266D01*
X123706907Y-66334162D01*
X123671008Y-66334069D01*
X123631547Y-66333987D01*
X123588620Y-66333916D01*
X123542324Y-66333855D01*
X123492756Y-66333806D01*
X123440012Y-66333768D01*
X123384189Y-66333742D01*
X123325383Y-66333727D01*
X123263691Y-66333725D01*
X123199211Y-66333734D01*
X123132037Y-66333755D01*
X123062268Y-66333789D01*
X122990000Y-66333835D01*
X122138888Y-66334444D01*
X122123601Y-66340383D01*
X122107096Y-66348069D01*
X122088306Y-66360841D01*
X122072772Y-66376600D01*
X122060590Y-66395243D01*
X122051859Y-66416666D01*
X122051739Y-66417075D01*
X122051484Y-66418110D01*
X122051240Y-66419409D01*
X122051007Y-66421070D01*
X122050784Y-66423189D01*
X122050572Y-66425863D01*
X122050370Y-66429191D01*
X122050179Y-66433269D01*
X122049996Y-66438194D01*
X122049824Y-66444064D01*
X122049660Y-66450976D01*
X122049505Y-66459026D01*
X122049360Y-66468313D01*
X122049222Y-66478934D01*
X122049093Y-66490985D01*
X122048971Y-66504564D01*
X122048858Y-66519768D01*
X122048751Y-66536695D01*
X122048652Y-66555441D01*
X122048560Y-66576104D01*
X122048475Y-66598781D01*
X122048396Y-66623570D01*
X122048323Y-66650566D01*
X122048256Y-66679869D01*
X122048195Y-66711574D01*
X122048139Y-66745780D01*
X122048088Y-66782582D01*
X122048043Y-66822079D01*
X122048002Y-66864368D01*
X122047965Y-66909546D01*
X122047933Y-66957710D01*
X122047904Y-67008958D01*
X122047879Y-67063386D01*
X122047858Y-67121092D01*
X122047840Y-67182173D01*
X122047825Y-67246727D01*
X122047812Y-67314849D01*
X122047802Y-67386639D01*
X122047794Y-67462192D01*
X122047788Y-67541607D01*
X122047783Y-67624980D01*
X122047780Y-67712408D01*
X122047778Y-67803990D01*
X122047778Y-67899821D01*
X122047777Y-68000000D01*
X122047777Y-68046059D01*
X121955438Y-68046059D01*
X121955437Y-67995084D01*
X121955440Y-67922365D01*
X121955448Y-67849794D01*
X121955460Y-67777510D01*
X121955477Y-67705651D01*
X121955498Y-67634355D01*
X121955525Y-67563762D01*
X121955556Y-67494010D01*
X121955592Y-67425238D01*
X121955633Y-67357583D01*
X121955678Y-67291185D01*
X121955729Y-67226183D01*
X121955784Y-67162715D01*
X121955843Y-67100919D01*
X121955908Y-67040934D01*
X121955977Y-66982899D01*
X121956051Y-66926952D01*
X121956130Y-66873232D01*
X121956213Y-66821878D01*
X121956302Y-66773027D01*
X121956395Y-66726820D01*
X121956492Y-66683393D01*
X121956595Y-66642887D01*
X121956702Y-66605439D01*
X121956814Y-66571188D01*
X121956931Y-66540273D01*
X121957053Y-66512832D01*
X121957179Y-66489004D01*
X121957310Y-66468927D01*
X121957446Y-66452741D01*
X121957586Y-66440583D01*
X121957732Y-66432592D01*
X121957882Y-66428908D01*
X121960633Y-66410185D01*
X121968327Y-66381330D01*
X121979827Y-66354363D01*
X121994882Y-66329572D01*
X122013241Y-66307247D01*
X122034655Y-66287674D01*
X122058872Y-66271143D01*
X122085643Y-66257942D01*
X122114717Y-66248358D01*
X122134444Y-66243333D01*
X123263691Y-66243333D01*
G37*
G36*
X121217777Y-66849899D02*
G01*
X121221101Y-66850423D01*
X121256483Y-66858433D01*
X121290645Y-66870631D01*
X121323270Y-66886859D01*
X121354035Y-66906959D01*
X121382621Y-66930775D01*
X121397233Y-66944444D01*
X121565371Y-66944444D01*
X121586265Y-66944445D01*
X121614885Y-66944454D01*
X121639573Y-66944480D01*
X121660640Y-66944529D01*
X121678396Y-66944610D01*
X121693153Y-66944731D01*
X121705220Y-66944899D01*
X121714909Y-66945122D01*
X121722529Y-66945408D01*
X121728392Y-66945765D01*
X121732807Y-66946200D01*
X121736086Y-66946722D01*
X121738540Y-66947338D01*
X121740478Y-66948056D01*
X121742211Y-66948883D01*
X121751623Y-66955497D01*
X121760314Y-66965617D01*
X121765940Y-66977174D01*
X121766087Y-66977830D01*
X121766578Y-66982851D01*
X121767023Y-66991757D01*
X121767422Y-67004110D01*
X121767774Y-67019474D01*
X121768078Y-67037413D01*
X121768334Y-67057491D01*
X121768541Y-67079270D01*
X121768699Y-67102316D01*
X121768806Y-67126191D01*
X121768862Y-67150459D01*
X121768866Y-67174683D01*
X121768819Y-67198428D01*
X121768718Y-67221257D01*
X121768563Y-67242733D01*
X121768354Y-67262420D01*
X121768090Y-67279881D01*
X121767770Y-67294681D01*
X121767394Y-67306383D01*
X121766961Y-67314551D01*
X121766470Y-67318747D01*
X121766164Y-67319881D01*
X121760865Y-67331334D01*
X121752444Y-67341518D01*
X121742095Y-67348953D01*
X121741107Y-67349440D01*
X121739288Y-67350193D01*
X121737059Y-67350842D01*
X121734110Y-67351395D01*
X121730130Y-67351859D01*
X121724809Y-67352243D01*
X121717837Y-67352554D01*
X121708903Y-67352799D01*
X121697698Y-67352987D01*
X121683909Y-67353125D01*
X121667229Y-67353220D01*
X121647345Y-67353281D01*
X121623947Y-67353315D01*
X121596726Y-67353330D01*
X121565371Y-67353333D01*
X121397233Y-67353333D01*
X121382621Y-67367001D01*
X121356967Y-67388614D01*
X121326888Y-67408773D01*
X121295174Y-67425096D01*
X121262158Y-67437521D01*
X121228174Y-67445989D01*
X121193553Y-67450438D01*
X121158630Y-67450806D01*
X121123737Y-67447034D01*
X121089208Y-67439061D01*
X121055376Y-67426824D01*
X121048631Y-67423821D01*
X121016360Y-67406613D01*
X120986719Y-67385966D01*
X120959925Y-67362151D01*
X120936195Y-67335438D01*
X120915746Y-67306094D01*
X120898797Y-67274391D01*
X120885564Y-67240596D01*
X120876266Y-67204980D01*
X120874937Y-67196890D01*
X120873323Y-67180753D01*
X120872444Y-67162361D01*
X120872298Y-67143041D01*
X120872599Y-67133387D01*
X120962837Y-67133387D01*
X120962843Y-67163086D01*
X120967086Y-67193032D01*
X120975642Y-67222875D01*
X120977174Y-67226967D01*
X120989298Y-67252462D01*
X121005336Y-67276330D01*
X121025498Y-67298888D01*
X121035991Y-67308704D01*
X121056957Y-67325012D01*
X121079228Y-67337883D01*
X121103861Y-67347980D01*
X121123419Y-67353914D01*
X121142851Y-67357861D01*
X121162553Y-67359569D01*
X121184444Y-67359307D01*
X121198626Y-67358192D01*
X121228254Y-67352871D01*
X121256046Y-67343546D01*
X121282126Y-67330159D01*
X121306620Y-67312651D01*
X121329652Y-67290963D01*
X121332263Y-67288133D01*
X121336550Y-67283327D01*
X121340278Y-67279179D01*
X121343781Y-67275642D01*
X121347392Y-67272665D01*
X121351444Y-67270200D01*
X121356272Y-67268197D01*
X121362209Y-67266606D01*
X121369587Y-67265379D01*
X121378741Y-67264466D01*
X121390005Y-67263817D01*
X121403711Y-67263384D01*
X121420194Y-67263116D01*
X121439786Y-67262966D01*
X121462821Y-67262882D01*
X121489633Y-67262817D01*
X121520555Y-67262720D01*
X121677777Y-67262107D01*
X121677777Y-67035670D01*
X121520555Y-67035057D01*
X121503645Y-67034999D01*
X121474942Y-67034925D01*
X121450171Y-67034856D01*
X121429001Y-67034743D01*
X121411098Y-67034537D01*
X121396127Y-67034187D01*
X121383756Y-67033646D01*
X121373652Y-67032864D01*
X121365479Y-67031790D01*
X121358906Y-67030377D01*
X121353598Y-67028574D01*
X121349223Y-67026332D01*
X121345445Y-67023602D01*
X121341933Y-67020334D01*
X121338353Y-67016480D01*
X121334370Y-67011990D01*
X121329652Y-67006814D01*
X121319302Y-66996382D01*
X121295618Y-66976612D01*
X121270414Y-66960994D01*
X121243568Y-66949470D01*
X121214953Y-66941982D01*
X121184444Y-66938470D01*
X121163947Y-66938166D01*
X121144157Y-66939732D01*
X121124768Y-66943519D01*
X121103861Y-66949796D01*
X121090983Y-66954622D01*
X121067682Y-66966046D01*
X121046206Y-66980581D01*
X121025498Y-66998888D01*
X121023635Y-67000749D01*
X121003622Y-67024003D01*
X120987459Y-67049242D01*
X120975222Y-67076117D01*
X120966989Y-67104281D01*
X120962837Y-67133387D01*
X120872599Y-67133387D01*
X120872887Y-67124123D01*
X120874209Y-67106932D01*
X120876266Y-67092797D01*
X120879300Y-67079772D01*
X120884247Y-67062558D01*
X120890158Y-67044877D01*
X120896485Y-67028348D01*
X120902680Y-67014590D01*
X120917040Y-66989154D01*
X120937743Y-66960201D01*
X120961418Y-66934123D01*
X120987732Y-66911093D01*
X121016351Y-66891286D01*
X121046941Y-66874877D01*
X121079169Y-66862039D01*
X121112700Y-66852948D01*
X121147201Y-66847778D01*
X121163947Y-66847266D01*
X121182338Y-66846703D01*
X121217777Y-66849899D01*
G37*
G36*
X121217777Y-67701010D02*
G01*
X121221101Y-67701534D01*
X121256483Y-67709544D01*
X121290645Y-67721742D01*
X121323270Y-67737970D01*
X121354035Y-67758070D01*
X121382621Y-67781887D01*
X121397233Y-67795555D01*
X121565371Y-67795555D01*
X121586265Y-67795556D01*
X121614885Y-67795565D01*
X121639573Y-67795591D01*
X121660640Y-67795640D01*
X121678396Y-67795721D01*
X121693153Y-67795842D01*
X121705220Y-67796010D01*
X121714909Y-67796233D01*
X121722529Y-67796519D01*
X121728392Y-67796876D01*
X121732807Y-67797312D01*
X121736086Y-67797833D01*
X121738540Y-67798449D01*
X121740478Y-67799167D01*
X121742211Y-67799994D01*
X121751623Y-67806608D01*
X121760314Y-67816728D01*
X121765940Y-67828285D01*
X121766087Y-67828941D01*
X121766578Y-67833963D01*
X121767023Y-67842868D01*
X121767422Y-67855221D01*
X121767774Y-67870585D01*
X121768078Y-67888524D01*
X121768334Y-67908602D01*
X121768541Y-67930381D01*
X121768699Y-67953427D01*
X121768806Y-67977302D01*
X121768862Y-68001570D01*
X121768866Y-68025794D01*
X121768819Y-68049539D01*
X121768718Y-68072368D01*
X121768563Y-68093844D01*
X121768354Y-68113531D01*
X121768090Y-68130993D01*
X121767770Y-68145793D01*
X121767394Y-68157494D01*
X121766961Y-68165662D01*
X121766470Y-68169858D01*
X121766164Y-68170992D01*
X121760865Y-68182446D01*
X121752444Y-68192629D01*
X121742095Y-68200064D01*
X121741107Y-68200551D01*
X121739288Y-68201304D01*
X121737059Y-68201953D01*
X121734110Y-68202506D01*
X121730130Y-68202970D01*
X121724809Y-68203354D01*
X121717837Y-68203665D01*
X121708903Y-68203910D01*
X121697698Y-68204098D01*
X121683909Y-68204236D01*
X121667229Y-68204331D01*
X121647345Y-68204392D01*
X121623947Y-68204426D01*
X121596726Y-68204441D01*
X121565371Y-68204444D01*
X121397233Y-68204444D01*
X121382621Y-68218112D01*
X121356967Y-68239725D01*
X121326888Y-68259884D01*
X121295174Y-68276207D01*
X121262158Y-68288632D01*
X121228174Y-68297100D01*
X121193553Y-68301549D01*
X121158630Y-68301917D01*
X121123737Y-68298145D01*
X121089208Y-68290172D01*
X121055376Y-68277936D01*
X121048631Y-68274933D01*
X121016360Y-68257724D01*
X120986719Y-68237077D01*
X120959925Y-68213263D01*
X120936195Y-68186549D01*
X120915746Y-68157205D01*
X120898797Y-68125502D01*
X120885564Y-68091707D01*
X120876266Y-68056091D01*
X120874937Y-68048001D01*
X120873323Y-68031864D01*
X120872444Y-68013472D01*
X120872298Y-67994152D01*
X120872599Y-67984498D01*
X120962837Y-67984498D01*
X120962843Y-68014197D01*
X120967086Y-68044143D01*
X120975642Y-68073986D01*
X120977174Y-68078078D01*
X120989298Y-68103573D01*
X121005336Y-68127441D01*
X121025498Y-68150000D01*
X121035991Y-68159815D01*
X121056957Y-68176123D01*
X121079228Y-68188995D01*
X121103861Y-68199092D01*
X121123419Y-68205025D01*
X121142851Y-68208972D01*
X121162553Y-68210680D01*
X121184444Y-68210418D01*
X121198626Y-68209303D01*
X121228254Y-68203982D01*
X121256046Y-68194657D01*
X121282126Y-68181270D01*
X121306620Y-68163762D01*
X121329652Y-68142074D01*
X121332263Y-68139244D01*
X121336550Y-68134438D01*
X121340278Y-68130290D01*
X121343781Y-68126753D01*
X121347392Y-68123776D01*
X121351444Y-68121311D01*
X121356272Y-68119308D01*
X121362209Y-68117717D01*
X121369587Y-68116490D01*
X121378741Y-68115577D01*
X121390005Y-68114928D01*
X121403711Y-68114495D01*
X121420194Y-68114227D01*
X121439786Y-68114077D01*
X121462821Y-68113993D01*
X121489633Y-68113928D01*
X121520555Y-68113831D01*
X121677777Y-68113218D01*
X121677777Y-67886781D01*
X121520555Y-67886168D01*
X121503645Y-67886110D01*
X121474942Y-67886036D01*
X121450171Y-67885967D01*
X121429001Y-67885854D01*
X121411098Y-67885648D01*
X121396127Y-67885299D01*
X121383756Y-67884757D01*
X121373652Y-67883975D01*
X121365479Y-67882901D01*
X121358906Y-67881488D01*
X121353598Y-67879685D01*
X121349223Y-67877443D01*
X121345445Y-67874713D01*
X121341933Y-67871445D01*
X121338353Y-67867591D01*
X121334370Y-67863101D01*
X121329652Y-67857925D01*
X121319302Y-67847494D01*
X121295618Y-67827723D01*
X121270414Y-67812105D01*
X121243568Y-67800581D01*
X121214953Y-67793093D01*
X121184444Y-67789581D01*
X121163947Y-67789277D01*
X121144157Y-67790843D01*
X121124768Y-67794630D01*
X121103861Y-67800907D01*
X121090983Y-67805733D01*
X121067682Y-67817157D01*
X121046206Y-67831692D01*
X121025498Y-67850000D01*
X121023635Y-67851861D01*
X121003622Y-67875114D01*
X120987459Y-67900353D01*
X120975222Y-67927228D01*
X120966989Y-67955392D01*
X120962837Y-67984498D01*
X120872599Y-67984498D01*
X120872887Y-67975234D01*
X120874209Y-67958043D01*
X120876266Y-67943908D01*
X120879300Y-67930883D01*
X120884247Y-67913669D01*
X120890158Y-67895988D01*
X120896485Y-67879459D01*
X120902680Y-67865701D01*
X120917040Y-67840265D01*
X120937743Y-67811312D01*
X120961418Y-67785234D01*
X120987732Y-67762204D01*
X121016351Y-67742397D01*
X121046941Y-67725988D01*
X121079169Y-67713150D01*
X121112700Y-67704059D01*
X121147201Y-67698889D01*
X121163947Y-67698377D01*
X121182338Y-67697815D01*
X121217777Y-67701010D01*
G37*
G36*
X121217777Y-68552121D02*
G01*
X121221101Y-68552645D01*
X121256483Y-68560655D01*
X121290645Y-68572853D01*
X121323270Y-68589081D01*
X121354035Y-68609181D01*
X121382621Y-68632998D01*
X121397233Y-68646666D01*
X121565371Y-68646666D01*
X121586265Y-68646667D01*
X121614885Y-68646676D01*
X121639573Y-68646702D01*
X121660640Y-68646751D01*
X121678396Y-68646832D01*
X121693153Y-68646953D01*
X121705220Y-68647121D01*
X121714909Y-68647344D01*
X121722529Y-68647630D01*
X121728392Y-68647987D01*
X121732807Y-68648423D01*
X121736086Y-68648944D01*
X121738540Y-68649560D01*
X121740478Y-68650278D01*
X121742211Y-68651105D01*
X121751623Y-68657719D01*
X121760314Y-68667839D01*
X121765940Y-68679396D01*
X121766087Y-68680053D01*
X121766578Y-68685074D01*
X121767023Y-68693979D01*
X121767422Y-68706332D01*
X121767774Y-68721696D01*
X121768078Y-68739635D01*
X121768334Y-68759713D01*
X121768541Y-68781493D01*
X121768699Y-68804538D01*
X121768806Y-68828413D01*
X121768862Y-68852681D01*
X121768866Y-68876906D01*
X121768819Y-68900650D01*
X121768718Y-68923479D01*
X121768563Y-68944955D01*
X121768354Y-68964642D01*
X121768090Y-68982104D01*
X121767770Y-68996904D01*
X121767394Y-69008606D01*
X121766961Y-69016773D01*
X121766470Y-69020969D01*
X121766164Y-69022104D01*
X121760865Y-69033557D01*
X121752444Y-69043740D01*
X121742095Y-69051175D01*
X121741107Y-69051662D01*
X121739288Y-69052415D01*
X121737059Y-69053064D01*
X121734110Y-69053617D01*
X121730130Y-69054082D01*
X121724809Y-69054465D01*
X121717837Y-69054776D01*
X121708903Y-69055021D01*
X121697698Y-69055209D01*
X121683909Y-69055347D01*
X121667229Y-69055442D01*
X121647345Y-69055503D01*
X121623947Y-69055537D01*
X121596726Y-69055552D01*
X121565371Y-69055555D01*
X121397233Y-69055555D01*
X121382621Y-69069224D01*
X121356967Y-69090836D01*
X121326888Y-69110995D01*
X121295174Y-69127318D01*
X121262158Y-69139744D01*
X121228174Y-69148211D01*
X121193553Y-69152660D01*
X121158630Y-69153029D01*
X121123737Y-69149257D01*
X121089208Y-69141283D01*
X121055376Y-69129047D01*
X121048631Y-69126044D01*
X121016360Y-69108835D01*
X120986719Y-69088188D01*
X120959925Y-69064374D01*
X120936195Y-69037660D01*
X120915746Y-69008317D01*
X120898797Y-68976613D01*
X120885564Y-68942818D01*
X120876266Y-68907202D01*
X120874937Y-68899112D01*
X120873323Y-68882975D01*
X120872444Y-68864583D01*
X120872298Y-68845264D01*
X120872599Y-68835609D01*
X120962837Y-68835609D01*
X120962843Y-68865308D01*
X120967086Y-68895254D01*
X120975642Y-68925097D01*
X120977174Y-68929189D01*
X120989298Y-68954684D01*
X121005336Y-68978552D01*
X121025498Y-69001111D01*
X121035991Y-69010926D01*
X121056957Y-69027234D01*
X121079228Y-69040106D01*
X121103861Y-69050203D01*
X121123419Y-69056136D01*
X121142851Y-69060084D01*
X121162553Y-69061791D01*
X121184444Y-69061529D01*
X121198626Y-69060414D01*
X121228254Y-69055093D01*
X121256046Y-69045768D01*
X121282126Y-69032381D01*
X121306620Y-69014873D01*
X121329652Y-68993185D01*
X121332263Y-68990356D01*
X121336550Y-68985549D01*
X121340278Y-68981401D01*
X121343781Y-68977864D01*
X121347392Y-68974887D01*
X121351444Y-68972422D01*
X121356272Y-68970419D01*
X121362209Y-68968828D01*
X121369587Y-68967601D01*
X121378741Y-68966688D01*
X121390005Y-68966039D01*
X121403711Y-68965606D01*
X121420194Y-68965339D01*
X121439786Y-68965188D01*
X121462821Y-68965104D01*
X121489633Y-68965039D01*
X121520555Y-68964942D01*
X121677777Y-68964329D01*
X121677777Y-68737892D01*
X121520555Y-68737279D01*
X121503645Y-68737221D01*
X121474942Y-68737147D01*
X121450171Y-68737078D01*
X121429001Y-68736965D01*
X121411098Y-68736759D01*
X121396127Y-68736410D01*
X121383756Y-68735868D01*
X121373652Y-68735086D01*
X121365479Y-68734012D01*
X121358906Y-68732599D01*
X121353598Y-68730796D01*
X121349223Y-68728554D01*
X121345445Y-68725824D01*
X121341933Y-68722557D01*
X121338353Y-68718702D01*
X121334370Y-68714212D01*
X121329652Y-68709036D01*
X121319302Y-68698605D01*
X121295618Y-68678834D01*
X121270414Y-68663216D01*
X121243568Y-68651692D01*
X121214953Y-68644204D01*
X121184444Y-68640692D01*
X121163947Y-68640389D01*
X121144157Y-68641954D01*
X121124768Y-68645741D01*
X121103861Y-68652019D01*
X121090983Y-68656844D01*
X121067682Y-68668268D01*
X121046206Y-68682803D01*
X121025498Y-68701111D01*
X121023635Y-68702972D01*
X121003622Y-68726225D01*
X120987459Y-68751464D01*
X120975222Y-68778339D01*
X120966989Y-68806503D01*
X120962837Y-68835609D01*
X120872599Y-68835609D01*
X120872887Y-68826345D01*
X120874209Y-68809154D01*
X120876266Y-68795019D01*
X120879300Y-68781994D01*
X120884247Y-68764781D01*
X120890158Y-68747099D01*
X120896485Y-68730570D01*
X120902680Y-68716813D01*
X120917040Y-68691376D01*
X120937743Y-68662423D01*
X120961418Y-68636345D01*
X120987732Y-68613315D01*
X121016351Y-68593508D01*
X121046941Y-68577099D01*
X121079169Y-68564261D01*
X121112700Y-68555170D01*
X121147201Y-68550000D01*
X121163947Y-68549488D01*
X121182338Y-68548926D01*
X121217777Y-68552121D01*
G37*
G36*
X123490892Y-66663884D02*
G01*
X123511581Y-66667813D01*
X123531239Y-66675034D01*
X123549403Y-66685376D01*
X123565607Y-66698671D01*
X123579386Y-66714749D01*
X123590275Y-66733439D01*
X123597810Y-66754571D01*
X123598088Y-66755673D01*
X123599127Y-66760177D01*
X123599976Y-66764867D01*
X123600656Y-66770216D01*
X123601184Y-66776698D01*
X123601579Y-66784786D01*
X123601860Y-66794952D01*
X123602047Y-66807670D01*
X123602156Y-66823412D01*
X123602209Y-66842653D01*
X123602222Y-66865866D01*
X123602226Y-66878063D01*
X123602267Y-66899456D01*
X123602362Y-66917037D01*
X123602526Y-66931228D01*
X123602774Y-66942450D01*
X123603120Y-66951125D01*
X123603579Y-66957676D01*
X123604165Y-66962524D01*
X123604894Y-66966092D01*
X123605779Y-66968801D01*
X123609182Y-66974876D01*
X123616761Y-66981986D01*
X123626436Y-66986567D01*
X123637267Y-66988595D01*
X123648314Y-66988043D01*
X123658636Y-66984885D01*
X123667295Y-66979096D01*
X123673350Y-66970651D01*
X123673733Y-66969784D01*
X123674542Y-66967664D01*
X123675233Y-66965151D01*
X123675815Y-66961907D01*
X123676297Y-66957594D01*
X123676690Y-66951876D01*
X123677002Y-66944414D01*
X123677243Y-66934870D01*
X123677422Y-66922908D01*
X123677549Y-66908190D01*
X123677634Y-66890377D01*
X123677686Y-66869133D01*
X123677714Y-66844120D01*
X123677728Y-66815000D01*
X123677777Y-66668888D01*
X123789113Y-66668888D01*
X123788310Y-66822777D01*
X123788203Y-66843944D01*
X123788057Y-66872029D01*
X123787901Y-66896262D01*
X123787702Y-66916999D01*
X123787430Y-66934594D01*
X123787052Y-66949401D01*
X123786536Y-66961776D01*
X123785852Y-66972073D01*
X123784966Y-66980647D01*
X123783848Y-66987852D01*
X123782466Y-66994045D01*
X123780787Y-66999579D01*
X123778781Y-67004808D01*
X123776416Y-67010089D01*
X123773659Y-67015775D01*
X123770479Y-67022222D01*
X123769928Y-67023333D01*
X123758688Y-67041666D01*
X123744536Y-67058334D01*
X123728375Y-67072413D01*
X123711111Y-67082978D01*
X123697128Y-67089152D01*
X123679987Y-67094625D01*
X123662277Y-67097633D01*
X123642222Y-67098576D01*
X123624239Y-67097889D01*
X123605837Y-67095101D01*
X123587965Y-67089790D01*
X123568888Y-67081552D01*
X123550031Y-67070262D01*
X123532159Y-67054808D01*
X123516974Y-67036312D01*
X123504887Y-67015281D01*
X123496308Y-66992222D01*
X123495827Y-66990365D01*
X123494983Y-66986133D01*
X123494266Y-66980812D01*
X123493660Y-66973981D01*
X123493144Y-66965223D01*
X123492701Y-66954117D01*
X123492312Y-66940244D01*
X123491960Y-66923184D01*
X123491625Y-66902519D01*
X123491289Y-66877828D01*
X123490000Y-66776769D01*
X123483888Y-66774622D01*
X123481514Y-66773962D01*
X123473984Y-66773994D01*
X123467758Y-66776931D01*
X123464205Y-66782242D01*
X123463960Y-66784745D01*
X123463684Y-66791438D01*
X123463422Y-66801810D01*
X123463179Y-66815452D01*
X123462962Y-66831952D01*
X123462774Y-66850901D01*
X123462621Y-66871887D01*
X123462509Y-66894501D01*
X123462443Y-66918333D01*
X123462222Y-67048888D01*
X123353333Y-67048888D01*
X123353333Y-66907286D01*
X123353339Y-66879428D01*
X123353363Y-66855609D01*
X123353417Y-66835463D01*
X123353510Y-66818625D01*
X123353654Y-66804729D01*
X123353859Y-66793408D01*
X123354137Y-66784296D01*
X123354498Y-66777027D01*
X123354954Y-66771236D01*
X123355514Y-66766557D01*
X123356191Y-66762623D01*
X123356994Y-66759068D01*
X123357935Y-66755526D01*
X123364536Y-66736528D01*
X123375469Y-66716118D01*
X123389536Y-66698858D01*
X123406735Y-66684751D01*
X123407134Y-66684486D01*
X123427294Y-66673548D01*
X123448284Y-66666582D01*
X123469638Y-66663417D01*
X123490892Y-66663884D01*
G37*
G36*
X123788888Y-67275555D02*
G01*
X123353333Y-67275555D01*
X123353333Y-67164444D01*
X123788888Y-67164444D01*
X123788888Y-67275555D01*
G37*
G36*
X123746593Y-67350846D02*
G01*
X123759761Y-67356475D01*
X123771306Y-67365081D01*
X123780464Y-67376284D01*
X123786468Y-67389699D01*
X123786658Y-67391132D01*
X123786967Y-67396903D01*
X123787262Y-67406615D01*
X123787540Y-67419953D01*
X123787796Y-67436601D01*
X123788027Y-67456243D01*
X123788230Y-67478565D01*
X123788401Y-67503251D01*
X123788537Y-67529984D01*
X123788634Y-67558450D01*
X123788688Y-67588333D01*
X123788888Y-67780000D01*
X123677777Y-67780000D01*
X123677777Y-67536682D01*
X123558333Y-67655905D01*
X123556898Y-67657336D01*
X123537680Y-67676464D01*
X123519253Y-67694714D01*
X123501876Y-67711833D01*
X123485811Y-67727569D01*
X123471318Y-67741668D01*
X123458657Y-67753880D01*
X123448089Y-67763950D01*
X123439874Y-67771628D01*
X123434273Y-67776660D01*
X123431547Y-67778794D01*
X123431040Y-67779043D01*
X123417629Y-67783211D01*
X123403556Y-67783540D01*
X123389687Y-67780337D01*
X123376889Y-67773912D01*
X123366028Y-67764572D01*
X123357973Y-67752625D01*
X123357918Y-67752512D01*
X123357118Y-67750781D01*
X123356417Y-67748920D01*
X123355808Y-67746642D01*
X123355285Y-67743659D01*
X123354842Y-67739684D01*
X123354471Y-67734429D01*
X123354167Y-67727606D01*
X123353922Y-67718928D01*
X123353731Y-67708107D01*
X123353586Y-67694855D01*
X123353481Y-67678884D01*
X123353410Y-67659908D01*
X123353367Y-67637637D01*
X123353344Y-67611785D01*
X123353334Y-67582064D01*
X123353333Y-67548187D01*
X123353333Y-67353333D01*
X123462222Y-67353333D01*
X123462222Y-67473333D01*
X123462230Y-67485659D01*
X123462290Y-67507589D01*
X123462402Y-67527908D01*
X123462561Y-67546212D01*
X123462761Y-67562096D01*
X123462996Y-67575155D01*
X123463262Y-67584984D01*
X123463552Y-67591178D01*
X123463861Y-67593333D01*
X123463902Y-67593318D01*
X123465991Y-67591492D01*
X123470950Y-67586786D01*
X123478532Y-67579442D01*
X123488493Y-67569703D01*
X123500585Y-67557811D01*
X123514563Y-67544008D01*
X123530181Y-67528537D01*
X123547193Y-67511640D01*
X123565354Y-67493559D01*
X123584416Y-67474537D01*
X123586889Y-67472067D01*
X123612140Y-67446906D01*
X123634378Y-67424867D01*
X123653674Y-67405881D01*
X123670098Y-67389882D01*
X123683720Y-67376801D01*
X123694610Y-67366572D01*
X123702839Y-67359126D01*
X123708477Y-67354396D01*
X123711595Y-67352314D01*
X123718454Y-67350051D01*
X123732569Y-67348577D01*
X123746593Y-67350846D01*
G37*
G36*
X123628029Y-67842672D02*
G01*
X123643744Y-67843017D01*
X123656806Y-67843630D01*
X123667676Y-67844549D01*
X123676816Y-67845818D01*
X123684687Y-67847474D01*
X123691752Y-67849560D01*
X123698473Y-67852115D01*
X123705312Y-67855180D01*
X123720510Y-67863446D01*
X123740318Y-67878284D01*
X123756952Y-67896152D01*
X123770293Y-67916885D01*
X123780220Y-67940319D01*
X123786615Y-67966290D01*
X123786884Y-67969037D01*
X123787244Y-67976300D01*
X123787582Y-67987136D01*
X123787889Y-68001039D01*
X123788156Y-68017504D01*
X123788374Y-68036026D01*
X123788534Y-68056101D01*
X123788627Y-68077222D01*
X123788888Y-68177777D01*
X123682222Y-68177777D01*
X123682222Y-68078248D01*
X123682221Y-68065857D01*
X123682209Y-68044313D01*
X123682166Y-68026579D01*
X123682074Y-68012234D01*
X123681912Y-68000855D01*
X123681661Y-67992021D01*
X123681303Y-67985310D01*
X123680818Y-67980299D01*
X123680187Y-67976566D01*
X123679390Y-67973691D01*
X123678408Y-67971250D01*
X123677222Y-67968822D01*
X123675677Y-67966104D01*
X123670317Y-67959049D01*
X123664564Y-67953834D01*
X123656906Y-67948744D01*
X123569009Y-67949372D01*
X123481111Y-67950000D01*
X123473629Y-67955335D01*
X123472245Y-67956419D01*
X123466449Y-67962647D01*
X123462012Y-67969780D01*
X123461185Y-67971768D01*
X123460349Y-67974462D01*
X123459665Y-67977890D01*
X123459119Y-67982464D01*
X123458694Y-67988595D01*
X123458374Y-67996697D01*
X123458146Y-68007182D01*
X123457992Y-68020462D01*
X123457898Y-68036949D01*
X123457848Y-68057056D01*
X123457826Y-68081195D01*
X123457819Y-68098103D01*
X123457824Y-68119262D01*
X123457864Y-68136676D01*
X123457955Y-68150759D01*
X123458118Y-68161927D01*
X123458370Y-68170593D01*
X123458729Y-68177173D01*
X123459214Y-68182081D01*
X123459843Y-68185732D01*
X123460634Y-68188540D01*
X123461606Y-68190920D01*
X123462777Y-68193287D01*
X123464818Y-68197053D01*
X123470300Y-68204564D01*
X123476870Y-68209207D01*
X123485599Y-68211565D01*
X123497558Y-68212222D01*
X123499751Y-68212217D01*
X123508147Y-68211962D01*
X123513874Y-68211055D01*
X123518398Y-68209129D01*
X123523186Y-68205818D01*
X123524291Y-68204975D01*
X123527417Y-68202488D01*
X123530018Y-68199964D01*
X123532143Y-68197001D01*
X123533839Y-68193199D01*
X123535156Y-68188158D01*
X123536141Y-68181477D01*
X123536841Y-68172756D01*
X123537307Y-68161593D01*
X123537585Y-68147588D01*
X123537724Y-68130340D01*
X123537772Y-68109450D01*
X123537777Y-68084515D01*
X123537777Y-67984444D01*
X123644444Y-67984444D01*
X123644444Y-68082061D01*
X123644440Y-68091380D01*
X123644368Y-68116988D01*
X123644185Y-68138729D01*
X123643866Y-68157040D01*
X123643381Y-68172355D01*
X123642705Y-68185110D01*
X123641811Y-68195739D01*
X123640670Y-68204678D01*
X123639257Y-68212362D01*
X123637544Y-68219226D01*
X123635504Y-68225705D01*
X123633125Y-68232026D01*
X123622489Y-68252459D01*
X123608265Y-68271007D01*
X123590987Y-68287148D01*
X123571188Y-68300360D01*
X123549399Y-68310122D01*
X123532144Y-68315140D01*
X123506829Y-68319013D01*
X123482010Y-68318753D01*
X123458069Y-68314440D01*
X123435390Y-68306155D01*
X123414357Y-68293977D01*
X123395353Y-68277987D01*
X123389044Y-68271317D01*
X123375507Y-68253476D01*
X123365249Y-68233710D01*
X123357720Y-68211046D01*
X123357240Y-68209148D01*
X123356352Y-68205169D01*
X123355612Y-68200848D01*
X123355007Y-68195775D01*
X123354523Y-68189540D01*
X123354147Y-68181732D01*
X123353865Y-68171942D01*
X123353664Y-68159759D01*
X123353531Y-68144772D01*
X123353452Y-68126571D01*
X123353414Y-68104747D01*
X123353404Y-68078888D01*
X123353404Y-68077201D01*
X123353415Y-68049980D01*
X123353475Y-68026771D01*
X123353622Y-68007163D01*
X123353895Y-67990748D01*
X123354331Y-67977116D01*
X123354969Y-67965858D01*
X123355846Y-67956564D01*
X123357001Y-67948825D01*
X123358472Y-67942231D01*
X123360298Y-67936372D01*
X123362515Y-67930840D01*
X123365163Y-67925225D01*
X123368279Y-67919118D01*
X123374923Y-67908110D01*
X123386468Y-67893379D01*
X123400050Y-67879616D01*
X123414561Y-67867917D01*
X123428888Y-67859375D01*
X123434236Y-67856842D01*
X123441347Y-67853601D01*
X123447890Y-67850937D01*
X123454367Y-67848789D01*
X123461278Y-67847096D01*
X123469125Y-67845796D01*
X123478409Y-67844827D01*
X123489632Y-67844128D01*
X123503294Y-67843638D01*
X123519896Y-67843295D01*
X123539941Y-67843037D01*
X123563928Y-67842803D01*
X123586788Y-67842623D01*
X123609197Y-67842554D01*
X123628029Y-67842672D01*
G37*
G36*
X123586395Y-68375582D02*
G01*
X123605798Y-68375633D01*
X123621638Y-68375746D01*
X123634420Y-68375941D01*
X123644651Y-68376239D01*
X123652835Y-68376663D01*
X123659478Y-68377233D01*
X123665085Y-68377970D01*
X123670163Y-68378896D01*
X123675215Y-68380033D01*
X123675969Y-68380216D01*
X123700439Y-68388223D01*
X123722521Y-68399580D01*
X123741862Y-68414022D01*
X123758106Y-68431287D01*
X123770899Y-68451111D01*
X123772738Y-68454706D01*
X123779194Y-68469125D01*
X123783604Y-68483083D01*
X123786735Y-68498888D01*
X123786793Y-68499321D01*
X123787120Y-68504399D01*
X123787404Y-68513367D01*
X123787641Y-68525749D01*
X123787826Y-68541070D01*
X123787954Y-68558853D01*
X123788022Y-68578623D01*
X123788023Y-68599905D01*
X123787954Y-68622222D01*
X123787927Y-68628121D01*
X123787803Y-68653631D01*
X123787655Y-68675228D01*
X123787434Y-68693351D01*
X123787093Y-68708437D01*
X123786582Y-68720927D01*
X123785855Y-68731258D01*
X123784863Y-68739870D01*
X123783557Y-68747200D01*
X123781890Y-68753689D01*
X123779813Y-68759775D01*
X123777279Y-68765896D01*
X123774239Y-68772491D01*
X123770644Y-68780000D01*
X123769427Y-68782462D01*
X123758201Y-68800504D01*
X123744021Y-68816942D01*
X123727818Y-68830829D01*
X123710520Y-68841220D01*
X123710132Y-68841404D01*
X123705395Y-68843708D01*
X123701211Y-68845766D01*
X123697316Y-68847592D01*
X123693448Y-68849200D01*
X123689343Y-68850606D01*
X123684739Y-68851823D01*
X123679372Y-68852867D01*
X123672980Y-68853751D01*
X123665299Y-68854490D01*
X123656067Y-68855099D01*
X123645020Y-68855592D01*
X123631896Y-68855984D01*
X123616431Y-68856289D01*
X123598363Y-68856521D01*
X123577429Y-68856696D01*
X123553365Y-68856828D01*
X123525908Y-68856930D01*
X123494797Y-68857019D01*
X123459766Y-68857107D01*
X123420555Y-68857210D01*
X123171111Y-68857906D01*
X123171111Y-68746666D01*
X123411666Y-68746663D01*
X123441135Y-68746660D01*
X123475921Y-68746650D01*
X123506711Y-68746626D01*
X123533756Y-68746587D01*
X123557310Y-68746527D01*
X123577626Y-68746442D01*
X123594958Y-68746330D01*
X123609559Y-68746185D01*
X123621682Y-68746004D01*
X123631579Y-68745782D01*
X123639506Y-68745517D01*
X123645713Y-68745203D01*
X123650456Y-68744837D01*
X123653987Y-68744416D01*
X123656560Y-68743934D01*
X123658427Y-68743388D01*
X123659842Y-68742774D01*
X123660270Y-68742550D01*
X123666798Y-68738000D01*
X123672064Y-68732614D01*
X123673005Y-68731250D01*
X123673897Y-68729531D01*
X123674631Y-68727239D01*
X123675223Y-68723988D01*
X123675687Y-68719389D01*
X123676039Y-68713057D01*
X123676295Y-68704603D01*
X123676470Y-68693640D01*
X123676579Y-68679782D01*
X123676638Y-68662641D01*
X123676662Y-68641830D01*
X123676666Y-68616961D01*
X123676666Y-68614555D01*
X123676669Y-68589207D01*
X123676645Y-68567890D01*
X123676548Y-68550226D01*
X123676333Y-68535835D01*
X123675953Y-68524338D01*
X123675364Y-68515356D01*
X123674520Y-68508508D01*
X123673375Y-68503416D01*
X123671883Y-68499701D01*
X123670000Y-68496982D01*
X123667680Y-68494881D01*
X123664877Y-68493017D01*
X123661545Y-68491013D01*
X123661455Y-68490958D01*
X123659419Y-68489857D01*
X123657009Y-68488963D01*
X123653773Y-68488253D01*
X123649259Y-68487708D01*
X123643014Y-68487306D01*
X123634586Y-68487025D01*
X123623523Y-68486843D01*
X123609373Y-68486740D01*
X123591682Y-68486693D01*
X123570000Y-68486683D01*
X123568758Y-68486683D01*
X123547298Y-68486695D01*
X123529805Y-68486743D01*
X123515829Y-68486850D01*
X123504916Y-68487036D01*
X123496614Y-68487323D01*
X123490471Y-68487732D01*
X123486035Y-68488285D01*
X123482853Y-68489003D01*
X123480472Y-68489908D01*
X123478441Y-68491021D01*
X123476909Y-68491954D01*
X123473766Y-68493990D01*
X123471149Y-68496165D01*
X123469007Y-68498870D01*
X123467289Y-68502498D01*
X123465944Y-68507438D01*
X123464921Y-68514083D01*
X123464168Y-68522824D01*
X123463635Y-68534052D01*
X123463270Y-68548159D01*
X123463022Y-68565536D01*
X123462840Y-68586575D01*
X123462673Y-68611666D01*
X123462013Y-68713333D01*
X123353333Y-68713333D01*
X123353333Y-68608133D01*
X123353342Y-68584449D01*
X123353383Y-68563702D01*
X123353470Y-68546537D01*
X123353621Y-68532513D01*
X123353849Y-68521192D01*
X123354172Y-68512132D01*
X123354606Y-68504894D01*
X123355166Y-68499037D01*
X123355868Y-68494122D01*
X123356728Y-68489708D01*
X123357761Y-68485355D01*
X123361873Y-68471649D01*
X123371994Y-68448848D01*
X123385372Y-68428565D01*
X123401682Y-68411124D01*
X123420598Y-68396848D01*
X123441791Y-68386061D01*
X123464937Y-68379087D01*
X123466822Y-68378718D01*
X123472417Y-68377845D01*
X123479122Y-68377142D01*
X123487415Y-68376591D01*
X123497771Y-68376177D01*
X123510666Y-68375884D01*
X123526577Y-68375696D01*
X123545980Y-68375597D01*
X123569350Y-68375571D01*
X123586395Y-68375582D01*
G37*
G36*
X123594823Y-69129209D02*
G01*
X123614985Y-69134184D01*
X123635476Y-69142367D01*
X123654351Y-69152832D01*
X123675093Y-69168752D01*
X123693182Y-69187792D01*
X123708244Y-69209477D01*
X123719901Y-69233334D01*
X123727779Y-69258888D01*
X123728247Y-69261233D01*
X123729558Y-69270757D01*
X123730508Y-69282115D01*
X123730918Y-69293333D01*
X123730794Y-69301225D01*
X123727622Y-69327723D01*
X123720397Y-69352987D01*
X123709378Y-69376612D01*
X123694821Y-69398199D01*
X123676985Y-69417343D01*
X123656129Y-69433643D01*
X123632510Y-69446697D01*
X123624734Y-69449995D01*
X123599630Y-69457715D01*
X123574409Y-69461304D01*
X123549442Y-69460971D01*
X123525103Y-69456923D01*
X123501764Y-69449368D01*
X123479797Y-69438514D01*
X123459574Y-69424568D01*
X123441469Y-69407739D01*
X123425853Y-69388234D01*
X123413100Y-69366260D01*
X123403581Y-69342026D01*
X123397670Y-69315739D01*
X123396354Y-69294756D01*
X123487492Y-69294756D01*
X123489374Y-69310963D01*
X123494599Y-69326425D01*
X123503102Y-69340528D01*
X123514818Y-69352658D01*
X123529683Y-69362201D01*
X123536074Y-69365071D01*
X123552599Y-69369796D01*
X123569161Y-69370352D01*
X123586679Y-69366815D01*
X123587237Y-69366644D01*
X123595823Y-69363673D01*
X123602532Y-69360263D01*
X123608947Y-69355430D01*
X123616653Y-69348191D01*
X123625301Y-69338885D01*
X123631192Y-69330476D01*
X123635284Y-69321583D01*
X123637628Y-69313466D01*
X123639658Y-69298549D01*
X123639418Y-69283304D01*
X123636848Y-69269769D01*
X123634755Y-69264135D01*
X123626681Y-69250114D01*
X123615535Y-69237625D01*
X123602293Y-69227638D01*
X123587929Y-69221122D01*
X123578007Y-69218865D01*
X123561267Y-69217972D01*
X123544574Y-69220262D01*
X123529122Y-69225529D01*
X123516106Y-69233564D01*
X123514690Y-69234753D01*
X123502552Y-69247802D01*
X123494017Y-69262561D01*
X123489018Y-69278417D01*
X123487492Y-69294756D01*
X123396354Y-69294756D01*
X123396064Y-69290140D01*
X123398624Y-69264635D01*
X123405144Y-69239928D01*
X123415380Y-69216477D01*
X123429090Y-69194739D01*
X123446030Y-69175173D01*
X123465958Y-69158236D01*
X123488630Y-69144385D01*
X123494322Y-69141584D01*
X123508886Y-69135442D01*
X123523091Y-69131282D01*
X123538515Y-69128707D01*
X123556735Y-69127324D01*
X123561267Y-69127279D01*
X123573499Y-69127158D01*
X123594823Y-69129209D01*
G37*
G36*
X123273333Y-67275555D02*
G01*
X123171111Y-67275555D01*
X123171111Y-67164444D01*
X123273333Y-67164444D01*
X123273333Y-67275555D01*
G37*
G36*
X122999961Y-67483888D02*
G01*
X122999954Y-67496577D01*
X122999906Y-67521069D01*
X122999775Y-67541774D01*
X122999511Y-67559142D01*
X122999067Y-67573623D01*
X122998393Y-67585668D01*
X122997441Y-67595727D01*
X122996162Y-67604249D01*
X122994508Y-67611686D01*
X122992431Y-67618486D01*
X122989881Y-67625100D01*
X122986811Y-67631978D01*
X122983172Y-67639571D01*
X122979404Y-67647016D01*
X122973159Y-67657566D01*
X122966133Y-67666758D01*
X122957023Y-67676428D01*
X122949818Y-67683202D01*
X122934909Y-67694655D01*
X122918399Y-67703789D01*
X122898888Y-67711449D01*
X122883333Y-67716666D01*
X122631666Y-67717285D01*
X122380000Y-67717905D01*
X122380000Y-67606666D01*
X122622441Y-67606666D01*
X122645862Y-67606668D01*
X122682326Y-67606674D01*
X122714736Y-67606672D01*
X122743341Y-67606648D01*
X122768386Y-67606590D01*
X122790119Y-67606483D01*
X122808785Y-67606314D01*
X122824633Y-67606071D01*
X122837908Y-67605738D01*
X122848857Y-67605304D01*
X122857726Y-67604754D01*
X122864764Y-67604076D01*
X122870215Y-67603255D01*
X122874328Y-67602279D01*
X122877348Y-67601133D01*
X122879523Y-67599805D01*
X122881098Y-67598281D01*
X122882321Y-67596548D01*
X122883439Y-67594592D01*
X122884698Y-67592400D01*
X122884728Y-67592350D01*
X122885702Y-67590524D01*
X122886512Y-67588278D01*
X122887171Y-67585210D01*
X122887695Y-67580918D01*
X122888100Y-67574998D01*
X122888400Y-67567050D01*
X122888612Y-67556669D01*
X122888751Y-67543454D01*
X122888831Y-67527002D01*
X122888869Y-67506911D01*
X122888880Y-67482777D01*
X122888888Y-67380000D01*
X123000000Y-67380000D01*
X122999961Y-67483888D01*
G37*
G36*
X122448333Y-66676055D02*
G01*
X122698888Y-66676666D01*
X122716645Y-66682941D01*
X122725044Y-66686110D01*
X122743162Y-66694841D01*
X122758885Y-66705655D01*
X122773613Y-66719450D01*
X122782554Y-66729868D01*
X122796386Y-66751224D01*
X122806657Y-66775225D01*
X122813353Y-66801846D01*
X122813431Y-66802390D01*
X122813771Y-66807504D01*
X122814072Y-66816493D01*
X122814327Y-66828889D01*
X122814532Y-66844223D01*
X122814681Y-66862026D01*
X122814770Y-66881828D01*
X122814791Y-66903160D01*
X122814741Y-66925555D01*
X122814307Y-67038888D01*
X122808321Y-67056666D01*
X122803230Y-67069899D01*
X122791298Y-67092071D01*
X122776171Y-67111261D01*
X122757989Y-67127307D01*
X122736890Y-67140045D01*
X122729342Y-67143706D01*
X122722353Y-67146897D01*
X122715762Y-67149516D01*
X122709084Y-67151619D01*
X122701836Y-67153264D01*
X122693533Y-67154505D01*
X122683690Y-67155401D01*
X122671825Y-67156007D01*
X122657451Y-67156380D01*
X122640086Y-67156577D01*
X122619245Y-67156653D01*
X122594444Y-67156666D01*
X122590690Y-67156666D01*
X122568183Y-67156658D01*
X122549589Y-67156621D01*
X122534448Y-67156534D01*
X122522297Y-67156375D01*
X122512676Y-67156124D01*
X122505122Y-67155758D01*
X122499175Y-67155256D01*
X122494373Y-67154597D01*
X122490254Y-67153760D01*
X122486358Y-67152723D01*
X122482222Y-67151464D01*
X122472086Y-67148024D01*
X122453950Y-67139935D01*
X122438136Y-67129754D01*
X122423280Y-67116678D01*
X122419244Y-67112472D01*
X122404329Y-67093126D01*
X122392546Y-67071187D01*
X122384374Y-67047503D01*
X122383432Y-67043607D01*
X122382568Y-67039278D01*
X122381862Y-67034448D01*
X122381297Y-67028679D01*
X122380859Y-67021534D01*
X122380531Y-67012572D01*
X122380298Y-67001358D01*
X122380144Y-66987451D01*
X122380053Y-66970415D01*
X122380010Y-66949810D01*
X122380000Y-66925200D01*
X122380000Y-66820000D01*
X122488678Y-66820000D01*
X122489339Y-66920555D01*
X122489352Y-66922594D01*
X122489516Y-66946078D01*
X122489681Y-66965561D01*
X122489867Y-66981454D01*
X122490094Y-66994167D01*
X122490381Y-67004112D01*
X122490746Y-67011700D01*
X122491211Y-67017341D01*
X122491794Y-67021446D01*
X122492514Y-67024426D01*
X122493391Y-67026693D01*
X122494444Y-67028656D01*
X122494770Y-67029196D01*
X122499675Y-67035642D01*
X122505159Y-67040878D01*
X122505492Y-67041124D01*
X122507277Y-67042292D01*
X122509413Y-67043240D01*
X122512357Y-67043995D01*
X122516561Y-67044586D01*
X122522481Y-67045039D01*
X122530573Y-67045381D01*
X122541289Y-67045640D01*
X122555086Y-67045843D01*
X122572418Y-67046017D01*
X122593739Y-67046190D01*
X122601125Y-67046246D01*
X122621098Y-67046386D01*
X122637255Y-67046458D01*
X122650071Y-67046439D01*
X122660020Y-67046309D01*
X122667576Y-67046046D01*
X122673215Y-67045628D01*
X122677409Y-67045033D01*
X122680633Y-67044240D01*
X122683363Y-67043226D01*
X122686072Y-67041971D01*
X122689924Y-67039914D01*
X122696036Y-67034840D01*
X122700334Y-67027539D01*
X122700507Y-67027144D01*
X122701465Y-67024693D01*
X122702254Y-67021897D01*
X122702889Y-67018346D01*
X122703382Y-67013631D01*
X122703746Y-67007342D01*
X122703994Y-66999069D01*
X122704139Y-66988401D01*
X122704195Y-66974928D01*
X122704173Y-66958241D01*
X122704088Y-66937930D01*
X122703952Y-66913585D01*
X122703864Y-66898996D01*
X122703719Y-66877143D01*
X122703565Y-66859107D01*
X122703384Y-66844490D01*
X122703157Y-66832894D01*
X122702865Y-66823922D01*
X122702489Y-66817176D01*
X122702009Y-66812260D01*
X122701408Y-66808776D01*
X122700666Y-66806325D01*
X122699765Y-66804512D01*
X122698684Y-66802938D01*
X122698294Y-66802426D01*
X122692926Y-66796744D01*
X122686689Y-66791666D01*
X122679342Y-66786666D01*
X122197777Y-66786666D01*
X122197777Y-66675445D01*
X122448333Y-66676055D01*
G37*
G36*
X122560630Y-67235562D02*
G01*
X122588895Y-67235599D01*
X122613359Y-67235692D01*
X122634363Y-67235864D01*
X122652247Y-67236139D01*
X122667353Y-67236541D01*
X122680019Y-67237095D01*
X122690588Y-67237825D01*
X122699400Y-67238754D01*
X122706795Y-67239906D01*
X122713114Y-67241307D01*
X122718698Y-67242979D01*
X122723887Y-67244947D01*
X122729022Y-67247236D01*
X122734444Y-67249868D01*
X122748235Y-67257676D01*
X122767547Y-67272661D01*
X122783858Y-67290784D01*
X122797018Y-67311831D01*
X122806876Y-67335590D01*
X122813281Y-67361846D01*
X122813551Y-67364592D01*
X122813910Y-67371855D01*
X122814248Y-67382691D01*
X122814556Y-67396594D01*
X122814823Y-67413060D01*
X122815041Y-67431582D01*
X122815201Y-67451656D01*
X122815294Y-67472777D01*
X122815555Y-67573333D01*
X122704612Y-67573333D01*
X122703972Y-67470160D01*
X122703899Y-67458489D01*
X122703748Y-67436304D01*
X122703590Y-67417978D01*
X122703407Y-67403112D01*
X122703179Y-67391305D01*
X122702888Y-67382157D01*
X122702514Y-67375269D01*
X122702038Y-67370240D01*
X122701441Y-67366670D01*
X122700703Y-67364159D01*
X122699806Y-67362308D01*
X122698730Y-67360715D01*
X122698282Y-67360101D01*
X122696396Y-67357499D01*
X122694564Y-67355257D01*
X122692464Y-67353348D01*
X122689775Y-67351744D01*
X122686176Y-67350420D01*
X122681346Y-67349348D01*
X122674963Y-67348502D01*
X122666705Y-67347856D01*
X122656253Y-67347382D01*
X122643284Y-67347054D01*
X122627477Y-67346845D01*
X122608511Y-67346729D01*
X122586064Y-67346679D01*
X122559816Y-67346668D01*
X122529444Y-67346670D01*
X122380000Y-67346666D01*
X122380000Y-67235555D01*
X122532026Y-67235555D01*
X122560630Y-67235562D01*
G37*
G36*
X122488888Y-67911111D02*
G01*
X122815555Y-67911111D01*
X122815555Y-68024444D01*
X122488888Y-68024444D01*
X122488888Y-68204444D01*
X122380000Y-68204444D01*
X122380000Y-68024444D01*
X122240000Y-68024444D01*
X122240000Y-67911111D01*
X122380000Y-67911111D01*
X122380000Y-67777777D01*
X122488888Y-67777777D01*
X122488888Y-67911111D01*
G37*
G36*
X122660782Y-68253739D02*
G01*
X122672188Y-68253979D01*
X122681378Y-68254361D01*
X122688822Y-68254896D01*
X122694990Y-68255595D01*
X122700352Y-68256468D01*
X122707880Y-68258100D01*
X122730852Y-68265911D01*
X122751669Y-68277387D01*
X122770044Y-68292216D01*
X122785688Y-68310088D01*
X122798314Y-68330689D01*
X122807634Y-68353709D01*
X122813360Y-68378836D01*
X122813596Y-68381442D01*
X122813938Y-68388688D01*
X122814261Y-68399518D01*
X122814555Y-68413418D01*
X122814813Y-68429875D01*
X122815026Y-68448374D01*
X122815184Y-68468401D01*
X122815278Y-68489444D01*
X122815555Y-68588888D01*
X122708888Y-68588888D01*
X122708888Y-68476968D01*
X122708876Y-68455424D01*
X122708833Y-68437690D01*
X122708740Y-68423345D01*
X122708578Y-68411966D01*
X122708328Y-68403132D01*
X122707970Y-68396421D01*
X122707485Y-68391410D01*
X122706853Y-68387678D01*
X122706056Y-68384802D01*
X122705074Y-68382361D01*
X122703888Y-68379933D01*
X122702344Y-68377215D01*
X122696984Y-68370160D01*
X122691231Y-68364945D01*
X122683573Y-68359856D01*
X122595675Y-68360483D01*
X122507777Y-68361111D01*
X122500296Y-68366446D01*
X122498912Y-68367530D01*
X122493116Y-68373758D01*
X122488678Y-68380891D01*
X122487852Y-68382879D01*
X122487016Y-68385573D01*
X122486332Y-68389001D01*
X122485785Y-68393575D01*
X122485360Y-68399706D01*
X122485041Y-68407808D01*
X122484812Y-68418293D01*
X122484659Y-68431573D01*
X122484565Y-68448060D01*
X122484514Y-68468167D01*
X122484493Y-68492306D01*
X122484486Y-68509214D01*
X122484491Y-68530373D01*
X122484530Y-68547787D01*
X122484622Y-68561870D01*
X122484785Y-68573038D01*
X122485036Y-68581704D01*
X122485396Y-68588284D01*
X122485880Y-68593192D01*
X122486509Y-68596843D01*
X122487301Y-68599651D01*
X122488273Y-68602032D01*
X122489444Y-68604399D01*
X122491484Y-68608164D01*
X122496967Y-68615675D01*
X122503537Y-68620318D01*
X122512266Y-68622676D01*
X122524224Y-68623333D01*
X122526418Y-68623328D01*
X122534814Y-68623073D01*
X122540541Y-68622166D01*
X122545064Y-68620240D01*
X122549853Y-68616929D01*
X122550958Y-68616086D01*
X122554083Y-68613599D01*
X122556685Y-68611075D01*
X122558810Y-68608112D01*
X122560506Y-68604310D01*
X122561823Y-68599270D01*
X122562807Y-68592589D01*
X122563508Y-68583867D01*
X122563974Y-68572704D01*
X122564252Y-68558699D01*
X122564391Y-68541452D01*
X122564439Y-68520561D01*
X122564444Y-68495626D01*
X122564444Y-68395555D01*
X122671111Y-68395555D01*
X122671111Y-68493172D01*
X122671106Y-68502491D01*
X122671034Y-68528099D01*
X122670852Y-68549840D01*
X122670532Y-68568151D01*
X122670048Y-68583466D01*
X122669372Y-68596221D01*
X122668477Y-68606850D01*
X122667337Y-68615789D01*
X122665924Y-68623473D01*
X122664210Y-68630337D01*
X122662170Y-68636816D01*
X122659792Y-68643137D01*
X122649155Y-68663570D01*
X122634932Y-68682118D01*
X122617654Y-68698259D01*
X122597854Y-68711471D01*
X122576065Y-68721233D01*
X122558810Y-68726251D01*
X122533496Y-68730124D01*
X122508676Y-68729864D01*
X122484735Y-68725551D01*
X122462057Y-68717266D01*
X122441024Y-68705088D01*
X122422020Y-68689098D01*
X122415710Y-68682428D01*
X122402174Y-68664587D01*
X122391915Y-68644821D01*
X122384387Y-68622157D01*
X122383907Y-68620260D01*
X122383019Y-68616280D01*
X122382279Y-68611959D01*
X122381674Y-68606886D01*
X122381190Y-68600651D01*
X122380813Y-68592844D01*
X122380532Y-68583053D01*
X122380331Y-68570870D01*
X122380198Y-68555883D01*
X122380119Y-68537682D01*
X122380081Y-68515858D01*
X122380070Y-68490000D01*
X122380070Y-68488313D01*
X122380081Y-68461091D01*
X122380142Y-68437882D01*
X122380289Y-68418274D01*
X122380562Y-68401859D01*
X122380998Y-68388227D01*
X122381635Y-68376969D01*
X122382513Y-68367675D01*
X122383668Y-68359936D01*
X122385139Y-68353342D01*
X122386964Y-68347484D01*
X122389182Y-68341952D01*
X122391830Y-68336336D01*
X122394946Y-68330229D01*
X122401589Y-68319221D01*
X122413134Y-68304490D01*
X122426717Y-68290728D01*
X122441227Y-68279028D01*
X122455555Y-68270486D01*
X122460902Y-68267953D01*
X122468013Y-68264712D01*
X122474557Y-68262048D01*
X122481033Y-68259900D01*
X122487945Y-68258207D01*
X122495792Y-68256907D01*
X122505076Y-68255938D01*
X122516298Y-68255239D01*
X122529960Y-68254749D01*
X122546563Y-68254406D01*
X122566607Y-68254148D01*
X122590595Y-68253914D01*
X122608562Y-68253762D01*
X122629439Y-68253641D01*
X122646689Y-68253630D01*
X122660782Y-68253739D01*
G37*
D13*
%TO.C,J3*%
X110000000Y-128190000D02*
X110000000Y-135810000D01*
X120160000Y-134540000D02*
X110000000Y-134540000D01*
X120160000Y-128190000D02*
X110000000Y-128190000D01*
X110000000Y-135810000D02*
X120160000Y-135810000D01*
X120160000Y-135810000D02*
X120160000Y-128190000D01*
%TO.C,J2*%
X99840000Y-128190000D02*
X99840000Y-135810000D01*
X110000000Y-134540000D02*
X99840000Y-134540000D01*
X110000000Y-128190000D02*
X99840000Y-128190000D01*
X99840000Y-135810000D02*
X110000000Y-135810000D01*
X110000000Y-135810000D02*
X110000000Y-128190000D01*
%TO.C,J1*%
X115080000Y-71810000D02*
X115080000Y-64190000D01*
X104920000Y-65460000D02*
X115080000Y-65460000D01*
X104920000Y-71810000D02*
X115080000Y-71810000D01*
X115080000Y-64190000D02*
X104920000Y-64190000D01*
X104920000Y-64190000D02*
X104920000Y-71810000D01*
%TO.C,C4*%
X111490000Y-100390580D02*
X111490000Y-100109420D01*
X112510000Y-100390580D02*
X112510000Y-100109420D01*
%TO.C,R6*%
X103987258Y-97727500D02*
X103512742Y-97727500D01*
X103987258Y-98772500D02*
X103512742Y-98772500D01*
%TO.C,D4*%
X95515000Y-130977500D02*
X95515000Y-133262500D01*
X96985000Y-130977500D02*
X95515000Y-130977500D01*
X96985000Y-133262500D02*
X96985000Y-130977500D01*
%TO.C,R9*%
X103987258Y-99227500D02*
X103512742Y-99227500D01*
X103987258Y-100272500D02*
X103512742Y-100272500D01*
%TO.C,C5*%
X107359420Y-96760000D02*
X107640580Y-96760000D01*
X107359420Y-95740000D02*
X107640580Y-95740000D01*
%TO.C,D3*%
X97515000Y-131015000D02*
X97515000Y-133300000D01*
X98985000Y-131015000D02*
X97515000Y-131015000D01*
X98985000Y-133300000D02*
X98985000Y-131015000D01*
%TO.C,Q3*%
X102940000Y-107350000D02*
X102940000Y-108000000D01*
X102940000Y-108650000D02*
X102940000Y-108000000D01*
X106060000Y-107350000D02*
X106060000Y-108000000D01*
X106060000Y-108650000D02*
X106060000Y-108000000D01*
X106340000Y-109402500D02*
X106010000Y-109162500D01*
X106340000Y-108922500D01*
X106340000Y-109402500D01*
G36*
X106340000Y-109402500D02*
G01*
X106010000Y-109162500D01*
X106340000Y-108922500D01*
X106340000Y-109402500D01*
G37*
%TO.C,R10*%
X103512742Y-100727500D02*
X103987258Y-100727500D01*
X103512742Y-101772500D02*
X103987258Y-101772500D01*
%TO.C,C2*%
X103609420Y-96240000D02*
X103890580Y-96240000D01*
X103609420Y-97260000D02*
X103890580Y-97260000D01*
%TO.C,D2*%
X112162500Y-95490000D02*
X111922500Y-95160000D01*
X112402500Y-95160000D01*
X112162500Y-95490000D01*
G36*
X112162500Y-95490000D02*
G01*
X111922500Y-95160000D01*
X112402500Y-95160000D01*
X112162500Y-95490000D01*
G37*
X111650000Y-98560000D02*
X111000000Y-98560000D01*
X111650000Y-95440000D02*
X111000000Y-95440000D01*
X110350000Y-98560000D02*
X111000000Y-98560000D01*
X110350000Y-95440000D02*
X111000000Y-95440000D01*
%TD*%
M02*
